<svg width="36" height="36" viewBox="0 0 36 36" fill="none" xmlns="http://www.w3.org/2000/svg">
<g clip-path="url(#clip0_675_1342)">
<path d="M28.2397 20.8448V12.8801C28.2436 11.0723 27.5832 9.32602 26.3841 7.97308C25.185 6.62014 23.5307 5.7548 21.7355 5.54149L23.6317 1.75663C23.6751 1.66969 23.6955 1.57307 23.691 1.47599C23.6865 1.37892 23.6572 1.28462 23.6058 1.20209C23.5545 1.11956 23.4829 1.05156 23.3979 1.00456C23.3128 0.957554 23.2171 0.933126 23.1199 0.933601H12.88C12.7831 0.933641 12.6878 0.958444 12.6031 1.00566C12.5185 1.05287 12.4473 1.12093 12.3963 1.20337C12.3453 1.28582 12.3163 1.37992 12.3119 1.47675C12.3075 1.57357 12.3279 1.66992 12.3712 1.75663L14.2649 5.54149C12.472 5.76042 10.8209 6.62737 9.62274 7.97905C8.42457 9.33073 7.76198 11.0739 7.75977 12.8801V23.1199H8.89759V12.8801C8.89971 11.2212 9.55967 9.63081 10.7327 8.45777C11.9058 7.28473 13.4962 6.62478 15.1551 6.62266H20.8423C21.6644 6.62147 22.4787 6.78252 23.2385 7.0966C23.9983 7.41067 24.6887 7.87158 25.27 8.45292C25.8514 9.03426 26.3123 9.72461 26.6264 10.4844C26.9405 11.2442 27.1015 12.0585 27.1003 12.8806V20.8448H28.2397ZM20.4914 5.48485H15.506L13.8018 2.07141H22.2007L20.4914 5.48485Z" fill="#5F0087"/>
<path d="M13.1656 9.43213C13.4771 9.25115 13.8118 9.1137 14.1606 9.02362L13.8764 7.9209C13.4278 8.03722 12.997 8.21376 12.5957 8.44569L13.1656 9.43213Z" fill="#5F0087"/>
<path d="M10.0371 15.1557H11.1749V12.8801C11.1734 12.3469 11.2797 11.8189 11.4876 11.3279C11.6954 10.8369 12.0005 10.393 12.3844 10.023L11.592 9.20703C11.0987 9.68259 10.7068 10.253 10.4398 10.884C10.1727 11.515 10.0361 12.1935 10.0381 12.8786L10.0371 15.1557Z" fill="#5F0087"/>
<path d="M2.55613 28.8938L12.2141 34.1613C13.3011 34.7556 14.5201 35.0672 15.7589 35.0675H34.498C34.5729 35.0677 34.6472 35.0531 34.7164 35.0246C34.7857 34.996 34.8486 34.954 34.9016 34.9011C34.9546 34.8481 34.9966 34.7852 35.0253 34.716C35.0539 34.6468 35.0686 34.5726 35.0684 34.4976V24.2578C35.0684 24.1069 35.0085 23.9623 34.9018 23.8556C34.7951 23.7489 34.6504 23.6889 34.4995 23.6889H30.1447L30.0795 23.6388C29.4114 23.1171 28.673 22.6924 27.8861 22.3772C26.5256 21.8221 25.0523 21.5999 23.5886 21.7291C22.125 21.8583 20.7133 22.3352 19.4712 23.12H15.1559C14.7093 23.1199 14.2689 23.225 13.8704 23.4268C13.4719 23.6285 13.1265 23.9213 12.8622 24.2813C12.5979 24.6414 12.4221 25.0586 12.3491 25.4993C12.276 25.9399 12.3077 26.3916 12.4417 26.8177L5.40922 23.2939C4.89742 23.0369 4.32346 22.9294 3.75332 22.984C3.18318 23.0385 2.64 23.2528 2.18621 23.6022C1.79791 23.8931 1.4826 24.2703 1.2652 24.7041C1.0478 25.1378 0.934277 25.6162 0.933596 26.1014V26.164C0.932858 26.723 1.08326 27.2718 1.36888 27.7524C1.6545 28.2329 2.06472 28.6273 2.55613 28.8938V28.8938ZM30.5161 24.8272H33.9296V33.9292H30.5161V24.8272ZM2.07142 26.1014C2.07345 25.7873 2.1491 25.478 2.2923 25.1984C2.4355 24.9188 2.64226 24.6766 2.89597 24.4914C3.18001 24.2772 3.51839 24.1467 3.87275 24.1149C4.22711 24.0831 4.5833 24.1512 4.90096 24.3115L13.7655 28.7484C13.8443 28.7881 13.9314 28.8087 14.0196 28.8086H22.5513V27.6708H15.1559C14.7033 27.6708 14.2692 27.491 13.9491 27.1709C13.629 26.8508 13.4492 26.4167 13.4492 25.964C13.4492 25.5114 13.629 25.0773 13.9491 24.7572C14.2692 24.4371 14.7033 24.2573 15.1559 24.2573H19.6386C19.7501 24.2572 19.8591 24.2246 19.9524 24.1636C21.0503 23.4406 22.308 22.9961 23.6164 22.8686C24.9248 22.741 26.2446 22.9344 27.4615 23.4318C28.149 23.7077 28.7942 24.0789 29.3783 24.5345V33.9297H15.7589C14.7108 33.9293 13.6796 33.6656 12.76 33.1628L3.09898 27.8913C2.78763 27.7224 2.52775 27.4725 2.34686 27.168C2.16596 26.8635 2.07079 26.5157 2.07142 26.1615V26.1014Z" fill="#5F0087"/>
<path d="M31.6543 31.085H32.7921V32.2228H31.6543V31.085Z" fill="#5F0087"/>
<path d="M18.5703 20.8443V19.7065H19.1392C19.7427 19.7065 20.3216 19.4667 20.7483 19.04C21.1751 18.6132 21.4149 18.0344 21.4149 17.4309C21.4149 16.8273 21.1751 16.2485 20.7483 15.8218C20.3216 15.395 19.7427 15.1552 19.1392 15.1552H16.8635C16.5618 15.1552 16.2724 15.0354 16.059 14.822C15.8456 14.6086 15.7257 14.3192 15.7257 14.0174C15.7257 13.7157 15.8456 13.4263 16.059 13.2129C16.2724 12.9995 16.5618 12.8796 16.8635 12.8796H20.8459V11.7418H18.5703V10.6045H17.4325V11.7423H16.8635C16.26 11.7423 15.6812 11.9821 15.2544 12.4088C14.8277 12.8356 14.5879 13.4144 14.5879 14.0179C14.5879 14.6215 14.8277 15.2003 15.2544 15.627C15.6812 16.0538 16.26 16.2936 16.8635 16.2936H19.1392C19.441 16.2936 19.7304 16.4134 19.9438 16.6268C20.1572 16.8402 20.277 17.1296 20.277 17.4314C20.277 17.7331 20.1572 18.0225 19.9438 18.2359C19.7304 18.4493 19.441 18.5692 19.1392 18.5692H15.1568V19.707H17.4325V20.8448L18.5703 20.8443Z" fill="#5F0087"/>
<path d="M2.55613 28.8938L12.2141 34.1613C13.3011 34.7556 14.5201 35.0672 15.7589 35.0675H34.498C34.5729 35.0677 34.6472 35.0531 34.7164 35.0246C34.7857 34.996 34.8486 34.954 34.9016 34.9011C34.9546 34.8481 34.9966 34.7852 35.0253 34.716C35.0539 34.6468 35.0686 34.5726 35.0684 34.4976V24.2578C35.0684 24.1069 35.0085 23.9623 34.9018 23.8556C34.7951 23.7489 34.6504 23.6889 34.4995 23.6889H30.1447L30.0795 23.6388C29.4114 23.1171 28.673 22.6924 27.8861 22.3772C26.5256 21.8221 25.0523 21.5999 23.5886 21.7291C22.125 21.8583 20.7133 22.3352 19.4712 23.12H15.1559C14.7093 23.1199 14.2689 23.225 13.8704 23.4268C13.4719 23.6285 13.1265 23.9213 12.8622 24.2813C12.5979 24.6414 12.4221 25.0586 12.3491 25.4993C12.276 25.9399 12.3077 26.3916 12.4417 26.8177L5.40922 23.2939C4.89742 23.0369 4.32346 22.9294 3.75332 22.984C3.18318 23.0385 2.64 23.2528 2.18621 23.6022C1.79791 23.8931 1.4826 24.2703 1.2652 24.7041C1.0478 25.1378 0.934277 25.6162 0.933596 26.1014V26.164C0.932858 26.723 1.08326 27.2718 1.36888 27.7524C1.6545 28.2329 2.06472 28.6273 2.55613 28.8938V28.8938ZM30.5161 24.8272H33.9296V33.9292H30.5161V24.8272ZM2.07142 26.1014C2.07345 25.7873 2.1491 25.478 2.2923 25.1984C2.4355 24.9188 2.64226 24.6766 2.89597 24.4914C3.18001 24.2772 3.51839 24.1467 3.87275 24.1149C4.22711 24.0831 4.5833 24.1512 4.90096 24.3115L13.7655 28.7484C13.8443 28.7881 13.9314 28.8087 14.0196 28.8086H22.5513V27.6708H15.1559C14.7033 27.6708 14.2692 27.491 13.9491 27.1709C13.629 26.8508 13.4492 26.4167 13.4492 25.964C13.4492 25.5114 13.629 25.0773 13.9491 24.7572C14.2692 24.4371 14.7033 24.2573 15.1559 24.2573H19.6386C19.7501 24.2572 19.8591 24.2246 19.9524 24.1636C21.0503 23.4406 22.308 22.9961 23.6164 22.8686C24.9248 22.741 26.2446 22.9344 27.4615 23.4318C28.149 23.7077 28.7942 24.0789 29.3783 24.5345V33.9297H15.7589C14.7108 33.9293 13.6796 33.6656 12.76 33.1628L3.09898 27.8913C2.78763 27.7224 2.52775 27.4725 2.34686 27.168C2.16596 26.8635 2.07079 26.5157 2.07142 26.1615V26.1014Z" fill="#5F0087"/>
<path d="M2.55613 28.8938L12.2141 34.1613C13.3011 34.7556 14.5201 35.0672 15.7589 35.0675H34.498C34.5729 35.0677 34.6472 35.0531 34.7164 35.0246C34.7857 34.996 34.8486 34.954 34.9016 34.9011C34.9546 34.8481 34.9966 34.7852 35.0253 34.716C35.0539 34.6468 35.0686 34.5726 35.0684 34.4976V24.2578C35.0684 24.1069 35.0085 23.9623 34.9018 23.8556C34.7951 23.7489 34.6504 23.6889 34.4995 23.6889H30.1447L30.0795 23.6388C29.4114 23.1171 28.673 22.6924 27.8861 22.3772C26.5256 21.8221 25.0523 21.5999 23.5886 21.7291C22.125 21.8583 20.7133 22.3352 19.4712 23.12H15.1559C14.7093 23.1199 14.2689 23.225 13.8704 23.4268C13.4719 23.6285 13.1265 23.9213 12.8622 24.2813C12.5979 24.6414 12.4221 25.0586 12.3491 25.4993C12.276 25.9399 12.3077 26.3916 12.4417 26.8177L5.40922 23.2939C4.89742 23.0369 4.32346 22.9294 3.75332 22.984C3.18318 23.0385 2.64 23.2528 2.18621 23.6022C1.79791 23.8931 1.4826 24.2703 1.2652 24.7041C1.0478 25.1378 0.934277 25.6162 0.933596 26.1014V26.164C0.932858 26.723 1.08326 27.2718 1.36888 27.7524C1.6545 28.2329 2.06472 28.6273 2.55613 28.8938V28.8938ZM30.5161 24.8272H33.9296V33.9292H30.5161V24.8272ZM2.07142 26.1014C2.07345 25.7873 2.1491 25.478 2.2923 25.1984C2.4355 24.9188 2.64226 24.6766 2.89597 24.4914C3.18001 24.2772 3.51839 24.1467 3.87275 24.1149C4.22711 24.0831 4.5833 24.1512 4.90096 24.3115L13.7655 28.7484C13.8443 28.7881 13.9314 28.8087 14.0196 28.8086H22.5513V27.6708H15.1559C14.7033 27.6708 14.2692 27.491 13.9491 27.1709C13.629 26.8508 13.4492 26.4167 13.4492 25.964C13.4492 25.5114 13.629 25.0773 13.9491 24.7572C14.2692 24.4371 14.7033 24.2573 15.1559 24.2573H19.6386C19.7501 24.2572 19.8591 24.2246 19.9524 24.1636C21.0503 23.4406 22.308 22.9961 23.6164 22.8686C24.9248 22.741 26.2446 22.9344 27.4615 23.4318C28.149 23.7077 28.7942 24.0789 29.3783 24.5345V33.9297H15.7589C14.7108 33.9293 13.6796 33.6656 12.76 33.1628L3.09898 27.8913C2.78763 27.7224 2.52775 27.4725 2.34686 27.168C2.16596 26.8635 2.07079 26.5157 2.07142 26.1615V26.1014Z" fill="#5F0087"/>
</g>
<defs>
<clipPath id="clip0_675_1342">
<rect width="34.1333" height="34.1333" fill="white" transform="translate(0.933594 0.933594)"/>
</clipPath>
</defs>
</svg>
