<svg width="74" height="74" viewBox="0 0 74 74" fill="none" xmlns="http://www.w3.org/2000/svg">
<path d="M47.8516 37.6387H51.6813V44.0216H47.8516V37.6387Z" fill="#685D6D"/>
<path d="M47.8516 12.1074H51.6813V18.4903H47.8516V12.1074Z" fill="#685D6D"/>
<path d="M47.8516 24.873H51.6813V31.2559H47.8516V24.873Z" fill="#685D6D"/>
<path d="M51.6797 50.4043H58.0626V56.7872H51.6797V50.4043Z" fill="#685D6D"/>
<path d="M35.086 22.9571V28.7017H41.4688V19.7656H38.2774C37.4311 19.7662 36.6202 20.103 36.0217 20.7014C35.4233 21.2998 35.0865 22.1108 35.0859 22.9571L35.086 22.9571Z" fill="#685D6D"/>
<path d="M33.8066 35.0859H37.6364V41.4688H33.8066V35.0859Z" fill="#685D6D"/>
<path d="M29.9785 29.9785V46.5741H34.4465C35.2929 46.5746 36.1038 46.9114 36.7022 47.5098C37.3006 48.1082 37.6374 48.9192 37.638 49.7655V56.7867H41.4677V29.9785L29.9785 29.9785ZM38.9146 34.4465V42.106C38.9146 42.2753 38.8473 42.4377 38.7276 42.5574C38.608 42.6771 38.4455 42.7443 38.2763 42.7443H33.17C33.0007 42.7443 32.8383 42.6771 32.7186 42.5574C32.5989 42.4377 32.5317 42.2753 32.5317 42.106V34.4465C32.5317 34.2773 32.5989 34.1149 32.7186 33.9952C32.8383 33.8755 33.0007 33.8083 33.17 33.8083H38.2763C38.4455 33.8083 38.608 33.8755 38.7276 33.9952C38.8473 34.1148 38.9146 34.2773 38.9146 34.4465Z" fill="#685D6D"/>
<path d="M58.0645 12.1074H61.8942V18.4903H58.0645V12.1074Z" fill="#685D6D"/>
<path d="M42.7441 7V56.7866H50.4036V49.7654C50.4036 49.5961 50.4709 49.4337 50.5905 49.314C50.7102 49.1944 50.8726 49.1271 51.0419 49.1271H58.7014C58.8707 49.1271 59.0331 49.1944 59.1528 49.314C59.2724 49.4337 59.3397 49.5961 59.3397 49.7654V56.7866H66.9992V7H42.7441ZM52.9568 44.6584C52.9568 44.8276 52.8895 44.99 52.7699 45.1097C52.6502 45.2294 52.4878 45.2967 52.3185 45.2967H47.2122C47.0429 45.2967 46.8805 45.2294 46.7608 45.1097C46.6411 44.9901 46.5739 44.8276 46.5739 44.6584V36.9989C46.5739 36.8296 46.6411 36.6672 46.7608 36.5475C46.8805 36.4278 47.0429 36.3606 47.2122 36.3606H52.3185C52.4878 36.3606 52.6502 36.4279 52.7699 36.5475C52.8895 36.6672 52.9568 36.8296 52.9568 36.9989V44.6584ZM52.9568 31.8926C52.9568 32.0618 52.8895 32.2243 52.7699 32.3439C52.6502 32.4636 52.4878 32.5309 52.3185 32.5309H47.2122C47.0429 32.5309 46.8805 32.4636 46.7608 32.3439C46.6411 32.2243 46.5739 32.0618 46.5739 31.8926V24.2331C46.5739 24.0638 46.6411 23.9014 46.7608 23.7817C46.8805 23.662 47.0429 23.5948 47.2122 23.5948H52.3185C52.4878 23.5948 52.6502 23.6621 52.7699 23.7817C52.8895 23.9014 52.9568 24.0638 52.9568 24.2331V31.8926ZM52.9568 19.1268C52.9568 19.296 52.8895 19.4585 52.7699 19.5781C52.6502 19.6978 52.4878 19.7651 52.3185 19.7651H47.2122C47.0429 19.7651 46.8805 19.6978 46.7608 19.5781C46.6411 19.4585 46.5739 19.296 46.5739 19.1268V11.4673C46.5739 11.298 46.6411 11.1356 46.7608 11.0159C46.8805 10.8962 47.0429 10.829 47.2122 10.829H52.3185C52.4878 10.829 52.6502 10.8963 52.7699 11.0159C52.8895 11.1356 52.9568 11.298 52.9568 11.4673V19.1268ZM63.1694 44.6584C63.1694 44.8276 63.1022 44.99 62.9825 45.1097C62.8628 45.2294 62.7004 45.2967 62.5311 45.2967H57.4248C57.2555 45.2967 57.0931 45.2294 56.9734 45.1097C56.8537 44.9901 56.7865 44.8276 56.7865 44.6584V36.9989C56.7865 36.8296 56.8538 36.6672 56.9734 36.5475C57.0931 36.4278 57.2555 36.3606 57.4248 36.3606H62.5311C62.7004 36.3606 62.8628 36.4279 62.9825 36.5475C63.1022 36.6672 63.1694 36.8296 63.1694 36.9989V44.6584ZM63.1694 31.8926C63.1694 32.0618 63.1022 32.2243 62.9825 32.3439C62.8628 32.4636 62.7004 32.5309 62.5311 32.5309H57.4248C57.2555 32.5309 57.0931 32.4636 56.9734 32.3439C56.8537 32.2243 56.7865 32.0618 56.7865 31.8926V24.2331C56.7865 24.0638 56.8538 23.9014 56.9734 23.7817C57.0931 23.662 57.2555 23.5948 57.4248 23.5948H62.5311C62.7004 23.5948 62.8628 23.6621 62.9825 23.7817C63.1022 23.9014 63.1694 24.0638 63.1694 24.2331V31.8926ZM63.1694 19.1268C63.1694 19.296 63.1022 19.4585 62.9825 19.5781C62.8628 19.6978 62.7004 19.7651 62.5311 19.7651H57.4248C57.2555 19.7651 57.0931 19.6978 56.9734 19.5781C56.8537 19.4585 56.7865 19.296 56.7865 19.1268V11.4673C56.7865 11.298 56.8538 11.1356 56.9734 11.0159C57.0931 10.8962 57.2555 10.829 57.4248 10.829H62.5311C62.7004 10.829 62.8628 10.8963 62.9825 11.0159C63.1022 11.1356 63.1694 11.298 63.1694 11.4673V19.1268Z" fill="#685D6D"/>
<path d="M34.4465 47.8505H26.1487V45.9356C26.1482 45.0893 25.8113 44.2784 25.2129 43.6799C24.6145 43.0815 23.8036 42.7447 22.9573 42.7441H20.4041C19.5578 42.7447 18.7469 43.0815 18.1484 43.6799C17.55 44.2783 17.2132 45.0893 17.2126 45.9356V47.8505H8.91487C7.8577 47.8516 7.00117 48.7082 7 49.7653V54.2334H18.4892V52.3185C18.4892 52.1492 18.5565 51.9868 18.6761 51.8671C18.7958 51.7474 18.9582 51.6802 19.1275 51.6802H24.2338C24.4031 51.6802 24.5655 51.7475 24.6852 51.8671C24.8049 51.9868 24.8721 52.1492 24.8721 52.3185V54.2334H36.3613V49.7653C36.3602 48.7082 35.5036 47.8516 34.4465 47.8505H34.4465ZM18.4885 45.9356C18.4897 44.8784 19.3462 44.0219 20.4034 44.0207H22.9565C24.0137 44.0219 24.8702 44.8784 24.8714 45.9356V47.8505H18.4885V45.9356Z" fill="#685D6D"/>
<path d="M19.7656 52.957H23.5954V56.7868H19.7656V52.957Z" fill="#685D6D"/>
<path d="M24.8721 57.4246C24.8721 57.5939 24.8049 57.7563 24.6852 57.876C24.5655 57.9957 24.4031 58.0629 24.2338 58.0629H19.1275C18.9582 58.0629 18.7958 57.9957 18.6761 57.876C18.5564 57.7563 18.4892 57.5939 18.4892 57.4246V55.5098H7V65.0841C7.00114 66.1413 7.8577 66.9978 8.91487 66.999H34.4465C35.5036 66.9978 36.3602 66.1413 36.3613 65.0841V55.5098H24.8721V57.4246Z" fill="#685D6D"/>
<path d="M58.0645 24.873H61.8942V31.2559H58.0645V24.873Z" fill="#685D6D"/>
<path d="M58.0645 37.6387H61.8942V44.0216H58.0645V37.6387Z" fill="#685D6D"/>
</svg>
