<svg width="75" height="75" viewBox="0 0 75 75" fill="none" xmlns="http://www.w3.org/2000/svg">
<path d="M39.5816 41.7728L39.2996 41.7363L38.7268 39.5269C41.0721 37.7452 42.772 35.1271 43.3904 32.1086C45.1629 31.6724 46.4632 30.0815 46.4632 28.1902C46.4632 26.645 45.6631 25.4903 44.7631 24.7902C45.9812 19.0993 45.236 14.7719 42.5269 11.8448C40.2359 9.40013 36.9359 8 33.4818 8H30.1275C26.6727 8 23.3727 9.40013 21.0366 11.9001C18.355 14.7821 17.6275 19.1095 18.8365 24.7913C17.9456 25.4913 17.1456 26.6459 17.1456 28.1912C17.1456 30.082 18.4458 31.6729 20.2183 32.1097C20.8544 35.2189 22.6366 37.9188 25.1001 39.7004L24.5821 41.7368H24.573L24.4365 41.7551H24.4183C20.9635 42.273 12.7817 43.9552 9.85467 48.4915C8.64526 50.3726 8 52.6636 8 55.1271V59.8815C8 60.3817 8.40888 60.7906 8.90909 60.7906H41.2181C40.4363 58.9815 40.0092 56.9996 40.0092 54.918C40.0092 50.1727 42.2362 45.9362 45.7093 43.209C43.3458 42.4363 41.0822 42.0092 39.6187 41.7819C39.609 41.7819 39.5999 41.7728 39.5816 41.7728L39.5816 41.7728ZM21.7817 29.6092V28.691L21.7725 28.3912C21.7451 26.673 21.6909 23.4912 23.6998 21.0094C24.2178 20.3732 25.1816 20.1911 25.9999 20.5822C26.527 20.8369 27.3819 21.1276 28.609 21.4639C30.7002 22.0367 32.9089 22.0367 35 21.4639C36.2272 21.1276 37.082 20.8369 37.6091 20.5822C38.4183 20.1911 39.3908 20.3732 39.9001 21.0002C41.9182 23.4911 41.8634 26.6729 41.836 28.3911L41.8269 28.6909V29.6092C41.8269 35.2184 37.2266 40.0363 31.8178 40.1363C26.3724 40.0363 21.7818 35.218 21.7818 29.6092L21.7817 29.6092ZM31.9359 45.1001L26.3632 42.0822L26.727 40.6728C28.2721 41.4546 29.9904 41.9182 31.8177 41.9548C33.7267 41.9182 35.5174 41.4094 37.1176 40.5637L37.5087 42.0907L31.9359 45.1001Z" fill="#685D6D"/>
<path d="M54.917 41.8281C47.6991 41.8281 41.8262 47.7007 41.8262 54.919C41.8262 62.1283 47.6993 68.0008 54.917 68.0008C62.1264 68.0008 67.9988 62.1282 67.9988 54.919C67.9988 47.7011 62.1262 41.8281 54.917 41.8281ZM61.9396 55.8242H54.9211C54.918 55.8242 54.915 55.8252 54.9119 55.8252C54.7953 55.8252 54.6847 55.7988 54.5797 55.7572C54.5467 55.744 54.5203 55.7232 54.4899 55.7065C54.4234 55.671 54.3605 55.6324 54.3042 55.5817C54.2732 55.5533 54.2494 55.5208 54.2225 55.4889C54.1789 55.4366 54.1408 55.3828 54.1094 55.3209C54.0881 55.2793 54.0734 55.2367 54.0592 55.1916C54.0485 55.1581 54.0282 55.1297 54.0211 55.0942L52.4114 47.0346C52.313 46.5425 52.6326 46.0631 53.1241 45.9652C53.6228 45.8668 54.0961 46.1864 54.194 46.6785L55.6577 54.0065H61.9391C62.4418 54.0065 62.8482 54.4133 62.8482 54.9156C62.8487 55.4173 62.4423 55.8242 61.9396 55.8242L61.9396 55.8242Z" fill="#685D6D"/>
</svg>
