<svg width="76" height="76" viewBox="0 0 76 76" fill="none" xmlns="http://www.w3.org/2000/svg">
<path d="M34.8971 52.4821C34.8971 53.052 34.4334 53.5166 33.8626 53.5166H32.8281V55.5856H33.8626C35.5737 55.5856 36.9661 54.1932 36.9661 52.4821V36.9648H34.8971V52.4821Z" fill="#685D6D"/>
<path d="M42.1386 55.5856C41.5678 55.5856 41.1041 55.121 41.1041 54.5511V36.9648H39.0352V54.5511C39.0352 56.2622 40.4275 57.6545 42.1386 57.6545H43.3592C43.2456 56.9803 43.1731 56.2922 43.1731 55.5856H42.1386Z" fill="#685D6D"/>
<path d="M18.3455 34.8966H57.6559C59.8274 34.8966 61.8641 33.9347 63.2463 32.2588C64.6285 30.5828 65.1776 28.3711 64.7546 26.1926C64.2023 23.346 61.9116 21.077 59.0575 20.5454C58.5693 20.4544 58.0821 20.4244 57.5968 20.4286C57.6342 20.7634 57.6559 21.1028 57.6559 21.4483C57.6559 26.5815 53.4797 30.7587 48.3455 30.7587V28.6897C52.3376 28.6897 55.5869 25.4412 55.5869 21.4483C55.5869 17.4554 52.3376 14.2069 48.3455 14.2069C47.2284 14.2069 46.1472 14.4623 45.1326 14.9671L44.2367 15.4118L43.7619 14.5316C41.5881 10.5026 37.3999 8 32.8283 8C26.6505 8 21.4315 12.5961 20.554 18.6159C21.903 18.9438 23.1712 19.5668 24.2648 20.4678C26.4197 22.2449 27.656 24.864 27.656 27.6552H25.587C25.587 25.4847 24.6251 23.447 22.9482 22.0649C21.2722 20.6827 19.0629 20.1344 16.8831 20.5565C14.0599 21.1047 11.7956 23.3704 11.2469 26.1926C10.8239 28.3711 11.373 30.5827 12.7553 32.2587C14.1375 33.9347 16.1742 34.8966 18.3456 34.8966L18.3455 34.8966ZM48.3455 24.5518C50.0566 24.5518 51.449 23.1594 51.449 21.4483H53.518C53.518 24.3005 51.1978 26.6207 48.3455 26.6207V24.5518ZM32.8283 10.069C36.7843 10.069 40.3357 12.2705 42.097 15.8146L40.2442 16.7364C38.8356 13.8999 35.9936 12.1379 32.8282 12.1379L32.8283 10.069ZM26.6214 30.7587H28.6903V32.8277H26.6214V30.7587ZM24.5524 30.7587V32.8277H22.4834V30.7587H24.5524ZM18.3455 22.4828C21.1977 22.4828 23.5179 24.803 23.5179 27.6552H21.4489C21.4489 25.9441 20.0566 24.5518 18.3455 24.5518V22.4828ZM18.3455 30.7587H20.4145V32.8277H18.3455V30.7587Z" fill="#685D6D"/>
<path d="M57.6554 59.7246H55.5864C52.3938 59.7246 49.6538 61.7844 48.707 64.7812C50.7576 66.7693 53.5465 68.0005 56.6209 68.0005C59.6953 68.0005 62.4842 66.7693 64.5348 64.7812C63.5903 61.7844 60.8499 59.7246 57.6554 59.7246Z" fill="#685D6D"/>
<path d="M56.6215 45.2422C50.3472 45.2422 45.2422 50.3472 45.2422 56.6215C45.2422 58.9699 45.958 61.1534 47.1809 62.9679C48.2528 60.6994 50.1809 58.9778 52.5241 58.1691C51.2338 57.0303 50.4145 55.37 50.4145 53.5181C50.4145 50.095 53.1984 47.3112 56.6214 47.3112C60.0444 47.3112 62.8283 50.095 62.8283 53.5181C62.8283 55.37 62.009 57.0302 60.7191 58.1682C63.0624 58.9773 64.9915 60.6985 66.0624 62.967C67.2849 61.1534 68.0007 58.9699 68.0007 56.6215C68.0007 50.3472 62.8957 45.2422 56.6214 45.2422H56.6215Z" fill="#685D6D"/>
<path d="M60.7583 53.5168C60.7583 55.8019 58.9054 57.6548 56.6204 57.6548C54.3353 57.6548 52.4824 55.8019 52.4824 53.5168C52.4824 51.2318 54.3353 49.3789 56.6204 49.3789C58.9054 49.3789 60.7583 51.2318 60.7583 53.5168Z" fill="#685D6D"/>
<path d="M12.1387 53.5176H26.6215V55.5865H12.1387V53.5176Z" fill="#685D6D"/>
<path d="M8 64.8964C8 66.6075 9.39236 67.9999 11.1035 67.9999H27.6552C29.3663 67.9999 30.7587 66.6075 30.7587 64.8964V61.793H8V64.8964ZM26.6207 63.8619H28.6897V65.9309H26.6207V63.8619ZM22.4828 63.8619H24.5518V65.9309H22.4828V63.8619ZM18.3448 63.8619H20.4138V65.9309H18.3448V63.8619Z" fill="#685D6D"/>
<path d="M27.6552 41.1035H11.1035C9.39236 41.1035 8 42.4959 8 44.207V59.7242H30.7587V44.207C30.7587 42.4959 29.3663 41.1035 27.6552 41.1035ZM28.6897 55.5863C28.6897 56.7275 27.7619 57.6553 26.6207 57.6553H12.1379C10.9968 57.6553 10.069 56.7275 10.069 55.5863V53.5173C10.069 52.3762 10.9968 51.4484 12.1379 51.4484H26.6207C27.7619 51.4484 28.6897 52.3762 28.6897 53.5173V55.5863ZM28.6897 47.3104C28.6897 48.4516 27.7619 49.3794 26.6207 49.3794H12.1379C10.9968 49.3794 10.069 48.4516 10.069 47.3104V45.2415C10.069 44.1003 10.9968 43.1725 12.1379 43.1725H26.6207C27.7619 43.1725 28.6897 44.1003 28.6897 45.2415V47.3104Z" fill="#685D6D"/>
<path d="M12.1387 45.2422H26.6215V47.3112H12.1387V45.2422Z" fill="#685D6D"/>
</svg>
