<svg width="76" height="76" viewBox="0 0 76 76" fill="none" xmlns="http://www.w3.org/2000/svg">
<path d="M46.3735 21.0921C37.7757 21.0921 30.4423 26.6555 27.7871 34.3681H28.4195C29.178 34.3681 29.9369 34.5578 30.5688 34.937C31.3273 32.7877 32.5285 30.828 34.109 29.184C34.2355 29.247 34.3617 29.3105 34.4882 29.4366C34.6148 29.5632 34.6148 30.3847 34.5513 31.2068V31.3329C34.5513 31.3329 35.2467 33.0399 34.6144 34.4307C33.9189 35.8847 34.0455 38.2871 34.4247 38.793C34.7409 39.2357 36.3844 41.3215 36.5741 41.5747C36.7637 41.7644 37.3326 43.2818 37.3326 43.4714C37.3961 43.7241 38.4712 44.9888 39.5458 44.9888C40.1782 44.9888 40.9366 45.305 41.4425 45.5577C41.6952 45.6842 41.8852 45.7473 42.0114 45.8104C42.0744 45.8104 42.1379 45.9369 42.201 46.063C42.3906 46.3157 42.5802 46.7585 43.2126 47.0746C43.3391 47.1377 43.5288 47.2643 43.7184 47.3273C44.2873 47.6435 45.1092 48.0858 45.1723 48.2124C45.1723 48.2754 45.0458 48.402 44.9827 48.5286C44.6035 48.9078 44.0346 49.6032 44.2242 50.5518C44.4769 51.8161 46.2474 53.3336 46.8163 53.7128C47.1956 53.9655 47.0059 56.5575 46.8163 57.0003C46.7532 57.1268 46.7532 57.3165 46.7532 57.5691H46.5636C40.8741 57.5691 35.8795 54.7244 32.8451 50.4253V54.7875C36.3852 58.2647 41.2532 60.3509 46.5636 60.3509C57.3743 60.3509 66.1616 51.5634 66.1616 40.753C65.9711 29.8797 57.1837 21.0918 46.3728 21.0918L46.3735 21.0921ZM61.1668 35.5061C61.1668 35.6326 62.1149 36.2015 62.1149 36.2015C62.1149 36.2015 61.7357 37.0235 61.4826 37.0235C61.2929 37.0235 61.1033 37.8455 61.1033 38.1612C61.1033 38.4774 61.4826 39.0463 61.9253 39.3625C62.3046 39.6152 62.8104 39.0463 63 38.8567C63.063 39.3625 63.063 39.8683 63.063 40.3741C62.6203 40.3741 61.9884 40.6902 61.7352 40.8799C61.4825 41.1326 60.8502 43.0928 60.5975 43.2823C60.3448 43.4719 59.7755 46.1906 59.7124 46.4433C59.6494 46.6959 60.4709 48.7823 60.9137 48.9718C58.5747 53.0808 54.5918 56.1157 49.9135 57.1269C50.04 57.0003 50.1662 56.8742 50.1662 56.8107C50.1662 56.8107 50.3558 56.6841 50.4823 56.6211C50.735 56.4945 51.0512 56.3049 51.1778 56.1152C51.3674 55.7991 51.9363 55.2302 52.1894 55.1036C52.5056 54.9771 54.5284 53.144 54.6549 52.8277C54.9711 52.0692 55.4134 51.2473 55.6665 51.0576C56.1093 50.6784 55.6665 50.046 55.54 49.7933V49.7303C55.3504 49.4776 54.2121 49.351 54.0226 49.351C53.833 49.351 52.8213 48.7822 52.7583 48.6556C52.7583 48.3394 51.8102 47.4543 51.5571 47.4543C51.4305 47.4543 50.8616 47.3278 50.5454 46.9485C50.1662 46.5058 48.8384 46.19 48.4592 46.19C48.08 46.19 47.5742 46.127 47.1949 45.9373C46.8788 45.8108 46.3099 46.0004 45.6776 46.2535C45.551 46.3166 45.4879 46.3801 45.4249 46.3801C45.2353 46.4431 44.1606 46.1905 43.8444 46.1274C43.7813 46.0643 43.7178 45.6216 43.7178 45.432C43.7178 45.1158 43.6548 44.9892 43.6548 44.8631C43.5917 44.7365 43.3386 44.6735 42.7697 44.4838C42.6432 44.4838 42.4536 44.4208 42.3905 44.3573C42.3905 44.2942 42.4536 44.1677 42.5171 44.0411C42.7067 43.6618 42.7697 43.3457 42.7067 43.156C42.6436 43.093 42.5801 43.0295 42.5171 43.0295C42.2644 42.9664 41.8847 43.2191 41.5689 43.5353C41.3793 43.6619 41.1897 43.8515 41.0631 43.8515C40.8735 43.8515 40.4308 43.6619 39.8619 43.3457C39.5457 43.156 39.9249 42.208 40.0515 41.7021C40.1145 41.4494 40.178 41.2593 40.178 41.1963C40.178 41.0697 40.7469 40.9436 41.5689 40.9436C41.7585 40.9436 42.0747 40.8805 42.3909 40.817C42.6435 40.754 42.8967 40.754 43.0863 40.754C43.2128 40.754 43.4025 41.0702 43.529 41.2598C43.7187 41.576 43.9083 41.8286 44.1614 41.7656C44.4776 41.7025 44.4776 41.3228 44.4141 41.0071V40.7544C44.4141 40.5648 44.8568 39.8694 45.1726 39.6797C45.5518 39.4271 46.1207 38.6681 45.9946 38.2889C45.9946 38.0993 46.69 37.6565 46.9427 37.4669C47.0692 37.4039 47.1323 37.3404 47.1954 37.2773C47.2584 37.2142 47.385 37.1507 47.448 37.1507C47.7007 37.0242 48.0169 36.8346 48.0169 36.4553C48.0169 36.2026 48.7754 36.0761 49.2812 36.0126C49.4077 36.0126 49.4708 36.0126 49.5974 35.9495C49.9136 35.8864 50.1032 35.8229 50.1662 35.6968C50.2928 35.5072 50.1662 35.3806 50.1032 35.1279C50.1032 35.0649 50.0401 35.0014 50.0401 34.9383C49.9136 34.5591 49.9771 34.306 50.2928 34.0533C50.4194 33.9267 50.7356 33.9267 51.0513 33.8637C51.3675 33.8006 51.7467 33.8006 52.0629 33.674C52.3156 33.611 52.4422 33.4844 52.4422 33.3578C52.5052 33.1682 52.3791 32.9786 52.2525 32.852C52.1895 32.789 52.126 32.7255 52.126 32.6624C51.9364 32.3462 51.6202 32.0935 51.4305 31.9039C51.304 31.8409 51.2409 31.335 51.1779 31.0819C51.1148 30.8923 51.1148 30.7657 51.0513 30.6392C50.9882 30.5126 50.9247 30.4496 50.7986 30.4496C50.5459 30.323 50.1032 30.5126 49.9136 30.5761C49.9136 30.5131 49.8505 30.4496 49.8505 30.3865C49.7874 30.1969 49.7874 30.0703 49.7239 29.9437C49.6609 29.8807 49.5343 29.7541 49.3447 29.6276C49.092 29.4379 48.7758 29.1218 48.5862 28.9321C48.4596 28.8056 48.3335 28.8056 48.27 28.8056C47.9538 28.8686 47.7642 29.1848 47.5115 29.5641C47.5115 29.6271 47.4485 29.6271 47.4485 29.6906C47.0692 30.2595 47.0692 30.6387 47.3219 30.8283C47.3219 30.8283 47.3219 30.9549 47.2588 31.1445C47.1323 31.3972 46.9426 31.6503 46.8796 31.6503C46.5634 31.6503 46.5003 32.0931 46.3738 32.5354C46.3738 32.6619 46.3107 32.9146 46.2472 33.0412C46.1842 32.9781 46.0576 32.725 46.1207 31.9665V31.9035C46.1207 31.7769 46.0576 31.7138 46.0576 31.6508C45.931 31.5877 45.8049 31.5877 45.6783 31.5877C45.4887 31.5877 45.4257 31.5877 45.4257 31.5247C45.236 31.2085 44.351 30.8923 43.9717 30.7662V29.6915C44.0983 29.5649 45.4891 28.5538 45.8049 28.4902C46.2476 28.3637 47.3853 27.6052 47.575 27.4155C47.7646 27.289 47.8277 27.1629 47.7646 27.0363C47.7016 26.7201 47.0692 26.4039 46.8165 26.3409C46.6265 25.3905 46.3103 25.3905 45.931 25.3905C45.7414 25.3905 45.4883 25.3905 45.2356 25.3275C44.1609 25.1379 43.2759 25.1379 42.5804 25.2009C42.0746 25.264 41.4427 25.1379 40.9999 25.0113C40.8103 24.9482 40.6207 24.9482 40.4941 24.9482C42.3272 24.2528 44.2875 23.8736 46.4368 23.8736C48.7758 23.8736 50.9256 24.3163 52.9484 25.2014C53.0114 25.328 53.0749 25.5176 53.138 25.6442C53.3276 26.15 53.7069 26.972 53.7069 27.6038C53.7069 28.2362 53.7699 28.9317 53.7069 29.1212C53.6438 29.3108 54.9711 30.8282 55.2874 30.8282C55.6035 30.8913 55.7932 30.7017 55.9828 30.3855C56.1724 30.0693 56.4255 29.7531 56.9309 29.3739C57.3101 29.0577 58.2587 29.1212 58.6379 29.1843C59.2068 29.8166 59.7126 30.4485 60.2184 31.0809L60.0288 31.2706C59.7761 31.5233 59.0807 32.2187 59.2068 32.7245C59.2699 33.2303 59.8392 33.9258 60.5346 34.2419C61.2301 34.5572 61.167 35.3791 61.167 35.5057L61.1668 35.5061Z" fill="#685D6D"/>
<path d="M66.6681 17.1091C65.9096 17.1091 65.2773 17.7415 65.2773 18.5V20.3966C60.1566 15.6552 53.5185 13 46.4379 13C39.0413 13 32.0872 15.9083 26.84 21.0921C23.1733 24.7588 20.5812 29.3737 19.4434 34.3681H22.3517C23.4894 30.1324 25.7023 26.276 28.8632 23.1151C33.5416 18.4367 39.8 15.8451 46.4382 15.8451C52.697 15.8451 58.5763 18.1841 63.1913 22.3567L61.4211 22.3562C60.6626 22.3562 60.0303 22.9886 60.0303 23.747C60.0303 24.5055 60.6627 25.1379 61.4211 25.1379H66.6053C67.3638 25.1379 67.9961 24.5055 67.9961 23.747V18.5628C68.0592 17.7409 67.4268 17.1089 66.6683 17.1089L66.6681 17.1091Z" fill="#685D6D"/>
<path d="M31.3913 59.9707H30.0635L30.0639 38.6026C30.0639 37.7175 29.3054 36.959 28.4203 36.959H11.6673C10.7822 36.959 10.0237 37.7175 10.0237 38.6026V59.9707H8.75849C8.37925 59.9707 8 60.2868 8 60.7291V62.3096C8 62.6889 8.31619 63.0681 8.75849 63.0681H31.391C31.7702 63.0681 32.1495 62.7519 32.1495 62.3096V60.7291C32.1499 60.3499 31.7702 59.9707 31.391 59.9707H31.3913ZM16.0923 57.5682C16.0923 57.9475 15.7761 58.3267 15.3338 58.3267H14.3222C13.9429 58.3267 13.5637 58.0105 13.5637 57.5682V55.4189C13.5637 55.0396 13.8799 54.6604 14.3222 54.6604H15.3338C15.713 54.6604 16.0923 54.9766 16.0923 55.4189V57.5682ZM16.0923 50.8671C16.0923 51.2463 15.7761 51.6256 15.3338 51.6256H14.3222C13.9429 51.6256 13.5637 51.3094 13.5637 50.8671V48.7178C13.5637 48.3385 13.8799 47.9593 14.3222 47.9593H15.3338C15.713 47.9593 16.0923 48.2754 16.0923 48.7178V50.8671ZM16.0923 44.1029C16.0923 44.4821 15.7761 44.8614 15.3338 44.8614H14.3222C13.9429 44.8614 13.5637 44.5452 13.5637 44.1029V41.9535C13.5637 41.5743 13.8799 41.195 14.3222 41.195H15.3338C15.713 41.195 16.0923 41.5112 16.0923 41.9535V44.1029ZM21.2765 57.5686C21.2765 57.9478 20.9603 58.327 20.518 58.327H19.5064C19.1271 58.327 18.7479 58.0109 18.7479 57.5686V55.4192C18.7479 55.04 19.0641 54.6607 19.5064 54.6607H20.518C20.8972 54.6607 21.2765 54.9769 21.2765 55.4192V57.5686ZM21.2765 50.8674C21.2765 51.2467 20.9603 51.6259 20.518 51.6259H19.5064C19.1271 51.6259 18.7479 51.3097 18.7479 50.8674V48.7181C18.7479 48.3388 19.0641 47.9596 19.5064 47.9596H20.518C20.8972 47.9596 21.2765 48.2758 21.2765 48.7181V50.8674ZM21.2765 44.1032C21.2765 44.4825 20.9603 44.8617 20.518 44.8617H19.5064C19.1271 44.8617 18.7479 44.5455 18.7479 44.1032V41.9539C18.7479 41.5746 19.0641 41.1954 19.5064 41.1954H20.518C20.8972 41.1954 21.2765 41.5116 21.2765 41.9539V44.1032ZM26.5233 57.5689C26.5233 57.9481 26.2071 58.3274 25.7648 58.3274L24.7532 58.3278C24.374 58.3278 23.9947 58.0116 23.9947 57.5693V55.42C23.9947 55.0407 24.3109 54.6615 24.7532 54.6615H25.7648C26.1441 54.6615 26.5233 54.9777 26.5233 55.42V57.5689ZM26.5233 50.8678C26.5233 51.247 26.2071 51.6263 25.7648 51.6263H24.7532C24.374 51.6263 23.9947 51.3101 23.9947 50.8678V48.7184C23.9947 48.3392 24.3109 47.9599 24.7532 47.9599H25.7648C26.1441 47.9599 26.5233 48.2761 26.5233 48.7184V50.8678ZM26.5233 44.1035C26.5233 44.4828 26.2071 44.862 25.7648 44.862H24.7532C24.374 44.862 23.9947 44.5459 23.9947 44.1035V41.9542C23.9947 41.575 24.3109 41.1957 24.7532 41.1957H25.7648C26.1441 41.1957 26.5233 41.5119 26.5233 41.9542V44.1035Z" fill="#685D6D"/>
</svg>
