<svg width="74" height="74" viewBox="0 0 74 74" fill="none" xmlns="http://www.w3.org/2000/svg">
<path d="M38.963 12.3516V8.17736C38.963 7.86534 38.8388 7.56574 38.618 7.34499C38.3973 7.12423 38.0977 7 37.7857 7H29.4371C29.1251 7 28.8255 7.12423 28.6048 7.34499C28.384 7.56574 28.2598 7.86534 28.2598 8.17736V12.3516H38.963Z" fill="#685D6D"/>
<path d="M31.4707 14.4922H35.752V17.7032H31.4707V14.4922Z" fill="#685D6D"/>
<path d="M60.1011 22.6085C59.8588 22.7571 59.5678 22.8039 59.2916 22.738C59.0154 22.672 58.7765 22.4991 58.6279 22.2573L56.2474 18.3903H56.2479C56.0988 18.1485 56.0524 17.8575 56.1179 17.5813C56.1838 17.3051 56.3568 17.0662 56.5986 16.9176L60.317 14.6293C58.9695 14.0545 57.4448 14.0588 56.1001 14.6403C54.7556 15.2218 53.7091 16.3298 53.2045 17.7056C52.7004 19.0812 52.7835 20.6032 53.4339 21.9162C53.636 22.3271 53.5543 22.8217 53.2303 23.1457L40.22 36.1572C39.9037 36.4706 39.4268 36.5557 39.0221 36.3712C37.5222 35.6918 35.7926 35.7419 34.3342 36.5069C32.8759 37.2724 31.8519 38.6672 31.5586 40.2874L34.9526 38.1984C35.1948 38.0493 35.4858 38.003 35.762 38.0684C36.0382 38.1344 36.2771 38.3074 36.4257 38.5491L38.8062 42.4161H38.8057C38.9548 42.6579 39.0012 42.9494 38.9357 43.2256C38.8698 43.5017 38.6968 43.7402 38.455 43.8893L34.7367 46.1743C36.065 46.7371 37.5644 46.739 38.8942 46.18C40.2239 45.6209 41.2714 44.5482 41.7988 43.2056C42.3259 41.8625 42.2881 40.3635 41.6937 39.0491C41.5093 38.6443 41.5943 38.1675 41.9078 37.8516L55.033 24.7386C55.3384 24.4333 55.7971 24.3411 56.1965 24.5049C57.6892 25.1185 59.3794 25.0258 60.7961 24.2522C62.2129 23.4786 63.2044 22.1068 63.4953 20.5189L60.1011 22.6085Z" fill="#685D6D"/>
<path d="M52.8233 42.3207C52.6819 39.6702 51.9891 37.0786 50.7897 34.7109L48.9797 35.7554L48.2754 34.5289L43.931 38.8733C44.1876 39.6393 44.3175 40.4425 44.3151 41.2505C44.3142 43.1609 43.5841 44.9986 42.2734 46.3881C40.9628 47.7781 39.1705 48.6143 37.2635 48.727C35.3564 48.8393 33.4787 48.2191 32.0141 46.993C31.8875 46.8869 31.7876 46.7531 31.7217 46.6021H20.768C20.177 46.6021 19.6977 46.1229 19.6977 45.5318V41.2505C19.6977 40.6594 20.177 40.1802 20.768 40.1802H29.4161C29.5571 39.2006 29.8916 38.2593 30.4009 37.4111V32.6879C30.4009 32.0968 30.8802 31.6176 31.4713 31.6176H35.7526C36.0364 31.6176 36.3087 31.7303 36.5094 31.931C36.7101 32.1317 36.8229 32.4041 36.8229 32.6879V33.7582C37.6314 33.7577 38.4351 33.8896 39.201 34.1476L45.2559 28.0927C44.8918 27.8155 44.5325 27.5327 44.1483 27.2813L43.1014 29.0956L41.2475 28.0253L42.292 26.2153V26.2158C39.9245 25.0159 37.3327 24.3235 34.6822 24.1821V26.2659H32.5416V24.1797C29.8911 24.3211 27.2994 25.014 24.9317 26.2133L25.9763 28.0233L24.1223 29.0936L23.0754 27.2794C20.8564 28.7362 18.9595 30.6327 17.5025 32.8518L19.3221 33.8996L18.2517 35.7536L16.4417 34.709V34.7086C15.2424 37.0761 14.5495 39.6684 14.4081 42.3189H16.4866V44.4595H14.4004C14.5418 47.1095 15.2347 49.7017 16.434 52.0694L18.244 51.0248L19.3143 52.8788L17.4948 53.9266V53.9262C18.9521 56.1452 20.8486 58.0417 23.0681 59.4986L24.115 57.679L25.9689 58.7493L24.9244 60.5594H24.9239C27.2915 61.7587 29.8832 62.4511 32.5337 62.593V60.5163H34.6744V62.6025C37.3249 62.4611 39.9165 61.7682 42.2847 60.5689L41.2402 58.7589L43.0941 57.6886L44.141 59.5081H44.1405C46.3596 58.0513 48.2565 56.1548 49.7138 53.9357L47.8943 52.8878L48.9646 51.0339L50.7746 52.0784L50.7741 52.0789C51.9739 49.7113 52.6663 47.1196 52.8077 44.4691H50.7368V42.3208L52.8233 42.3207Z" fill="#685D6D"/>
<path d="M51.3607 31.4361C54.4197 35.9334 55.6701 41.4193 54.8612 46.7986C54.0527 52.1776 51.2446 57.0532 46.9982 60.4523C42.7517 63.8514 37.3795 65.5235 31.9549 65.1345C26.5302 64.7455 21.4509 62.3244 17.7324 58.3541C14.0144 54.3844 11.9306 49.1579 11.8977 43.7194C11.8643 38.2803 13.884 33.029 17.5537 29.015C21.2229 24.9998 26.272 22.5166 31.6918 22.0616C37.1118 21.6068 42.504 23.2127 46.7913 26.5598L48.3228 25.027H48.3233C43.6707 21.2971 37.7777 19.4689 31.8317 19.9105C25.8847 20.352 20.3266 23.0307 16.2759 27.4061C12.2249 31.7819 9.98249 37.5302 10.0001 43.4928C10.0178 49.4555 12.2941 55.1904 16.3709 59.5415C20.4477 63.8935 26.022 66.5388 31.9708 66.9449C37.9202 67.351 43.8022 65.488 48.433 61.7309C53.0632 57.9737 56.0982 52.6015 56.9259 46.6961C57.7539 40.7908 56.3138 34.7912 52.8955 29.9049L51.3607 31.4361Z" fill="#685D6D"/>
<path d="M32.541 42.3203H34.6817V44.461H32.541V42.3203Z" fill="#685D6D"/>
</svg>
