<svg width="47" height="47" viewBox="0 0 47 47" fill="none" xmlns="http://www.w3.org/2000/svg">
<path fill-rule="evenodd" clip-rule="evenodd" d="M0 41.241V39.3547C0.361921 36.9303 1.78803 35.4047 4.05783 34.6389C5.42162 34.1787 6.78182 34.3333 8.09169 34.8906C8.456 35.0464 8.71846 35.02 9.03244 34.778C10.3016 33.8012 11.5863 32.8437 12.8758 31.8922C13.1562 31.6849 13.2796 31.4488 13.2748 31.0988C13.2604 29.9915 13.264 28.883 13.2724 27.7756C13.2748 27.4664 13.167 27.2483 12.9309 27.041C10.1182 24.5675 8.33137 21.4935 7.75373 17.7892C7.03948 13.2113 8.17558 9.09116 11.0961 5.48753C12.9129 3.2453 15.2246 1.68257 17.9355 0.722643C19.0212 0.337953 20.1369 0.0383492 21.3066 0.0467381C21.3665 0.0467381 21.4252 0.0467381 21.4732 0H24.3482C24.6268 0.0483349 24.9086 0.0659057 25.1907 0.0834951C25.5311 0.10472 25.8719 0.125971 26.2081 0.201333C29.0951 0.849675 31.6177 2.16194 33.7461 4.23639C36.4138 6.83815 37.9585 9.99237 38.3624 13.6823C38.7531 17.2583 37.9358 20.5732 36.0291 23.6255C35.2118 24.9342 34.1692 26.0427 33.0355 27.0722C32.8281 27.2603 32.7311 27.4592 32.7323 27.7337C32.7371 28.8866 32.7383 30.0394 32.7323 31.1923C32.7311 31.4739 32.8377 31.6705 33.0606 31.837C34.3933 32.8293 35.7247 33.8252 37.0477 34.8295C37.3042 35.0248 37.5283 35.05 37.8291 34.9146C40.4608 33.7377 43.4233 34.5586 45.0831 36.9111C45.6368 37.6961 45.9579 38.5661 46.0035 39.5321V41.1499C45.6476 43.4461 44.3293 44.9477 42.1937 45.7866C41.9618 45.8778 41.7222 45.9015 41.4833 45.925H41.4833C41.3112 45.942 41.1395 45.9589 40.9714 46.0011H39.5333C38.1886 45.922 37.0477 45.3671 36.1274 44.4144C34.5898 42.8217 34.0529 40.9258 34.5742 38.7543L34.5795 38.7323C34.7157 38.1634 34.7166 38.16 34.2255 37.7908C33.8009 37.4721 33.3767 37.1528 32.9526 36.8334L32.9514 36.8325L32.9502 36.8316L32.949 36.8307L32.9481 36.83L32.9474 36.8295C31.8433 35.9982 30.739 35.1667 29.626 34.3477C28.9417 33.8432 28.6145 33.1972 28.6289 32.3536C28.6353 31.9612 28.6338 31.5689 28.6324 31.1767C28.6311 30.8358 28.6298 30.495 28.6337 30.1545C28.6373 29.8441 28.5426 29.7542 28.2346 29.8681C27.3202 30.2048 26.3783 30.4481 25.4147 30.5955C25.1271 30.6398 25.0049 30.7884 25.0073 31.0797C25.0133 32.1714 25.0157 33.2644 25.0061 34.3561C25.0025 34.6953 25.205 34.8079 25.4627 34.9349C27.7205 36.0531 28.8626 37.895 28.8626 40.3985C28.8626 42.8589 27.1141 45.1346 24.7748 45.8513C24.5953 45.9061 24.4109 45.9195 24.2267 45.9328C24.0568 45.9451 23.887 45.9574 23.7214 46.0023H22.1934C19.9716 45.7327 18.4508 44.5127 17.5939 42.4873C16.3703 39.5932 17.6287 36.3323 20.4641 34.9793C20.8656 34.7875 21.0154 34.5646 21.0034 34.1296C20.9758 33.1421 20.983 32.1546 21.001 31.1671C21.007 30.7944 20.8704 30.6302 20.5001 30.5775C19.5785 30.4469 18.6869 30.1916 17.8072 29.8896C17.4046 29.7518 17.377 29.7722 17.3734 30.2036C17.3674 30.937 17.365 31.6705 17.3734 32.4039C17.3818 33.2128 17.0714 33.8624 16.4183 34.3321C15.6229 34.9049 14.8423 35.4974 14.0616 36.09C13.3167 36.6554 12.5718 37.2209 11.814 37.7692C11.4592 38.0257 11.3354 38.37 11.4424 38.8022C12.1591 41.6868 10.6611 44.6073 7.90713 45.7255C7.59507 45.8519 7.27232 45.8923 6.94994 45.9327C6.78949 45.9527 6.62913 45.9728 6.47023 46.0035H4.85238C2.13917 45.5325 0.547675 43.9194 0 41.241ZM20.7817 19.1611H23.6555C24.4848 19.1611 24.9018 18.8447 24.9054 18.2167C24.909 17.584 24.4848 17.2628 23.6711 17.2484C23.4228 17.2441 23.1741 17.2489 22.9252 17.2537C22.2766 17.2662 21.6275 17.2787 20.9866 17.1298C18.8714 16.6384 17.3207 14.7917 17.2536 12.6908C17.1816 10.4211 18.5442 8.50359 20.711 7.86603C21.0118 7.77735 21.122 7.6683 21.0993 7.35311C21.0816 7.10853 21.0851 6.8624 21.0886 6.61604C21.0913 6.42785 21.094 6.23952 21.0873 6.05164C21.0789 5.82634 21.1316 5.74125 21.3785 5.74484C22.4559 5.75803 23.5344 5.75683 24.6118 5.74484C24.8383 5.74245 24.927 5.79398 24.9162 6.03846C24.906 6.25476 24.9084 6.47197 24.9108 6.68918C24.9132 6.9064 24.9156 7.12361 24.9054 7.33993C24.8922 7.60598 24.9917 7.6671 25.2386 7.6635C25.7315 7.65786 26.2246 7.65859 26.7178 7.65932C27.2727 7.66014 27.8275 7.66096 28.382 7.65272C28.6684 7.64792 28.7655 7.71503 28.7595 8.01943C28.7391 9.06684 28.7415 10.1155 28.7595 11.1629C28.7643 11.4409 28.6924 11.5092 28.4144 11.5068C26.5787 11.4952 24.7421 11.4975 22.9062 11.4999L22.1718 11.5008C21.6158 11.5008 21.2191 11.7789 21.1172 12.2223C20.9734 12.8466 21.3905 13.3787 22.0592 13.4051C22.3759 13.4176 22.693 13.4142 23.0101 13.4108C23.5161 13.4055 24.0221 13.4001 24.5267 13.459C26.7809 13.7239 28.5522 15.5419 28.7427 17.7913C28.9345 20.0635 27.4808 22.1931 25.2961 22.8019C24.9941 22.8857 24.8827 22.9924 24.9042 23.3088C24.9221 23.5748 24.9187 23.8421 24.9153 24.1097V24.1097V24.1098V24.1098C24.913 24.2918 24.9106 24.4739 24.915 24.6558C24.9198 24.8475 24.8635 24.9147 24.6633 24.9135C23.556 24.9051 22.4475 24.9051 21.3401 24.9135C21.14 24.9147 21.0825 24.8475 21.0885 24.6558C21.0932 24.5076 21.0901 24.3589 21.0869 24.2102C21.0821 23.9838 21.0773 23.7576 21.1005 23.5341C21.1424 23.117 21.0357 22.9696 20.5803 22.9876C19.9697 23.0124 19.3582 23.0088 18.7468 23.0051H18.7468H18.7467H18.7467H18.7466H18.7465H18.7465C18.3549 23.0028 17.9634 23.0004 17.5723 23.0056C17.3279 23.0092 17.2416 22.9541 17.2452 22.6904C17.2607 21.6274 17.2607 20.5644 17.2452 19.5014C17.2416 19.227 17.3123 19.1467 17.5927 19.1515C18.3657 19.1646 19.1387 19.1624 19.9117 19.1603H19.912C20.2019 19.1595 20.4918 19.1587 20.7817 19.1587V19.1611ZM5.73435 42.1579C6.79974 42.1699 7.65301 41.331 7.6554 40.2692C7.6578 39.1942 6.83209 38.3565 5.76551 38.3494C4.69413 38.3422 3.85284 39.1691 3.84565 40.2369C3.83846 41.307 4.66417 42.1459 5.73435 42.1579ZM24.9077 40.2704C24.9053 41.331 24.0508 42.1699 22.9854 42.1579C21.9152 42.1459 21.0907 41.3058 21.0979 40.2357C21.1051 39.1691 21.9476 38.3422 23.019 38.3494C24.0855 38.3565 24.9101 39.1954 24.9077 40.2704ZM40.2245 42.1592C41.2911 42.176 42.1516 41.3419 42.1588 40.2825L42.1576 40.2813C42.166 39.2051 41.345 38.3602 40.2809 38.3494C39.2059 38.3386 38.3598 39.1595 38.3478 40.2249C38.337 41.2987 39.1555 42.1424 40.2245 42.1592Z" fill="#5F0087"/>
</svg>
