<svg width="53" height="53" viewBox="0 0 53 53" fill="none" xmlns="http://www.w3.org/2000/svg">
<g filter="url(#filter0_d_661_418)">
<path d="M9.98384 45C9.38045 44.7644 8.74622 44.6091 8.2199 44.1918C7.11662 43.3175 6.64095 42.1691 6.64205 40.7839C6.64535 33.5047 6.63985 26.2265 6.65306 18.9472C6.65306 18.5487 6.55396 18.3593 6.17959 18.1666C4.79223 17.4509 4.07212 16.2716 4.01156 14.7081C3.98843 14.1234 4.00715 13.5365 4.00715 12.9507C4.00715 9.11346 4.00495 5.27618 4.00936 1.4389C4.01046 0.401683 4.90233 -0.257866 5.80522 0.0966829C6.34035 0.30699 6.64205 0.788164 6.64315 1.45762C6.64535 4.32815 6.64315 7.19868 6.64315 10.0692C6.64315 10.5052 6.86483 10.7232 7.3082 10.7232C7.84994 10.7232 8.39277 10.7045 8.9334 10.731C9.234 10.7464 9.28685 10.6407 9.28575 10.3654C9.27584 7.43651 9.27915 4.50763 9.28135 1.57764C9.28135 1.40257 9.27694 1.22309 9.31218 1.05353C9.45312 0.389571 10.0763 -0.0607722 10.7326 0.0096972C11.3976 0.0812677 11.9019 0.6219 11.9118 1.31889C11.9273 2.31427 11.9162 3.31075 11.9162 4.30613C11.9162 6.32772 11.9217 8.34821 11.9096 10.3698C11.9074 10.6539 11.9768 10.7409 12.2675 10.7299C12.8962 10.7067 13.5271 10.7023 14.1558 10.731C14.4851 10.7464 14.5632 10.6561 14.561 10.3269C14.5467 7.44202 14.5522 4.55607 14.5522 1.67123C14.5522 0.617496 15.0345 0.00529286 15.8658 0.00198961C16.6972 -0.000212562 17.1882 0.615294 17.1882 1.66242C17.1882 5.90931 17.1849 10.1573 17.1893 14.4042C17.1915 16.2033 16.4285 17.5224 14.7747 18.28C14.5456 18.3846 14.5489 18.5376 14.55 18.7314C14.5533 20.328 14.5522 21.9246 14.5522 23.52C14.5522 29.2908 14.5544 35.0605 14.5511 40.8313C14.5511 42.5512 13.8112 43.8406 12.2576 44.6146C11.9041 44.7908 11.5044 44.8723 11.1257 44.9978H9.98274L9.98384 45Z" fill="#5F0087"/>
<path d="M44.2574 44.9998C43.6827 44.7729 43.0716 44.6331 42.564 44.2455C41.4331 43.3834 40.9167 42.2349 40.9178 40.8289C40.92 37.0951 40.9134 33.3613 40.9266 29.6264C40.9277 29.2741 40.8661 29.1243 40.4851 29.1717C40.1966 29.208 39.9004 29.1871 39.6075 29.1772C38.8566 29.1519 38.2796 28.6167 38.2895 27.8713C38.3314 24.6374 38.1189 21.398 38.458 18.1707C39.0768 12.2667 41.2206 6.97602 44.9071 2.31953C45.3695 1.73486 45.8738 1.18211 46.3682 0.622761C46.8824 0.0413881 47.4252 -0.124876 47.9989 0.100847C48.5439 0.315558 48.8291 0.811046 48.8291 1.56088C48.8291 11.4596 48.8291 21.3584 48.8291 31.2571C48.8291 34.4635 48.8313 37.6709 48.8291 40.8773C48.828 42.2669 48.2984 43.3999 47.1797 44.2477C46.649 44.6496 46.0181 44.8049 45.4026 44.9998H44.2596H44.2574Z" fill="#5F0087"/>
<path d="M35.6466 23.6471C35.6466 24.9794 35.6444 26.3117 35.6466 27.6429C35.651 29.4212 36.4162 30.7282 38.0536 31.478C38.2517 31.5683 38.2881 31.6883 38.2859 31.8799C38.2782 32.7586 38.2804 33.6372 38.2859 34.5159C38.2859 34.6832 38.2573 34.811 38.1207 34.9376C35.4297 37.4393 32.2806 38.9852 28.6294 39.4631C24.6401 39.985 20.9317 39.1592 17.4963 37.0792C17.319 36.9724 17.1825 36.8843 17.1836 36.6212C17.1957 32.3456 17.1924 28.0701 17.1935 23.7946C17.1935 23.7385 17.2045 23.6812 17.2133 23.5986C17.9588 28.9708 22.6053 31.794 26.5439 31.7191C30.7545 31.6388 34.8967 28.6251 35.6477 23.6493L35.6466 23.6471Z" fill="#5F0087"/>
<path d="M19.4816 16.6485C19.9705 15.368 19.8119 14.0268 19.8229 12.7022C19.8372 10.902 19.8328 9.10058 19.8196 7.30031C19.8174 7.00082 19.8912 6.85988 20.1929 6.74206C22.7188 5.761 25.3283 5.36681 28.0205 5.63657C31.6122 5.99553 34.7833 7.36968 37.5305 9.71719C37.7276 9.88566 37.6803 10.0189 37.612 10.2072C36.9393 12.0647 36.4317 13.9674 36.1035 15.9152C35.7886 17.7793 35.6323 19.6589 35.6279 21.555C34.9507 17.743 32.8531 15.0729 29.148 13.9112C25.4043 12.7375 22.1902 13.8352 19.4805 16.6485H19.4816Z" fill="#5F0087"/>
<path d="M33.1031 22.6165C33.0877 26.3118 30.0729 29.2968 26.3799 29.2748C22.6846 29.2528 19.7051 26.2336 19.7326 22.5406C19.7612 18.8618 22.7573 15.8944 26.4338 15.9043C30.1279 15.9142 33.1185 18.9235 33.1031 22.6165Z" fill="#5F0087"/>
</g>
<defs>
<filter id="filter0_d_661_418" x="0" y="0" width="52.8301" height="53" filterUnits="userSpaceOnUse" color-interpolation-filters="sRGB">
<feFlood flood-opacity="0" result="BackgroundImageFix"/>
<feColorMatrix in="SourceAlpha" type="matrix" values="0 0 0 0 0 0 0 0 0 0 0 0 0 0 0 0 0 0 127 0" result="hardAlpha"/>
<feOffset dy="4"/>
<feGaussianBlur stdDeviation="2"/>
<feComposite in2="hardAlpha" operator="out"/>
<feColorMatrix type="matrix" values="0 0 0 0 0 0 0 0 0 0 0 0 0 0 0 0 0 0 0.25 0"/>
<feBlend mode="normal" in2="BackgroundImageFix" result="effect1_dropShadow_661_418"/>
<feBlend mode="normal" in="SourceGraphic" in2="effect1_dropShadow_661_418" result="shape"/>
</filter>
</defs>
</svg>
