<svg width="45" height="41" viewBox="0 0 45 41" fill="none" xmlns="http://www.w3.org/2000/svg">
<path d="M45 14.0159V14.5435C44.9086 15.791 44.6319 16.995 44.1406 18.1463C43.8358 18.8603 43.5029 19.5602 43.0972 20.2249C42.9272 20.504 42.715 20.6411 42.3856 20.6411C38.9727 20.64 35.5599 20.64 32.147 20.6411C31.7824 20.6411 31.5433 20.4876 31.3756 20.1687C30.0918 17.7336 28.7623 15.3232 27.4739 12.8916C27.3367 12.6325 27.1949 12.3758 27.0342 12.1307C26.4738 11.2761 25.4562 11.303 24.9263 12.1823C24.8043 12.384 24.734 12.6091 24.6308 12.8189C23.6706 14.778 22.7585 16.7605 21.8194 18.729C21.1641 20.103 20.5005 21.4735 19.8639 22.857C19.7865 23.0258 19.7419 23.2509 19.5215 23.2755C19.2976 23.3001 19.205 23.0891 19.1053 22.9332C18.192 21.5005 17.2787 20.0678 16.3701 18.634C16.1661 18.3128 15.9668 17.9868 15.7394 17.682C15.1872 16.9399 14.2786 16.9411 13.7522 17.6996C13.2176 18.4699 12.7568 19.2882 12.2926 20.1018C12.0698 20.4911 11.7966 20.6505 11.3429 20.6482C8.48696 20.6318 5.63101 20.6329 2.77506 20.647C2.31079 20.6494 2.00948 20.4958 1.78204 20.0843C0.851158 18.403 0.119584 16.662 0.0410338 14.7065C0.0410338 14.6795 0.0199307 14.6549 0 14.6315V11.9947C0.0668265 10.7415 0.350546 9.53506 0.866399 8.39666C3.02009 3.64378 6.63106 0.781962 11.8506 0.103146C14.5975 -0.254434 17.1674 0.379831 19.5872 1.69877C20.504 2.19939 21.3657 2.7762 22.1559 3.45385C22.4537 3.70943 22.6542 3.57109 22.8804 3.3835C23.9004 2.53821 25.0072 1.82422 26.2077 1.26851C28.2078 0.342314 30.3158 -0.123126 32.5199 0.0281126C35.3606 0.22273 37.8976 1.23685 40.1088 3.04351C42.4653 4.96858 44.0152 7.40716 44.7749 10.3546C44.9215 10.9232 44.8968 11.5094 44.9977 12.0815V12.5211C44.9426 12.5798 44.9426 12.6384 44.9977 12.697V13.4884C44.9261 13.6642 44.9261 13.8401 44.9977 14.0159H45Z" fill="#5F0087"/>
<path d="M4.3848 23.1576C7.04966 23.1576 9.71334 23.1459 12.3782 23.1658C13.0863 23.1717 13.5775 22.9114 13.914 22.2912C14.1766 21.8058 14.4815 21.3439 14.7886 20.8374C16.029 22.7883 17.2471 24.6946 18.4547 26.6068C18.729 27.0406 19.0737 27.3536 19.6072 27.37C20.2532 27.3888 20.6635 27.0535 20.9331 26.4802C22.2392 23.7075 23.557 20.9406 24.87 18.1702C25.2628 17.3425 25.6544 16.516 26.0483 15.6836C26.2031 15.7762 26.2371 15.9275 26.3051 16.0529C27.4141 18.1093 28.5326 20.1598 29.6229 22.2267C29.97 22.8833 30.4542 23.1728 31.2033 23.1682C34.1906 23.1471 37.1778 23.1588 40.1651 23.1588H40.6786C40.5027 23.344 40.3902 23.4671 40.2706 23.5855C34.717 29.1122 29.1645 34.6389 23.6097 40.1632C22.8359 40.9334 22.1384 40.9334 21.374 40.1726C15.7887 34.6154 10.2034 29.0594 4.61577 23.5046C4.52549 23.4144 4.40356 23.3557 4.29688 23.2819C4.32618 23.2408 4.35549 23.1998 4.3848 23.1588V23.1576Z" fill="#5F0087"/>
</svg>
