<svg width="44" height="45" viewBox="0 0 44 45" fill="none" xmlns="http://www.w3.org/2000/svg">
<path d="M0.00113004 44.8945H43.3776C43.3019 45.0697 43.1494 44.9736 43.0386 44.9736C41.3176 44.9815 39.5965 44.9793 37.8755 44.9793C25.3773 44.9793 12.879 44.9793 0.380823 44.9736C0.256519 44.9736 0.0937931 45.0708 0 44.8945H0.00113004Z" fill="#5F0087"/>
<path d="M27.2796 1.61832C27.2751 3.18116 27.2728 4.74513 27.2626 6.30797C27.2626 6.43567 27.3395 6.58709 27.1937 6.69332C27.0253 6.5046 27.0592 6.27068 27.0592 6.04807C27.0547 4.86379 27.0592 3.67951 27.057 2.49523C27.057 1.85563 27.0423 1.84093 26.3868 1.84093C19.0958 1.84093 11.8048 1.84093 4.51271 1.83641C4.22455 1.83641 3.91605 1.91326 3.65614 1.7042C3.65162 1.67482 3.6471 1.64657 3.64258 1.61719H27.2796V1.61832Z" fill="#5F0087"/>
<path d="M15.4272 14.2699C11.6292 14.2699 7.83112 14.2665 4.03306 14.2767C3.73247 14.2767 3.62738 14.2281 3.63303 13.8947C3.65563 12.4697 3.64998 11.0436 3.63642 9.61866C3.63416 9.34745 3.69744 9.2627 3.98221 9.2627C11.6201 9.27061 19.2592 9.27061 26.8971 9.2627C27.2056 9.2627 27.2678 9.3644 27.2644 9.64917C27.2508 11.0606 27.2474 12.472 27.2666 13.8834C27.2712 14.21 27.1728 14.2789 26.8632 14.2778C23.0516 14.2676 19.2388 14.271 15.4272 14.271V14.2699Z" fill="#5F0087"/>
<path d="M3.65676 1.70435C11.3614 1.70435 19.0648 1.70435 26.7694 1.69531C27.1062 1.69531 27.1977 1.79137 27.1943 2.1236C27.1796 3.64689 27.1921 5.17018 27.1943 6.69347C27.0553 6.7059 26.9163 6.72737 26.7773 6.7285C19.2117 6.72963 11.6461 6.72624 4.08053 6.74093C3.69066 6.74093 3.62851 6.62906 3.63303 6.27536C3.65676 4.75207 3.65111 3.22877 3.65563 1.70548L3.65676 1.70435Z" fill="#5F0087"/>
<path d="M12.9159 29.3532C9.95299 29.3532 6.9889 29.3476 4.02594 29.3611C3.7084 29.3622 3.63043 29.2865 3.63495 28.9701C3.65416 27.5451 3.65077 26.1202 3.63608 24.6963C3.63269 24.4172 3.7084 24.3449 3.98639 24.3449C9.95525 24.3528 15.9241 24.3539 21.893 24.3438C22.2162 24.3438 22.2535 24.4692 22.2512 24.7393C22.241 26.1496 22.2342 27.561 22.2546 28.9713C22.2591 29.3046 22.1517 29.3611 21.8478 29.36C18.8701 29.3487 15.8925 29.3532 12.9159 29.3532V29.3532Z" fill="#5F0087"/>
<path d="M12.9182 16.81C15.8812 16.81 18.8441 16.8156 21.8071 16.8021C22.1506 16.8009 22.2625 16.8767 22.2557 17.2383C22.2331 18.6203 22.2331 20.0023 22.2557 21.3844C22.2614 21.7505 22.1427 21.8183 21.8037 21.8172C15.8778 21.807 9.95186 21.807 4.02594 21.8172C3.7084 21.8172 3.63043 21.7426 3.63495 21.4262C3.65416 20.0159 3.65416 18.6056 3.63495 17.1953C3.63043 16.8778 3.71066 16.7987 4.02933 16.7998C6.99229 16.8134 9.95525 16.8077 12.9182 16.8077V16.81Z" fill="#5F0087"/>
<path fill-rule="evenodd" clip-rule="evenodd" d="M0.00195312 42.4381C0.291851 42.4375 0.581749 42.4359 0.871646 42.4344C1.66884 42.4301 2.46604 42.4258 3.26324 42.4415C3.58643 42.4483 3.65311 42.3568 3.65197 42.046C3.64559 40.3794 3.64487 38.7125 3.64415 37.0457V37.0454C3.64347 35.4663 3.64278 33.8873 3.63728 32.3085C3.63728 31.9909 3.69831 31.8847 4.0441 31.8847C9.97341 31.896 15.9027 31.896 21.8332 31.8847C22.1654 31.8847 22.2569 31.9661 22.2558 32.3028C22.249 33.9187 22.2484 35.5346 22.2479 37.1505V37.152C22.2473 38.7675 22.2467 40.383 22.24 41.9985C22.2388 42.3443 22.3112 42.4641 22.6739 42.4404C23.2084 42.4065 23.7474 42.4054 24.2819 42.4404C24.6515 42.4641 24.7147 42.3296 24.7125 41.9918C24.7013 40.0938 24.7026 38.1952 24.7038 36.2964V36.2964V36.2963V36.2963V36.2962V36.2962V36.2961V36.2961C24.7042 35.6965 24.7046 35.0969 24.7046 34.4973L24.7048 31.4624C24.7053 26.7444 24.7058 22.026 24.6955 17.3083C24.6955 16.9275 24.7826 16.819 25.1747 16.8247C26.111 16.8375 27.0477 16.8368 27.9845 16.8361H27.9845H27.9845H27.9845H27.9845H27.9846H27.9846H27.9846C28.7844 16.8355 29.5843 16.835 30.3841 16.8428C30.704 16.8462 30.7864 16.7625 30.7808 16.445C30.7697 15.8292 30.7707 15.2135 30.7717 14.5977C30.7726 14.0846 30.7734 13.5714 30.7672 13.0583C30.7638 12.7927 30.8192 12.6887 31.1108 12.7C31.7447 12.7238 32.3809 12.7181 33.016 12.7023C33.2544 12.6967 33.3234 12.7645 33.3211 13.0052C33.3159 13.465 33.3172 13.925 33.3186 14.3849V14.3849V14.385V14.385V14.385V14.3851V14.3851V14.3851C33.3204 15.0261 33.3222 15.667 33.3064 16.3071C33.2963 16.7139 33.372 16.8563 33.824 16.8484C34.8271 16.831 35.8306 16.8321 36.8342 16.8332H36.8343C37.652 16.8341 38.4699 16.8349 39.2877 16.8258C39.6505 16.8213 39.7488 16.8981 39.7488 17.2778C39.7424 21.5239 39.7408 25.7699 39.7392 30.016C39.7377 33.9978 39.7362 37.9795 39.7307 41.9612C39.7307 42.3387 39.8132 42.4539 40.2053 42.4426C40.9683 42.4223 41.7324 42.4278 42.4965 42.4332H42.4965H42.4966C42.7917 42.4354 43.0868 42.4375 43.3818 42.4381V44.8937C43.2713 44.9524 43.1544 44.9451 43.0383 44.938H43.0382H43.0381C42.9999 44.9356 42.9619 44.9332 42.9242 44.9332C28.7705 44.9355 14.6167 44.9355 0.461879 44.9332C0.424299 44.9332 0.386377 44.9356 0.348365 44.938H0.348281H0.348197H0.348113H0.34803H0.347946H0.347863H0.34778H0.347767C0.231665 44.9451 0.114741 44.9524 0.0042132 44.8937V42.4381H0.00195312ZM14.1691 40.1848C14.1691 40.0073 14.1698 39.8298 14.1704 39.6524C14.172 39.1963 14.1736 38.7405 14.1646 38.2841C14.1601 38.0626 14.2324 37.9903 14.4528 37.9937C15.115 38.005 15.7772 38.0072 16.4383 37.9925C16.6722 37.9869 16.7151 38.0762 16.714 38.2852C16.7061 39.5802 16.7038 40.8764 16.7151 42.1714C16.7174 42.4178 16.6112 42.4381 16.4134 42.4359C15.7659 42.4268 15.1172 42.4223 14.4697 42.4381C14.2268 42.4438 14.1578 42.3669 14.1635 42.1285C14.1741 41.6596 14.1723 41.1907 14.1705 40.7218C14.1698 40.5432 14.1691 40.3646 14.1691 40.1859V40.1848ZM33.4922 40.747C33.4931 40.5626 33.4939 40.3782 33.4939 40.1938H33.4928C33.4928 40.0206 33.4923 39.8474 33.4918 39.6741C33.4904 39.2123 33.4891 38.7504 33.4973 38.2886C33.5007 38.0773 33.4532 37.988 33.2193 37.9936C32.556 38.0072 31.8915 38.0061 31.2282 37.9936C30.9965 37.9903 30.9468 38.0841 30.9479 38.2942C30.9558 39.5791 30.957 40.8628 30.9479 42.1477C30.9457 42.3658 31.0067 42.4415 31.2327 42.437C31.8825 42.4234 32.5323 42.4166 33.1809 42.4392C33.4611 42.4494 33.5041 42.342 33.4984 42.0991C33.488 41.6484 33.4901 41.1977 33.4922 40.747ZM30.6966 24.7031V24.7031C30.6935 24.9099 30.6904 25.1168 30.7038 25.3226C30.7208 25.5802 30.6699 25.6966 30.3694 25.6842C29.7636 25.6582 29.1557 25.6684 28.5489 25.6808C28.3443 25.6853 28.2856 25.6232 28.2889 25.4198C28.3002 24.7429 28.3014 24.0648 28.2889 23.388C28.2856 23.1789 28.3579 23.128 28.5556 23.1314C29.176 23.1427 29.7976 23.145 30.4191 23.1314C30.6451 23.1258 30.7129 23.2004 30.7027 23.4185C30.6915 23.6569 30.6939 23.896 30.6962 24.1352L30.6962 24.1357C30.6972 24.2352 30.6982 24.3348 30.6982 24.4344H30.6993C30.6993 24.5238 30.698 24.6134 30.6966 24.703V24.703V24.703V24.703V24.7031ZM36.2049 24.7093C36.206 24.6169 36.2071 24.5245 36.2071 24.4321L36.206 24.431C36.206 24.3298 36.2055 24.2288 36.2049 24.1279C36.2035 23.8757 36.2021 23.6239 36.2094 23.3721C36.2139 23.189 36.1506 23.128 35.9664 23.1303C35.3314 23.1405 34.6963 23.1416 34.0612 23.1303C33.8612 23.1269 33.7934 23.1834 33.7968 23.3891C33.8092 24.066 33.8092 24.744 33.7968 25.4209C33.7934 25.6277 33.8578 25.683 34.0589 25.6797C34.6805 25.6683 35.302 25.6627 35.9224 25.6819C36.1834 25.691 36.223 25.5859 36.2117 25.3632C36.1997 25.1457 36.2023 24.9276 36.2049 24.7093ZM30.6971 29.2822L30.6971 29.2826C30.6945 29.5009 30.6919 29.719 30.7039 29.9365C30.7152 30.1591 30.6756 30.2642 30.4146 30.2563C29.7942 30.2371 29.1727 30.2428 28.5511 30.2541C28.35 30.2574 28.2856 30.2021 28.289 29.9964C28.3014 29.3195 28.3003 28.6415 28.289 27.9646C28.2856 27.7589 28.3522 27.7013 28.5534 27.7058C29.1885 27.7171 29.8236 27.716 30.4586 27.7058C30.6428 27.7036 30.7061 27.7646 30.7016 27.9477C30.6943 28.1995 30.6957 28.4513 30.6971 28.7032C30.6977 28.8039 30.6982 28.9046 30.6982 29.0054H30.6993C30.6993 29.0977 30.6982 29.19 30.6971 29.2822ZM33.8032 28.6805V28.6806C33.8023 28.7761 33.8013 28.8715 33.8013 28.9669V28.9658C33.8013 29.0663 33.8021 29.1667 33.8029 29.2672V29.2673V29.2673C33.8047 29.5058 33.8066 29.744 33.7979 29.9817C33.7911 30.1693 33.8239 30.2597 34.0454 30.254C34.6804 30.2405 35.3155 30.2416 35.9506 30.254C36.1551 30.2585 36.215 30.1964 36.2117 29.993C36.1992 29.3297 36.1958 28.6663 36.2128 28.003C36.2184 27.751 36.1235 27.699 35.8952 27.7047C35.2884 27.7193 34.6816 27.7205 34.0747 27.7047C33.842 27.6979 33.7866 27.7792 33.7968 27.9939C33.8079 28.222 33.8056 28.4512 33.8032 28.6804V28.6805ZM30.6993 33.6532C30.6879 33.7662 30.7041 33.9024 30.7208 34.042C30.7535 34.3159 30.7878 34.6031 30.618 34.755C30.4593 34.8967 30.1458 34.8692 29.8368 34.842L29.8368 34.842C29.7121 34.8311 29.5882 34.8202 29.4755 34.8205C29.3662 34.8205 29.2459 34.8316 29.125 34.8427C28.8273 34.8699 28.5256 34.8976 28.3737 34.7618C28.2042 34.6093 28.2372 34.318 28.2705 34.0242C28.2858 33.8891 28.3011 33.7535 28.2969 33.6306C28.2908 33.4574 28.2923 33.2839 28.2938 33.1105V33.1105C28.2954 32.931 28.297 32.7516 28.2901 32.5729C28.2822 32.3684 28.3195 32.27 28.5613 32.2768C29.1817 32.2938 29.8032 32.2926 30.4247 32.2768C30.6575 32.2712 30.7129 32.3571 30.7038 32.5695C30.6938 32.8011 30.6959 33.0332 30.6983 33.2873V33.2873C30.6993 33.404 30.7005 33.5252 30.7005 33.6532H30.6993ZM33.8029 33.232C33.8021 33.3324 33.8013 33.4329 33.8013 33.5334V33.5323C33.8013 33.633 33.802 33.7338 33.8028 33.8345C33.8046 34.0864 33.8064 34.3382 33.7968 34.59C33.7888 34.7798 33.8567 34.8273 34.0375 34.825C34.6872 34.816 35.3359 34.8183 35.9856 34.8239C36.1427 34.8262 36.2117 34.7866 36.2094 34.6137C36.2026 33.9086 36.2037 33.2023 36.2094 32.4972C36.2105 32.3322 36.1518 32.2768 35.9868 32.2791C35.337 32.287 34.6884 32.2892 34.0386 32.2791C33.8544 32.2757 33.7911 32.3322 33.7979 32.5175C33.8066 32.7552 33.8047 32.9935 33.8029 33.232Z" fill="#5F0087"/>
<path d="M5.52063 0.508517C5.38051 0.339011 5.40311 0.169506 5.52063 0V0.508517Z" fill="#5F0087"/>
</svg>
