<svg width="47" height="46" viewBox="0 0 47 46" fill="none" xmlns="http://www.w3.org/2000/svg">
<path d="M0 1.56356C0.425549 0.380657 1.29145 -0.0325574 2.51012 0.00197993C4.21972 0.051319 5.93179 0.0118478 7.64262 0.0155482C8.82675 0.0180152 9.45706 0.473168 9.8382 1.60427C10.4068 3.29289 10.9705 4.98276 11.5355 6.67138C11.8636 7.65076 12.2348 7.9209 13.2599 7.9209C23.6322 7.9209 34.0045 7.9209 44.378 7.92213C44.6851 7.92213 44.9923 7.90609 45.2932 8.0023C46.3898 8.35138 46.9362 9.43807 46.56 10.5864C45.9544 12.4391 45.3315 14.2869 44.7147 16.1371C43.6219 19.4144 42.5278 22.6905 41.4362 25.9666C41.0217 27.21 40.4321 27.6392 39.1222 27.6392C32.2788 27.6392 25.4355 27.6392 18.5922 27.6392C17.6153 27.6392 17.2502 27.9316 17.0109 28.8962C16.9036 29.3291 16.7851 29.7584 16.684 30.1925C16.5113 30.9425 16.9221 31.5111 17.688 31.5851C17.8558 31.6012 18.0272 31.5913 18.1962 31.5913C25.8413 31.5913 33.4852 31.5913 41.1303 31.5913C41.4534 31.5913 41.7741 31.5839 42.0887 31.6986C42.9977 32.0292 43.5207 32.9197 43.3702 33.9016C43.2358 34.7774 42.4612 35.4632 41.5472 35.515C41.4547 35.5199 41.3621 35.5199 41.2696 35.5199C33.4704 35.5199 25.6723 35.5248 17.8731 35.5187C15.3506 35.5162 13.3536 33.8954 12.8096 31.4371C12.6394 30.6711 12.6875 29.9064 12.8738 29.149C12.9984 28.6421 13.1044 28.1289 13.2574 27.6294C13.6361 26.391 13.5584 25.1933 13.1439 23.9647C11.0347 17.7073 8.9575 11.44 6.86799 5.17641C6.54976 4.22047 6.18711 3.96514 5.1695 3.96514C4.26043 3.96514 3.34889 3.9269 2.44228 3.97377C1.22484 4.04038 0.398413 3.56426 0 2.39616V1.56356Z" fill="#5F0087"/>
<path d="M15.0735 45.3954C14.9588 45.2449 14.7737 45.2671 14.6208 45.219C12.7965 44.6418 11.5975 42.8064 11.8603 40.9796C12.1489 38.969 13.7438 37.5419 15.7297 37.516C17.6798 37.4901 19.3351 38.8617 19.6743 40.7835C20.0493 42.9137 18.6247 44.9181 16.4587 45.3116C16.4254 45.3177 16.3982 45.3658 16.3686 45.3942H15.0735V45.3954Z" fill="#5F0087"/>
<path d="M38.7473 45.3954C38.6326 45.2449 38.4476 45.2671 38.2946 45.219C36.4703 44.6418 35.2714 42.8064 35.5341 40.9796C35.8227 38.969 37.4176 37.5419 39.4035 37.516C41.3536 37.4901 43.009 38.8617 43.3482 40.7835C43.7231 42.9137 42.2985 44.9181 40.1325 45.3116C40.0992 45.3177 40.0721 45.3658 40.0425 45.3942H38.7473V45.3954Z" fill="#5F0087"/>
</svg>
