<svg width="45" height="45" viewBox="0 0 45 45" fill="none" xmlns="http://www.w3.org/2000/svg">
<path d="M34.1894 0C34.2902 0.172297 34.4777 0.0902506 34.6195 0.132446C36.0307 0.552052 37.0598 1.84135 37.0821 3.31466C37.1055 4.82313 37.0821 6.33161 37.0962 7.84008C37.0985 8.10263 37.0024 8.15303 36.768 8.14834C36.1093 8.13545 35.4494 8.13076 34.7907 8.15069C34.5199 8.15889 34.4449 8.08388 34.4472 7.81078C34.4613 6.41951 34.4543 5.02825 34.4531 3.63698C34.4531 2.90443 34.1823 2.63837 33.4416 2.63837C32.0503 2.63837 30.6591 2.63602 29.2678 2.63837C28.5868 2.63837 28.3043 2.91967 28.3032 3.59596C28.3008 4.98723 28.2926 6.37849 28.3102 7.76976C28.3137 8.08505 28.2211 8.16241 27.9187 8.15186C27.26 8.12842 26.6013 8.13779 25.9414 8.14834C25.7386 8.15186 25.6601 8.10029 25.6613 7.88111C25.6718 6.31403 25.6367 4.74578 25.6824 3.17987C25.7222 1.82494 26.6986 0.624722 28.0137 0.173469C28.1426 0.128929 28.3102 0.154715 28.3899 0H34.1894V0Z" fill="#5F0087"/>
<path fill-rule="evenodd" clip-rule="evenodd" d="M44.9971 13.2723V39.8095C44.8271 41.1305 44.0442 41.9263 42.8205 42.3342C42.5697 42.4174 42.4689 42.5628 42.4759 42.8171C42.4829 43.0503 42.4794 43.2848 42.4759 43.5192C42.4654 44.3514 42.1782 44.7428 41.3941 44.9948H40.6908C39.8797 44.7276 39.6019 44.349 39.5891 43.4805C39.5874 43.3669 39.5875 43.2664 39.5876 43.1774C39.5879 42.8518 39.5881 42.6808 39.5027 42.5914C39.4084 42.4926 39.2095 42.4935 38.7906 42.4954C38.7281 42.4956 38.6607 42.4959 38.5881 42.4959C35.3321 42.4952 32.0767 42.4954 28.8211 42.4957H28.8209L23.937 42.4959C23.4237 42.4959 23.1662 42.7538 23.1646 43.2695V43.2696C23.1646 43.3423 23.1646 43.4161 23.1634 43.4887C23.147 44.3572 22.8716 44.7335 22.0617 44.996H21.3584C20.545 44.7276 20.2262 44.349 20.2707 43.4793C20.3059 42.8007 20.143 42.4233 19.4491 42.1338C18.1915 41.6098 17.6265 40.5257 17.6242 39.1825C17.6164 35.3203 17.6175 31.4582 17.6187 27.5961C17.6191 26.2167 17.6195 24.8372 17.6195 23.4578C17.6195 22.5499 17.6189 21.642 17.6183 20.7341C17.6169 18.4645 17.6155 16.1951 17.623 13.9264C17.6277 12.4179 18.5173 11.2224 19.9144 10.784C20.184 10.6996 20.4583 10.675 20.7372 10.675L24.9899 10.6749C30.6588 10.6747 36.3277 10.6745 41.9965 10.6773C43.246 10.6773 44.1168 11.315 44.7462 12.3487C44.8486 12.517 44.8785 12.7021 44.9083 12.887C44.9294 13.0176 44.9505 13.1481 44.9971 13.2723ZM23.0276 26.5837L23.0273 23.8599C23.0268 21.1359 23.0264 18.4123 23.0299 15.6879C23.0311 14.721 23.8679 14.0775 24.7423 14.3541C25.251 14.5147 25.6202 14.9812 25.6601 15.5239C25.6668 15.6187 25.6657 15.7142 25.6645 15.8093V15.8094C25.664 15.8459 25.6636 15.8824 25.6636 15.9188V37.2274C25.6636 37.2544 25.6637 37.2815 25.6639 37.3087V37.3088C25.6649 37.4725 25.6659 37.6379 25.6308 37.7947C25.4831 38.4627 24.8619 38.9105 24.209 38.8366C23.5128 38.7581 23.0299 38.1943 23.0299 37.4348C23.0281 34.7222 23.0284 32.0097 23.0286 29.2966V29.2945L23.0287 26.5825L23.0276 26.5837ZM37.0878 22.9656C37.0879 24.1709 37.088 25.3761 37.088 26.5814C37.088 27.4856 37.088 28.3898 37.0879 29.2939C37.0877 32.0075 37.0874 34.7206 37.0892 37.4337C37.0904 38.1933 37.5721 38.757 38.2683 38.8356C38.92 38.9094 39.5424 38.4617 39.6901 37.7936C39.7252 37.6368 39.7242 37.4714 39.7232 37.3078C39.723 37.2805 39.7229 37.2534 39.7229 37.2263V15.9178C39.7229 15.8813 39.7233 15.8448 39.7238 15.8083C39.725 15.7131 39.7261 15.6176 39.7194 15.5228C39.6795 14.9789 39.3103 14.5124 38.8016 14.3519C37.9108 14.0717 37.088 14.7269 37.088 15.7302C37.0872 18.1424 37.0875 20.5541 37.0878 22.9656Z" fill="#5F0087"/>
<path d="M14.0755 11.3858C14.5139 11.3858 14.9534 11.3952 15.3918 11.3823C15.6379 11.3752 15.652 11.4526 15.5641 11.6577C15.2793 12.3223 15.1222 13.0197 15.1269 13.7429C15.1281 13.9878 15.0343 14.0312 14.8186 14.0265C14.2783 14.0136 13.7368 14.0159 13.1953 14.0253C12.601 14.0359 12.315 14.3277 12.308 14.9208C12.3022 15.4764 12.2975 16.0319 12.3115 16.5875C12.3174 16.8079 12.2658 16.8911 12.0255 16.8852C11.3246 16.8688 10.6214 16.8782 9.92048 16.8805C9.78452 16.8805 9.6591 16.8969 9.66848 16.6895C9.70599 15.8585 9.58526 15.0204 9.73763 14.1953C10.033 12.5977 11.3153 11.4796 12.9339 11.3975C13.3125 11.3788 13.6934 11.3952 14.0743 11.3952C14.0743 11.3928 14.0743 11.3905 14.0743 11.387L14.0755 11.3858Z" fill="#5F0087"/>
<path fill-rule="evenodd" clip-rule="evenodd" d="M0.0957686 21.8738C0.0906555 21.9445 0.0855086 22.0156 0.00507834 22.0575H0.00390625V39.8978C0.172687 40.9398 0.715362 41.7603 1.6964 42.1142C2.42778 42.3779 2.58132 42.7765 2.53913 43.4703C2.48638 44.3365 2.81105 44.7327 3.6069 44.9952H4.31015C5.06146 44.6448 5.36737 44.0517 5.27946 43.2359C5.27122 43.1612 5.27457 43.0848 5.27792 43.0087C5.28172 42.9224 5.2855 42.8364 5.27243 42.753C5.21969 42.4178 5.34979 42.3486 5.67446 42.3498C8.27537 42.36 10.8763 42.3592 13.4772 42.3584C14.171 42.3582 14.8648 42.358 15.5587 42.358H16.0345C15.2668 41.1707 15.1062 39.9213 15.1097 38.6097C15.1238 33.9418 15.1221 29.2739 15.1203 24.6061C15.1197 23.0502 15.1191 21.4943 15.1191 19.9384C15.1191 19.9115 15.1199 19.8851 15.1206 19.8594C15.1262 19.6624 15.1307 19.5048 14.7886 19.5059C12.6713 19.5148 10.5536 19.5147 8.43579 19.5146C6.64378 19.5146 4.85166 19.5146 3.05953 19.5199C1.66592 19.5246 0.496182 20.447 0.108222 21.7856C0.10014 21.8133 0.0979576 21.8435 0.0957686 21.8738ZM7.91405 37.3485V30.9794C7.91405 30.2617 7.91418 29.544 7.91431 28.8263C7.91457 27.3909 7.91483 25.9555 7.91405 24.5201C7.91405 23.6387 7.36903 23.0292 6.59194 23.0327C5.81484 23.035 5.2792 23.6422 5.2792 24.5283V37.3579C5.2792 38.244 5.81719 38.8453 6.60131 38.8418C7.3831 38.8394 7.91405 38.2382 7.91405 37.3485Z" fill="#5F0087"/>
</svg>
