<svg width="50" height="50" viewBox="0 0 50 50" fill="none" xmlns="http://www.w3.org/2000/svg">
<path d="M32.748 5.19757C32.748 5.67321 33.1336 6.05878 33.6089 6.05878C34.0845 6.05878 34.4701 5.67321 34.4701 5.19757V1.7538C34.4701 1.27815 34.0845 0.892944 33.6089 0.892944C33.1336 0.892944 32.748 1.27815 32.748 1.7538V5.19757Z" fill="#5F0087"/>
<path d="M24.9995 0.892953C24.5239 0.892953 24.1387 1.27816 24.1387 1.7538V5.19758C24.1387 5.67322 24.5239 6.05879 24.9995 6.05879C25.4752 6.05879 25.8604 5.67322 25.8604 5.19758V1.7538C25.8604 1.52534 25.7699 1.30662 25.6085 1.14483C25.4467 0.983393 25.228 0.892944 24.9995 0.892944L24.9995 0.892953Z" fill="#5F0087"/>
<path d="M15.5293 1.7538V5.19757C15.5293 5.67321 15.9149 6.05878 16.3905 6.05878C16.8658 6.05878 17.2514 5.67321 17.2514 5.19757V1.7538C17.2514 1.27815 16.8658 0.892944 16.3905 0.892944C15.9149 0.892944 15.5293 1.27815 15.5293 1.7538V1.7538Z" fill="#5F0087"/>
<path d="M43.0795 5.19757V1.7538C43.0795 1.27815 42.6939 0.892944 42.2186 0.892944C41.743 0.892944 41.3574 1.27815 41.3574 1.7538V5.19757C41.3574 5.67321 41.743 6.05878 42.2186 6.05878C42.6939 6.05878 43.0795 5.67321 43.0795 5.19757Z" fill="#5F0087"/>
<path d="M8.64198 5.19757V1.7538C8.64198 1.27815 8.25642 0.892944 7.78077 0.892944C7.30549 0.892944 6.91992 1.27815 6.91992 1.7538V5.19757C6.91992 5.67321 7.30549 6.05878 7.78077 6.05878C8.25642 6.05878 8.64198 5.67321 8.64198 5.19757Z" fill="#5F0087"/>
<path d="M46.524 4.33673H44.8023V5.19758C44.8023 6.12042 44.3097 6.97334 43.5108 7.43458C42.7116 7.89581 41.7267 7.89581 40.9279 7.43458C40.1286 6.97334 39.6364 6.12042 39.6364 5.19758V4.33673H36.1923V5.19758C36.1923 6.12042 35.7 6.97334 34.9008 7.43458C34.1019 7.89581 33.1171 7.89581 32.3179 7.43458C31.519 6.97334 31.0264 6.12042 31.0264 5.19758V4.33673H27.5827V5.19758C27.5827 6.12042 27.0904 6.97334 26.2912 7.43458C25.492 7.89581 24.5075 7.89581 23.7083 7.43458C22.909 6.97334 22.4168 6.12042 22.4168 5.19758V4.33673H18.973V5.19758C18.973 6.12042 18.4805 6.97334 17.6816 7.43458C16.8823 7.89581 15.8975 7.89581 15.0987 7.43458C14.2994 6.97334 13.8072 6.12042 13.8072 5.19758V4.33673H10.3631V5.19758C10.3631 6.12042 9.87084 6.97334 9.0716 7.43458C8.27272 7.89581 7.28791 7.89581 6.48868 7.43458C5.6898 6.97334 5.19722 6.12042 5.19722 5.19758V4.33673H3.47552C2.79051 4.33673 2.13323 4.60879 1.64893 5.09308C1.16463 5.57774 0.892578 6.23464 0.892578 6.91967V9.50259H49.1065V6.91967C49.1065 6.23466 48.8344 5.57775 48.3501 5.09308C47.8658 4.60879 47.2086 4.33673 46.5235 4.33673H46.524Z" fill="#5F0087"/>
<path d="M35.3312 45.6635C35.3298 44.2938 34.7853 42.9807 33.8167 42.0121C32.8481 41.0435 31.5351 40.4991 30.1654 40.4976H28.3212C28.0704 41.4908 27.3887 42.3195 26.4626 42.7569C25.5362 43.1944 24.4631 43.1944 23.5366 42.7569C22.6105 42.3195 21.9287 41.4907 21.678 40.4976H19.8338C18.4641 40.4991 17.1511 41.0435 16.1825 42.0121C15.2139 42.9807 14.6694 44.2938 14.668 45.6635V49.1072H35.3313L35.3312 45.6635Z" fill="#5F0087"/>
<path d="M22.471 26.7684C22.7452 26.4823 23.1098 26.3004 23.5033 26.2535C23.8968 26.2063 24.2942 26.2971 24.6282 26.5101C25.8044 27.1738 27.1283 27.5305 28.4785 27.5475C29.0719 27.59 29.6363 27.8221 30.0877 28.2094C30.1731 27.7558 30.2019 27.2931 30.1738 26.8322C29.8002 23.8806 27.8352 23.2778 24.9993 23.2778C24.4811 23.2299 23.9597 23.3211 23.4888 23.5419C23.0174 23.7628 22.6142 24.1059 22.3198 24.5351C22.1685 24.8172 21.8759 24.9952 21.5555 24.9999C21.0903 24.97 20.6345 25.1419 20.3047 25.4712C19.9754 25.801 19.8035 26.2568 19.8334 26.722C19.8305 27.171 19.8637 27.6196 19.9325 28.0632C20.2687 27.7818 20.6665 27.5836 21.0939 27.4849C21.6117 27.3818 22.0892 27.1332 22.4708 26.7685L22.471 26.7684Z" fill="#5F0087"/>
<path d="M25.0003 37.0541C29.2416 37.0541 29.3053 30.2342 29.3053 30.1662V30.1402C29.2559 29.6527 28.8524 29.2776 28.3623 29.2639C26.726 29.2304 25.1246 28.7821 23.7089 27.9605C23.1038 28.5734 22.3306 28.9928 21.4866 29.1658C21.0902 29.2454 20.7829 29.5597 20.7119 29.9578C20.7011 30.0267 20.6957 30.0962 20.6953 30.1661C20.6953 30.2342 20.7591 37.054 25.0003 37.054L25.0003 37.0541Z" fill="#5F0087"/>
<path d="M23.2774 38.4894V39.637C23.2774 40.2521 23.6056 40.8204 24.1386 41.1281C24.6712 41.4358 25.3277 41.4358 25.8603 41.1281C26.3932 40.8204 26.7215 40.2521 26.7215 39.637V38.4894C25.6051 38.8713 24.3937 38.8713 23.2773 38.4894H23.2774Z" fill="#5F0087"/>
<path d="M0.892578 39.6369C0.892578 40.3219 1.16463 40.9788 1.64893 41.4631C2.13323 41.9474 2.79049 42.2199 3.47552 42.2199H8.64136V20.6949C8.64136 20.0099 8.91341 19.353 9.39771 18.8687C9.88201 18.3844 10.5393 18.112 11.2243 18.112H38.7748C39.4598 18.112 40.1171 18.3844 40.6014 18.8687C41.0857 19.353 41.3578 20.0099 41.3578 20.6949V42.2199H46.5236C47.2086 42.2199 47.8659 41.9474 48.3502 41.4631C48.8345 40.9788 49.1066 40.322 49.1066 39.6369V11.2248H0.892652L0.892578 39.6369Z" fill="#5F0087"/>
<path d="M38.775 49.1071C39.0035 49.1071 39.2226 49.0166 39.384 48.8552C39.5454 48.6934 39.6363 48.4747 39.6363 48.2462V20.6947C39.6363 20.4666 39.5455 20.2475 39.384 20.0861C39.2226 19.9247 39.0035 19.8339 38.775 19.8339H11.2245C10.7488 19.8339 10.3633 20.2194 10.3633 20.6947V48.2462C10.3633 48.4746 10.4541 48.6934 10.6155 48.8552C10.777 49.0166 10.996 49.107 11.2245 49.107H12.9466L12.9462 45.6633C12.9484 43.837 13.6748 42.0866 14.966 40.7951C16.2574 39.504 18.008 38.7776 19.8341 38.7754H21.5562V37.4342C19.6759 35.6681 19.036 32.5483 18.9812 30.4674L18.9808 30.467C18.3283 29.3316 18.0259 28.0286 18.1121 26.722C18.0804 25.8835 18.369 25.064 18.9192 24.4309C19.4698 23.7974 20.2409 23.3975 21.0755 23.3124C22.0301 22.1363 23.4869 21.4841 25 21.5561C26.7073 21.5561 31.2436 21.5561 31.8811 26.6142C32.0065 27.9562 31.7052 29.3031 31.0198 30.4637C30.9654 32.5447 30.3258 35.6674 28.4449 37.4378V38.7754H30.1669H30.1666C31.9928 38.7775 33.7436 39.504 35.0347 40.7951C36.3262 42.0866 37.0523 43.8372 37.0545 45.6633V49.1071H38.775Z" fill="#5F0087"/>
</svg>
