<svg width="52" height="40" viewBox="0 0 52 40" fill="none" xmlns="http://www.w3.org/2000/svg">
<path fill-rule="evenodd" clip-rule="evenodd" d="M6.65385 0.714294H45.349C45.9332 0.714294 46.4096 1.19068 46.4096 1.77482V24.7962H5.59332V1.77482C5.59332 1.19068 6.06982 0.714294 6.65385 0.714294ZM27.5694 7.48872L27.1675 4.97729H24.8354L24.4334 7.48872C23.8548 7.63676 23.3004 7.86663 22.7869 8.17138L20.7262 6.67933L19.0772 8.32834L20.5693 10.3892C20.2646 10.9027 20.0348 11.457 19.8868 12.0355L17.3751 12.4376V14.7697L19.8867 15.1717C20.0348 15.7502 20.2647 16.3045 20.5693 16.8181L19.0772 18.8789L20.7262 20.5279L22.787 19.0358C23.3005 19.3406 23.8549 19.5705 24.4334 19.7186L24.8354 22.2301H27.1675L27.5695 19.7185C28.148 19.5704 28.7024 19.3405 29.2159 19.0358L31.2767 20.5279L32.9257 18.8789L31.4337 16.8181C31.7385 16.3046 31.9683 15.7502 32.1163 15.1717L34.6278 14.7698V12.4377L32.1161 12.0356C31.9681 11.4571 31.7382 10.9027 31.4335 10.3893L32.9255 8.32845L31.2765 6.67943L29.2157 8.17159C28.7023 7.8667 28.1479 7.63675 27.5694 7.48872V7.48872ZM1.35132 39.3823H50.6515C51.0233 39.3823 51.3428 39.2078 51.5437 38.895C51.7447 38.5823 51.7705 38.219 51.6159 37.881L46.4095 26.493H5.59332L0.386882 37.881C0.232257 38.219 0.258134 38.5823 0.459104 38.895C0.659967 39.2078 0.97961 39.3823 1.35132 39.3823ZM20.057 36.2008L21.6966 30.749H30.3063L31.946 36.2008H20.057ZM26.0014 10.1579C24.0984 10.1579 22.5557 11.7006 22.5557 13.6036C22.5557 15.5067 24.0984 17.0494 26.0014 17.0494C27.9045 17.0494 29.4472 15.5066 29.4472 13.6036C29.4472 11.7006 27.9045 10.1579 26.0014 10.1579Z" fill="#5F0087"/>
</svg>
