<svg width="75" height="76" viewBox="0 0 75 76" fill="none" xmlns="http://www.w3.org/2000/svg">
<g filter="url(#filter0_d_527_238)">
<path d="M47.6426 13.3569C47.6426 13.9488 48.1224 14.4286 48.7139 14.4286C49.3058 14.4286 49.7856 13.9488 49.7856 13.3569V9.07128C49.7856 8.47937 49.3058 8 48.7139 8C48.1224 8 47.6426 8.47937 47.6426 9.07128V13.3569Z" fill="#5F0087"/>
<path d="M38.001 8.00001C37.4091 8.00001 36.9297 8.47938 36.9297 9.07129V13.3569C36.9297 13.9488 37.4091 14.4286 38.001 14.4286C38.5929 14.4286 39.0722 13.9488 39.0722 13.3569V9.07129C39.0722 8.78699 38.9597 8.51479 38.7588 8.31345C38.5575 8.11256 38.2853 8 38.001 8L38.001 8.00001Z" fill="#5F0087"/>
<path d="M26.2148 9.07128V13.3569C26.2148 13.9488 26.6947 14.4286 27.2866 14.4286C27.878 14.4286 28.3579 13.9488 28.3579 13.3569V9.07128C28.3579 8.47937 27.878 8 27.2866 8C26.6947 8 26.2148 8.47937 26.2148 9.07128Z" fill="#5F0087"/>
<path d="M60.5004 13.3569V9.07128C60.5004 8.47937 60.0206 8 59.4292 8C58.8372 8 58.3574 8.47937 58.3574 9.07128V13.3569C58.3574 13.9488 58.8372 14.4286 59.4292 14.4286C60.0206 14.4286 60.5004 13.9488 60.5004 13.3569Z" fill="#5F0087"/>
<path d="M17.643 13.3569V9.07128C17.643 8.47937 17.1632 8 16.5713 8C15.9798 8 15.5 8.47937 15.5 9.07128V13.3569C15.5 13.9488 15.9798 14.4286 16.5713 14.4286C17.1632 14.4286 17.643 13.9488 17.643 13.3569Z" fill="#5F0087"/>
<path d="M64.7857 12.2856H62.6431V13.3569C62.6431 14.5053 62.0302 15.5668 61.036 16.1407C60.0414 16.7147 58.8158 16.7147 57.8217 16.1407C56.8271 15.5668 56.2145 14.5053 56.2145 13.3569V12.2856H51.9285V13.3569C51.9285 14.5053 51.316 15.5668 50.3214 16.1407C49.3272 16.7147 48.1016 16.7147 47.107 16.1407C46.1129 15.5668 45.4999 14.5053 45.4999 13.3569V12.2856H41.2143V13.3569C41.2143 14.5053 40.6018 15.5668 39.6072 16.1407C38.6126 16.7147 37.3875 16.7147 36.3929 16.1407C35.3983 15.5668 34.7857 14.5053 34.7857 13.3569V12.2856H30.5001V13.3569C30.5001 14.5053 29.8871 15.5668 28.893 16.1407C27.8984 16.7147 26.6728 16.7147 25.6787 16.1407C24.6841 15.5668 24.0715 14.5053 24.0715 13.3569V12.2856H19.7855V13.3569C19.7855 14.5053 19.1729 15.5668 18.1783 16.1407C17.1842 16.7147 15.9586 16.7147 14.964 16.1407C13.9699 15.5668 13.3569 14.5053 13.3569 13.3569V12.2856H11.2143C10.3619 12.2856 9.54392 12.6242 8.94124 13.2269C8.33856 13.83 8 14.6475 8 15.5V18.7143H67.9995V15.5C67.9995 14.6475 67.661 13.83 67.0583 13.2269C66.4556 12.6242 65.6377 12.2856 64.7852 12.2856H64.7857Z" fill="#5F0087"/>
<path d="M50.8569 63.7142C50.8551 62.0097 50.1775 60.3757 48.9721 59.1704C47.7668 57.965 46.1328 57.2875 44.4283 57.2856H42.1333C41.8212 58.5215 40.9728 59.5529 39.8203 60.0972C38.6674 60.6416 37.332 60.6416 36.1791 60.0972C35.0267 59.5529 34.1782 58.5214 33.8662 57.2856H31.5712C29.8667 57.2874 28.2327 57.965 27.0273 59.1704C25.8219 60.3757 25.1444 62.0097 25.1426 63.7142V67.9998H50.857L50.8569 63.7142Z" fill="#5F0087"/>
<path d="M34.8528 40.2007C35.1941 39.8446 35.6479 39.6182 36.1375 39.5599C36.6272 39.5011 37.1218 39.6141 37.5375 39.8792C39.0011 40.7052 40.6487 41.149 42.3288 41.1702C43.0674 41.2231 43.7696 41.5119 44.3315 41.9939C44.4377 41.4293 44.4736 40.8536 44.4386 40.28C43.9736 36.607 41.5283 35.8568 37.9992 35.8568C37.3544 35.7971 36.7055 35.9106 36.1194 36.1855C35.5329 36.4604 35.0311 36.8873 34.6647 37.4214C34.4764 37.7725 34.1123 37.994 33.7136 37.9999C33.1347 37.9626 32.5675 38.1765 32.1571 38.5864C31.7472 38.9967 31.5333 39.564 31.5706 40.1429C31.567 40.7017 31.6082 41.2599 31.6939 41.8119C32.1123 41.4617 32.6073 41.2151 33.1392 41.0922C33.7836 40.964 34.3777 40.6546 34.8526 40.2008L34.8528 40.2007Z" fill="#5F0087"/>
<path d="M37.9999 53.0005C43.2779 53.0005 43.3572 44.5136 43.3572 44.4289V44.3966C43.2958 43.7899 42.7936 43.3231 42.1837 43.306C40.1474 43.2643 38.1545 42.7065 36.3928 41.6841C35.6399 42.4468 34.6776 42.9688 33.6273 43.184C33.134 43.2831 32.7515 43.6741 32.6632 44.1696C32.6498 44.2553 32.643 44.3418 32.6426 44.4288C32.6426 44.5136 32.7219 53.0005 37.9999 53.0005L37.9999 53.0005Z" fill="#5F0087"/>
<path d="M35.8574 54.7866V56.2148C35.8574 56.9803 36.266 57.6874 36.9292 58.0704C37.5919 58.4533 38.409 58.4533 39.0717 58.0704C39.7349 57.6874 40.1435 56.9803 40.1435 56.2148V54.7866C38.7542 55.2619 37.2467 55.2619 35.8574 54.7866H35.8574Z" fill="#5F0087"/>
<path d="M8 56.2147C8 57.0672 8.33856 57.8847 8.94124 58.4874C9.54392 59.0901 10.3618 59.4291 11.2143 59.4291H17.6429V32.6424C17.6429 31.79 17.9815 30.9725 18.5842 30.3698C19.1868 29.7671 20.0048 29.4281 20.8573 29.4281H55.1424C55.9948 29.4281 56.8128 29.7671 57.4155 30.3698C58.0181 30.9725 58.3567 31.79 58.3567 32.6424V59.4291H64.7853C65.6377 59.4291 66.4557 59.0901 67.0584 58.4874C67.6611 57.8847 67.9996 57.0672 67.9996 56.2147V20.8574H8.00009L8 56.2147Z" fill="#5F0087"/>
<path d="M55.142 67.9997C55.4263 67.9997 55.699 67.8871 55.8998 67.6862C56.1007 67.4849 56.2137 67.2127 56.2137 66.9284V32.6421C56.2137 32.3582 56.1007 32.0856 55.8998 31.8847C55.699 31.6838 55.4263 31.5708 55.142 31.5708H20.8569C20.265 31.5708 19.7852 32.0506 19.7852 32.6421V66.9284C19.7852 67.2127 19.8982 67.4849 20.0991 67.6862C20.2999 67.8871 20.5726 67.9996 20.8569 67.9996H22.9999L22.9995 63.7141C23.0022 61.4414 23.9062 59.2631 25.5129 57.6559C27.1201 56.0492 29.2986 55.1452 31.5711 55.1424H33.7141V53.4734C31.3742 51.2756 30.5779 47.3932 30.5097 44.8036L30.5092 44.8032C29.6971 43.3902 29.3209 41.7687 29.4281 40.1427C29.3886 39.0992 29.7478 38.0794 30.4326 37.2916C31.1178 36.5033 32.0774 36.0055 33.1159 35.8997C34.3038 34.436 36.1168 33.6244 37.9997 33.7141C40.1244 33.7141 45.7696 33.7141 46.5628 40.0086C46.7189 41.6785 46.344 43.3547 45.4911 44.7991C45.4234 47.3887 44.6274 51.2747 42.2867 53.4779V55.1424H44.4297H44.4293C46.7019 55.1451 48.8807 56.0492 50.4874 57.6559C52.0946 59.2631 52.9981 61.4416 53.0009 63.7141V67.9997H55.142Z" fill="#5F0087"/>
</g>
<defs>
<filter id="filter0_d_527_238" x="-3.33398" y="0.666504" width="82" height="82" filterUnits="userSpaceOnUse" color-interpolation-filters="sRGB">
<feFlood flood-opacity="0" result="BackgroundImageFix"/>
<feColorMatrix in="SourceAlpha" type="matrix" values="0 0 0 0 0 0 0 0 0 0 0 0 0 0 0 0 0 0 127 0" result="hardAlpha"/>
<feOffset dy="4"/>
<feGaussianBlur stdDeviation="2"/>
<feComposite in2="hardAlpha" operator="out"/>
<feColorMatrix type="matrix" values="0 0 0 0 0 0 0 0 0 0 0 0 0 0 0 0 0 0 0.25 0"/>
<feBlend mode="normal" in2="BackgroundImageFix" result="effect1_dropShadow_527_238"/>
<feBlend mode="normal" in="SourceGraphic" in2="effect1_dropShadow_527_238" result="shape"/>
</filter>
</defs>
</svg>
