<svg width="47" height="48" viewBox="0 0 47 48" fill="none" xmlns="http://www.w3.org/2000/svg">
<path d="M2.16529 47.9999H25.9985C26.4405 47.9999 26.7984 47.642 26.7984 47.2001C26.7984 46.7581 26.4405 46.4002 25.9985 46.4002L2.16529 46.3998C1.85392 46.3998 1.59982 46.1461 1.59982 45.8344V2.16503C1.59982 1.85365 1.85317 1.59992 2.16529 1.59992H24.5757V8.03371C24.5757 8.47567 24.9336 8.83355 25.3755 8.83355H33.1515V21.3649C33.1515 21.8069 33.5094 22.1648 33.9513 22.1648C34.3933 22.1648 34.7512 21.8069 34.7512 21.3649L34.7516 8.05165C34.7516 8.04533 34.753 8.03975 34.753 8.03342C34.753 8.02226 34.7504 8.01147 34.7497 8.00031C34.7486 7.97241 34.7456 7.946 34.7415 7.91809C34.7378 7.89243 34.7341 7.8675 34.7277 7.8422C34.7218 7.81765 34.714 7.79384 34.7054 7.76966C34.6965 7.74473 34.6879 7.71943 34.6768 7.69562C34.6667 7.6733 34.6537 7.65247 34.6414 7.63052C34.6277 7.60708 34.6135 7.58365 34.5972 7.5617C34.5834 7.54235 34.5678 7.52487 34.5518 7.50664C34.5399 7.49324 34.5306 7.47836 34.5183 7.46609C34.5094 7.45716 34.4986 7.45009 34.4889 7.44153C34.4818 7.43521 34.4766 7.42702 34.4692 7.42144L25.8915 0.188615C25.8815 0.180059 25.8703 0.17485 25.8595 0.166666C25.8365 0.149181 25.813 0.132812 25.7877 0.117187C25.7658 0.103795 25.7434 0.0915174 25.7204 0.0811003C25.6981 0.0703118 25.675 0.0610109 25.6512 0.0517109C25.6244 0.0416662 25.5972 0.0334814 25.5697 0.0267852C25.5478 0.0215769 25.5258 0.0167406 25.5035 0.0130206C25.4726 0.00818433 25.4417 0.004836 25.4101 0.0033482C25.399 0.0033482 25.3878 0 25.3755 0H2.16513C0.970949 0 0 0.97133 0 2.16513V45.8345C0 47.0287 0.970949 48 2.16513 48L2.16529 47.9999ZM26.1757 2.52104L31.7638 7.23417L26.1757 7.2338V2.52104Z" fill="white"/>
<path d="M20.3076 31.4133H6.57523C6.13327 31.4133 5.77539 31.7712 5.77539 32.2132C5.77539 32.6551 6.13327 33.013 6.57523 33.013H20.3076C20.7495 33.013 21.1074 32.6551 21.1074 32.2132C21.1078 31.7712 20.7499 31.4133 20.3076 31.4133Z" fill="white"/>
<path d="M20.1752 37.5999H6.57523C6.13327 37.5999 5.77539 37.9577 5.77539 38.3997C5.77539 38.8417 6.13327 39.1995 6.57523 39.1995H20.1752C20.6171 39.1995 20.975 38.8417 20.975 38.3997C20.975 37.9577 20.6171 37.5999 20.1752 37.5999Z" fill="white"/>
<path d="M34.4371 23.2C27.5997 23.2 22.0371 28.7624 22.0371 35.5999C22.0371 42.4374 27.5996 47.9999 34.4371 47.9999C41.2745 47.9999 46.837 42.4374 46.837 35.5999C46.837 28.7624 41.2746 23.2 34.4371 23.2ZM34.4371 46.3999C28.4818 46.3999 23.6371 41.555 23.6371 35.5999C23.6371 29.6446 28.4819 24.7999 34.4371 24.7999C40.3924 24.7999 45.237 29.6448 45.237 35.5999C45.2374 41.5552 40.3926 46.3999 34.4371 46.3999Z" fill="white"/>
<path d="M40.8059 31.301L32.838 39.269L28.604 35.035C28.2915 34.7225 27.7852 34.7225 27.4727 35.035C27.1602 35.3471 27.1602 35.8542 27.4727 36.1663L32.2724 40.9661C32.4287 41.1224 32.6337 41.2001 32.8383 41.2001C33.0433 41.2001 33.2479 41.1224 33.4041 40.9661L41.9376 32.4326C42.2501 32.1205 42.2501 31.6134 41.9376 31.3013C41.6248 30.9888 41.1184 30.9888 40.8059 31.3009L40.8059 31.301Z" fill="white"/>
<path d="M26.3484 16.978H28.0433C28.4853 16.978 28.8432 16.6201 28.8432 16.1782C28.8432 15.7362 28.4853 15.3783 28.0433 15.3783H26.3484C25.9648 11.0465 22.508 7.5897 18.1765 7.20646V5.51151C18.1765 5.06955 17.8186 4.71167 17.3767 4.71167C16.9347 4.71167 16.5768 5.06955 16.5768 5.51151V7.20646C12.245 7.59001 8.78818 11.0468 8.40495 15.3783H6.71C6.26804 15.3783 5.91016 15.7362 5.91016 16.1782C5.91016 16.6201 6.26804 16.978 6.71 16.978H8.40495C8.7885 21.3091 12.2453 24.7663 16.5768 25.1499V26.8448C16.5768 27.2868 16.9347 27.6447 17.3767 27.6447C17.8186 27.6447 18.1765 27.2868 18.1765 26.8448V25.1499C22.5079 24.7667 25.9648 21.3095 26.3484 16.978ZM17.3767 22.2693C16.9347 22.2693 16.5769 22.6272 16.5769 23.0692V23.5454C15.7205 23.4531 14.9102 23.2083 14.1658 22.8482V20.7113C14.1658 19.4728 15.1732 18.4654 16.4117 18.4654H18.3414C19.5799 18.4654 20.5873 19.4728 20.5873 20.7113V22.8482C19.8429 23.2083 19.033 23.4524 18.1767 23.5446V23.0684C18.177 22.6268 17.8184 22.2693 17.3768 22.2693H17.3767ZM17.3767 16.8654C16.2785 16.8654 15.3853 15.9721 15.3853 14.8739C15.3853 13.7757 16.2785 12.8825 17.3767 12.8825C18.4749 12.8825 19.3681 13.7757 19.3681 14.8739C19.3681 15.9721 18.4749 16.8654 17.3767 16.8654ZM22.1874 21.8062V20.7113C22.1874 19.2032 21.3127 17.8985 20.0456 17.2687C20.6174 16.6325 20.9683 15.7947 20.9683 14.8736C20.9683 12.8934 19.357 11.2821 17.3767 11.2821C15.3965 11.2821 13.7852 12.8934 13.7852 14.8736C13.7852 15.794 14.1361 16.6322 14.7079 17.2687C13.4407 17.8985 12.5661 19.2032 12.5661 20.7113V21.8058C11.1677 20.6087 10.2172 18.9044 10.0092 16.9781H10.4861C10.9281 16.9781 11.286 16.6202 11.286 16.1783C11.286 15.7363 10.9281 15.3784 10.4861 15.3784H10.0092C10.3816 11.9294 13.1275 9.18312 16.5765 8.81112V9.28805C16.5765 9.73001 16.9344 10.0879 17.3764 10.0879C17.8183 10.0879 18.1762 9.73001 18.1762 9.28805V8.81112C21.6252 9.18352 24.3715 11.9294 24.7435 15.3784H24.2666C23.8246 15.3784 23.4667 15.7363 23.4667 16.1783C23.4667 16.6202 23.8246 16.9781 24.2666 16.9781H24.7435C24.5363 18.9048 23.5858 20.6094 22.1873 21.8062H22.1874Z" fill="white"/>
</svg>
