<svg width="48" height="48" viewBox="0 0 48 48" fill="none" xmlns="http://www.w3.org/2000/svg">
<path d="M16.8854 13.6638C15.1319 13.6638 13.6973 15.0985 13.6973 16.852C13.6973 18.6055 15.1319 20.0401 16.8854 20.0401C18.6389 20.0401 20.0736 18.6055 20.0736 16.852C20.0736 15.0985 18.6389 13.6638 16.8854 13.6638ZM16.8854 18.4461C16.0087 18.4461 15.2913 17.7287 15.2913 16.852C15.2913 15.9752 16.0087 15.2579 16.8854 15.2579C17.7622 15.2579 18.4795 15.9752 18.4795 16.852C18.4795 17.7287 17.7622 18.4461 16.8854 18.4461Z" fill="white"/>
<path d="M26.0507 14.6995C20.87 9.91723 12.8991 9.91723 7.63954 14.6995L5.32812 16.8515L7.63954 19.0035C12.8203 23.7857 20.7912 23.7857 26.0507 19.0035L28.3622 16.8515L26.0507 14.6995ZM25.0146 17.8079C20.3917 22.0323 13.3778 22.0323 8.83511 17.8079L7.71925 16.8515L8.83511 15.895C13.4579 11.6707 20.4719 11.6707 25.0146 15.895L26.1304 16.8515L25.0146 17.8079Z" fill="white"/>
<path d="M47.0931 42.7552L35.7751 31.4373C35.2172 30.8793 34.4202 30.7199 33.7028 30.959L29.9567 27.2129C35.6954 19.9599 34.4999 9.35923 27.2468 3.62054C19.9937 -2.11816 9.47323 -0.922597 3.65438 6.41018C-2.16448 13.743 -0.888755 24.1837 6.44402 29.9224C12.5812 34.7844 21.1897 34.7844 27.3265 29.9224L31.0726 33.6685C30.8335 34.3859 30.9929 35.1829 31.5508 35.7408L42.8688 47.0588C44.0644 48.2544 45.9773 48.2544 47.1728 47.0588C48.2887 45.8633 48.2887 43.9503 47.0931 42.7548V42.7552ZM1.74102 16.851C1.74102 8.48203 8.51587 1.70718 16.8848 1.70718C25.2537 1.70718 32.0286 8.48203 32.0286 16.851C32.0286 25.2199 25.2537 31.9947 16.8848 31.9947C8.51587 31.9947 1.74102 25.2199 1.74102 16.851ZM28.4414 28.8858L28.9197 28.4076L32.5064 31.9943L32.0281 32.4725L28.4414 28.8858ZM44.9397 46.3406C44.5412 46.3406 44.1427 46.1812 43.9036 45.942L32.5856 34.6241C32.4262 34.4647 32.4262 34.3052 32.5856 34.1458L34.1797 32.5518C34.3391 32.3923 34.4985 32.3923 34.6579 32.5518L45.9759 43.8697C46.5338 44.4277 46.5338 45.3841 45.9759 45.942C45.6571 46.1812 45.3383 46.3406 44.9397 46.3406Z" fill="white"/>
<path d="M16.8838 2.50513C8.99314 2.50513 2.53711 8.96116 2.53711 16.8519C2.53711 24.7426 8.99314 31.1986 16.8838 31.1986C24.7746 31.1986 31.2306 24.7426 31.2306 16.8519C31.2306 8.96116 24.7746 2.50513 16.8838 2.50513ZM16.8838 29.6045C9.86989 29.6045 4.13119 23.8658 4.13119 16.8519C4.13119 9.8379 9.86989 4.09921 16.8838 4.09921C23.8978 4.09921 29.6365 9.8379 29.6365 16.8519C29.6365 23.8658 23.8978 29.6045 16.8838 29.6045Z" fill="white"/>
<path d="M42.391 8.08433V35.9808H43.9851V8.08433C43.9851 5.85261 42.2316 4.09912 39.9999 4.09912H31.2324V5.6932H39.9999C41.3548 5.6932 42.391 6.72936 42.391 8.08433Z" fill="white"/>
<path d="M5.72689 39.966V31.9956H4.13281V39.966C4.13281 42.1977 5.8863 43.9512 8.11802 43.9512H36.0145V42.3571H8.11802C6.76305 42.3571 5.72689 41.321 5.72689 39.966Z" fill="white"/>
<path d="M34.4199 8.08447H40.7962V9.67855H34.4199V8.08447Z" fill="white"/>
<path d="M34.4199 12.0696H40.7962V13.6637H34.4199V12.0696Z" fill="white"/>
<path d="M34.4199 16.0549H40.7962V17.649H34.4199V16.0549Z" fill="white"/>
<path d="M34.4199 20.04H40.7962V21.6341H34.4199V20.04Z" fill="white"/>
<path d="M32.8262 24.0251H40.7966V25.6192H32.8262V24.0251Z" fill="white"/>
<path d="M32.8262 28.0105H40.7966V29.6046H32.8262V28.0105Z" fill="white"/>
<path d="M38.4043 31.9956H40.7954V33.5897H38.4043V31.9956Z" fill="white"/>
<path d="M7.32031 34.3867H28.8404V35.9808H7.32031V34.3867Z" fill="white"/>
<path d="M7.32031 38.3721H32.0286V39.9662H7.32031V38.3721Z" fill="white"/>
<path d="M9.71094 24.0251H24.0577V25.6192H9.71094V24.0251Z" fill="white"/>
<path d="M9.71094 8.08447H24.0577V9.67855H9.71094V8.08447Z" fill="white"/>
</svg>
