<svg width="64" height="64" viewBox="0 0 64 64" fill="none" xmlns="http://www.w3.org/2000/svg">
<path fill-rule="evenodd" clip-rule="evenodd" d="M13.9423 14H50.0578C50.603 14 51.0476 14.4446 51.0476 14.9898V36.4764H12.9525V14.9898C12.9525 14.4446 13.3972 14 13.9423 14ZM33.4635 20.3228L33.0884 17.9788H30.9117L30.5365 20.3228C29.9965 20.461 29.4791 20.6755 28.9998 20.9599L27.0765 19.5674L25.5374 21.1064L26.9301 23.0299C26.6457 23.5091 26.4312 24.0266 26.293 24.5665L23.9488 24.9417V27.1183L26.2929 27.4936C26.4312 28.0335 26.6457 28.5509 26.9301 29.0302L25.5374 30.9536L27.0765 32.4927L28.9999 31.1001C29.4792 31.3846 29.9966 31.5991 30.5365 31.7374L30.9117 34.0815H33.0884L33.4636 31.7373C34.0035 31.599 34.5209 31.3845 35.0002 31.1001L36.9236 32.4927L38.4627 30.9536L37.0701 29.0302C37.3546 28.5509 37.5691 28.0335 37.7073 27.4936L40.0513 27.1184V24.9418L37.7071 24.5666C37.5689 24.0266 37.3544 23.5092 37.0699 23.03L38.4625 21.1065L36.9234 19.5675L35 20.9601C34.5208 20.6756 34.0034 20.461 33.4635 20.3228ZM8.99327 50.0902H55.0067C55.3538 50.0902 55.652 49.9273 55.8395 49.6354C56.027 49.3435 56.0512 49.0044 55.9069 48.6889L51.0475 38.0602H12.9525L8.09312 48.6889C7.9488 49.0044 7.97296 49.3435 8.16053 49.6354C8.348 49.9273 8.64633 50.0902 8.99327 50.0902ZM26.4519 47.1207L27.9822 42.0324H36.0179L37.5483 47.1207H26.4519ZM32 22.814C30.2239 22.814 28.784 24.2539 28.784 26.03C28.784 27.8063 30.2239 29.2461 32 29.2461C33.7762 29.2461 35.2161 27.8062 35.2161 26.03C35.2161 24.2539 33.7762 22.814 32 22.814Z" fill="#E9B6FF"/>
</svg>
