<svg width="64" height="64" viewBox="0 0 64 64" fill="none" xmlns="http://www.w3.org/2000/svg">
<path d="M51.5 12H12.5C11.3065 12 10.1619 12.4741 9.31802 13.318C8.47411 14.1619 8 15.3065 8 16.5V48C8 49.1935 8.47411 50.3381 9.31802 51.182C10.1619 52.0259 11.3065 52.5 12.5 52.5H51.5C52.6935 52.5 53.8381 52.0259 54.682 51.182C55.5259 50.3381 56 49.1935 56 48V16.5C56 15.3065 55.5259 14.1619 54.682 13.318C53.8381 12.4741 52.6935 12 51.5 12ZM48.5 16.5H51.5V19.5H48.5V16.5ZM44 16.5H47V19.5H44V16.5ZM39.5 16.5H42.5V19.5H39.5V16.5ZM53 48C53 48.3978 52.842 48.7794 52.5607 49.0607C52.2794 49.342 51.8978 49.5 51.5 49.5H12.5C12.1022 49.5 11.7206 49.342 11.4393 49.0607C11.158 48.7794 11 48.3978 11 48V24H53V48Z" fill="#E9B6FF"/>
<path d="M25.0553 27.3525L16.6553 35.7525C16.3874 36.0386 16.242 36.4182 16.2503 36.81C16.2492 37.0075 16.287 37.2031 16.3617 37.3859C16.4363 37.5687 16.5463 37.7349 16.6853 37.875L25.0853 46.2675L27.2078 44.1525L19.8653 36.81L27.2078 29.475L25.0553 27.3525ZM38.9453 27.3525L36.8228 29.475L44.1653 36.81L36.8228 44.1525L38.9453 46.2675L47.3453 37.875C47.6152 37.5871 47.7607 37.2045 47.7503 36.81C47.7507 36.4139 47.5943 36.0338 47.3153 35.7525L38.9453 27.3525Z" fill="#E9B6FF"/>
<path d="M32.4031 27.4551L28.6523 46.2087L31.5941 46.7971L35.3448 28.0435L32.4031 27.4551Z" fill="#E9B6FF"/>
</svg>
