<svg width="64" height="64" viewBox="0 0 64 64" fill="none" xmlns="http://www.w3.org/2000/svg">
<path d="M41.2 56H22C21.7878 56 21.5843 55.9157 21.4343 55.7657C21.2843 55.6157 21.2 55.4122 21.2 55.2C21.2 54.9878 21.2843 54.7843 21.4343 54.6343C21.5843 54.4843 21.7878 54.4 22 54.4H41.2C41.4122 54.4 41.6157 54.4843 41.7657 54.6343C41.9157 54.7843 42 54.9878 42 55.2C42 55.4122 41.9157 55.6157 41.7657 55.7657C41.6157 55.9157 41.4122 56 41.2 56ZM48.4 8H14.8C14.5878 8 14.3843 8.08429 14.2343 8.23431C14.0843 8.38434 14 8.58783 14 8.8V14.4H49.2V8.8C49.2 8.58783 49.1157 8.38434 48.9657 8.23431C48.8157 8.08429 48.6122 8 48.4 8V8ZM30.8 12H17.2C16.9878 12 16.7843 11.9157 16.6343 11.7657C16.4843 11.6157 16.4 11.4122 16.4 11.2C16.4 10.9878 16.4843 10.7843 16.6343 10.6343C16.7843 10.4843 16.9878 10.4 17.2 10.4H30.8C31.0122 10.4 31.2157 10.4843 31.3657 10.6343C31.5157 10.7843 31.6 10.9878 31.6 11.2C31.6 11.4122 31.5157 11.6157 31.3657 11.7657C31.2157 11.9157 31.0122 12 30.8 12ZM35.6 12.8C35.2836 12.8 34.9742 12.7062 34.7111 12.5304C34.448 12.3545 34.2429 12.1047 34.1218 11.8123C34.0007 11.5199 33.969 11.1982 34.0307 10.8879C34.0925 10.5775 34.2449 10.2924 34.4686 10.0686C34.6924 9.84487 34.9775 9.69248 35.2879 9.63074C35.5982 9.56901 35.9199 9.60069 36.2123 9.72179C36.5047 9.84289 36.7545 10.048 36.9304 10.3111C37.1062 10.5742 37.2 10.8835 37.2 11.2C37.2 11.6243 37.0314 12.0313 36.7314 12.3314C36.4313 12.6314 36.0243 12.8 35.6 12.8ZM40.4 12.8C40.0836 12.8 39.7742 12.7062 39.5111 12.5304C39.248 12.3545 39.0429 12.1047 38.9218 11.8123C38.8007 11.5199 38.769 11.1982 38.8307 10.8879C38.8925 10.5775 39.0449 10.2924 39.2686 10.0686C39.4924 9.84487 39.7775 9.69248 40.0879 9.63074C40.3982 9.56901 40.7199 9.60069 41.0123 9.72179C41.3047 9.84289 41.5545 10.048 41.7304 10.3111C41.9062 10.5742 42 10.8835 42 11.2C42 11.6243 41.8314 12.0313 41.5314 12.3314C41.2313 12.6314 40.8243 12.8 40.4 12.8ZM45.2 12.8C44.8836 12.8 44.5742 12.7062 44.3111 12.5304C44.048 12.3545 43.8429 12.1047 43.7218 11.8123C43.6007 11.5199 43.569 11.1982 43.6307 10.8879C43.6925 10.5775 43.8449 10.2924 44.0686 10.0686C44.2924 9.84487 44.5775 9.69248 44.8879 9.63074C45.1982 9.56901 45.5199 9.60069 45.8123 9.72179C46.1047 9.84289 46.3545 10.048 46.5304 10.3111C46.7062 10.5742 46.8 10.8835 46.8 11.2C46.8 11.6243 46.6314 12.0313 46.3314 12.3314C46.0313 12.6314 45.6243 12.8 45.2 12.8ZM14 16V32C14 32.2122 14.0843 32.4157 14.2343 32.5657C14.3843 32.7157 14.5878 32.8 14.8 32.8H48.4C48.6122 32.8 48.8157 32.7157 48.9657 32.5657C49.1157 32.4157 49.2 32.2122 49.2 32V16H14ZM18.664 26.76C18.7798 26.9364 18.8212 27.1513 18.7793 27.3581C18.7373 27.5649 18.6154 27.7467 18.44 27.864C18.3112 27.9542 18.1573 28.0018 18 28C17.8682 27.9993 17.7387 27.9661 17.6228 27.9033C17.507 27.8405 17.4085 27.75 17.336 27.64L15.736 25.24C15.65 25.1094 15.6041 24.9564 15.6041 24.8C15.6041 24.6436 15.65 24.4906 15.736 24.36L17.336 21.96C17.461 21.8048 17.6395 21.7018 17.8365 21.6713C18.0335 21.6408 18.2348 21.6849 18.4009 21.795C18.5671 21.9051 18.6862 22.0732 18.7348 22.2665C18.7835 22.4598 18.7582 22.6643 18.664 22.84L17.36 24.8L18.664 26.76ZM22.8 21.904L21.2 28.096C21.1546 28.272 21.0507 28.4273 20.9053 28.5364C20.7599 28.6455 20.5817 28.7017 20.4 28.696C20.3336 28.7038 20.2664 28.7038 20.2 28.696C20.0932 28.6728 19.9923 28.628 19.9035 28.5644C19.8147 28.5007 19.7399 28.4195 19.6837 28.3258C19.6275 28.2321 19.591 28.1279 19.5766 28.0196C19.5622 27.9112 19.5702 27.8011 19.6 27.696L21.2 21.504C21.253 21.2982 21.3857 21.1219 21.5687 21.0139C21.7517 20.9058 21.9702 20.875 22.176 20.928C22.3818 20.981 22.5581 21.1137 22.6661 21.2967C22.7742 21.4797 22.805 21.6982 22.752 21.904H22.8ZM26.688 25.24L25.088 27.64C25.0133 27.7535 24.911 27.8461 24.7906 27.9091C24.6702 27.9721 24.5358 28.0033 24.4 28C24.2427 28.0018 24.0888 27.9542 23.96 27.864C23.7846 27.7467 23.6627 27.5649 23.6207 27.3581C23.5788 27.1513 23.6202 26.9364 23.736 26.76L25.04 24.8L23.736 22.84C23.6662 22.7533 23.6152 22.653 23.5864 22.5455C23.5575 22.438 23.5514 22.3256 23.5685 22.2156C23.5855 22.1056 23.6253 22.0004 23.6854 21.9067C23.7454 21.8129 23.8243 21.7328 23.9171 21.6713C24.0099 21.6098 24.1145 21.5683 24.2242 21.5496C24.3339 21.5308 24.4464 21.5352 24.5543 21.5624C24.6623 21.5895 24.7633 21.6389 24.8511 21.7074C24.9389 21.7759 25.0114 21.8619 25.064 21.96L26.664 24.36C26.75 24.4906 26.7959 24.6436 26.7959 24.8C26.7959 24.9564 26.75 25.1094 26.664 25.24H26.688ZM47.6 28.8C47.6 29.4365 47.3471 30.047 46.8971 30.4971C46.447 30.9471 45.8365 31.2 45.2 31.2H31.6C30.9635 31.2 30.353 30.9471 29.9029 30.4971C29.4529 30.047 29.2 29.4365 29.2 28.8V20.8C29.2 20.1635 29.4529 19.553 29.9029 19.1029C30.353 18.6529 30.9635 18.4 31.6 18.4H45.2C45.8365 18.4 46.447 18.6529 46.8971 19.1029C47.3471 19.553 47.6 20.1635 47.6 20.8V28.8Z" fill="#E9B6FF"/>
<path d="M53.2 15.2V36.8H10V15.2C9.99737 14.4234 10.2236 13.6632 10.6504 13.0144C11.0773 12.3656 11.6858 11.857 12.4 11.552V32C12.4 32.6365 12.6529 33.247 13.103 33.6971C13.5531 34.1471 14.1635 34.4 14.8 34.4H48.4C49.0365 34.4 49.647 34.1471 50.0971 33.6971C50.5472 33.247 50.8 32.6365 50.8 32V11.552C51.5142 11.857 52.1228 12.3656 52.5496 13.0144C52.9765 13.6632 53.2027 14.4234 53.2 15.2V15.2ZM38.712 54.4H24.488L27.232 46.4H35.968L38.712 54.4Z" fill="#E9B6FF"/>
<path d="M10 38.3999V40.7999C10 41.8608 10.4214 42.8782 11.1716 43.6284C11.9217 44.3785 12.9391 44.7999 14 44.7999H49.2C50.2609 44.7999 51.2783 44.3785 52.0284 43.6284C52.7786 42.8782 53.2 41.8608 53.2 40.7999V38.3999H10ZM32.4 42.3999H30.8C30.5878 42.3999 30.3843 42.3157 30.2343 42.1656C30.0843 42.0156 30 41.8121 30 41.5999C30 41.3878 30.0843 41.1843 30.2343 41.0343C30.3843 40.8842 30.5878 40.7999 30.8 40.7999H32.4C32.6122 40.7999 32.8157 40.8842 32.9657 41.0343C33.1157 41.1843 33.2 41.3878 33.2 41.5999C33.2 41.8121 33.1157 42.0156 32.9657 42.1656C32.8157 42.3157 32.6122 42.3999 32.4 42.3999ZM36.504 29.5999H31.928L34 27.5519C34.0832 27.466 34.1846 27.3999 34.2968 27.3584C34.4089 27.3168 34.5289 27.301 34.648 27.3119C34.7659 27.3249 34.8795 27.3639 34.9805 27.4262C35.0816 27.4884 35.1674 27.5724 35.232 27.6719L36.504 29.5999ZM45.016 29.5999H38.424L37.4 28.0559L39.8 25.1439C39.8744 25.0547 39.9673 24.9827 40.0723 24.9329C40.1773 24.8832 40.2918 24.8569 40.408 24.8559C40.5229 24.8467 40.6382 24.8669 40.7431 24.9144C40.8481 24.962 40.9392 25.0355 41.008 25.1279L45.016 29.5999Z" fill="#E9B6FF"/>
<path d="M45.2008 20H31.6008C31.3886 20 31.1851 20.0843 31.0351 20.2343C30.8851 20.3843 30.8008 20.5878 30.8008 20.8V28.472L32.8488 26.4C33.0923 26.1588 33.3847 25.9726 33.7062 25.8538C34.0277 25.7351 34.371 25.6866 34.7128 25.7116C35.0547 25.7366 35.3872 25.8345 35.688 25.9988C35.9888 26.1631 36.251 26.3899 36.4568 26.664L38.5928 24.104C38.8156 23.8411 39.0924 23.6293 39.4044 23.483C39.7164 23.3367 40.0562 23.2593 40.4008 23.256C40.739 23.2556 41.0735 23.3266 41.3823 23.4645C41.6911 23.6023 41.9673 23.8039 42.1928 24.056L46.0008 28.296V20.8C46.0008 20.5878 45.9165 20.3843 45.7665 20.2343C45.6164 20.0843 45.413 20 45.2008 20ZM34.8008 24.8C34.4843 24.8 34.175 24.7062 33.9119 24.5304C33.6487 24.3545 33.4437 24.1047 33.3226 23.8123C33.2015 23.5199 33.1698 23.1982 33.2315 22.8879C33.2933 22.5775 33.4456 22.2924 33.6694 22.0686C33.8932 21.8449 34.1783 21.6925 34.4886 21.6307C34.799 21.569 35.1207 21.6007 35.4131 21.7218C35.7054 21.8429 35.9553 22.048 36.1311 22.3111C36.3069 22.5742 36.4008 22.8835 36.4008 23.2C36.4008 23.6243 36.2322 24.0313 35.9322 24.3314C35.6321 24.6314 35.2251 24.8 34.8008 24.8Z" fill="#E9B6FF"/>
</svg>
