<svg width="64" height="64" viewBox="0 0 64 64" fill="none" xmlns="http://www.w3.org/2000/svg">
<path d="M32 9C18.767 9 8 19.767 8 33C8 42.873 14.189 51.864 23.396 55.371C23.5873 55.4429 23.7912 55.475 23.9953 55.4656C24.1995 55.4561 24.3995 55.4052 24.5834 55.316C24.7672 55.2267 24.9309 55.101 25.0646 54.9465C25.1983 54.7919 25.2992 54.6118 25.361 54.417L29.861 40.047C29.9644 39.7172 29.9507 39.3618 29.8222 39.0409C29.6937 38.72 29.4584 38.4534 29.156 38.286C28.2053 37.7677 27.411 37.0038 26.8559 36.0741C26.3008 35.1444 26.0052 34.0828 26 33C26 29.691 28.691 27 32 27C35.309 27 38 29.691 38 33C38 35.187 36.791 37.212 34.844 38.289C34.5408 38.4555 34.3047 38.7221 34.1762 39.0433C34.0476 39.3644 34.0345 39.7202 34.139 40.05L38.639 54.42C38.7008 54.6148 38.8017 54.7949 38.9354 54.9495C39.0691 55.104 39.2328 55.2297 39.4166 55.319C39.6005 55.4082 39.8005 55.4591 40.0047 55.4686C40.2088 55.478 40.4127 55.4459 40.604 55.374C49.814 51.864 56 42.873 56 33C56 19.767 45.233 9 32 9Z" fill="#E9B6FF"/>
</svg>
