<svg width="48" height="48" viewBox="0 0 48 48" fill="none" xmlns="http://www.w3.org/2000/svg">
<g clip-path="url(#clip0_527_64)">
<path d="M38.3995 28.0001V16.7998C38.405 14.2575 37.4764 11.8018 35.7901 9.89927C34.1039 7.9967 31.7775 6.77983 29.253 6.47985L31.9195 1.1574C31.9806 1.03513 32.0093 0.899263 32.0029 0.76275C31.9966 0.626237 31.9553 0.49363 31.8832 0.377575C31.811 0.26152 31.7103 0.165885 31.5907 0.0997898C31.4711 0.0336946 31.3365 -0.000657331 31.1999 9.527e-06H16.7999C16.6636 6.57671e-05 16.5296 0.0349453 16.4106 0.101339C16.2915 0.167733 16.1914 0.26344 16.1197 0.379379C16.0481 0.495319 16.0072 0.627647 16.001 0.763809C15.9949 0.899971 16.0236 1.03545 16.0845 1.1574L18.7475 6.47985C16.2261 6.78772 13.9043 8.00687 12.2194 9.90767C10.5345 11.8085 9.60273 14.2597 9.59961 16.7998V31.1995H11.1997V16.7998C11.2027 14.4669 12.1307 12.2305 13.7803 10.5809C15.43 8.93128 17.6665 8.00323 19.9994 8.00024H27.9969C29.153 7.99857 30.2982 8.22506 31.3666 8.66672C32.4351 9.10838 33.4059 9.75654 34.2234 10.5741C35.041 11.3916 35.6891 12.3624 36.1308 13.4308C36.5725 14.4993 36.799 15.6444 36.7973 16.8005V28.0001H38.3995ZM27.5035 6.4002H20.4928L18.0962 1.60006H29.9071L27.5035 6.4002Z" fill="white"/>
<path d="M17.1999 11.9511C17.6378 11.6966 18.1086 11.5033 18.5991 11.3766L18.1994 9.82593C17.5685 9.98951 16.9627 10.2378 16.3984 10.5639L17.1999 11.9511Z" fill="white"/>
<path d="M12.8008 19.9999H14.4009V16.7998C14.3986 16.05 14.5482 15.3075 14.8405 14.617C15.1328 13.9265 15.5618 13.3024 16.1017 12.782L14.9873 11.6345C14.2937 12.3033 13.7425 13.1054 13.367 13.9928C12.9915 14.8801 12.7994 15.8342 12.8022 16.7977L12.8008 19.9999Z" fill="white"/>
<path d="M2.28169 39.319L15.8633 46.7264C17.3919 47.5621 19.106 48.0004 20.8481 48.0008H47.2C47.3053 48.0011 47.4097 47.9805 47.5071 47.9404C47.6045 47.9002 47.693 47.8412 47.7675 47.7667C47.8421 47.6923 47.9012 47.6038 47.9414 47.5064C47.9817 47.4091 48.0023 47.3047 48.0021 47.1994V32.7996C48.0021 32.5875 47.9178 32.384 47.7678 32.234C47.6178 32.0839 47.4143 31.9996 47.2021 31.9996H41.0781L40.9865 31.9291C40.0469 31.1955 39.0085 30.5983 37.9019 30.155C35.9888 29.3744 33.9169 29.0619 31.8586 29.2436C29.8004 29.4253 27.8153 30.0959 26.0685 31.1996H20.0002C19.3721 31.1995 18.7528 31.3472 18.1924 31.631C17.632 31.9147 17.1463 32.3264 16.7746 32.8327C16.403 33.339 16.1557 33.9258 16.053 34.5454C15.9503 35.1651 15.9949 35.8002 16.1833 36.3994L6.29385 31.4442C5.57413 31.0827 4.767 30.9316 3.96524 31.0083C3.16349 31.085 2.39964 31.3863 1.76149 31.8777C1.21545 32.2868 0.77204 32.8172 0.466323 33.4272C0.160607 34.0372 0.000960772 34.7099 3.80142e-06 35.3922V35.4803C-0.00103407 36.2664 0.210467 37.0381 0.612124 37.7139C1.01378 38.3896 1.59065 38.9442 2.28169 39.319V39.319ZM41.6004 33.6004H46.4006V46.4001H41.6004V33.6004ZM1.60007 35.3922C1.60293 34.9504 1.70931 34.5155 1.91068 34.1223C2.11205 33.7291 2.40281 33.3886 2.7596 33.1281C3.15903 32.8268 3.63487 32.6434 4.13319 32.5987C4.63151 32.554 5.1324 32.6497 5.5791 32.8751L18.0449 39.1146C18.1557 39.1703 18.2781 39.1993 18.4022 39.1991H30.3999V37.5991H20.0002C19.3636 37.5991 18.7532 37.3462 18.303 36.8961C17.8529 36.446 17.6001 35.8355 17.6001 35.199C17.6001 34.5625 17.8529 33.952 18.303 33.5019C18.7532 33.0518 19.3636 32.7989 20.0002 32.7989H26.3039C26.4606 32.7987 26.6139 32.7529 26.7451 32.6671C28.2891 31.6504 30.0577 31.0253 31.8977 30.846C33.7377 30.6667 35.5936 30.9385 37.3049 31.638C38.2716 32.026 39.179 32.548 40.0004 33.1887V46.4007H20.8481C19.3742 46.4002 17.9241 46.0294 16.6309 45.3223L3.04507 37.9092C2.60724 37.6717 2.24178 37.3203 1.9874 36.8921C1.73302 36.4639 1.59919 35.9748 1.60007 35.4767V35.3922Z" fill="white"/>
<path d="M43.2012 42.3999H44.8012V43.9999H43.2012V42.3999Z" fill="white"/>
<path d="M24.7995 27.9993V26.3993H25.5995C26.4482 26.3993 27.2622 26.0621 27.8623 25.462C28.4625 24.8619 28.7996 24.0479 28.7996 23.1992C28.7996 22.3505 28.4625 21.5365 27.8623 20.9364C27.2622 20.3362 26.4482 19.9991 25.5995 19.9991H22.3994C21.975 19.9991 21.568 19.8305 21.2679 19.5305C20.9679 19.2304 20.7993 18.8234 20.7993 18.399C20.7993 17.9747 20.9679 17.5677 21.2679 17.2676C21.568 16.9676 21.975 16.799 22.3994 16.799H27.9996V15.1989H24.7995V13.5996H23.1994V15.1997H22.3994C21.5506 15.1997 20.7367 15.5368 20.1365 16.1369C19.5364 16.7371 19.1992 17.551 19.1992 18.3997C19.1992 19.2485 19.5364 20.0624 20.1365 20.6626C20.7367 21.2627 21.5506 21.5998 22.3994 21.5998H25.5995C26.0239 21.5998 26.4309 21.7684 26.7309 22.0685C27.031 22.3686 27.1996 22.7755 27.1996 23.1999C27.1996 23.6242 27.031 24.0312 26.7309 24.3313C26.4309 24.6314 26.0239 24.7999 25.5995 24.7999H19.9993V26.4H23.1994V28L24.7995 27.9993Z" fill="white"/>
<path d="M2.28169 39.319L15.8633 46.7264C17.3919 47.5621 19.106 48.0004 20.8481 48.0008H47.2C47.3053 48.0011 47.4097 47.9805 47.5071 47.9404C47.6045 47.9002 47.693 47.8412 47.7675 47.7667C47.8421 47.6923 47.9012 47.6038 47.9414 47.5064C47.9817 47.4091 48.0023 47.3047 48.0021 47.1994V32.7996C48.0021 32.5875 47.9178 32.384 47.7678 32.234C47.6178 32.0839 47.4143 31.9996 47.2021 31.9996H41.0781L40.9865 31.9291C40.0469 31.1955 39.0085 30.5983 37.9019 30.155C35.9888 29.3744 33.9169 29.0619 31.8586 29.2436C29.8004 29.4253 27.8153 30.0959 26.0685 31.1996H20.0002C19.3721 31.1995 18.7528 31.3472 18.1924 31.631C17.632 31.9147 17.1463 32.3264 16.7746 32.8327C16.403 33.339 16.1557 33.9258 16.053 34.5454C15.9503 35.1651 15.9949 35.8002 16.1833 36.3994L6.29385 31.4442C5.57413 31.0827 4.767 30.9316 3.96524 31.0083C3.16349 31.085 2.39964 31.3863 1.76149 31.8777C1.21545 32.2868 0.77204 32.8172 0.466323 33.4272C0.160607 34.0372 0.000960772 34.7099 3.80142e-06 35.3922V35.4803C-0.00103407 36.2664 0.210467 37.0381 0.612124 37.7139C1.01378 38.3896 1.59065 38.9442 2.28169 39.319V39.319ZM41.6004 33.6004H46.4006V46.4001H41.6004V33.6004ZM1.60007 35.3922C1.60293 34.9504 1.70931 34.5155 1.91068 34.1223C2.11205 33.7291 2.40281 33.3886 2.7596 33.1281C3.15903 32.8268 3.63487 32.6434 4.13319 32.5987C4.63151 32.554 5.1324 32.6497 5.5791 32.8751L18.0449 39.1146C18.1557 39.1703 18.2781 39.1993 18.4022 39.1991H30.3999V37.5991H20.0002C19.3636 37.5991 18.7532 37.3462 18.303 36.8961C17.8529 36.446 17.6001 35.8355 17.6001 35.199C17.6001 34.5625 17.8529 33.952 18.303 33.5019C18.7532 33.0518 19.3636 32.7989 20.0002 32.7989H26.3039C26.4606 32.7987 26.6139 32.7529 26.7451 32.6671C28.2891 31.6504 30.0577 31.0253 31.8977 30.846C33.7377 30.6667 35.5936 30.9385 37.3049 31.638C38.2716 32.026 39.179 32.548 40.0004 33.1887V46.4007H20.8481C19.3742 46.4002 17.9241 46.0294 16.6309 45.3223L3.04507 37.9092C2.60724 37.6717 2.24178 37.3203 1.9874 36.8921C1.73302 36.4639 1.59919 35.9748 1.60007 35.4767V35.3922Z" fill="white"/>
<path d="M2.28169 39.319L15.8633 46.7264C17.3919 47.5621 19.106 48.0004 20.8481 48.0008H47.2C47.3053 48.0011 47.4097 47.9805 47.5071 47.9404C47.6045 47.9002 47.693 47.8412 47.7675 47.7667C47.8421 47.6923 47.9012 47.6038 47.9414 47.5064C47.9817 47.4091 48.0023 47.3047 48.0021 47.1994V32.7996C48.0021 32.5875 47.9178 32.384 47.7678 32.234C47.6178 32.0839 47.4143 31.9996 47.2021 31.9996H41.0781L40.9865 31.9291C40.0469 31.1955 39.0085 30.5983 37.9019 30.155C35.9888 29.3744 33.9169 29.0619 31.8586 29.2436C29.8004 29.4253 27.8153 30.0959 26.0685 31.1996H20.0002C19.3721 31.1995 18.7528 31.3472 18.1924 31.631C17.632 31.9147 17.1463 32.3264 16.7746 32.8327C16.403 33.339 16.1557 33.9258 16.053 34.5454C15.9503 35.1651 15.9949 35.8002 16.1833 36.3994L6.29385 31.4442C5.57413 31.0827 4.767 30.9316 3.96524 31.0083C3.16349 31.085 2.39964 31.3863 1.76149 31.8777C1.21545 32.2868 0.77204 32.8172 0.466323 33.4272C0.160607 34.0372 0.000960772 34.7099 3.80142e-06 35.3922V35.4803C-0.00103407 36.2664 0.210467 37.0381 0.612124 37.7139C1.01378 38.3896 1.59065 38.9442 2.28169 39.319V39.319ZM41.6004 33.6004H46.4006V46.4001H41.6004V33.6004ZM1.60007 35.3922C1.60293 34.9504 1.70931 34.5155 1.91068 34.1223C2.11205 33.7291 2.40281 33.3886 2.7596 33.1281C3.15903 32.8268 3.63487 32.6434 4.13319 32.5987C4.63151 32.554 5.1324 32.6497 5.5791 32.8751L18.0449 39.1146C18.1557 39.1703 18.2781 39.1993 18.4022 39.1991H30.3999V37.5991H20.0002C19.3636 37.5991 18.7532 37.3462 18.303 36.8961C17.8529 36.446 17.6001 35.8355 17.6001 35.199C17.6001 34.5625 17.8529 33.952 18.303 33.5019C18.7532 33.0518 19.3636 32.7989 20.0002 32.7989H26.3039C26.4606 32.7987 26.6139 32.7529 26.7451 32.6671C28.2891 31.6504 30.0577 31.0253 31.8977 30.846C33.7377 30.6667 35.5936 30.9385 37.3049 31.638C38.2716 32.026 39.179 32.548 40.0004 33.1887V46.4007H20.8481C19.3742 46.4002 17.9241 46.0294 16.6309 45.3223L3.04507 37.9092C2.60724 37.6717 2.24178 37.3203 1.9874 36.8921C1.73302 36.4639 1.59919 35.9748 1.60007 35.4767V35.3922Z" fill="white"/>
</g>
<defs>
<clipPath id="clip0_527_64">
<rect width="48" height="48" fill="white"/>
</clipPath>
</defs>
</svg>
