<svg width="56" height="56" viewBox="0 0 56 56" fill="none" xmlns="http://www.w3.org/2000/svg">
<g filter="url(#filter0_d_527_105)">
<path d="M5.57519 47.9997H49.8993C50.7242 47.9997 51.3992 47.3247 51.3992 46.4998C51.3992 42.45 51.4742 42.5249 51.1741 42.2249L46.6741 36.0751L46.6748 12.6C46.6748 11.7751 45.9998 11.1001 45.1749 11.1001H39.5499V10.0501C39.5499 9.6751 39.3247 9.37506 38.9498 9.30013L36.5497 8.85023C36.3999 8.47525 36.2497 8.02536 36.0998 7.6504L37.4498 5.62534C37.675 5.32529 37.5997 4.95031 37.3749 4.65029L34.825 2.10036C34.5999 1.87523 34.15 1.80031 33.8499 2.02543L31.8249 3.37544C31.4499 3.29982 31.0749 3.14997 30.6997 3.00012L30.2498 0.600102C30.1748 0.225125 29.8748 0 29.4998 0H25.8999C25.5249 0 25.2248 0.225125 25.1499 0.600102L24.7 3.00012C24.325 3.14997 23.8751 3.30017 23.5002 3.45002L21.4751 2.10001C21.1751 1.87488 20.8001 1.95016 20.5001 2.17493L17.9501 4.72486C17.725 4.94999 17.6501 5.39988 17.8752 5.69991L19.2252 7.72497C19.0754 8.09995 18.8503 8.47493 18.7753 8.9248L16.4498 9.29978C16.0748 9.37471 15.8497 9.67476 15.8497 10.0497V11.0997L10.2251 11.1001C9.40021 11.1001 8.72516 11.7751 8.72516 12.6V36.1503C3.85017 42.9001 4.0753 42.4502 4.00035 42.8253L4 46.5001C4.07493 47.325 4.74995 48 5.57479 48L5.57519 47.9997ZM5.57519 46.4998V43.5749H49.8993V46.4998H5.57519ZM17.3499 10.6498L19.5248 10.1999C19.8248 10.125 20.0496 9.97479 20.1249 9.67509C20.2747 9.07499 20.4998 8.47526 20.7999 7.95004C20.9497 7.72491 20.9497 7.42521 20.7999 7.12516L19.5247 5.25028L21.1748 3.60018L23.0497 4.87532C23.2748 5.02517 23.5746 5.02517 23.8746 4.87532C24.3994 4.57528 24.9996 4.3505 25.5997 4.2003C25.8997 4.12537 26.0496 3.90025 26.1245 3.6002L26.4998 1.49983H28.825L29.2748 3.67471C29.3498 3.97476 29.5 4.19954 29.7997 4.27482C30.3998 4.42467 30.9995 4.64979 31.5247 4.94984C31.7499 5.09969 32.0496 5.09969 32.3496 4.94984L34.2245 3.6747L35.8746 5.3248L34.5994 7.19968C34.4496 7.4248 34.4496 7.7245 34.5994 8.02455C34.8995 8.54938 35.1243 9.14951 35.2745 9.74961C35.3494 10.0497 35.5745 10.1995 35.8746 10.2744L38.0495 10.7243V13.0495L35.8746 13.4994C35.5745 13.5743 35.3497 13.7245 35.2745 14.0242C35.1246 14.6243 34.8995 15.224 34.5994 15.7493C34.4496 15.9744 34.4496 16.2741 34.5994 16.5741L35.8746 18.449L34.2245 20.0991L32.3496 18.824C32.1245 18.6741 31.8248 18.6741 31.5247 18.824C30.9999 19.124 30.3998 19.3488 29.7997 19.499C29.4996 19.5739 29.3498 19.799 29.2748 20.0991L28.825 22.274H26.4998L26.0499 20.0991C25.975 19.7991 25.8248 19.5743 25.5251 19.499C24.925 19.3491 24.3252 19.124 23.8 18.824C23.5749 18.6741 23.2752 18.6741 22.9751 18.824L21.1003 20.0991L19.4502 18.449L20.7253 16.5741C20.8752 16.349 20.8752 16.0493 20.7253 15.7493C20.4253 15.2244 20.2005 14.6243 20.0503 14.0242C19.9754 13.7242 19.7502 13.5743 19.4502 13.4994L17.2753 13.0495L17.275 10.6498H17.3499ZM10.225 12.5999H15.85V13.6499C15.85 14.0249 16.0752 14.3249 16.4501 14.3999L18.8502 14.8498C19 15.2248 19.1502 15.6746 19.3001 16.0496L17.9497 17.9997C17.7246 18.2998 17.7998 18.6747 18.0246 18.9748L20.5746 21.5247C20.7997 21.7498 21.2496 21.8247 21.5496 21.5996L23.5747 20.2496C23.9496 20.3995 24.3246 20.6246 24.7745 20.6995L25.2244 23.0995C25.2993 23.4745 25.5994 23.6996 25.9743 23.6996H29.5743C29.9493 23.6996 30.2493 23.4745 30.3242 23.0995L30.7741 20.6995C31.1491 20.5497 31.599 20.3995 31.974 20.2496L33.999 21.5996C34.2991 21.8247 34.674 21.7495 34.9741 21.5247L37.524 18.9748C37.7491 18.7496 37.8241 18.2997 37.5989 17.9997L36.2489 15.9747C36.3988 15.5997 36.6239 15.2247 36.6988 14.7748L39.0988 14.3249C39.4738 14.25 39.6989 13.9499 39.6989 13.575V12.525H45.3239V35.5493H10.2253L10.225 12.5999ZM9.85007 37.05H45.4747L49.0746 42H6.2496L9.85007 37.05Z" fill="white"/>
<path d="M27.7006 17.9996C31.0757 17.9996 33.8503 15.2246 33.8503 11.8498C33.8503 8.47468 31.0756 5.69971 27.7006 5.69971C24.3255 5.69971 21.5508 8.47477 21.5508 11.8495C21.5508 15.2246 24.3255 17.9996 27.7006 17.9996ZM27.7006 7.19989C30.2505 7.19989 32.3504 9.29991 32.3504 11.8498C32.3504 14.3997 30.2504 16.4996 27.7006 16.4996C25.1507 16.4996 23.0507 14.3996 23.0507 11.8498C23.0507 9.29982 25.1507 7.19989 27.7006 7.19989Z" fill="white"/>
<path d="M13.4511 27.9745H19.3761C19.826 27.9745 20.1261 27.6745 20.1261 27.2246C20.1261 26.7747 19.826 26.4746 19.3761 26.4746H13.4511C13.0012 26.4746 12.7012 26.7747 12.7012 27.2246C12.7012 27.6745 13.0009 27.9745 13.4511 27.9745Z" fill="white"/>
<path d="M30.7007 26.4746H24.7011C24.2512 26.4746 23.9512 26.7747 23.9512 27.2246C23.9512 27.6745 24.2512 27.9745 24.7011 27.9745H30.7007C31.1506 27.9745 31.4507 27.6745 31.4507 27.2246C31.451 26.8496 31.076 26.4746 30.7007 26.4746Z" fill="white"/>
<path d="M41.9491 26.4746H35.9492C35.4993 26.4746 35.1992 26.7747 35.1992 27.2246C35.1992 27.6745 35.4993 27.9745 35.9492 27.9745H41.9491C42.399 27.9745 42.6991 27.6745 42.6991 27.2246C42.6991 26.8496 42.3241 26.4746 41.9491 26.4746Z" fill="white"/>
<path d="M30.7008 30.9746H13.4511C13.0012 30.9746 12.7012 31.2747 12.7012 31.7246C12.7012 32.1745 13.0012 32.4745 13.4511 32.4745H30.7008C31.1507 32.4745 31.4508 32.1745 31.4508 31.7246C31.4508 31.3496 31.0758 30.9746 30.7005 30.9746H30.7008Z" fill="white"/>
<path d="M41.9491 30.9746H35.9492C35.4993 30.9746 35.1992 31.2747 35.1992 31.7246C35.1992 32.1745 35.4993 32.4745 35.9492 32.4745H41.9491C42.399 32.4745 42.6991 32.1745 42.6991 31.7246C42.6991 31.3496 42.3241 30.9746 41.9491 30.9746Z" fill="white"/>
</g>
<defs>
<filter id="filter0_d_527_105" x="0" y="0" width="55.4082" height="56" filterUnits="userSpaceOnUse" color-interpolation-filters="sRGB">
<feFlood flood-opacity="0" result="BackgroundImageFix"/>
<feColorMatrix in="SourceAlpha" type="matrix" values="0 0 0 0 0 0 0 0 0 0 0 0 0 0 0 0 0 0 127 0" result="hardAlpha"/>
<feOffset dy="4"/>
<feGaussianBlur stdDeviation="2"/>
<feComposite in2="hardAlpha" operator="out"/>
<feColorMatrix type="matrix" values="0 0 0 0 0 0 0 0 0 0 0 0 0 0 0 0 0 0 0.25 0"/>
<feBlend mode="normal" in2="BackgroundImageFix" result="effect1_dropShadow_527_105"/>
<feBlend mode="normal" in="SourceGraphic" in2="effect1_dropShadow_527_105" result="shape"/>
</filter>
</defs>
</svg>
