<svg width="44" height="48" viewBox="0 0 44 48" fill="none" xmlns="http://www.w3.org/2000/svg">
<path d="M31.2 48H12C11.7878 48 11.5843 47.9157 11.4343 47.7657C11.2843 47.6157 11.2 47.4122 11.2 47.2C11.2 46.9878 11.2843 46.7843 11.4343 46.6343C11.5843 46.4843 11.7878 46.4 12 46.4H31.2C31.4122 46.4 31.6157 46.4843 31.7657 46.6343C31.9157 46.7843 32 46.9878 32 47.2C32 47.4122 31.9157 47.6157 31.7657 47.7657C31.6157 47.9157 31.4122 48 31.2 48ZM38.4 0H4.8C4.58783 0 4.38434 0.0842854 4.23431 0.234315C4.08429 0.384344 4 0.587827 4 0.8V6.4H39.2V0.8C39.2 0.587827 39.1157 0.384344 38.9657 0.234315C38.8157 0.0842854 38.6122 0 38.4 0ZM20.8 4H7.2C6.98783 4 6.78434 3.91571 6.63431 3.76569C6.48429 3.61566 6.4 3.41217 6.4 3.2C6.4 2.98783 6.48429 2.78434 6.63431 2.63431C6.78434 2.48429 6.98783 2.4 7.2 2.4H20.8C21.0122 2.4 21.2157 2.48429 21.3657 2.63431C21.5157 2.78434 21.6 2.98783 21.6 3.2C21.6 3.41217 21.5157 3.61566 21.3657 3.76569C21.2157 3.91571 21.0122 4 20.8 4ZM25.6 4.8C25.2836 4.8 24.9742 4.70616 24.7111 4.53035C24.448 4.35454 24.2429 4.10466 24.1218 3.81229C24.0007 3.51993 23.969 3.19823 24.0307 2.88786C24.0925 2.57749 24.2449 2.29239 24.4686 2.06863C24.6924 1.84487 24.9775 1.69248 25.2879 1.63074C25.5982 1.56901 25.9199 1.60069 26.2123 1.72179C26.5047 1.84289 26.7545 2.04797 26.9304 2.31109C27.1062 2.57421 27.2 2.88355 27.2 3.2C27.2 3.62435 27.0314 4.03131 26.7314 4.33137C26.4313 4.63143 26.0243 4.8 25.6 4.8ZM30.4 4.8C30.0835 4.8 29.7742 4.70616 29.5111 4.53035C29.248 4.35454 29.0429 4.10466 28.9218 3.81229C28.8007 3.51993 28.769 3.19823 28.8307 2.88786C28.8925 2.57749 29.0449 2.29239 29.2686 2.06863C29.4924 1.84487 29.7775 1.69248 30.0879 1.63074C30.3982 1.56901 30.7199 1.60069 31.0123 1.72179C31.3047 1.84289 31.5545 2.04797 31.7304 2.31109C31.9062 2.57421 32 2.88355 32 3.2C32 3.62435 31.8314 4.03131 31.5314 4.33137C31.2313 4.63143 30.8243 4.8 30.4 4.8ZM35.2 4.8C34.8836 4.8 34.5742 4.70616 34.3111 4.53035C34.048 4.35454 33.8429 4.10466 33.7218 3.81229C33.6007 3.51993 33.569 3.19823 33.6307 2.88786C33.6925 2.57749 33.8449 2.29239 34.0686 2.06863C34.2924 1.84487 34.5775 1.69248 34.8879 1.63074C35.1982 1.56901 35.5199 1.60069 35.8123 1.72179C36.1047 1.84289 36.3545 2.04797 36.5304 2.31109C36.7062 2.57421 36.8 2.88355 36.8 3.2C36.8 3.62435 36.6314 4.03131 36.3314 4.33137C36.0313 4.63143 35.6243 4.8 35.2 4.8ZM4 8V24C4 24.2122 4.08429 24.4157 4.23431 24.5657C4.38434 24.7157 4.58783 24.8 4.8 24.8H38.4C38.6122 24.8 38.8157 24.7157 38.9657 24.5657C39.1157 24.4157 39.2 24.2122 39.2 24V8H4ZM8.664 18.76C8.77978 18.9364 8.82121 19.1513 8.77926 19.3581C8.7373 19.5649 8.61537 19.7467 8.44 19.864C8.31117 19.9542 8.15728 20.0018 8 20C7.86823 19.9993 7.73868 19.9661 7.62284 19.9033C7.507 19.8405 7.40847 19.75 7.336 19.64L5.736 17.24C5.64998 17.1094 5.60413 16.9564 5.60413 16.8C5.60413 16.6436 5.64998 16.4906 5.736 16.36L7.336 13.96C7.46104 13.8048 7.63953 13.7018 7.83651 13.6713C8.03349 13.6408 8.23476 13.6849 8.40092 13.795C8.56708 13.9051 8.68615 14.0732 8.73481 14.2665C8.78348 14.4598 8.75822 14.6643 8.664 14.84L7.36 16.8L8.664 18.76ZM12.8 13.904L11.2 20.096C11.1546 20.272 11.0507 20.4273 10.9053 20.5364C10.7599 20.6455 10.5817 20.7017 10.4 20.696C10.3336 20.7038 10.2664 20.7038 10.2 20.696C10.0932 20.6728 9.99231 20.628 9.90351 20.5644C9.81471 20.5007 9.73989 20.4195 9.68367 20.3258C9.62746 20.2321 9.59103 20.1279 9.57664 20.0196C9.56225 19.9112 9.5702 19.8011 9.6 19.696L11.2 13.504C11.253 13.2982 11.3857 13.1219 11.5687 13.0139C11.7517 12.9058 11.9702 12.875 12.176 12.928C12.3818 12.981 12.5581 13.1137 12.6661 13.2967C12.7742 13.4797 12.805 13.6982 12.752 13.904H12.8ZM16.688 17.24L15.088 19.64C15.0133 19.7535 14.911 19.8461 14.7906 19.9091C14.6702 19.9721 14.5358 20.0033 14.4 20C14.2427 20.0018 14.0888 19.9542 13.96 19.864C13.7846 19.7467 13.6627 19.5649 13.6207 19.3581C13.5788 19.1513 13.6202 18.9364 13.736 18.76L15.04 16.8L13.736 14.84C13.6662 14.7533 13.6152 14.653 13.5864 14.5455C13.5575 14.438 13.5514 14.3256 13.5685 14.2156C13.5855 14.1056 13.6253 14.0004 13.6854 13.9067C13.7454 13.8129 13.8243 13.7328 13.9171 13.6713C14.0099 13.6098 14.1145 13.5683 14.2242 13.5496C14.3339 13.5308 14.4464 13.5352 14.5543 13.5624C14.6623 13.5895 14.7633 13.6389 14.8511 13.7074C14.9389 13.7759 15.0114 13.8619 15.064 13.96L16.664 16.36C16.75 16.4906 16.7959 16.6436 16.7959 16.8C16.7959 16.9564 16.75 17.1094 16.664 17.24H16.688ZM37.6 20.8C37.6 21.4365 37.3471 22.047 36.8971 22.4971C36.447 22.9471 35.8365 23.2 35.2 23.2H21.6C20.9635 23.2 20.353 22.9471 19.9029 22.4971C19.4529 22.047 19.2 21.4365 19.2 20.8V12.8C19.2 12.1635 19.4529 11.553 19.9029 11.1029C20.353 10.6529 20.9635 10.4 21.6 10.4H35.2C35.8365 10.4 36.447 10.6529 36.8971 11.1029C37.3471 11.553 37.6 12.1635 37.6 12.8V20.8Z" fill="#E9B6FF"/>
<path d="M43.2 7.2V28.8H2.30299e-05V7.2C-0.00262767 6.4234 0.223594 5.66322 0.650432 5.01443C1.07727 4.36563 1.6858 3.85698 2.40002 3.552V24C2.40002 24.6365 2.65288 25.247 3.10297 25.6971C3.55305 26.1471 4.1635 26.4 4.80002 26.4H38.4C39.0365 26.4 39.647 26.1471 40.0971 25.6971C40.5472 25.247 40.8 24.6365 40.8 24V3.552C41.5142 3.85698 42.1228 4.36563 42.5496 5.01443C42.9765 5.66322 43.2027 6.4234 43.2 7.2ZM28.712 46.4H14.488L17.232 38.4H25.968L28.712 46.4Z" fill="#E9B6FF"/>
<path d="M0 30.3999V32.7999C0 33.8608 0.421427 34.8782 1.17157 35.6284C1.92172 36.3785 2.93913 36.7999 4 36.7999H39.2C40.2609 36.7999 41.2783 36.3785 42.0284 35.6284C42.7786 34.8782 43.2 33.8608 43.2 32.7999V30.3999H0ZM22.4 34.3999H20.8C20.5878 34.3999 20.3843 34.3157 20.2343 34.1656C20.0843 34.0156 20 33.8121 20 33.5999C20 33.3878 20.0843 33.1843 20.2343 33.0343C20.3843 32.8842 20.5878 32.7999 20.8 32.7999H22.4C22.6122 32.7999 22.8157 32.8842 22.9657 33.0343C23.1157 33.1843 23.2 33.3878 23.2 33.5999C23.2 33.8121 23.1157 34.0156 22.9657 34.1656C22.8157 34.3157 22.6122 34.3999 22.4 34.3999ZM26.504 21.5999H21.928L24 19.5519C24.0832 19.466 24.1846 19.3999 24.2968 19.3584C24.4089 19.3168 24.5289 19.301 24.648 19.3119C24.7659 19.3249 24.8795 19.3639 24.9805 19.4262C25.0816 19.4884 25.1674 19.5724 25.232 19.6719L26.504 21.5999ZM35.016 21.5999H28.424L27.4 20.0559L29.8 17.1439C29.8744 17.0547 29.9673 16.9827 30.0723 16.9329C30.1773 16.8832 30.2918 16.8569 30.408 16.8559C30.5229 16.8467 30.6382 16.8669 30.7431 16.9144C30.8481 16.962 30.9392 17.0355 31.008 17.1279L35.016 21.5999Z" fill="#E9B6FF"/>
<path d="M35.2008 12H21.6008C21.3886 12 21.1851 12.0843 21.0351 12.2343C20.8851 12.3843 20.8008 12.5878 20.8008 12.8V20.472L22.8488 18.4C23.0923 18.1588 23.3847 17.9726 23.7062 17.8538C24.0277 17.7351 24.371 17.6866 24.7128 17.7116C25.0547 17.7366 25.3872 17.8345 25.688 17.9988C25.9888 18.1631 26.251 18.3899 26.4568 18.664L28.5928 16.104C28.8156 15.8411 29.0924 15.6293 29.4044 15.483C29.7164 15.3367 30.0562 15.2593 30.4008 15.256C30.739 15.2556 31.0735 15.3266 31.3823 15.4645C31.6911 15.6023 31.9673 15.8039 32.1928 16.056L36.0008 20.296V12.8C36.0008 12.5878 35.9165 12.3843 35.7665 12.2343C35.6164 12.0843 35.413 12 35.2008 12ZM24.8008 16.8C24.4843 16.8 24.175 16.7062 23.9119 16.5304C23.6487 16.3545 23.4437 16.1047 23.3226 15.8123C23.2015 15.5199 23.1698 15.1982 23.2315 14.8879C23.2933 14.5775 23.4456 14.2924 23.6694 14.0686C23.8932 13.8449 24.1783 13.6925 24.4886 13.6307C24.799 13.569 25.1207 13.6007 25.4131 13.7218C25.7054 13.8429 25.9553 14.048 26.1311 14.3111C26.3069 14.5742 26.4008 14.8835 26.4008 15.2C26.4008 15.6243 26.2322 16.0313 25.9322 16.3314C25.6321 16.6314 25.2251 16.8 24.8008 16.8Z" fill="#E9B6FF"/>
</svg>
