<svg width="64" height="64" viewBox="0 0 64 64" fill="none" xmlns="http://www.w3.org/2000/svg">
<path d="M27.335 19.9607C26.84 19.9607 26.3825 19.6833 26.15 19.2408L24.7475 16.5487C24.515 16.1063 24.0575 15.8289 23.5625 15.8289H17.1575C16.6625 15.8289 16.205 16.1063 15.9725 16.5487L14.57 19.2408C14.3375 19.6833 13.88 19.9607 13.385 19.9607H8V54.5378C8 55.3402 8.6525 56.0001 9.4625 56.0001H54.5375C55.34 56.0001 56 55.3402 56 54.5378V19.9607H27.335ZM52.8125 51.3358C52.8125 52.0407 52.2425 52.6181 51.53 52.6181H12.4775C11.765 52.6181 11.1875 52.0407 11.1875 51.3358V24.235C11.1875 23.5302 11.765 22.9527 12.4775 22.9527H51.53C52.2425 22.9527 52.8125 23.5302 52.8125 24.235V51.3358Z" fill="#E9B6FF"/>
<path d="M51.53 24.0775H12.4775C12.3875 24.0775 12.3125 24.1525 12.3125 24.235V51.3357C12.3125 51.4257 12.3875 51.4932 12.4775 51.4932H28.5125V42.3146C26.0975 41.0548 24.4475 38.5352 24.4475 35.6257C24.4475 33.0461 25.7375 30.7589 27.7175 29.3942C27.845 29.3042 28.025 29.4017 28.025 29.5591V32.8736C28.025 32.9411 28.055 32.9936 28.1 33.0311L31.8875 35.8731C31.9625 35.9256 32.0525 35.9256 32.1275 35.8731L35.9075 33.0311C35.9525 32.9936 35.9825 32.9411 35.9825 32.8811V29.5591C35.9825 29.4017 36.1625 29.3042 36.29 29.3942C38.27 30.7589 39.56 33.0461 39.56 35.6257C39.56 38.5277 37.91 41.0548 35.495 42.3071V51.4932H51.53C51.62 51.4932 51.6875 51.4257 51.6875 51.3357V24.235C51.6875 24.1525 51.62 24.0775 51.53 24.0775ZM14.1875 39.0227C14.1875 38.7152 14.4425 38.4602 14.75 38.4602C15.065 38.4602 15.3125 38.7152 15.3125 39.0227V39.765C15.3125 40.08 15.065 40.3274 14.75 40.3274C14.4425 40.3274 14.1875 40.08 14.1875 39.765V39.0227ZM20.57 49.6185H14.75C14.4425 49.6185 14.1875 49.371 14.1875 49.0561V42.7721C14.1875 42.4646 14.4425 42.2097 14.75 42.2097C15.065 42.2097 15.3125 42.4646 15.3125 42.7721V48.4937H20.57C20.8775 48.4937 21.1325 48.7486 21.1325 49.0561C21.1325 49.371 20.8775 49.6185 20.57 49.6185ZM41.66 41.1373C41.5175 41.3848 41.3675 41.6247 41.21 41.8572C41.105 42.0147 40.925 42.1047 40.745 42.1047C40.64 42.1047 40.5275 42.0747 40.43 42.0072C40.175 41.8347 40.1075 41.4823 40.28 41.2273C40.4225 41.0173 40.5575 40.7999 40.685 40.5824C40.835 40.3125 41.18 40.215 41.45 40.3724C41.72 40.5299 41.8175 40.8674 41.66 41.1373ZM43.025 37.0955C42.9875 37.3729 42.7475 37.5829 42.47 37.5829C42.4475 37.5829 42.4175 37.5829 42.395 37.5754C42.0875 37.5379 41.87 37.2529 41.915 36.9455C41.9675 36.5105 41.9975 36.0681 41.9975 35.6257C41.9975 33.451 41.27 31.2914 39.95 29.5591C39.7625 29.3117 39.8075 28.9592 40.055 28.7718C40.3025 28.5843 40.655 28.6293 40.8425 28.8767C42.3125 30.8039 43.1225 33.2036 43.1225 35.6257C43.1225 36.1206 43.0925 36.608 43.025 37.0955ZM54.5375 8H9.47C8.6675 8 8 8.6599 8 9.46977V18.8358H13.3925C13.4675 18.8358 13.5425 18.7908 13.58 18.7158L14.975 16.0237C15.41 15.2064 16.2425 14.704 17.1575 14.704H23.5625C24.485 14.704 25.3175 15.2064 25.745 16.0237L27.1475 18.7158C27.185 18.7908 27.26 18.8358 27.335 18.8358H56V9.46977C56 8.6599 55.34 8 54.5375 8ZM36.2 15.4013C35.105 15.4013 34.2125 14.509 34.2125 13.4142C34.2125 12.3118 35.105 11.427 36.2 11.427C37.295 11.427 38.1875 12.3118 38.1875 13.4142C38.1875 14.509 37.295 15.4013 36.2 15.4013ZM43.19 15.4013C42.095 15.4013 41.2025 14.509 41.2025 13.4142C41.2025 12.3118 42.095 11.427 43.19 11.427C44.285 11.427 45.1775 12.3118 45.1775 13.4142C45.1775 14.509 44.285 15.4013 43.19 15.4013ZM50.18 15.4013C49.085 15.4013 48.1925 14.509 48.1925 13.4142C48.1925 12.3118 49.085 11.427 50.18 11.427C51.275 11.427 52.1675 12.3118 52.1675 13.4142C52.1675 14.509 51.275 15.4013 50.18 15.4013Z" fill="#E9B6FF"/>
</svg>
