<?xml version="1.0" encoding="UTF-8"?>
<svg xmlns="http://www.w3.org/2000/svg" width="413" height="104" viewBox="0 0 413 104" fill="none">
  <path d="M76.6664 13.1598C73.7292 14.9749 71.7655 18.2175 71.7655 21.922V30.6842H21.8736C17.0304 30.6842 13.1113 26.7652 13.1113 21.922C13.1113 19.5046 14.0931 17.3181 15.6773 15.7257C17.2614 14.1416 19.4479 13.1598 21.8736 13.1598H41.7577C41.9475 13.6713 42.162 14.1664 42.426 14.6366C44.332 18.1267 47.987 20.3049 51.9638 20.3049C55.9407 20.3049 59.5957 18.135 61.4851 14.6532C61.7574 14.1746 61.9802 13.6796 62.1617 13.1598H76.6664Z" fill="#894B9D"></path>
  <path d="M50.812 0.115522C46.8764 0.577561 43.5514 3.60557 42.7675 7.49164C42.3055 9.82659 42.7015 12.079 43.7246 13.9354C45.3253 16.8562 48.411 18.8281 51.9588 18.8281C55.5066 18.8281 58.6089 16.8562 60.193 13.9354C60.9356 12.5988 61.3481 11.0642 61.3481 9.43882C61.3564 3.86135 56.5132 -0.561034 50.812 0.115522Z" fill="#BD94C4"></path>
  <path d="M90.8192 82.1026C90.8192 86.9375 86.9001 90.8648 82.057 90.8648H62.1645C61.9748 90.3533 61.752 89.8582 61.488 89.3962C59.5903 85.8979 55.9353 83.728 51.9584 83.728C47.9816 83.728 44.3348 85.8979 42.4206 89.3797C42.1566 89.8582 41.9338 90.3533 41.7523 90.8648H27.2559C30.1931 89.0496 32.1568 85.8071 32.1568 82.1026V73.3403H82.0487C84.4662 73.3403 86.6526 74.3222 88.245 75.9063C89.8291 77.4987 90.8192 79.6851 90.8192 82.1026Z" fill="#894B9D"></path>
  <path d="M50.812 103.909C46.8764 103.447 43.5514 100.419 42.7675 96.533C42.3055 94.198 42.7015 91.9456 43.7246 90.0892C45.3253 87.1684 48.411 85.1965 51.9588 85.1965C55.5066 85.1965 58.6089 87.1684 60.193 90.0892C60.9356 91.4258 61.3481 92.9604 61.3481 94.5858C61.3564 100.155 56.5132 104.577 50.812 103.909Z" fill="#BD94C4"></path>
  <path d="M30.6358 32.2023V82.0942C30.6358 86.9291 26.7167 90.8565 21.8736 90.8565C19.4561 90.8565 17.2697 89.8829 15.6773 88.2905C14.0931 86.7064 13.1113 84.5199 13.1113 82.0942V62.2101C13.6229 62.0203 14.1179 61.8058 14.5882 61.5418C18.0782 59.6359 20.2564 55.9808 20.2564 52.004C20.2564 48.0271 18.0865 44.3721 14.6047 42.4827C14.1262 42.2104 13.6311 41.9876 13.1113 41.8061V27.3014C14.9182 30.2386 18.169 32.2023 21.8736 32.2023H30.6358Z" fill="#BD94C4"></path>
  <path d="M0.0684185 53.1673C0.530457 57.1029 3.55846 60.4279 7.44454 61.2118C9.77949 61.6738 12.0319 61.2778 13.8883 60.2547C16.8091 58.6541 18.781 55.5683 18.781 52.0205C18.781 48.4727 16.8091 45.3704 13.8883 43.7863C12.5517 43.0437 11.0171 42.6312 9.39172 42.6312C3.8225 42.623 -0.608138 47.4661 0.0684185 53.1673Z" fill="#894B9D"></path>
  <path d="M83.6704 52.0123C83.6704 55.9891 85.8403 59.6359 89.3304 61.5501C89.8089 61.8141 90.2957 62.0286 90.8072 62.2184V76.7066C88.9921 73.7776 85.7496 71.814 82.0533 71.814H73.291V21.922C73.291 19.5046 74.2729 17.3181 75.857 15.7257C77.4494 14.1416 79.6358 13.1598 82.0533 13.1598C86.8882 13.1598 90.8155 17.0789 90.8155 21.922V41.8145C90.304 41.996 89.8089 42.2187 89.3469 42.4828C85.8321 44.3804 83.6704 48.0272 83.6704 52.0123Z" fill="#BD94C4"></path>
  <path d="M103.861 53.1673C103.399 57.1029 100.371 60.4279 96.4849 61.2118C94.1499 61.6738 91.8975 61.2778 90.0411 60.2547C87.1203 58.6541 85.1484 55.5683 85.1484 52.0205C85.1484 48.4727 87.1203 45.3704 90.0411 43.7863C91.3777 43.0437 92.9123 42.6312 94.5377 42.6312C100.107 42.623 104.529 47.4661 103.861 53.1673Z" fill="#894B9D"></path>
  <path d="M184.572 86.9045C183.805 86.6157 183.12 86.294 182.51 85.9392C181.899 85.5927 181.379 85.1719 180.959 84.6851C180.53 84.1983 180.2 83.6207 179.96 82.9442C179.721 82.2676 179.606 81.4591 179.606 80.5102C179.606 79.3634 179.804 78.3485 180.2 77.4657C180.596 76.5911 181.148 75.8486 181.874 75.2545C182.592 74.6605 183.467 74.2067 184.473 73.9014C185.488 73.5961 186.627 73.4476 187.889 73.4476C189.036 73.4476 190.117 73.5466 191.115 73.7529C192.114 73.9592 193.17 74.248 194.275 74.6357C194.143 75.9393 193.78 77.2264 193.194 78.4888C192.856 78.3568 192.51 78.2165 192.163 78.0845C191.817 77.9525 191.445 77.837 191.049 77.7463C190.653 77.6555 190.208 77.5812 189.713 77.5235C189.218 77.4657 188.657 77.441 188.021 77.441C187.642 77.441 187.246 77.474 186.858 77.54C186.462 77.606 186.107 77.7298 185.794 77.9113C185.48 78.0928 185.216 78.3568 185.018 78.7033C184.812 79.0498 184.713 79.5119 184.713 80.073C184.713 80.5268 184.795 80.898 184.952 81.2033C185.109 81.5086 185.323 81.7644 185.596 81.9789C185.868 82.1934 186.173 82.3749 186.511 82.5151C186.85 82.6636 187.188 82.8039 187.526 82.9359L189.556 83.7115C190.414 84.0498 191.19 84.3963 191.891 84.7594C192.592 85.1224 193.178 85.5679 193.665 86.096C194.152 86.624 194.523 87.2676 194.795 88.0184C195.067 88.7692 195.199 89.7015 195.199 90.8071C195.199 91.954 194.993 93.0018 194.572 93.9506C194.152 94.8995 193.549 95.708 192.765 96.3846C191.973 97.0611 191 97.5892 189.845 97.9687C188.681 98.3483 187.353 98.5462 185.843 98.5462C185.101 98.5462 184.432 98.5215 183.846 98.4803C183.261 98.4308 182.7 98.3647 182.172 98.2575C181.643 98.1585 181.115 98.0265 180.604 97.8697C180.084 97.713 179.548 97.5232 178.979 97.2922C179.045 96.6404 179.168 95.9555 179.35 95.246C179.531 94.5364 179.746 93.8186 179.993 93.1008C180.942 93.4803 181.825 93.7691 182.667 93.9588C183.5 94.1486 184.391 94.2476 185.34 94.2476C186.759 94.2476 187.873 93.9836 188.681 93.4556C189.49 92.9275 189.894 92.119 189.894 91.0381C189.894 90.5018 189.795 90.048 189.605 89.685C189.416 89.322 189.168 89.0249 188.863 88.7692C188.558 88.5217 188.219 88.3154 187.832 88.1421C187.452 87.9689 187.056 87.8121 186.652 87.6554L184.572 86.9045Z" fill="white"></path>
  <path d="M223.837 98.5629C222.013 98.5629 220.438 98.2495 219.109 97.6142C217.781 96.9871 216.692 96.1125 215.834 94.9986C214.976 93.8848 214.34 92.5647 213.928 91.0466C213.507 89.5285 213.301 87.8618 213.301 86.0632C213.301 84.2645 213.507 82.5896 213.928 81.0467C214.34 79.5039 214.984 78.1672 215.834 77.0451C216.692 75.9148 217.781 75.0402 219.109 74.4132C220.438 73.7861 222.013 73.4644 223.837 73.4644C225.66 73.4644 227.236 73.7779 228.565 74.4132C229.893 75.0485 230.982 75.923 231.84 77.0451C232.698 78.1755 233.333 79.5039 233.746 81.0467C234.167 82.5896 234.373 84.2645 234.373 86.0632C234.373 87.8618 234.167 89.5285 233.746 91.0466C233.325 92.5647 232.69 93.8848 231.84 94.9986C230.982 96.1125 229.893 96.9871 228.565 97.6142C227.236 98.2495 225.66 98.5629 223.837 98.5629ZM223.837 94.4376C227.327 94.4376 229.076 91.6489 229.076 86.0549C229.076 83.2662 228.655 81.1705 227.805 79.7679C226.956 78.3653 225.652 77.6722 223.87 77.6722C220.33 77.6722 218.565 80.4692 218.565 86.0549C218.565 91.6489 220.322 94.4376 223.837 94.4376ZM234.992 100.048C234.942 100.7 234.868 101.368 234.753 102.061C234.637 102.746 234.464 103.398 234.216 104L225.834 102.647C225.9 102.177 225.957 101.772 226.007 101.451C226.048 101.121 226.106 100.815 226.172 100.535C226.238 100.254 226.32 99.9738 226.411 99.6933C226.502 99.4128 226.601 99.0992 226.716 98.761L234.992 100.048Z" fill="white"></path>
  <path d="M253.508 73.8603C253.937 73.7943 254.349 73.7448 254.762 73.7283C255.166 73.7036 255.587 73.6953 256.016 73.6953C256.396 73.6953 256.792 73.7036 257.196 73.7283C257.6 73.7531 258.021 73.7943 258.45 73.8603V86.4674C258.45 87.8453 258.499 89.0169 258.598 89.9987C258.697 90.9805 258.904 91.7891 259.209 92.4327C259.514 93.0762 259.943 93.5465 260.496 93.8517C261.049 94.157 261.767 94.3056 262.641 94.3056C263.524 94.3056 264.234 94.157 264.77 93.8517C265.315 93.5465 265.735 93.0762 266.041 92.4327C266.346 91.7891 266.544 90.9805 266.651 89.9987C266.75 89.0169 266.8 87.8453 266.8 86.4674V73.8603C267.253 73.7943 267.682 73.7448 268.087 73.7283C268.491 73.7036 268.887 73.6953 269.267 73.6953C269.671 73.6953 270.083 73.7036 270.496 73.7283C270.917 73.7531 271.338 73.7943 271.767 73.8603V87.507C271.767 89.1489 271.635 90.6588 271.362 92.0201C271.09 93.3815 270.603 94.5448 269.91 95.5184C269.209 96.4837 268.277 97.2346 267.105 97.7626C265.933 98.2907 264.448 98.5547 262.641 98.5547C260.834 98.5547 259.349 98.2907 258.178 97.7626C257.006 97.2346 256.074 96.4837 255.372 95.5184C254.671 94.5531 254.193 93.3815 253.92 92.0201C253.648 90.6588 253.516 89.1572 253.516 87.507V73.8603H253.508Z" fill="white"></path>
  <path d="M297.162 73.8602C297.632 73.7942 298.086 73.7447 298.515 73.7117C298.944 73.6787 299.414 73.6622 299.934 73.6622C300.388 73.6622 300.825 73.6787 301.254 73.7117C301.683 73.7447 302.154 73.7942 302.673 73.8602L310.272 98.1585C309.348 98.2906 308.449 98.3648 307.566 98.3648C306.708 98.3648 305.875 98.2988 305.066 98.1585L303.713 93.2906H295.668L294.282 98.1585C293.474 98.2906 292.698 98.3648 291.947 98.3648C291.114 98.3648 290.289 98.2988 289.48 98.1585L297.162 73.8602ZM302.566 89.2066L299.761 79.0004L296.824 89.2066H302.566Z" fill="white"></path>
  <path d="M328.316 73.8602C329.265 73.7447 330.255 73.654 331.286 73.5715C332.326 73.4889 333.473 73.4559 334.735 73.4559C338.992 73.4559 342.235 74.512 344.446 76.6324C346.665 78.7529 347.771 81.9294 347.771 86.162C347.771 90.4194 346.641 93.5546 344.388 95.5595C342.136 97.5644 338.794 98.5628 334.355 98.5628C333.209 98.5628 332.144 98.5215 331.179 98.4473C330.214 98.3648 329.256 98.274 328.308 98.1585V73.8602H328.316ZM333.283 94.2394C333.489 94.2642 333.745 94.2889 334.058 94.3055C334.372 94.3302 334.76 94.3384 335.205 94.3384C336.245 94.3384 337.202 94.2229 338.093 93.9837C338.984 93.7444 339.751 93.3153 340.411 92.68C341.063 92.053 341.583 91.2032 341.963 90.1471C342.342 89.091 342.54 87.7296 342.54 86.0548C342.54 84.4294 342.35 83.0845 341.963 82.0036C341.583 80.9228 341.063 80.0647 340.411 79.4377C339.76 78.8106 339.009 78.3651 338.167 78.1011C337.326 77.8453 336.426 77.7133 335.477 77.7133C335.164 77.7133 334.793 77.7215 334.38 77.7298C333.959 77.738 333.596 77.7711 333.283 77.8123V94.2394Z" fill="white"></path>
  <path d="M146.212 50.0651C146.888 51.2037 147.458 52.5238 147.912 54.0254C148.365 55.527 148.588 57.3009 148.588 59.3471C146.319 60.2547 144.19 60.8322 142.202 61.088C140.214 61.3438 138.143 61.4758 135.989 61.4758C132.301 61.4758 129.092 60.89 126.369 59.7266C123.646 58.5633 121.386 56.9627 119.603 54.9165C117.813 52.8786 116.468 50.4446 115.561 47.6394C114.653 44.8259 114.199 41.7814 114.199 38.4893C114.199 35.2551 114.637 32.2518 115.519 29.4631C116.394 26.6826 117.731 24.2404 119.521 22.1447C121.311 20.049 123.531 18.3989 126.204 17.2108C128.869 16.0144 131.963 15.4204 135.478 15.4204C136.724 15.4204 137.879 15.4534 138.927 15.5112C139.974 15.5689 140.981 15.6844 141.946 15.8494C142.912 16.0227 143.877 16.2455 144.842 16.526C145.808 16.8148 146.888 17.1778 148.077 17.6316C148.077 18.9435 147.903 20.3956 147.565 22.021C147.218 23.6381 146.682 25.181 145.948 26.6579C144.248 26.0886 142.755 25.709 141.476 25.511C140.197 25.313 138.737 25.214 137.095 25.214C133.58 25.214 130.923 26.3608 129.141 28.6628C127.351 30.9565 126.46 34.2402 126.46 38.4893C126.46 43.085 127.425 46.4347 129.356 48.5304C131.286 50.6343 133.894 51.6822 137.186 51.6822C138.035 51.6822 138.819 51.6657 139.529 51.6409C140.238 51.6079 140.931 51.5419 141.616 51.4264C142.293 51.3109 142.994 51.1459 143.704 50.9149C144.413 50.6839 145.247 50.4034 146.212 50.0651Z" fill="white"></path>
  <path d="M155.484 16.4436C156.334 16.2704 157.143 16.1466 157.91 16.0558C158.677 15.9733 159.511 15.9238 160.418 15.9238C161.268 15.9238 162.11 15.9816 162.926 16.0971C163.752 16.2126 164.56 16.3529 165.352 16.5261C165.525 16.8149 165.682 17.2192 165.822 17.7637C165.963 18.3083 166.095 18.8693 166.21 19.4634C166.326 20.0574 166.425 20.6597 166.507 21.2538C166.59 21.8478 166.664 22.3429 166.722 22.7472C167.968 20.9898 169.502 19.4139 171.317 18.0195C173.133 16.6251 175.402 15.9321 178.124 15.9321C178.694 15.9321 179.345 15.9569 180.08 16.0229C180.814 16.0806 181.359 16.1631 181.697 16.2786C181.812 16.8479 181.895 17.4997 181.953 18.234C182.01 18.9766 182.043 19.7439 182.043 20.536C182.043 21.5013 182.002 22.5491 181.911 23.6877C181.821 24.8263 181.672 25.8989 181.441 26.922C180.814 26.8065 180.121 26.7488 179.354 26.7488H177.951C176.986 26.7488 175.913 26.8478 174.717 27.0458C173.52 27.2438 172.39 27.7636 171.309 28.6217C170.228 29.4715 169.337 30.7503 168.628 32.45C167.918 34.1496 167.563 36.5341 167.563 39.5951V60.5354C166.54 60.7086 165.517 60.8159 164.502 60.8736C163.479 60.9314 162.489 60.9561 161.524 60.9561C160.559 60.9561 159.585 60.9231 158.587 60.8736C157.597 60.8159 156.557 60.7004 155.484 60.5354V16.4436Z" fill="white"></path>
  <path d="M196.343 42.1444C196.566 45.5519 197.762 48.0189 199.916 49.5453C202.069 51.0799 204.907 51.8472 208.43 51.8472C210.361 51.8472 212.333 51.6657 214.346 51.2944C216.359 50.9314 218.273 50.4033 220.089 49.7185C220.716 50.8571 221.252 52.2185 221.706 53.8026C222.16 55.395 222.415 57.0947 222.473 58.9098C218.042 60.6094 213.051 61.4675 207.49 61.4675C203.406 61.4675 199.899 60.8982 196.978 59.7679C194.058 58.6293 191.673 57.0534 189.825 55.0402C187.985 53.0271 186.616 50.6261 185.741 47.8456C184.858 45.0652 184.421 42.0289 184.421 38.7369C184.421 35.5026 184.875 32.4663 185.782 29.6281C186.69 26.7981 188.035 24.3229 189.825 22.2272C191.615 20.1316 193.827 18.4732 196.467 17.2521C199.107 16.031 202.185 15.4204 205.708 15.4204C208.769 15.4204 211.491 15.9567 213.876 17.0375C216.26 18.1184 218.29 19.587 219.957 21.4599C221.632 23.3328 222.894 25.5605 223.744 28.143C224.594 30.7254 225.023 33.4894 225.023 36.4432C225.023 37.524 224.981 38.5801 224.891 39.6362C224.808 40.684 224.709 41.5173 224.594 42.1444H196.343ZM213.62 33.7205C213.505 30.9977 212.754 28.803 211.368 27.1281C209.973 25.4533 208.034 24.6199 205.534 24.6199C202.696 24.6199 200.543 25.412 199.066 27.0044C197.589 28.5968 196.714 30.8327 196.426 33.7287H213.62V33.7205Z" fill="white"></path>
  <path d="M254.898 31.5094C254.898 30.148 254.667 29.0425 254.221 28.1927C253.768 27.3428 253.149 26.6745 252.348 26.196C251.556 25.7174 250.575 25.3874 249.411 25.2141C248.248 25.0409 246.953 24.9584 245.533 24.9584C242.472 24.9584 239.205 25.5524 235.748 26.7488C234.956 25.2719 234.354 23.8858 233.958 22.5822C233.562 21.2703 233.364 19.7192 233.364 17.8958C235.864 17.046 238.355 16.4189 240.855 16.0229C243.355 15.6269 245.674 15.4288 247.835 15.4288C253.735 15.4288 258.347 16.8479 261.672 19.6862C264.989 22.5244 266.647 27.0623 266.647 33.2998V58.8357C264.659 59.4628 262.249 60.0568 259.411 60.6261C256.573 61.1954 253.363 61.4759 249.791 61.4759C246.895 61.4759 244.246 61.2202 241.829 60.7086C239.42 60.1971 237.349 59.3473 235.616 58.1509C233.883 56.9628 232.555 55.4282 231.614 53.5553C230.682 51.6824 230.212 49.3887 230.212 46.6577C230.212 43.935 230.789 41.6495 231.953 39.8096C233.116 37.9697 234.618 36.4928 236.466 35.379C238.306 34.2734 240.36 33.4814 242.637 32.9946C244.906 32.516 247.175 32.2768 249.444 32.2768C251.086 32.2768 252.91 32.3593 254.89 32.5325V31.5094H254.898ZM254.898 40.2717C254.221 40.1562 253.479 40.0571 252.687 39.9746C251.895 39.8921 251.185 39.8426 250.558 39.8426C247.778 39.8426 245.583 40.3377 243.966 41.336C242.349 42.3261 241.54 43.935 241.54 46.1462C241.54 47.623 241.854 48.7534 242.481 49.5537C243.099 50.3458 243.859 50.9316 244.733 51.2946C245.608 51.6659 246.548 51.8886 247.547 51.9794C248.537 52.0619 249.403 52.1114 250.137 52.1114C250.987 52.1114 251.837 52.0454 252.695 51.8969C253.545 51.7566 254.279 51.6328 254.906 51.5173V40.2717H254.898Z" fill="white"></path>
  <path d="M276.944 25.6348H271.408L270.979 23.9351L286.894 3.59717H288.85V16.4518H299.146C299.32 17.3016 299.427 18.0689 299.485 18.7537C299.542 19.4303 299.575 20.1481 299.575 20.8824C299.575 21.6827 299.542 22.45 299.485 23.1843C299.427 23.9269 299.311 24.7437 299.146 25.6513H288.858V42.9282C288.858 44.6856 288.998 46.1047 289.287 47.1856C289.567 48.2582 289.98 49.1163 290.524 49.7351C291.061 50.3621 291.729 50.7829 292.521 51.0139C293.313 51.2367 294.254 51.3522 295.326 51.3522C296.176 51.3522 297.018 51.2779 297.843 51.1377C298.66 50.9974 299.386 50.8736 300.013 50.7581C300.409 51.839 300.689 52.9611 300.863 54.1244C301.036 55.2878 301.118 56.3191 301.118 57.2267C301.118 57.8538 301.102 58.3735 301.077 58.8026C301.044 59.2316 301.003 59.6441 300.945 60.0402C298.33 60.6672 295.64 60.9725 292.859 60.9725C287.694 60.9725 283.751 59.7679 281.028 57.3587C278.305 54.9495 276.944 51.0222 276.944 45.5685V25.6348Z" fill="white"></path>
  <path d="M309.123 25.6348H303.422C303.248 24.9005 303.125 24.1167 303.042 23.2916C302.951 22.4748 302.91 21.691 302.91 20.9484C302.91 19.4138 303.083 17.9122 303.422 16.4353H320.954V60.4362C318.916 60.7745 316.928 60.9478 314.997 60.9478C313.125 60.9478 311.169 60.7745 309.123 60.4362V25.6348Z" fill="white"></path>
  <path d="M325.714 16.5261C327.075 16.2456 328.338 16.0724 329.501 16.0146C330.664 15.9568 331.671 15.9238 332.521 15.9238C333.659 15.9238 334.79 15.9486 335.928 16.0146C337.067 16.0724 338.115 16.2126 339.08 16.4436L348.692 49.2154L358.139 16.4436C359.104 16.2704 360.119 16.1466 361.2 16.0558C362.281 15.9733 363.354 15.9238 364.434 15.9238C365.284 15.9238 366.266 15.9486 367.372 16.0146C368.477 16.0724 369.74 16.2456 371.159 16.5261L354.476 60.4446C353.395 60.6178 352.265 60.7251 351.068 60.7829C349.872 60.8406 348.882 60.8736 348.09 60.8736C347.24 60.8736 346.275 60.8489 345.202 60.7829C344.121 60.7251 343.098 60.5848 342.141 60.3538L325.714 16.5261Z" fill="white"></path>
  <path d="M383.849 42.1444C384.08 45.5519 385.268 48.0189 387.43 49.5453C389.583 51.0799 392.422 51.8472 395.945 51.8472C397.875 51.8472 399.847 51.6657 401.86 51.2944C403.874 50.9314 405.788 50.4033 407.603 49.7185C408.222 50.8571 408.766 52.2185 409.22 53.8026C409.674 55.395 409.93 57.0947 409.987 58.9098C405.565 60.6094 400.573 61.4675 395.012 61.4675C390.928 61.4675 387.422 60.8982 384.501 59.7679C381.58 58.6293 379.196 57.0534 377.348 55.0402C375.499 53.0271 374.138 50.6261 373.264 47.8456C372.389 45.0652 371.943 42.0289 371.943 38.7369C371.943 35.5026 372.397 32.4663 373.305 29.6281C374.212 26.7981 375.557 24.3229 377.348 22.2272C379.138 20.1316 381.349 18.4732 383.989 17.2521C386.63 16.031 389.707 15.4204 393.222 15.4204C396.283 15.4204 399.014 15.9567 401.39 17.0375C403.775 18.1184 405.804 19.587 407.479 21.4599C409.154 23.3328 410.416 25.5605 411.266 28.143C412.116 30.7254 412.545 33.4894 412.545 36.4432C412.545 37.524 412.504 38.5801 412.413 39.6362C412.33 40.684 412.231 41.5173 412.116 42.1444H383.849ZM401.134 33.7205C401.019 30.9977 400.268 28.803 398.882 27.1281C397.488 25.4533 395.549 24.6199 393.049 24.6199C390.21 24.6199 388.057 25.412 386.58 27.0044C385.103 28.5968 384.22 30.8327 383.94 33.7287H401.134V33.7205Z" fill="white"></path>
  <path d="M320.954 7.31836C320.954 9.59555 320.212 11.3777 318.751 12.6813C317.283 13.9849 315.55 14.6367 313.553 14.6367C311.557 14.6367 309.824 13.9849 308.355 12.6813C306.887 11.3777 306.152 9.59555 306.152 7.31836C306.152 5.04942 306.887 3.25902 308.355 1.95541C309.824 0.651801 311.557 0 313.553 0C315.55 0 317.274 0.651801 318.751 1.95541C320.212 3.25902 320.954 5.04942 320.954 7.31836Z" fill="white"></path>
</svg>
