<svg width="623" height="204" viewBox="0 0 623 204" fill="none" xmlns="http://www.w3.org/2000/svg">
<path d="M56.6716 73.1666C60.32 79.4859 61.4952 87.9708 57.3249 94.5302C53.4173 100.676 46.3305 107.713 38.7997 108.884C20.8132 111.681 2.96129 92.2916 10.0825 74.6243C11.9701 69.9411 17.1598 64.6623 21.489 62.0528C26.5219 59.019 31.2938 58.1076 37.0815 57.9556C42.4572 57.8144 46.8254 59.4796 51.5659 61.7313C53.9474 62.8625 54.4959 64.6304 56.3622 65.8627C57.1466 66.3806 58.8513 67.81 59.5411 67.7686" stroke="#E9B6FF" stroke-width="2" stroke-linecap="round"/>
<path d="M565 36.8948C575 34.0615 597.108 18.3361 602.5 13.8953C609.179 8.39519 604 -2.94852 594.5 2.3953C585 7.73912 589 21.8948 600 21.8948C608 21.8948 613.5 19.395 621.5 11.395" stroke="#E9B6FF" stroke-width="2" stroke-linecap="round"/>
<path fill-rule="evenodd" clip-rule="evenodd" d="M383.311 16.007C388.366 16.007 393.421 16.0052 398.476 16.0035C411.114 15.9991 423.753 15.9948 436.394 16.0176C444.892 16.0336 451.153 20.4315 453.603 27.9068C454.3 30.0313 454.423 32.2036 454.423 34.4025C454.423 45.0624 454.424 55.7223 454.425 66.3824V66.383V66.3836V66.3842V66.3848L454.425 66.7954C454.427 88.3915 454.43 109.988 454.423 131.588C454.423 142.881 447.304 150.02 436 150.042C418.505 150.079 401.009 150.079 383.518 150.005C381.735 149.999 381.261 150.452 381.335 152.209C381.471 155.231 381.426 158.267 381.38 161.3V161.3V161.301V161.301V161.301V161.301L381.374 161.759L381.367 162.187C381.261 168.917 376.735 173.362 370 173.373C366.812 173.379 363.625 173.375 360.438 173.372H360.437H360.437H360.437H360.437H360.436C355.044 173.366 349.651 173.359 344.257 173.4C339.582 173.432 335.897 176.749 335.195 181.338C334.513 185.789 337.111 190.012 341.429 191.476C342.771 191.934 344.161 192.008 345.561 192.008H389.263C393.656 192.008 395.269 190.517 395.615 186.178C396.057 180.577 400.668 176.259 406.397 176.222C413.915 176.168 421.433 176.168 428.946 176.243C430.436 176.259 430.921 175.86 431.171 174.342C432.923 163.747 442.741 154.983 453.469 154.626C460.647 154.386 467.84 154.339 475.017 154.589C488.115 155.047 498.46 166.191 498.327 179.39C498.194 192.503 487.737 203.402 474.74 203.754C468.026 203.935 461.302 203.924 454.588 203.754C442.72 203.445 433.189 195.16 431.118 183.495C430.894 182.238 430.346 182.073 429.26 182.078C425.249 182.098 421.236 182.097 417.224 182.095H417.213C413.777 182.094 410.342 182.093 406.908 182.105C403.517 182.116 401.791 183.74 401.451 187.12C400.881 192.668 397.979 196.31 393.107 197.508C392.341 197.7 391.531 197.785 390.743 197.785C387.049 197.788 383.355 197.794 379.66 197.8C367.722 197.821 355.785 197.842 343.847 197.732C337.708 197.679 333.193 194.484 330.653 188.979C328.145 183.543 328.784 178.192 332.463 173.4C335.594 169.327 339.891 167.538 344.975 167.538C347.679 167.538 350.383 167.538 353.086 167.539H353.087H353.088H353.088H353.089H353.089H353.141C358.534 167.54 363.928 167.541 369.324 167.538C373.833 167.532 375.58 165.77 375.585 161.255C375.585 160.348 375.577 159.44 375.569 158.533V158.533V158.532V158.532V158.532V158.532V158.532C375.549 156.312 375.529 154.093 375.628 151.879C375.697 150.324 375.186 150.031 373.732 150.036C366.136 150.064 358.539 150.063 350.943 150.062C344.105 150.06 337.267 150.059 330.429 150.079C323.513 150.1 318.045 147.507 314.376 141.523C312.705 138.791 312.023 135.778 312.023 132.589C312.023 122.302 312.017 112.016 312.012 101.731C311.999 79.2901 311.986 56.8502 312.034 34.4079C312.055 24.5525 317.22 18.0621 326.069 16.3211C327.523 16.0363 329.047 16.0375 330.541 16.0387L330.834 16.0389C344.831 16.0261 358.827 16.027 372.821 16.0278H372.821H372.821H372.821H372.822H372.822C376.32 16.028 379.818 16.0283 383.316 16.0283L383.311 16.007ZM383.225 47.9423C387.443 47.9423 391.661 47.9432 395.879 47.944C412.751 47.9474 429.623 47.9508 446.495 47.8997C448.225 47.8997 448.678 48.2724 448.672 50.0508C448.624 70.7729 448.624 91.4982 448.625 112.222V112.241C448.625 118.72 448.626 125.199 448.624 131.678C448.624 139.526 443.939 144.206 436.096 144.206H330.318C322.485 144.206 317.805 139.516 317.8 131.662C317.799 125.133 317.799 118.603 317.8 112.073V112.073V112.073V112.073V112.072V112.072C317.802 91.3932 317.803 70.7125 317.747 50.0348C317.747 48.1979 318.274 47.8997 319.956 47.905C336.606 47.9513 353.256 47.9477 369.906 47.9442C374.346 47.9433 378.786 47.9423 383.225 47.9423ZM449.822 161.148C442.581 163.56 438.322 168.565 436.666 176.206C437.97 176.206 439.252 176.203 440.518 176.2L440.533 176.2H440.533H440.534H440.534H440.535C443.925 176.193 447.201 176.186 450.477 176.232C451.632 176.248 451.75 175.748 451.739 174.805C451.733 174.194 451.727 173.582 451.721 172.97V172.969V172.969V172.968V172.967C451.684 169.469 451.648 165.967 451.766 162.474C451.824 160.664 451.116 160.717 449.822 161.148ZM451.708 191.737V191.738V191.739V191.74V191.74C451.697 193.241 451.686 194.742 451.739 196.241C451.782 197.423 451.302 197.53 450.317 197.317C444.083 195.938 437.949 189.421 436.911 183.154C436.735 182.094 437.129 182.078 437.896 182.084L439.291 182.089C443.011 182.104 446.731 182.12 450.451 182.068C451.579 182.052 451.76 182.526 451.734 183.489C451.696 184.994 451.704 186.501 451.711 188.007V188.008V188.009C451.715 188.629 451.718 189.249 451.718 189.868V189.863C451.718 190.487 451.713 191.112 451.708 191.737V191.737ZM414.384 33.2471C415.161 34.8125 416.588 34.9882 417.919 34.8711C420.577 34.8758 421.508 34.4335 422.072 32.9809C422.599 31.6179 422.173 30.4998 421.076 29.6426C419.777 28.6256 416.183 28.7374 415.049 29.813C414.032 30.782 413.745 31.964 414.384 33.2471ZM403.879 34.8498C402.494 34.9456 401.147 34.9137 400.311 33.6092C399.454 32.2675 399.582 30.947 400.727 29.8289C401.903 28.6789 405.646 28.6203 406.908 29.7331C408.101 30.7873 408.351 32.0864 407.52 33.4761C406.684 34.887 405.289 34.9722 403.879 34.8498ZM428.866 33.6145C429.707 34.903 431.038 34.9829 432.38 34.8657V34.8604C433.753 34.9509 435.1 34.9722 435.979 33.6891C436.889 32.358 436.762 31.0535 435.649 29.9088C434.461 28.6895 430.564 28.6416 429.318 29.8449C428.168 30.9524 427.976 32.2621 428.866 33.6145Z" fill="#E9B6FF"/>
<path d="M415.38 125.889C421.47 125.889 427.555 125.88 433.646 125.893C435.824 125.898 437.176 126.898 437.149 128.403C437.128 129.904 435.792 130.863 433.582 130.867C421.274 130.881 408.966 130.867 396.658 130.886C395.02 130.886 393.78 130.436 393.281 129.027C392.884 127.912 393.419 127.018 394.442 126.32C395.184 125.82 396.064 125.893 396.918 125.893C403.072 125.889 409.226 125.893 415.38 125.893V125.889Z" fill="white"/>
<path d="M348.721 112.896C354.022 112.896 359.317 112.885 364.617 112.896C366.843 112.902 368.123 113.996 368.149 115.839C368.181 117.715 366.943 118.864 364.697 118.869C354.038 118.891 343.373 118.891 332.708 118.869C330.457 118.869 329.177 117.753 329.15 115.916C329.123 114.028 330.478 112.896 332.825 112.891C338.126 112.88 343.421 112.891 348.721 112.891V112.896Z" fill="white"/>
<path d="M392.604 112.896C397.922 112.896 403.244 112.885 408.562 112.896C410.776 112.902 412.112 114.017 412.149 115.828C412.181 117.66 410.877 118.864 408.663 118.869C398.023 118.891 387.388 118.891 376.748 118.869C374.518 118.869 373.182 117.726 373.15 115.921C373.113 114.056 374.508 112.896 376.85 112.891C382.103 112.88 387.356 112.891 392.61 112.891L392.604 112.896Z" fill="white"/>
<path d="M347.156 85.8803C344.987 85.8857 343.504 83.8335 344.431 81.765C348.067 73.6868 351.79 65.6466 355.536 57.6228C356.282 56.0279 358.005 55.4999 359.482 56.1694C361.074 56.8934 361.609 58.57 360.725 60.5134C358.152 66.1801 355.53 71.8196 352.93 77.4755C351.937 79.6257 350.951 81.7759 349.964 83.9261C349.408 85.1345 348.547 85.8857 347.151 85.8857L347.156 85.8803Z" fill="white"/>
<path d="M372.65 130.879C368.633 130.879 364.623 130.897 360.606 130.874C358.305 130.86 357.15 129.992 357.15 128.385C357.15 126.769 358.305 125.901 360.606 125.896C368.633 125.882 376.666 125.882 384.693 125.896C386.999 125.896 388.15 126.759 388.15 128.381C388.15 129.997 386.999 130.86 384.693 130.874C380.677 130.897 376.666 130.879 372.65 130.879V130.879Z" fill="white"/>
<path d="M340.176 105.872C337.639 105.872 335.101 105.894 332.564 105.867C330.445 105.845 329.124 104.65 329.15 102.855C329.176 101.131 330.445 99.9249 332.449 99.9141C337.586 99.8763 342.728 99.8763 347.865 99.9141C349.896 99.9303 351.118 101.082 351.149 102.839C351.18 104.694 349.927 105.851 347.787 105.872C345.25 105.899 342.713 105.878 340.176 105.878V105.872Z" fill="white"/>
<path d="M340.834 125.895C343.5 125.895 346.166 125.872 348.827 125.9C350.899 125.923 352.107 126.836 352.149 128.322C352.19 129.868 350.93 130.859 348.764 130.869C343.37 130.891 337.976 130.891 332.581 130.869C330.426 130.859 329.129 129.873 329.15 128.354C329.171 126.836 330.457 125.914 332.639 125.895C335.367 125.877 338.095 125.891 340.829 125.891L340.834 125.895Z" fill="white"/>
<path d="M426.644 112.896C429.069 112.896 431.499 112.869 433.924 112.902C435.913 112.929 437.186 114.167 437.149 115.934C437.112 117.652 435.95 118.825 434.003 118.847C429.085 118.896 424.161 118.901 419.243 118.847C417.286 118.825 416.166 117.669 416.15 115.913C416.129 114.085 417.323 112.935 419.364 112.907C421.789 112.875 424.219 112.896 426.644 112.896V112.896Z" fill="white"/>
<path d="M373.15 77.4684C373.036 78.4284 372.589 79.187 371.817 79.7857C369.984 81.1999 368.171 82.6502 366.316 84.0334C364.687 85.2514 362.934 85.143 361.845 83.8424C360.707 82.4799 360.971 80.9935 362.6 79.6257C364.376 78.1324 364.383 76.6477 362.622 75.1716C360.982 73.7936 360.712 72.333 361.839 70.9704C362.956 69.6234 364.628 69.5098 366.295 70.7485C368.15 72.1369 369.957 73.5872 371.791 75.0013C372.621 75.6413 373.107 76.4465 373.15 77.4632V77.4684Z" fill="white"/>
<path d="M344.105 59.8429C344.125 61.8127 342.793 62.6631 341.658 63.5246C340.356 64.5177 340.133 65.2475 341.619 66.2132C342.198 66.5918 342.704 67.1295 343.189 67.6563C344.323 68.8853 344.472 70.279 343.536 71.7111C342.674 73.028 341.005 73.2913 339.742 72.2269C337.825 70.6082 335.943 68.9347 334.14 67.1734C332.828 65.8895 332.818 63.9526 334.12 62.6796C335.973 60.8689 337.929 59.1844 339.866 57.489C340.722 56.7372 341.728 56.7208 342.664 57.2585C343.595 57.7962 344.13 58.7016 344.115 59.8429H344.105Z" fill="white"/>
<path d="M177.344 156.187C178.069 156.272 178.796 156.442 179.521 156.427C181.612 156.384 183.234 155.437 184.397 153.686C187.518 148.996 190.647 144.315 193.772 139.629C202.856 126.011 211.939 112.392 221.022 98.7733C221.21 98.4916 221.411 98.2183 221.58 97.9265C222.16 96.9404 221.96 95.8111 221.114 95.2284C220.234 94.6209 219.08 94.8864 218.375 95.8649C218.156 96.1695 217.956 96.4868 217.747 96.8003C205.706 114.853 193.664 132.908 181.623 150.961C180.307 152.935 179.597 153.073 177.606 151.746C163.261 142.178 148.914 132.609 134.568 123.041C132.782 121.849 132.631 121.07 133.833 119.268C145.958 101.089 158.082 82.9106 170.207 64.7317C171.268 63.1416 171.269 61.9975 170.217 61.2818C169.16 60.563 168.108 60.9952 167.044 62.59C154.857 80.8628 142.677 99.1409 130.474 117.4C129.071 119.5 128.805 121.609 129.982 123.843C130.243 124.339 130.621 124.773 130.943 125.236L177.346 156.185L177.344 156.187Z" fill="#E9B6FF"/>
<path d="M157.84 135.956C162.436 139.022 167.039 142.082 171.627 145.161C172.508 145.753 173.383 146.001 174.311 145.232C175.171 144.52 175.285 143.285 174.566 142.467C174.277 142.139 173.901 141.878 173.534 141.633C164.497 135.599 155.455 129.57 146.414 123.54C146.228 123.416 146.048 123.284 145.855 123.175C144.771 122.556 143.71 122.776 143.068 123.748C142.426 124.722 142.626 125.792 143.679 126.502C147.091 128.806 150.523 131.078 153.949 133.363C155.244 134.227 156.54 135.091 157.837 135.956L157.84 135.956Z" fill="#E9B6FF"/>
<path fill-rule="evenodd" clip-rule="evenodd" d="M190.991 52.3258C184.348 51.4653 177.868 51.8348 171.499 53.7476C162.412 56.4781 154.986 61.6451 149.206 69.1545C148.665 69.8557 148.319 69.8604 147.724 69.3602C147.413 69.1004 147.05 68.888 146.681 68.7151C145.786 68.2966 145.005 68.4993 144.399 69.2684C143.798 70.028 143.855 70.9864 144.528 71.7068C144.73 71.9213 144.97 72.1063 145.216 72.2707C147.072 73.5177 148.931 74.7641 150.798 75.9937C152.027 76.8017 153.215 76.6697 153.847 75.6888C154.464 74.7284 154.134 73.6656 152.965 72.8471C152.161 72.2846 152.077 71.622 152.713 70.8592C162.094 59.5992 174.094 54.6607 188.666 56.0383C192.805 56.4307 196.743 57.6507 200.542 59.3354C201.108 59.5868 201.15 59.7728 200.822 60.2891C199.688 62.0744 199.863 62.8189 201.583 63.9684C202.172 64.3611 202.76 64.7545 203.349 65.1478L203.349 65.148L203.349 65.1481L203.351 65.1488L203.351 65.1492C204.528 65.9358 205.706 66.7227 206.885 67.5048C208.312 68.4498 209.245 68.3046 210.171 66.8785C210.628 66.1721 210.866 66.0631 211.52 66.7281C223.77 79.1502 227.039 93.6131 221.427 110.101C220.742 112.113 219.737 113.991 218.696 115.845C218.421 116.335 218.185 116.402 217.757 116.072C217.432 115.824 217.084 115.599 216.725 115.405C215.8 114.909 214.806 115.111 214.231 115.888C213.635 116.692 213.774 117.761 214.576 118.5C214.712 118.624 214.866 118.732 215.021 118.835C215.537 119.18 216.052 119.525 216.567 119.87C217.941 120.791 219.315 121.712 220.697 122.619C221.958 123.446 223.056 123.297 223.713 122.253C224.337 121.263 224.061 120.215 222.799 119.458C221.866 118.898 221.552 118.496 222.166 117.353C230.151 102.505 229.88 87.7443 221.528 73.1175C221.515 73.0944 221.501 73.0714 221.487 73.0484C221.444 72.975 221.4 72.9019 221.364 72.8256C221.359 72.8168 221.372 72.7989 221.4 72.7611C221.419 72.7359 221.445 72.7017 221.475 72.6555L222.164 73.115C223.418 73.9514 224.672 74.7883 225.926 75.6252L225.926 75.6253L225.926 75.6253L225.926 75.6254L225.926 75.6255C230.315 78.5551 234.705 81.485 239.106 84.3942C239.676 84.7721 239.842 85.1157 239.767 85.8143C239.486 88.4607 241.062 90.8431 243.564 91.7266C246.051 92.6039 248.749 91.6798 250.213 89.4504C251.665 87.2399 251.436 84.4132 249.643 82.4386C247.938 80.5615 245.048 80.0224 242.789 81.2901C242.11 81.6709 241.711 81.5876 241.127 81.1976C232.113 75.163 223.093 69.1379 214.05 63.1475C213.27 62.6321 213.199 62.2901 213.736 61.5336C214.983 59.7736 214.792 59.0296 212.965 57.8111C212.421 57.4485 211.878 57.0853 211.334 56.722C210.112 55.9044 208.888 55.0867 207.661 54.2762C206.236 53.3349 205.352 53.5213 204.374 54.9399C203.831 55.7287 203.149 55.8494 202.328 55.302C200.548 54.1147 198.768 52.9272 196.988 51.7397C189.869 46.9896 182.75 42.24 175.619 37.5059C174.998 37.0917 174.762 36.7128 174.846 35.9193C175.119 33.3182 173.523 30.9153 171.101 30.0787C168.58 29.2083 165.847 30.1092 164.406 32.2833C163.007 34.3942 163.166 37.2541 164.787 39.1507C166.502 41.1574 169.345 41.8044 171.671 40.5631C172.475 40.1339 172.962 40.2804 173.631 40.7289C177.842 43.562 182.065 46.3764 186.289 49.1907C187.556 50.035 188.823 50.8793 190.089 51.724L190.991 52.3258ZM208.383 59.3291C209.421 60.0213 209.603 60.8731 208.928 61.8846C208.191 62.9898 207.284 63.1837 206.209 62.4662C205.162 61.7684 204.978 60.9117 205.655 59.896C206.39 58.795 207.299 58.606 208.383 59.3291ZM244.326 87.8801C245.175 88.4804 246.39 88.2472 246.984 87.3696C247.571 86.503 247.389 85.4134 246.553 84.801C245.693 84.1701 244.492 84.3443 243.875 85.1908C243.272 86.0169 243.487 87.2861 244.328 87.8812L244.326 87.8801ZM167.614 34.4436C168.204 33.5354 169.346 33.3017 170.245 33.9057L170.246 33.9067C171.129 34.5002 171.366 35.7036 170.765 36.5591C170.171 37.4052 168.915 37.6246 168.083 37.0264C167.266 36.4404 167.059 35.297 167.614 34.4436Z" fill="white"/>
<path fill-rule="evenodd" clip-rule="evenodd" d="M163.576 130.377C162.993 129.987 162.41 129.597 161.826 129.208L161.828 129.206L156.154 125.422C154.149 124.083 154.049 123.292 155.644 121.431C155.862 121.176 156.083 120.927 156.307 120.676C156.899 120.016 157.491 119.355 158.083 118.695L158.084 118.693L158.085 118.692C159.753 116.832 161.421 114.972 163.075 113.1C163.123 113.046 163.182 112.992 163.243 112.936C163.501 112.7 163.791 112.435 163.395 111.998C162.862 111.41 162.932 110.707 163.016 109.991C163.458 106.265 163.896 102.54 164.314 98.8118C164.398 98.0552 164.619 97.3782 165.034 96.7324C166.625 94.2516 167.986 91.6523 169.119 88.926C170.875 84.7056 171.767 80.27 172.514 75.7949C172.692 74.7195 173.201 74.0495 174.288 73.7789C179.019 72.603 183.749 71.4202 188.479 70.2374L188.483 70.2364C192.716 69.178 196.948 68.1197 201.181 67.0663C202.739 66.6783 203.709 67.334 203.953 68.9426C204.906 75.2131 205.852 81.4843 206.798 87.7558C207.23 90.6205 207.662 93.4852 208.095 96.3499C208.199 97.0428 208.168 97.723 207.609 98.207C207.134 98.6184 206.595 98.9618 206.055 99.2873C199.739 103.112 194.323 107.901 190.188 114.067C189.93 114.45 189.585 114.714 189.192 114.934C185.69 116.891 182.188 118.848 178.691 120.814C178.22 121.079 177.709 121.305 177.208 121.101C176.556 120.838 176.397 121.165 176.163 121.657C174.469 125.22 172.759 128.774 171.029 132.32C170.264 133.888 169.248 134.141 167.78 133.174C166.375 132.248 164.976 131.313 163.576 130.377L163.576 130.377ZM198.583 77.3941C199.274 76.3575 199.964 75.321 200.655 74.2849L200.659 74.2828L200.838 74.2736L201.018 74.2644C201.021 74.36 201.02 74.456 201.019 74.5519C201.017 74.7499 201.015 74.9474 201.044 75.1401C201.254 76.5427 201.463 77.9455 201.672 79.3483L201.672 79.349C202.419 84.3586 203.165 89.3681 203.973 94.368C204.164 95.5572 203.955 96.192 202.879 96.8425C197.814 99.9079 193.302 103.671 189.706 108.39C187.983 110.652 186.135 112.585 183.504 113.769C182.414 114.259 181.378 114.867 180.269 115.518L180.269 115.518C179.753 115.821 179.221 116.134 178.66 116.448C178.9 115.945 179.127 115.466 179.346 115.003L179.346 115.003C179.859 113.923 180.327 112.935 180.807 111.952C182.252 108.995 181.418 105.644 178.774 103.839C176.064 101.99 172.644 102.441 170.41 104.935C169.688 105.741 168.961 106.542 168.193 107.388C167.838 107.779 167.474 108.18 167.098 108.595C167.095 108.485 167.091 108.397 167.087 108.324L167.087 108.323C167.081 108.188 167.076 108.1 167.086 108.014C167.2 107.047 167.314 106.081 167.429 105.114L167.429 105.112C167.652 103.239 167.874 101.365 168.085 99.4912C168.129 99.1003 168.273 98.7784 168.474 98.4628C172.424 92.2465 174.844 85.4646 175.938 78.1997C176.052 77.4468 176.391 77.1708 177.103 76.9971C181.32 75.9631 185.532 74.911 189.745 73.859C192.039 73.2859 194.334 72.7129 196.628 72.1429C196.686 72.1285 196.745 72.1063 196.805 72.0835C197.012 72.0049 197.236 71.9201 197.496 72.1325C196.803 73.1713 196.11 74.2093 195.417 75.247L195.413 75.2538L195.413 75.2539L195.412 75.2539C193.231 78.5208 191.051 81.7849 188.891 85.0623C188.601 85.5019 188.282 85.4631 187.922 85.4194C187.863 85.4124 187.804 85.4051 187.743 85.3998C184.888 85.1511 182.393 86.8687 181.662 89.5804C180.967 92.1561 182.023 94.6848 184.37 96.072C186.457 97.3043 189.341 96.9582 191.097 95.2636C192.98 93.4479 193.429 90.6993 192.207 88.3887C192.183 88.3425 192.158 88.2976 192.134 88.2535L192.134 88.2534L192.134 88.2532C191.934 87.8896 191.763 87.5799 192.09 87.0957C194.27 83.8719 196.427 80.633 198.583 77.3941ZM165.037 126.758L165.037 126.758L165.038 126.758C165.952 127.363 166.866 127.967 167.764 128.594C168.232 128.92 168.468 128.949 168.744 128.367C170.321 125.04 171.907 121.719 173.492 118.397L173.493 118.396L173.494 118.395C174.807 115.644 176.12 112.894 177.428 110.141C177.996 108.942 177.639 107.695 176.6 106.986C175.519 106.247 174.253 106.389 173.299 107.447C170.64 110.392 167.992 113.347 165.345 116.302L165.344 116.302L165.344 116.302C164.196 117.584 163.048 118.865 161.899 120.146C161.751 120.311 161.603 120.478 161.455 120.645L161.454 120.646L161.454 120.646C161.01 121.147 160.566 121.648 160.096 122.124C159.533 122.694 159.357 123.081 160.232 123.584C161.133 124.104 161.994 124.696 162.855 125.289C163.223 125.541 163.59 125.794 163.961 126.042L163.961 126.044C164.319 126.283 164.678 126.52 165.037 126.758ZM188.782 92.055C188.213 92.9674 187.049 93.2438 186.157 92.6741L186.155 92.673C185.282 92.1159 185.014 90.8777 185.581 90.0137C186.124 89.1861 187.294 88.925 188.152 89.44C189.077 89.9934 189.353 91.141 188.782 92.055Z" fill="#E9B6FF"/>
<path fill-rule="evenodd" clip-rule="evenodd" d="M210.629 40.1541C213.048 41.7677 215.467 43.3814 217.886 44.9948L217.89 44.9927C219.99 46.3934 222.091 47.7936 224.191 49.1938C229.442 52.6943 234.693 56.1949 239.939 59.7034C242.872 61.664 243.534 65.0372 241.588 67.9915C240.318 69.9207 239.03 71.8409 237.741 73.76C236.898 75.0133 235.845 75.3155 234.831 74.614C233.85 73.9347 233.742 72.8988 234.548 71.6787C235.072 70.8869 235.6 70.0982 236.129 69.3094C236.908 68.1469 237.687 66.9843 238.45 65.8117C239.178 64.6965 238.965 63.6706 237.875 62.9117C236.939 62.2596 235.985 61.6322 235.031 61.0046C234.895 60.915 234.759 60.8253 234.622 60.7355C234.277 60.5077 233.93 60.2267 233.583 59.9454C232.775 59.291 231.965 58.6349 231.162 58.6421C230.329 58.6492 229.503 59.2917 228.677 59.9341C228.316 60.215 227.954 60.4958 227.593 60.7235C227.556 60.7464 227.517 60.7667 227.479 60.787C227.418 60.8188 227.357 60.8507 227.305 60.8921C226.338 61.6564 225.413 61.5165 224.435 60.8641C216.564 55.5984 208.689 50.3417 200.799 45.1045C199.771 44.4236 199.338 43.5979 199.615 42.3714C199.749 41.7785 199.855 41.1792 199.961 40.58C200.07 39.9716 200.178 39.3633 200.314 38.7619C200.448 38.1708 200.337 37.8341 199.801 37.4904C198.573 36.7045 197.362 35.8927 196.15 35.0808C195.38 34.5642 194.609 34.0476 193.834 33.5376C192.551 32.6938 191.584 32.9023 190.713 34.194C190.088 35.1208 189.469 36.0516 188.849 36.9827C188.188 37.9759 187.527 38.9693 186.859 39.9582C186.066 41.1304 184.996 41.4031 184.009 40.7221C183.05 40.0618 182.912 39.0291 183.666 37.8854C184.919 35.9857 186.184 34.0961 187.45 32.2075C189.633 28.9524 192.862 28.3045 196.115 30.4738C200.954 33.6996 205.791 36.9269 210.629 40.1541ZM204.88 43.2249C203.865 42.5482 203.566 41.6006 203.983 40.3823L203.985 40.3833L227.534 56.0902C226.534 56.9193 225.554 57.0137 224.594 56.3735L204.88 43.2249Z" fill="#E9B6FF"/>
</svg>
