<svg width="153" height="150" viewBox="0 0 153 150" fill="none" xmlns="http://www.w3.org/2000/svg">
<path fill-rule="evenodd" clip-rule="evenodd" d="M124.011 100.818C125.356 101.584 126.572 101.683 127.835 100.757L127.83 100.755L147.216 65.9052C147.098 65.7933 147.136 65.6794 147.178 65.5536L147.183 65.5401C147.187 65.5284 147.191 65.5166 147.195 65.5047C149.253 59.2066 146.497 53.4925 141.093 50.2658C137.612 48.1864 134.051 46.2402 130.49 44.2942C128.92 43.4361 127.35 42.578 125.787 41.7085C122.054 39.6319 118.321 37.5556 114.587 35.4794C102.143 28.5591 89.7 21.6391 77.2627 14.7053C74.7744 13.3153 72.1726 12.5413 69.3106 12.9602C65.2525 13.5524 62.3341 15.7158 60.3133 19.3071C54.7287 29.231 49.1272 39.1454 43.5258 49.0599L43.5241 49.0629L43.5241 49.0629C38.7839 57.4529 34.0438 65.8428 29.3139 74.2385C28.8632 75.0382 28.5338 75.1713 27.7178 74.7029C24.8178 73.036 21.8883 71.4186 18.9598 69.8017C18.4112 69.4988 17.8627 69.196 17.3144 68.8928C15.4359 67.8566 14.1801 68.2259 13.1267 70.1093C11.9436 72.2292 10.7645 74.3512 9.58542 76.4733C8.99587 77.5343 8.40632 78.5953 7.81628 79.6561C6.68739 81.6803 5.94291 83.843 5.84662 86.1601C5.55775 93.0594 8.54571 98.0323 14.5808 101.372C27.2041 108.36 39.8071 115.387 52.4097 122.414L52.4101 122.414L52.4105 122.414C58.2005 125.642 63.9903 128.87 69.7821 132.095C71.3954 132.992 73.114 133.638 74.9396 133.939C81.7173 135.057 88.0919 131.944 91.5419 125.773C95.6936 118.346 99.8271 110.907 103.961 103.469C105.663 100.405 107.365 97.3422 109.069 94.2796C109.577 93.3651 110.272 93.1528 111.152 93.6425C112.354 94.3108 113.556 94.9766 114.759 95.6424L114.759 95.6425L114.759 95.6425C117.852 97.3544 120.943 99.066 124.011 100.818ZM130.655 50.2802L130.66 50.2778L130.658 50.2822L130.655 50.2802ZM130.384 50.105C130.459 50.1537 130.547 50.211 130.655 50.2802C127.484 51.6722 125.676 54.0626 124.148 56.8146C114.864 73.558 105.555 90.2866 96.2464 107.016C93.307 112.298 90.3676 117.581 87.4289 122.864C85.2076 126.857 81.9131 129.081 77.2585 129.066C69.9924 129.04 64.7725 120.85 67.8609 114.254C68.9442 111.942 70.2115 109.725 71.4786 107.508L71.4787 107.508L71.4788 107.508C72.1122 106.4 72.7457 105.292 73.356 104.172C74.7031 101.703 74.4133 100.654 71.9446 99.2808C69.4305 97.8824 66.9167 96.4836 64.403 95.0849C54.3445 89.488 44.2869 83.8916 34.2152 78.3172C33.3598 77.8413 33.1637 77.5262 33.6939 76.5938C41.5959 62.6734 49.4735 48.7395 57.3512 34.8056C59.8385 30.4061 62.3258 26.0066 64.8139 21.6075C66.8547 18.0012 70.6407 16.8601 74.2208 18.8487C87.8646 26.4231 101.501 34.0107 115.139 41.5987L115.139 41.5989L115.139 41.5991C120.099 44.3586 125.058 47.1182 130.018 49.8772C130.122 49.9351 130.222 50.0002 130.384 50.105ZM62.3165 122.087L61.1154 121.419L15.9477 96.2943C11.5156 93.8289 9.59908 87.8532 11.7313 83.227C12.5441 81.4644 13.4989 79.7795 14.4536 78.0949C15.0523 77.0383 15.651 75.9818 16.2147 74.9061C16.4787 74.4001 16.7542 74.2284 17.2476 74.5986C17.3495 74.6753 17.4652 74.7347 17.5811 74.7943C17.6327 74.8208 17.6844 74.8473 17.7349 74.8754C20.4782 76.4014 23.2214 77.9276 25.9647 79.4538L25.9649 79.4538C39.6846 87.0866 53.4054 94.72 67.1375 102.329C68.0239 102.822 68.1417 103.164 67.6412 104.063C67.2168 104.825 66.7781 105.58 66.3394 106.335L66.339 106.335C65.1753 108.337 64.0107 110.341 63.1071 112.481C61.9083 115.319 61.6415 118.261 62.1849 121.285C62.2108 121.425 62.2333 121.566 62.2658 121.769L62.2661 121.771L62.2672 121.778C62.2816 121.868 62.298 121.971 62.3175 122.09L62.3165 122.087ZM123.416 68.478C122.608 69.9351 121.8 71.3922 120.99 72.8481L120.992 72.8493C120.357 73.9911 119.722 75.1333 119.087 76.2755C116.969 80.0857 114.851 83.8969 112.719 87.7008C112.425 88.2248 112.28 88.5272 112.971 88.9027C116.757 90.9593 120.515 93.0613 124.266 95.18C124.829 95.4987 125.066 95.407 125.372 94.8552C127.733 90.5966 130.099 86.3416 132.466 82.0867C135.572 76.5022 138.678 70.9177 141.77 65.3249C143.425 62.3283 143.076 59.0176 141.008 56.7562C137.496 52.9135 131.714 53.641 129.096 58.29C127.188 61.677 125.302 65.0777 123.416 68.478Z" fill="#5F0087"/>
<path d="M71.1305 78.248C77.4817 81.7809 83.8364 85.3128 90.1851 88.85C91.7053 89.6957 92.2264 90.8299 91.7474 92.1449C91.2528 93.5035 89.9641 94.1301 88.605 93.6469C88.1859 93.4979 87.7769 93.2994 87.3869 93.0825C74.9412 86.1654 62.5015 79.243 50.0559 72.3259C49.4974 72.0153 48.9065 71.7214 48.52 71.2162C47.8459 70.3363 47.7491 69.3366 48.3363 68.3748C48.9151 67.4229 49.8042 67.0296 50.9243 67.2173C51.49 67.3115 51.9761 67.5905 52.4703 67.8654C58.6895 71.3278 64.9134 74.7869 71.1339 78.247L71.1305 78.248Z" fill="#5F0087"/>
<path d="M77.4596 66.8572C71.2724 63.4156 65.0851 59.974 58.8991 56.5301C58.4737 56.2934 58.0366 56.0619 57.6616 55.7605C56.7177 55.0004 56.4923 53.6476 57.0909 52.6081C57.666 51.6106 58.8897 51.1218 59.9966 51.4793C60.348 51.5935 60.6839 51.7775 61.0096 51.9587C73.6468 58.9852 86.2863 66.0129 98.9198 73.0461C100.752 74.0655 101.232 75.5771 100.2 76.9881C99.5433 77.8877 98.4705 78.2514 97.4266 77.8797C96.9718 77.7166 96.5421 77.4718 96.1188 77.2364C89.8959 73.7807 83.6766 70.3184 77.4562 66.8582L77.4596 66.8572Z" fill="#5F0087"/>
<path d="M77.2578 46.0671C73.8871 44.1922 70.5128 42.324 67.1461 40.4368C65.8899 39.7322 65.3894 38.7748 65.5987 37.6057C65.8667 36.1066 67.3785 35.2094 68.8255 35.7067C69.1766 35.8266 69.5189 35.9937 69.8424 36.1737C76.4244 39.8291 83.0029 43.4855 89.5787 47.152C91.0523 47.9717 91.6461 49.0013 91.3664 50.1718C90.9372 51.9816 89.1654 52.6733 87.3699 51.6862C83.9894 49.829 80.6262 47.9408 77.2533 46.0647L77.2578 46.0671Z" fill="#5F0087"/>
</svg>
