<svg width="199" height="225" viewBox="0 0 199 225" fill="none" xmlns="http://www.w3.org/2000/svg">
<g opacity="0.1">
<path fill-rule="evenodd" clip-rule="evenodd" d="M257.031 208.2C259.822 209.789 262.346 209.994 264.968 208.074L264.959 208.069L305.195 135.732C304.951 135.5 305.03 135.264 305.118 135.002L305.118 135.002C305.125 134.981 305.133 134.96 305.14 134.939C305.144 134.927 305.148 134.914 305.152 134.901C309.424 121.828 303.705 109.968 292.487 103.27C285.261 98.954 277.87 94.9144 270.48 90.875C267.221 89.0939 263.962 87.3129 260.718 85.5082C252.969 81.1978 245.219 76.8882 237.47 72.5788L237.47 72.5786C211.641 58.2143 185.813 43.8508 159.997 29.4585C154.832 26.5734 149.432 24.9668 143.491 25.8363C135.068 27.0655 129.01 31.5561 124.816 39.0102C113.223 59.6109 101.595 80.192 89.9672 100.773C80.1282 118.188 70.2892 135.603 60.4714 153.029C59.536 154.689 58.8523 154.966 57.1586 153.993C51.1401 150.534 45.0603 147.177 38.9827 143.822L38.9816 143.821L38.9805 143.82L38.9793 143.82L38.9781 143.819C37.84 143.191 36.7021 142.562 35.5646 141.934C31.6655 139.783 29.0588 140.549 26.8723 144.459C24.4167 148.859 21.9692 153.263 19.5218 157.668C18.2981 159.87 17.0744 162.073 15.8497 164.274C13.5065 168.476 11.9612 172.965 11.7613 177.775C11.1618 192.095 17.3638 202.417 29.8905 209.349C56.0925 223.854 82.2522 238.439 108.411 253.025L108.412 253.025L108.413 253.026C120.431 259.726 132.448 266.427 144.47 273.12C147.818 274.982 151.386 276.322 155.175 276.948C169.243 279.269 182.475 272.806 189.636 259.997C198.253 244.582 206.833 229.142 215.413 213.701L215.413 213.701L215.413 213.701C218.946 207.343 222.48 200.985 226.015 194.628C227.071 192.73 228.513 192.289 230.341 193.306C232.834 194.693 235.331 196.075 237.827 197.457C244.246 201.01 250.663 204.563 257.031 208.2ZM270.82 103.3L270.832 103.295L270.827 103.304L270.82 103.3ZM270.258 102.936C270.413 103.038 270.596 103.156 270.82 103.3C264.24 106.189 260.487 111.151 257.316 116.863C238.045 151.615 218.725 186.335 199.404 221.057L199.404 221.057L199.404 221.058C193.302 232.025 187.199 242.992 181.098 253.96C176.488 262.248 169.649 266.865 159.988 266.833C144.906 266.78 134.071 249.779 140.482 236.089C142.73 231.288 145.361 226.687 147.991 222.086L147.991 222.086L147.991 222.085C149.306 219.785 150.621 217.486 151.888 215.161C154.684 210.037 154.082 207.859 148.958 205.009C143.74 202.106 138.522 199.203 133.304 196.299C112.426 184.682 91.5499 173.066 70.6445 161.495C68.869 160.508 68.4619 159.854 69.5626 157.918C85.9636 129.026 102.314 100.105 118.665 71.1846C123.828 62.0511 128.992 52.9177 134.157 43.7851C138.393 36.2998 146.252 33.9313 153.683 38.0589C182.003 53.7809 210.308 69.5302 238.614 85.2804L238.615 85.2808L238.616 85.2812C248.91 91.009 259.204 96.7368 269.499 102.464C269.715 102.584 269.923 102.719 270.258 102.936ZM128.975 252.346L126.482 250.96L32.7291 198.81C23.5295 193.693 19.5515 181.289 23.9772 171.687C25.6645 168.028 27.6462 164.531 29.6278 161.034C30.8706 158.841 32.1133 156.648 33.2832 154.415C33.8313 153.365 34.4031 153.008 35.4272 153.777C35.6387 153.936 35.8788 154.059 36.1195 154.183L36.1204 154.183C36.2272 154.238 36.3341 154.293 36.4386 154.351C42.131 157.518 47.8233 160.685 53.5157 163.852L53.516 163.852L53.5395 163.865C82.011 179.704 110.485 195.545 138.982 211.337C140.822 212.36 141.066 213.068 140.027 214.936C139.146 216.517 138.236 218.083 137.325 219.65L137.324 219.651C134.909 223.807 132.492 227.966 130.616 232.407C128.128 238.299 127.574 244.406 128.702 250.683C128.756 250.974 128.803 251.267 128.87 251.69L128.87 251.691C128.901 251.882 128.936 252.099 128.977 252.354L128.975 252.346ZM255.797 141.072C254.119 144.096 252.442 147.121 250.761 150.143L250.765 150.146C249.446 152.517 248.128 154.889 246.809 157.261C242.414 165.169 238.017 173.078 233.594 180.973C232.983 182.06 232.682 182.688 234.115 183.467C241.974 187.736 249.774 192.099 257.561 196.497C258.729 197.158 259.22 196.968 259.857 195.823C264.756 186.984 269.668 178.153 274.58 169.321C281.028 157.729 287.476 146.137 293.892 134.528C297.328 128.308 296.603 121.436 292.312 116.742C285.022 108.766 273.021 110.276 267.587 119.926C263.626 126.956 259.711 134.014 255.797 141.072Z" fill="#5F0087"/>
<path d="M147.269 161.352C160.452 168.685 173.643 176.016 186.821 183.358C189.976 185.113 191.058 187.468 190.063 190.197C189.037 193.017 186.362 194.318 183.541 193.315C182.671 193.005 181.822 192.593 181.012 192.143C155.179 177.786 129.359 163.417 103.526 149.059C102.367 148.415 101.14 147.805 100.338 146.756C98.9386 144.93 98.7377 142.855 99.9565 140.858C101.158 138.882 103.003 138.066 105.328 138.456C106.503 138.651 107.511 139.23 108.537 139.801C121.446 146.988 134.365 154.168 147.277 161.35L147.269 161.352Z" fill="#5F0087"/>
<path d="M160.404 137.708C147.562 130.565 134.719 123.421 121.879 116.273C120.996 115.781 120.089 115.301 119.311 114.675C117.351 113.098 116.883 110.29 118.126 108.132C119.32 106.061 121.86 105.047 124.157 105.789C124.887 106.026 125.584 106.408 126.26 106.784C152.49 121.369 178.726 135.956 204.949 150.554C208.753 152.67 209.748 155.808 207.607 158.737C206.243 160.604 204.016 161.359 201.849 160.587C200.905 160.249 200.013 159.741 199.135 159.252C186.218 152.079 173.309 144.892 160.397 137.71L160.404 137.708Z" fill="#5F0087"/>
<path d="M159.987 94.555C152.991 90.6634 145.987 86.7855 138.999 82.8683C136.391 81.4058 135.352 79.4186 135.786 76.9919C136.343 73.8803 139.481 72.018 142.484 73.0503C143.213 73.2991 143.924 73.6461 144.595 74.0197C158.257 81.607 171.912 89.1964 185.561 96.8068C188.62 98.5082 189.852 100.645 189.272 103.075C188.381 106.832 184.703 108.267 180.976 106.218C173.959 102.363 166.979 98.4441 159.978 94.5499L159.987 94.555Z" fill="#5F0087"/>
</g>
</svg>
