<svg width="128" height="88" viewBox="0 0 128 88" fill="none" xmlns="http://www.w3.org/2000/svg">
<path d="M111.247 26.1666C114.896 32.4859 116.071 40.9708 111.901 47.5302C107.993 53.6763 100.906 60.7128 93.3753 61.8839C75.3889 64.6808 57.537 45.2916 64.6582 27.6243C66.5458 22.9411 71.7355 17.6623 76.0646 15.0528C81.0976 12.019 85.8695 11.1076 91.6572 10.9556C97.0329 10.8144 101.401 12.4796 106.142 14.7313C108.523 15.8625 109.072 17.6304 110.938 18.8627C111.722 19.3806 113.427 20.81 114.117 20.7686" stroke="#E9B6FF" stroke-width="2" stroke-linecap="round"/>
<circle cx="40" cy="47.3672" r="40" fill="#41005C"/>
<path d="M47.2496 35.7526C46.7924 35.7526 46.347 35.7526 45.8898 35.7526C45.2217 35.7526 45.2217 35.7526 45.21 36.4325C45.1865 37.7453 44.2605 38.73 43.0062 38.7417C40.9783 38.7534 38.9387 38.7534 36.9108 38.7417C35.9496 38.73 35.0939 38.0736 34.8243 37.1592C34.7305 36.831 34.6953 36.4911 34.7188 36.1629C34.7539 35.8581 34.6836 35.7174 34.3319 35.7526C33.7927 35.7878 33.2535 35.7643 32.7143 35.7643C31.5655 35.7643 30.9911 36.327 30.9911 37.4875C30.9911 47.0761 30.9911 56.6764 30.9911 66.265C30.9911 67.4489 31.5538 68.0116 32.7377 68.0116C37.532 68.0116 42.3263 68.0116 47.1206 68.0116C48.4218 68.0116 48.9493 67.4841 48.9493 66.1712C48.9493 61.4121 48.9493 56.653 48.9493 51.8938C48.9493 50.5341 48.9493 49.1743 48.9493 47.8028C48.9493 44.3448 48.9493 40.8868 48.9493 37.4289C48.9376 36.327 48.3515 35.7526 47.2496 35.7526ZM33.3238 43.5946C33.1832 43.325 33.1832 43.032 33.3824 42.821C33.9099 42.2583 34.4491 41.7074 35.0235 41.1799C35.2931 40.922 35.7151 40.9806 35.973 41.2268C36.2309 41.4729 36.3129 41.9067 36.0668 42.1763C35.5393 42.7506 34.9649 43.3016 34.4023 43.8525C34.2968 43.958 34.1444 43.9815 34.0037 44.0049C33.7107 43.9815 33.4645 43.8642 33.3238 43.5946ZM34.4257 47.6622C34.1327 47.5332 33.9803 47.2871 33.992 46.9237C33.992 46.7244 34.1092 46.5603 34.2733 46.3962C35.9613 44.6965 37.661 42.9968 39.349 41.3088C39.7123 40.9455 40.1578 40.922 40.4743 41.2268C40.779 41.5316 40.7673 41.9887 40.4157 42.3521C38.7277 44.0518 37.028 45.7398 35.34 47.4395C35.0704 47.7208 34.7656 47.8146 34.4257 47.6622ZM43.6392 66.4995C42.3967 66.5112 41.1541 66.4995 39.9233 66.4995C38.7277 66.4995 37.532 66.5112 36.3364 66.4995C35.6565 66.4995 35.2814 65.9134 35.5862 65.3741C35.7386 65.1045 35.973 64.999 36.2778 64.999C38.7394 64.999 41.2128 64.999 43.6744 64.999C44.155 64.999 44.4598 65.3155 44.4598 65.7493C44.4363 66.1947 44.1198 66.4995 43.6392 66.4995Z" fill="#FDFDFD"/>
<path d="M60.261 40.3475C59.1592 38.0852 57.3071 36.8309 54.8103 36.5496C54.2125 36.4793 53.9311 36.1159 54.0484 35.5181C54.0953 35.2719 54.1421 35.0257 54.1656 34.7796C54.3766 32.3531 53.134 30.0087 50.9772 28.942C48.668 27.7933 46.4525 28.0511 44.4129 29.6336C43.7447 30.1494 43.4634 30.1377 42.9242 29.4812C39.6654 25.6012 33.9451 24.851 29.8424 27.805C27.2167 29.7039 25.8569 32.3297 25.7514 35.5767C25.728 36.1042 25.5404 36.4207 25.1419 36.5262C24.9543 36.573 24.7668 36.5848 24.5792 36.6199C21.2033 37.1943 18.7651 40.3006 19.0112 43.6883C19.2691 47.2166 22.1293 49.9479 25.6225 49.983C26.7478 49.9948 27.8731 49.9713 28.9984 49.9948C29.397 50.0065 29.5025 49.8893 29.5025 49.4907C29.4907 45.4935 29.4907 41.4963 29.4907 37.4991C29.4907 35.4712 30.7215 34.2404 32.726 34.2404C35.1407 34.2404 37.5438 34.2404 39.9585 34.2404C42.3967 34.2404 44.8349 34.2404 47.2848 34.2404C47.6481 34.2404 48.0115 34.2755 48.3632 34.3927C49.6761 34.8265 50.438 35.9283 50.438 37.4639C50.438 41.508 50.438 45.5521 50.4263 49.5845C50.4263 49.9127 50.4966 50.0065 50.8365 49.9948C51.9853 49.9713 53.1458 49.9948 54.2945 49.983C59.1943 49.9362 62.4062 44.755 60.261 40.3475Z" fill="#FDFDFD"/>
<path d="M42.5959 37.2529C43.5103 37.2529 43.7095 37.0419 43.7213 36.1042C43.7213 35.8111 43.6275 35.7408 43.3579 35.7525C42.2326 35.7642 41.1073 35.7642 39.9819 35.7642C38.8449 35.7642 37.7079 35.7642 36.5591 35.7642C36.4419 35.7642 36.2895 35.6939 36.2192 35.858C35.9378 36.5027 36.4067 37.2529 37.1218 37.2529C38.9504 37.2529 40.779 37.2529 42.5959 37.2529Z" fill="#FDFDFD"/>
</svg>
