<svg width="113" height="146" viewBox="0 0 113 146" fill="none" xmlns="http://www.w3.org/2000/svg">
<path d="M1 36.8948C11 34.0615 33.1075 18.3361 38.5 13.8953C45.1788 8.39519 40 -2.94852 30.5 2.3953C21 7.73912 25 21.8948 36 21.8948C44 21.8948 49.5 19.395 57.5 11.395" stroke="#E9B6FF" stroke-width="2" stroke-linecap="round"/>
<circle cx="63.4229" cy="96.8945" r="49" fill="#41005C"/>
<path d="M62.7799 84.0712C64.2957 84.1306 65.7669 83.878 67.0152 83.0012C70.5075 80.5938 72.4394 77.3542 72.157 73C71.9638 73 71.7855 73 71.5923 73C71.5626 73.0297 71.5329 73.0594 71.4883 73.0743C68.7539 73.5944 66.4654 74.8873 64.7267 77.0867C63.1812 79.0334 62.4084 81.2328 62.4976 83.7146C62.5124 83.9077 62.4679 84.0563 62.7799 84.0712Z" fill="white"/>
<path d="M81.8611 108.071C80.6722 107.492 79.6022 106.749 78.666 105.827C76.7936 103.97 75.9316 101.666 75.7682 99.0656C75.5304 95.291 76.9273 92.2742 79.9737 90.0303C80.9843 89.2872 80.9991 89.3021 80.1372 88.3362C77.4474 85.364 74.0146 84.3386 70.1211 84.6804C68.3527 84.8439 66.6883 85.468 65.0833 86.1814C63.4933 86.8947 61.9923 86.9095 60.4617 86.1219C60.2536 86.0179 60.0307 85.9287 59.8078 85.8544C58.396 85.3492 56.9991 84.7845 55.4833 84.725C51.6196 84.5615 48.5434 86.1665 46.1806 89.1238C43.8623 91.9919 43.0004 95.3504 43.0152 99.2439C42.9707 100.195 43.1341 101.414 43.3124 102.632C44.1446 108.205 46.4332 113.153 49.9849 117.508C50.7725 118.474 51.6344 119.38 52.7044 120.064C53.9527 120.866 55.2604 121.208 56.7465 120.851C57.9948 120.554 59.1688 120.034 60.3725 119.618C62.349 118.934 64.3403 118.83 66.3316 119.558C67.2827 119.9 68.2338 120.272 69.1849 120.569C71.7112 121.371 73.9552 120.911 75.783 118.949C78.5917 115.918 80.7019 112.455 82.0988 108.547C82.188 108.279 82.084 108.19 81.8611 108.071Z" fill="white"/>
</svg>
