<svg width="86" height="129" viewBox="0 0 86 129" fill="none" xmlns="http://www.w3.org/2000/svg">
<circle cx="71" cy="118.633" r="9" stroke="#E9B6FF" stroke-width="2"/>
<circle cx="43" cy="43" r="43" fill="#41005C"/>
<path d="M52.1873 49.6744C52.0896 49.9553 52.0163 50.1874 51.9308 50.4316C51.4301 51.7995 50.4653 52.6422 49.0119 52.7887C47.5097 52.9353 46.3617 52.2758 45.6412 50.9324C45.5557 50.7736 45.4824 50.6881 45.2748 50.6759C44.2855 50.6637 43.4551 50.2485 42.7589 49.5523C41.4277 48.2089 40.0843 46.8777 38.7531 45.5343C37.2509 44.0199 37.2509 41.9804 38.7653 40.4537C40.0843 39.1225 41.4155 37.8036 42.7345 36.4724C43.736 35.4587 44.9206 35.0557 46.3129 35.4953C47.6929 35.935 48.4379 36.9364 48.7188 38.4264C49.0486 37.425 49.3661 36.509 49.6714 35.593C50.05 34.4572 50.8072 33.7 51.943 33.3459C52.1628 33.2726 52.2605 33.2115 52.2605 32.9551C52.2483 31.0743 52.285 29.2057 52.2483 27.3249C52.1873 24.3084 49.9401 22.049 46.9235 22.0245C41.0736 21.9879 35.2236 21.9879 29.3859 22.0245C26.2716 22.0368 24 24.3938 24 27.5203C24 37.8524 24 48.1845 24 58.5166C24 58.9562 24.0366 59.3959 24.1466 59.8355C24.7816 62.4125 26.8456 64.0123 29.5813 64.0123C35.2725 64.0123 40.9759 64.0123 46.6671 64.0123C47.0334 64.0123 47.3998 64.0123 47.754 63.9391C50.4653 63.4628 52.2483 61.3255 52.2605 58.5043C52.2728 55.7076 52.2605 52.9231 52.2605 50.1263C52.2605 49.9798 52.2972 49.8454 52.1873 49.6744ZM31.5842 28.0455C31.1934 27.1662 30.8758 26.2624 30.4972 25.3831C30.3385 25.0167 30.3873 24.9312 30.7903 24.9312C33.8924 24.9434 37.0067 24.9434 40.1088 24.9434C41.8552 24.9434 43.6138 24.9434 45.3603 24.9434C45.5313 24.9434 45.69 24.9434 45.9099 24.9434C45.4213 26.1281 45.0672 27.3127 44.481 28.3874C43.968 29.3278 43.1009 29.8041 42.0384 29.8041C39.437 29.8286 36.8357 29.8286 34.2222 29.8041C33.0009 29.8041 32.0971 29.1813 31.5842 28.0455ZM41.9163 59.115C39.3882 59.115 36.8601 59.115 34.3443 59.115C33.4283 59.115 32.7688 58.4799 32.781 57.625C32.7933 56.7945 33.4405 56.1839 34.3443 56.1839C35.6266 56.1839 36.8968 56.1839 38.1791 56.1839C39.4248 56.1839 40.6705 56.1839 41.9163 56.1839C42.8444 56.1839 43.4917 56.7945 43.4917 57.6494C43.4795 58.5043 42.8444 59.115 41.9163 59.115Z" fill="#FEFEFE"/>
<path d="M53.1154 35.1534C52.4315 35.0434 51.7598 35.4953 51.5156 36.2281C50.1111 40.4293 48.7188 44.6183 47.3265 48.8195C47.2288 49.1127 47.1678 49.4058 47.2533 49.7111C47.4243 50.3706 47.9616 50.8225 48.6211 50.8591C49.2806 50.8957 49.8668 50.4561 50.1111 49.7355C51.5033 45.5465 52.8956 41.3697 54.2757 37.1807C54.3367 36.9975 54.3734 36.8021 54.3978 36.6922C54.3978 35.8861 53.8482 35.2633 53.1154 35.1534Z" fill="#FEFEFE"/>
<path d="M61.5667 41.9559C60.1623 40.5392 58.7456 39.1225 57.3411 37.7181C57.0602 37.4372 56.7182 37.2906 56.3152 37.2906C55.729 37.2784 55.2161 37.6081 54.9718 38.1455C54.7275 38.6951 54.8252 39.3424 55.2771 39.7942C56.2664 40.7957 57.2434 41.7849 58.2571 42.7742C58.4647 42.9818 58.4525 43.0795 58.2571 43.2749C57.2678 44.2397 56.2908 45.229 55.3138 46.2182C54.7153 46.8289 54.7031 47.7326 55.2649 48.3066C55.8389 48.8928 56.7427 48.905 57.3533 48.3066C58.77 46.9021 60.1867 45.4854 61.579 44.0687C62.1774 43.4337 62.1774 42.5788 61.5667 41.9559Z" fill="#FEFEFE"/>
<path d="M43.5161 42.5909C44.4443 41.7116 45.3359 40.7834 46.2396 39.8796C46.5571 39.5621 46.777 39.2201 46.7648 38.756C46.7648 38.1332 46.4839 37.6813 45.9221 37.4126C45.3847 37.1562 44.7374 37.2661 44.2855 37.7057C42.8689 39.1102 41.4522 40.5269 40.0599 41.9436C39.437 42.5787 39.4493 43.4214 40.0721 44.0686C41.4522 45.4731 42.8444 46.8532 44.2367 48.2454C44.4443 48.453 44.6764 48.6118 44.9695 48.6851C45.629 48.8316 46.2518 48.563 46.5816 48.0134C46.9113 47.4394 46.8502 46.7432 46.3617 46.2425C45.4336 45.2899 44.5054 44.3495 43.5528 43.4336C43.1986 43.116 43.162 42.9328 43.5161 42.5909Z" fill="#FEFEFE"/>
</svg>
