<svg width="42" height="42" viewBox="0 0 42 42" fill="none" xmlns="http://www.w3.org/2000/svg">
<path d="M40.5829 0.000226849C39.0117 0.0207647 37.4406 0.000226849 35.8694 0.0104958C35.0377 0.0104958 34.5447 0.513674 34.5345 1.33519C34.5242 1.70487 34.5345 2.06429 34.5345 2.46477C34.3599 2.46477 34.2264 2.46477 34.0929 2.46477C31.0122 2.46477 27.9315 2.46477 24.8611 2.47504C24.5531 2.47504 24.4196 2.38262 24.2861 2.10536C23.6083 0.74986 22.489 0.0207647 20.9795 0.0207647C19.4905 0.0310337 18.3711 0.74986 17.7139 2.09509C17.5702 2.39289 17.4059 2.46477 17.0978 2.46477C14.0377 2.46477 10.9775 2.46477 7.90709 2.46477C7.76333 2.46477 7.61956 2.46477 7.45526 2.46477C7.45526 2.03348 7.46553 1.6638 7.45526 1.29411C7.43472 0.513674 6.94181 0.0104958 6.16137 0.000226849C4.54914 0.000226849 2.92665 0.000226849 1.29389 0.0104958C0.513448 0.0104958 0.0102689 0.523943 0 1.30438C0 2.89607 0 4.49803 0.0102689 6.09998C0.0102689 6.88042 0.523716 7.3836 1.30416 7.3836C2.92665 7.39387 4.55941 7.39387 6.18191 7.3836C6.96235 7.3836 7.45526 6.87015 7.4758 6.08971C7.48606 5.70976 7.4758 5.32981 7.4758 4.94986C9.13937 4.94986 10.7619 4.94986 12.3433 4.94986C11.6039 5.55573 10.8235 6.11025 10.1355 6.76746C7.2088 9.55035 5.5555 12.9802 5.16528 16.9953C5.13447 17.3239 5.05232 17.5396 4.69291 17.6936C2.86504 18.4946 2.03325 20.764 2.89584 22.5303C3.85086 24.4711 6.12029 25.2516 7.94817 24.2555C9.25232 23.5469 9.93007 22.4173 9.9198 20.9489C9.90954 19.4702 9.18044 18.3816 7.85575 17.7142C7.61956 17.5909 7.54768 17.4677 7.59902 17.211C7.69144 16.7797 7.70171 16.3381 7.8044 15.9171C9.00587 10.5772 12.2098 7.07553 17.4469 5.46331C17.6729 5.39142 17.7756 5.44277 17.909 5.63788C19.4186 7.9792 22.602 7.96893 24.1218 5.62761C24.2347 5.45304 24.3374 5.39142 24.5428 5.45304C26.2782 5.93568 27.8597 6.70585 29.2665 7.82517C32.3061 10.2486 34.0005 13.4115 34.4215 17.2623C34.4523 17.4985 34.3804 17.6012 34.1853 17.7039C32.224 18.6897 31.5257 20.8975 32.5628 22.8076C33.3022 24.1528 34.7399 24.8511 36.3726 24.6354C37.7692 24.4506 39.0117 23.2902 39.3609 21.8423C39.6998 20.4252 39.1555 18.7513 37.8719 18.053C37.0298 17.6012 36.8655 17.0159 36.7423 16.1944C36.0337 11.5733 33.7643 7.90732 29.934 5.23739C29.821 5.15524 29.7081 5.07309 29.5438 4.94986C31.2484 4.94986 32.8606 4.94986 34.5242 4.94986C34.5242 5.30927 34.5242 5.64815 34.5242 5.98702C34.5345 6.9215 35.0068 7.39387 35.9413 7.39387C37.3995 7.39387 38.868 7.36306 40.3262 7.40414C41.0861 7.42468 41.6509 7.19876 41.9795 6.4902C41.9795 4.63152 41.9795 2.77284 41.9795 0.914163C41.6919 0.328833 41.2709 -0.0100421 40.5829 0.000226849Z" fill="white"/>
<path d="M24.6763 36.9997C22.222 36.9689 19.7574 36.9689 17.3032 36.9997C15.1878 37.0305 13.401 38.3449 12.6719 40.3576C12.4562 40.9635 12.6719 41.5385 13.2469 41.8466C13.3394 41.898 13.442 41.9493 13.5345 41.9904C18.5046 41.9904 23.4851 41.9904 28.4552 41.9904C29.3076 41.5488 29.5746 41.0559 29.3178 40.3473C28.5887 38.3552 26.8019 37.0305 24.6763 36.9997Z" fill="white"/>
<path d="M26.6482 17.4266C25.2003 15.2599 23.7524 13.0829 22.3148 10.9161C22.2839 10.9161 22.2531 10.9264 22.2326 10.9264C22.2326 11.0599 22.2326 11.1934 22.2326 11.3166C22.2326 14.88 22.2326 18.4535 22.2223 22.0169C22.2223 22.3352 22.3045 22.4892 22.6023 22.633C24.3788 23.4545 25.1695 25.6007 24.3788 27.3773C23.6805 28.9381 22.1607 29.7699 20.4047 29.544C18.9363 29.3489 17.6013 28.055 17.3754 26.5968C17.1084 24.8408 17.8991 23.3108 19.46 22.5919C19.6962 22.479 19.7681 22.3557 19.7681 22.099C19.7578 18.4638 19.7578 14.8286 19.7578 11.1934C19.7578 11.101 19.7372 11.0086 19.7167 10.834C18.5666 12.5592 17.4575 14.2227 16.3485 15.876C14.3152 18.9259 12.2923 21.9655 10.259 25.0154C9.75583 25.765 9.79691 26.2579 10.4028 26.9254C10.4747 27.0076 10.5465 27.0897 10.6287 27.1616C11.9842 28.6198 13.0316 30.2731 13.6991 32.1523C14.038 33.0868 14.2844 34.0521 14.5822 35.0174C14.6233 35.0071 14.7055 35.0071 14.7773 34.9763C15.7118 34.6271 16.6771 34.5142 17.6732 34.5142C19.9426 34.5245 22.2121 34.4936 24.4815 34.5347C25.2517 34.545 26.0218 34.7298 26.7817 34.8531C26.9871 34.8839 27.1925 34.9763 27.4082 35.0482C27.4492 34.9044 27.4903 34.812 27.5108 34.699C28.1167 31.721 29.4517 29.123 31.5465 26.9254C32.1729 26.2682 32.1935 25.765 31.7006 25.0154C30.0267 22.4995 28.3426 19.9631 26.6482 17.4266Z" fill="white"/>
<path d="M20.9896 27.1515C21.6571 27.1515 22.2219 26.597 22.2219 25.9295C22.2219 25.2621 21.6673 24.6973 20.9999 24.6973C20.3324 24.6973 19.7676 25.2518 19.7676 25.9193C19.7676 26.5868 20.3221 27.1515 20.9896 27.1515Z" fill="white"/>
</svg>
