<svg width="42" height="42" viewBox="0 0 42 42" fill="none" xmlns="http://www.w3.org/2000/svg">
<path d="M26.6899 30.6199C22.2758 28.4793 19.8209 23.6904 20.6432 18.8894C21.4656 14.1125 25.3113 10.3515 30.2453 9.79521C35.0826 9.25101 39.4241 11.8753 41.3953 16.0474C41.5888 16.4465 41.746 16.8698 41.9274 17.2931C41.9516 17.2447 41.9637 17.2205 41.9637 17.1963C41.9637 14.2334 41.9637 11.2706 41.9758 8.30774C41.9758 7.95703 41.8065 7.96912 41.5646 7.96912C27.8388 7.96912 14.125 7.96912 0.399079 7.95703C0.0604665 7.98122 0 8.09006 0 8.41658C0.0120933 16.5191 0.0120933 24.6095 0.0120933 32.712C0.0120933 33.9697 0.810251 34.78 2.08005 34.78C10.2672 34.78 18.4544 34.78 26.6415 34.792C26.9439 34.792 27.0164 34.6953 27.0285 34.4172C27.0527 33.4013 27.0648 32.3976 27.1373 31.3817C27.1494 30.9948 27.0527 30.8013 26.6899 30.6199ZM11.8998 11.0045C12.9277 11.0045 13.9436 11.0045 14.9715 11.0045C15.9994 11.0045 17.0153 11.0045 18.0432 11.0045C18.7325 11.0045 19.18 11.4036 19.1558 11.972C19.1437 12.5283 18.7083 12.9153 18.0553 12.9153C15.9873 12.9274 13.9315 12.9274 11.8635 12.9153C11.1984 12.9153 10.7751 12.5283 10.7751 11.9599C10.763 11.3794 11.1984 11.0045 11.8998 11.0045ZM10.8719 15.1767C11.0412 14.8139 11.3435 14.6325 11.7426 14.6325C13.5324 14.6325 15.3222 14.6204 17.112 14.6325C17.6925 14.6325 18.1037 15.0679 18.0916 15.6C18.0795 16.12 17.6804 16.5312 17.0757 16.5433C16.1929 16.5675 15.298 16.5433 14.4152 16.5433C13.5566 16.5433 12.698 16.5554 11.8393 16.5433C11.0291 16.5312 10.5454 15.8419 10.8719 15.1767ZM11.8514 22.7955C12.6375 22.7834 13.4115 22.7955 14.1975 22.7955C14.9594 22.7955 15.7334 22.7834 16.4953 22.7955C17.1725 22.8076 17.5716 23.1583 17.5836 23.7388C17.5836 24.3193 17.1846 24.7062 16.5194 24.7062C14.9715 24.7183 13.4236 24.7183 11.8756 24.7062C11.2105 24.7062 10.7872 24.3193 10.7872 23.7509C10.763 23.1825 11.1863 22.7955 11.8514 22.7955ZM10.7751 20.1108C10.7751 19.5424 11.1984 19.1796 11.8635 19.1675C12.577 19.1554 13.2784 19.1675 13.9919 19.1675C14.7054 19.1675 15.4069 19.1554 16.1204 19.1675C16.7492 19.1796 17.1725 19.5545 17.1846 20.0987C17.1967 20.655 16.7613 21.0662 16.1083 21.0783C14.6933 21.0903 13.2784 21.0903 11.8514 21.0783C11.1984 21.0662 10.7751 20.6671 10.7751 20.1108ZM1.92283 11.8994C1.93493 10.7385 2.72099 9.95242 3.88195 9.91614C4.3294 9.90405 4.78894 9.91614 5.2364 9.91614C5.68385 9.91614 6.14339 9.90405 6.59084 9.91614C7.73971 9.94033 8.51368 10.7022 8.53786 11.8511C8.54996 12.7581 8.54996 13.6651 8.53786 14.5721C8.52577 15.6967 7.77599 16.4949 6.6634 16.5312C5.72013 16.5675 4.76476 16.5675 3.82148 16.5312C2.68471 16.4828 1.94702 15.6726 1.93493 14.5237C1.91074 13.653 1.91074 12.7702 1.92283 11.8994ZM1.92283 20.0382C1.93493 18.9015 2.72099 18.1033 3.85776 18.0912C4.77685 18.0791 5.69594 18.0791 6.61503 18.0912C7.76389 18.1154 8.51368 18.8894 8.53786 20.0503C8.54996 20.4978 8.53786 20.9573 8.53786 21.4048C8.53786 21.8401 8.54996 22.2755 8.53786 22.7229C8.51368 23.8718 7.77599 24.67 6.63922 24.7062C5.70803 24.7425 4.77685 24.7425 3.83357 24.7062C2.6968 24.67 1.93493 23.8597 1.92283 22.7229C1.91074 21.8159 1.91074 20.9331 1.92283 20.0382ZM8.52577 30.9343C8.51368 32.0227 7.76389 32.8087 6.6634 32.8571C5.72013 32.8934 4.76476 32.8934 3.82148 32.8571C2.68471 32.8087 1.93493 31.9985 1.92283 30.8617C1.91074 29.991 1.91074 29.1082 1.92283 28.2375C1.93493 27.0765 2.72099 26.2784 3.86985 26.2542C4.34149 26.2421 4.80104 26.2542 5.27268 26.2542C5.75641 26.2542 6.24014 26.2421 6.72387 26.2542C7.73971 26.3026 8.51368 27.0644 8.53786 28.0803C8.54996 29.0235 8.54996 29.9789 8.52577 30.9343ZM11.017 27.6449C11.2347 27.3789 11.537 27.3184 11.8635 27.3184C12.9035 27.3184 13.9436 27.3184 14.9836 27.3184C16.0115 27.3184 17.0274 27.3184 18.0553 27.3184C18.7204 27.3184 19.1558 27.6933 19.1679 28.2496C19.18 28.818 18.7325 29.2291 18.0553 29.2291C15.9873 29.2412 13.9315 29.2291 11.8635 29.2291C11.4282 29.2291 11.0654 29.084 10.8719 28.6607C10.6905 28.2979 10.763 27.9593 11.017 27.6449ZM22.0582 32.8087C21.8526 32.8692 21.647 32.8692 21.4293 32.8692C18.3092 32.8692 15.1892 32.8692 12.0691 32.8692C11.9965 32.8692 11.924 32.8692 11.8393 32.8692C11.1863 32.845 10.763 32.4459 10.7751 31.8897C10.7872 31.3334 11.1984 30.9585 11.8393 30.9585C13.484 30.9464 15.1287 30.9585 16.7734 30.9585C18.3697 30.9585 19.966 30.9585 21.5744 30.9585C21.913 30.9585 22.2396 30.9948 22.4814 31.2729C22.9289 31.7808 22.7112 32.5911 22.0582 32.8087Z" fill="white"/>
<path d="M31.5155 11.6583C26.4846 11.6341 22.4213 15.6854 22.4092 20.7162C22.3971 25.7591 26.4363 29.8224 31.455 29.8345C36.4616 29.8466 40.525 25.8075 40.5371 20.8008C40.5612 15.7337 36.5463 11.6704 31.5155 11.6583ZM36.1714 19.1803C34.4783 20.8855 32.7853 22.5786 31.0801 24.2716C30.7415 24.5981 30.3182 24.7553 29.8466 24.7433C29.3508 24.7312 28.9396 24.5619 28.5889 24.2111C28.0084 23.6428 27.4279 23.0623 26.8595 22.4818C26.4242 22.0344 26.4 21.5143 26.787 21.1274C27.1861 20.7404 27.6819 20.7646 28.1414 21.212C28.6373 21.6957 29.1331 22.1795 29.6047 22.6874C29.8224 22.9172 29.9312 22.8688 30.1247 22.6753C31.6727 21.1032 33.2327 19.5552 34.7806 17.9952C35.0709 17.6929 35.4095 17.5719 35.7965 17.6929C36.123 17.7896 36.3165 18.0315 36.3891 18.3701C36.4858 18.6724 36.3891 18.9506 36.1714 19.1803Z" fill="white"/>
<path d="M17.172 6.09502C21.2111 6.08293 25.2503 6.08293 29.2895 6.08293C33.3528 6.08293 37.4282 6.07083 41.4916 6.09502C41.9028 6.09502 41.9874 5.97409 41.9753 5.59919C41.9511 4.45033 41.9632 3.30147 41.9632 2.15261C41.9632 0.798157 41.2014 0.0120933 39.8348 0.0120933C32.2523 0.0120933 24.6698 0.0120933 17.0873 0C16.7366 0 16.6641 0.0967463 16.6641 0.435358C16.6762 2.15261 16.6882 3.88195 16.6641 5.59919C16.6762 5.99827 16.7729 6.09502 17.172 6.09502ZM21.0056 2.12842C21.1749 2.09214 21.3684 2.09214 21.5498 2.09214C26.7499 2.09214 31.95 2.09214 37.1501 2.09214C37.3557 2.09214 37.5734 2.09214 37.7789 2.15261C38.2022 2.28563 38.4683 2.6968 38.432 3.13216C38.3957 3.57961 38.0692 3.93032 37.6338 3.99079C37.4766 4.01497 37.3073 4.01497 37.138 4.01497C34.5259 4.01497 31.9258 4.01497 29.3136 4.01497C26.6652 4.01497 24.0047 4.01497 21.3563 4.01497C20.7032 4.01497 20.3162 3.70055 20.2679 3.16844C20.2074 2.64843 20.4976 2.23726 21.0056 2.12842Z" fill="white"/>
<path d="M0.423184 6.09502C2.7451 6.08293 5.06701 6.08293 7.38892 6.08293C9.72293 6.08293 12.0569 6.08293 14.403 6.08293C14.5844 6.08293 14.79 6.15549 14.79 5.81687C14.7779 3.97869 14.7779 2.12842 14.79 0.290239C14.79 0.0725598 14.7175 0 14.4998 0C14.1491 0.0120933 13.8105 0 13.4598 0C9.72293 0 5.9861 0 2.24927 0C0.761796 0.0120933 0.012012 0.761877 0.012012 2.22517C0.012012 3.37403 0.0241053 4.52289 -8.13099e-05 5.67175C-0.0121746 6.02246 0.096665 6.09502 0.423184 6.09502ZM11.1378 2.09214C11.8151 2.09214 12.2625 2.47913 12.2625 3.04751C12.2625 3.62799 11.8272 3.99079 11.1378 4.00288C10.4364 4.00288 10.0011 3.65217 9.97688 3.08379C9.97688 2.47912 10.4364 2.08005 11.1378 2.09214ZM7.40101 2.08005C8.09033 2.08005 8.52569 2.44285 8.52569 3.03542C8.52569 3.64008 8.12661 3.99079 7.41311 3.99079C6.68751 3.99079 6.24006 3.61589 6.25215 3.03542C6.26424 2.45494 6.7117 2.08005 7.40101 2.08005ZM3.65209 2.08005C4.3656 2.08005 4.81305 2.45494 4.80096 3.0596C4.78886 3.65217 4.37769 3.99079 3.66419 3.99079C2.96277 3.99079 2.53951 3.64008 2.52742 3.04751C2.52742 2.46703 2.96278 2.09214 3.65209 2.08005Z" fill="white"/>
<path d="M33.934 31.3818C32.386 31.7084 30.8623 31.7567 29.3385 31.4302C28.9878 31.3576 29.0241 31.5511 29.012 31.7688C28.9394 34.2721 28.8548 36.7754 28.7822 39.2788C28.7822 39.4722 28.7943 39.6778 28.8306 39.8592C29.1329 41.2379 30.3906 42.1449 31.7572 41.9877C33.1721 41.8304 34.2121 40.6937 34.2 39.2667C34.2 38.3355 34.1516 37.3922 34.1154 36.461C34.0549 34.768 33.9944 33.087 33.934 31.3818Z" fill="white"/>
<path d="M41.879 24.283C40.8027 27.2337 38.892 29.3984 36.038 30.7287C35.8566 30.8133 35.8203 30.9343 35.8203 31.1157C35.8566 32.2283 35.905 33.3529 35.9292 34.4655C35.9292 34.6953 35.9896 34.7799 36.2315 34.7799C37.5134 34.7678 38.7953 34.792 40.0771 34.7678C41.1655 34.7437 41.9637 33.9334 41.9637 32.8571C41.9758 29.9789 41.9637 27.0886 41.9637 24.1016C41.9032 24.2346 41.8911 24.2588 41.879 24.283Z" fill="white"/>
<path d="M4.14748 14.6331C4.87308 14.621 5.58658 14.621 6.31218 14.6331C6.52986 14.6331 6.6387 14.5968 6.6387 14.3429C6.6266 13.5931 6.6266 12.8433 6.6387 12.0814C6.6387 11.8879 6.57823 11.8154 6.38474 11.8275C6.00985 11.8395 5.63495 11.8275 5.26006 11.8275C4.88517 11.8275 4.51028 11.8395 4.13539 11.8275C3.90561 11.8154 3.82096 11.8879 3.83305 12.1298C3.84515 12.8554 3.84515 13.5689 3.83305 14.2945C3.80887 14.5605 3.89352 14.6452 4.14748 14.6331Z" fill="white"/>
<path d="M4.15959 22.7956C4.87309 22.7835 5.5745 22.7835 6.28801 22.7956C6.52987 22.7956 6.63871 22.7472 6.62662 22.4812C6.60243 21.7556 6.60243 21.03 6.62662 20.3044C6.63871 20.0262 6.51778 19.9779 6.28801 19.99C5.9373 20.002 5.59869 19.99 5.24799 19.99C4.87309 19.99 4.4982 20.002 4.11122 19.99C3.86935 19.9779 3.79679 20.0625 3.80888 20.3044C3.82098 21.03 3.82098 21.7556 3.80888 22.4812C3.80888 22.7593 3.92982 22.7956 4.15959 22.7956Z" fill="white"/>
<path d="M6.31223 28.1412C5.63501 28.1533 4.95779 28.1654 4.28056 28.1412C3.89358 28.1171 3.78474 28.2622 3.82102 28.625C3.8573 28.9394 3.83311 29.2538 3.83311 29.5803C3.83311 29.9311 3.8452 30.2818 3.83311 30.6204C3.82102 30.8864 3.90567 30.959 4.15963 30.959C4.88523 30.9469 5.61082 30.9469 6.33642 30.959C6.56619 30.959 6.65085 30.8985 6.65085 30.6567C6.63875 29.9311 6.63875 29.2055 6.65085 28.4799C6.63875 28.2138 6.56619 28.1412 6.31223 28.1412Z" fill="white"/>
</svg>
