<svg width="27" height="42" viewBox="0 0 27 42" fill="none" xmlns="http://www.w3.org/2000/svg">
<path d="M26.9494 11.3473C26.9494 9.94069 26.0116 9.01465 24.605 9.00293C18.193 8.99121 11.7694 8.99121 5.35743 9.00293C3.95078 9.00293 3.01302 9.94069 3.01302 11.3473C3.0013 17.771 3.01302 24.2064 3.01302 30.6301C3.01302 31.1341 3.11852 31.6147 3.42329 32.0367C3.92734 32.74 4.63066 32.9979 5.47465 32.9979C8.65131 32.9862 11.8163 32.9979 14.9929 32.9979C18.1813 32.9979 21.3697 32.9979 24.5464 32.9979C26.0116 32.9979 26.9611 32.0836 26.9611 30.6301C26.9611 24.2064 26.9611 17.771 26.9494 11.3473ZM19.1074 14.1723C18.7909 13.9379 18.6619 13.6331 18.7674 13.258C18.9081 12.8009 19.4707 12.6016 19.8693 12.8946C20.9008 13.6331 21.9089 14.3951 22.917 15.1804C23.3273 15.4969 23.3273 16.0244 22.9053 16.3526C21.9206 17.1263 20.9125 17.8765 19.8927 18.615C19.5411 18.8729 19.0839 18.7791 18.8495 18.4392C18.615 18.1109 18.6854 17.6772 19.037 17.3959C19.7403 16.845 20.4554 16.3175 21.1939 15.7665C20.5023 15.2156 19.8107 14.6881 19.1074 14.1723ZM13.5042 18.5564C13.9848 16.5754 14.4889 14.5943 14.9929 12.6133C15.0867 12.2499 15.3329 12.0389 15.6259 12.0272C16.2003 12.0155 16.5637 12.4492 16.4465 12.9415C15.9659 14.9343 15.4618 16.9387 14.9578 18.9198C14.8523 19.3535 14.4303 19.5762 14.0552 19.4707C13.6449 19.3652 13.3987 18.9901 13.5042 18.5564ZM7.17434 15.0632C8.07694 14.3716 8.99125 13.6917 9.90557 13.0119C10.3862 12.6602 10.8082 12.6836 11.0895 13.0705C11.3591 13.4456 11.2419 13.8793 10.7847 14.231C10.1166 14.735 9.43669 15.239 8.74509 15.7548C9.46013 16.2823 10.1283 16.7864 10.8082 17.3021C11.2653 17.6538 11.3591 18.1109 11.0661 18.4626C10.7847 18.8143 10.351 18.826 9.90557 18.4978C8.99125 17.8179 8.08866 17.138 7.17434 16.4464C6.58824 16.001 6.58824 15.4969 7.17434 15.0632ZM8.99125 25.4958C9.00297 26.0116 8.61615 26.2695 7.85422 26.2577C7.67839 26.2577 7.50256 26.2577 7.33845 26.2226C6.95162 26.1288 6.75235 25.8592 6.75235 25.4724C6.75235 25.0973 7.0454 24.8042 7.44395 24.769C7.58461 24.7573 7.737 24.769 7.87766 24.769C8.62787 24.7573 8.97953 24.9918 8.99125 25.4958ZM5.89664 23.2335C5.49809 23.1631 5.24021 22.8466 5.25193 22.4715C5.26365 22.0964 5.54498 21.8034 5.95525 21.7565C6.09591 21.7448 6.2483 21.7565 6.38896 21.7565C7.13917 21.7448 7.50256 22.0027 7.49083 22.5067C7.47911 23.0107 7.11573 23.2569 6.37724 23.2569C6.21313 23.2569 6.04903 23.2569 5.89664 23.2335ZM7.88938 29.2586C7.74872 29.2586 7.59633 29.2703 7.45567 29.2586C7.03368 29.2117 6.71718 28.8718 6.74062 28.4732C6.76407 28.0864 7.06884 27.7933 7.49083 27.7699C7.61978 27.7582 7.74872 27.7699 7.87766 27.7699C8.61615 27.7699 8.97953 28.016 8.99125 28.5084C8.99125 29.0007 8.61615 29.2586 7.88938 29.2586ZM14.864 29.2586C13.6801 29.2703 12.4961 29.2703 11.3239 29.2586C10.8082 29.2586 10.4917 28.9538 10.4917 28.4967C10.4917 28.0395 10.7964 27.7699 11.3357 27.7582C11.9218 27.7582 12.5079 27.7582 13.0822 27.7582C13.6801 27.7582 14.2779 27.7582 14.8757 27.7582C15.3915 27.7699 15.7197 28.0629 15.708 28.5084C15.7197 28.9538 15.3798 29.2469 14.864 29.2586ZM10.4917 25.4724C10.5034 25.0504 10.7964 24.769 11.277 24.769C11.8866 24.7573 12.5079 24.769 13.1174 24.769C13.7152 24.769 14.3131 24.7573 14.9109 24.769C15.4032 24.7808 15.7197 25.0621 15.7197 25.4958C15.7197 25.9295 15.4149 26.2577 14.9343 26.2577C13.7035 26.2695 12.4844 26.2695 11.2536 26.2577C10.7847 26.246 10.4799 25.9061 10.4917 25.4724ZM10.058 23.2569C9.8704 23.2569 9.67113 23.2569 9.4953 23.1983C9.15536 23.0928 8.97953 22.8232 9.00298 22.4598C9.02642 22.0964 9.22569 21.862 9.57735 21.7799C9.72974 21.7448 9.89385 21.7565 10.058 21.7565C14.5827 21.7565 19.1074 21.7565 23.6438 21.7565C23.761 21.7565 23.8782 21.7565 23.9954 21.7682C24.4292 21.8151 24.7105 22.1082 24.7105 22.5067C24.7105 22.8818 24.4409 23.1866 24.0423 23.2452C23.9017 23.2686 23.7493 23.2569 23.6086 23.2569C21.358 23.2569 19.1074 23.2569 16.8567 23.2569C14.5827 23.2569 12.3203 23.2569 10.058 23.2569ZM24.7105 25.4841C24.7222 25.9412 24.3588 26.2577 23.7962 26.2577C21.9089 26.2577 20.0217 26.2577 18.1462 26.2577C17.5601 26.2577 17.2318 25.9647 17.2436 25.4724C17.2553 25.0035 17.5601 24.7573 18.1462 24.7573C19.0956 24.7573 20.0451 24.7573 20.9946 24.7573C21.9324 24.7573 22.8701 24.7573 23.7962 24.7573C24.3588 24.7573 24.6988 25.0269 24.7105 25.4841ZM23.8665 29.2469C21.9324 29.2586 20.01 29.2586 18.0758 29.2469C17.5483 29.2469 17.2318 28.9538 17.2318 28.5084C17.2318 28.0512 17.5366 27.7582 18.0641 27.7582C19.0487 27.7464 20.0217 27.7582 21.0063 27.7582C21.9558 27.7582 22.9053 27.7582 23.8548 27.7582C24.3705 27.7582 24.7105 28.0512 24.7105 28.4967C24.7105 28.9304 24.3705 29.2469 23.8665 29.2469Z" fill="#FDFDFD"/>
<path d="M23.6436 7.47865C23.6084 7.34971 23.585 7.23249 23.5498 7.12699C22.9403 5.27491 22.319 3.42283 21.7095 1.55903C21.3461 0.504047 20.631 0 19.5057 0C16.5166 0 13.5158 0 10.5267 0C9.29584 0 8.61597 0.492325 8.22914 1.64108C7.6196 3.458 7.01005 5.28663 6.41223 7.11527C6.37706 7.22077 6.28329 7.33799 6.35362 7.47865C12.1091 7.47865 17.8646 7.47865 23.6436 7.47865Z" fill="#FDFDFD"/>
<path d="M8.36972 40.7224C8.67449 41.5781 9.38954 41.9884 10.2921 41.9884C13.3985 42.0001 16.5165 42.0001 19.6229 41.9884C20.6075 41.9884 21.3108 41.4726 21.6508 40.5466C21.85 39.9839 22.0376 39.4213 22.2251 38.8469C22.7058 37.4051 23.1746 35.975 23.6552 34.5098C17.8528 34.5098 12.0973 34.5098 6.29492 34.5098C6.98652 36.6197 7.64295 38.6828 8.36972 40.7224Z" fill="#FDFDFD"/>
<path d="M1.3832 18.0052C0.597823 17.7591 0 18.1928 0 19.0133C0 20.291 0 21.557 0 22.8347C0 23.8076 0.210996 24.0069 1.18392 23.9952C1.43009 23.9952 1.50042 23.9366 1.50042 23.6787C1.4887 22.7878 1.4887 21.8969 1.50042 21.0061C1.51214 20.1152 1.50042 19.2243 1.50042 18.3334C1.4887 18.2279 1.58247 18.0756 1.3832 18.0052Z" fill="#FDFDFD"/>
</svg>
