<svg width="24" height="24" viewBox="0 0 24 24" fill="none" xmlns="http://www.w3.org/2000/svg">
<g clip-path="url(#clip0_21_1075)">
<path d="M12.0188 7.0765e-05C5.39426 -0.0224363 0.0225776 5.32674 7.05678e-05 11.9663C-0.0224365 18.6209 5.34174 24.0001 11.9963 24.0001C18.5984 24.0001 23.9476 18.6359 23.9551 12.0038C23.9701 5.38675 18.6284 0.0225778 12.0188 7.0765e-05ZM16.4152 10.4508C14.8247 12.0563 13.2267 13.6543 11.6287 15.2448C11.1411 15.7325 10.4358 15.7325 9.94068 15.2448C9.13042 14.4496 8.32767 13.6468 7.53993 12.8366C7.06728 12.3489 7.08228 11.6062 7.54743 11.1411C8.00507 10.6834 8.7403 10.6684 9.22045 11.1335C9.74562 11.6437 10.2483 12.1689 10.826 12.7691C10.901 12.6415 10.946 12.544 11.0135 12.469C12.2364 11.2386 13.4593 10.0082 14.6897 8.78532C15.3874 8.0951 16.4902 8.38769 16.7228 9.32549C16.8278 9.76062 16.7228 10.1432 16.4152 10.4508Z" fill="#5F0087"/>
</g>
<defs>
<clipPath id="clip0_21_1075">
<rect width="23.955" height="24" fill="white"/>
</clipPath>
</defs>
</svg>
