<svg width="32" height="32" viewBox="0 0 32 32" fill="none" xmlns="http://www.w3.org/2000/svg">
<g clip-path="url(#clip0_53_2483)">
<path d="M14.4242 17.7735C15.0565 17.7735 15.6789 17.7735 16.3112 17.7735C16.41 17.7735 16.5483 17.8427 16.578 17.6253C16.7064 16.4398 17.4474 15.7877 18.5341 15.5012C18.7712 15.4321 18.7218 15.353 18.6527 15.2048C18.2278 14.3354 17.5659 13.7328 16.6076 13.5549C15.4912 13.3475 14.3748 13.1993 13.2584 13.0313C12.7546 12.9622 12.5767 13.0906 12.4186 13.5846C11.9543 15.0369 11.4998 16.4892 11.0355 17.9415C11.0059 18.0502 10.996 18.1687 10.8774 18.2873C10.828 17.5858 10.7786 16.9239 10.7194 16.2619C10.7095 16.1039 10.7095 15.9853 10.8972 15.9162C11.1442 15.8272 11.243 15.6198 11.243 15.353C11.243 14.7998 11.2529 14.2465 11.243 13.6834C11.2331 13.2487 11.0157 13.0313 10.581 13.0214C9.84007 13.0116 9.0991 13.0116 8.36801 13.0214C7.93331 13.0214 7.71596 13.2487 7.70608 13.6834C7.6962 14.2267 7.70608 14.7701 7.70608 15.3135C7.70608 15.5901 7.795 15.8075 8.05187 15.9063C8.23958 15.9754 8.23958 16.094 8.2297 16.2521C8.1803 16.914 8.13091 17.5759 8.08151 18.2477C8.06175 18.2477 8.04199 18.2379 8.03211 18.2379C8.02223 18.2082 8.00247 18.1786 7.99259 18.1391C7.50849 16.6077 7.02439 15.0665 6.54029 13.5253C6.40198 13.0708 6.22414 12.9325 5.7598 13.0017C4.77184 13.1499 3.79376 13.3277 2.8058 13.4561C1.07688 13.6834 0 14.8689 0 16.588C0 21.4487 0 26.3194 0 31.1801C0 31.8124 0.187712 32.0001 0.810127 32.0001C4.39642 32.0001 7.98271 32.0001 11.569 32.0001C11.6777 32.0001 11.7864 32.0001 11.9345 32.0001C11.7765 31.4666 11.8358 30.943 11.8358 30.4293C11.8259 27.0702 11.8358 23.7112 11.8358 20.3521C11.8259 18.7911 12.8435 17.7834 14.4242 17.7735ZM9.44489 22.8319C9.22754 22.1304 8.96079 21.4981 9.03983 20.7473C9.1979 19.3543 9.26706 17.9415 9.37573 16.5386C9.38561 16.4595 9.34609 16.3607 9.50417 16.2422C9.55357 16.8547 9.60296 17.408 9.65236 17.9711C9.7314 19.0184 9.81044 20.0656 9.88947 21.1029C9.92899 21.5278 9.75116 22.1897 9.44489 22.8319ZM9.76104 14.8195C9.56345 14.7998 9.36585 14.7998 9.16826 14.8195C8.94103 14.8393 8.85211 14.78 8.85211 14.5231C8.86199 14.2959 8.90151 14.1774 9.1485 14.2169C9.25718 14.2366 9.36585 14.2169 9.48441 14.2169C9.57333 14.2169 9.66224 14.2267 9.74128 14.2169C9.96851 14.1872 10.0574 14.2564 10.0574 14.5133C10.0574 14.7405 10.0179 14.8492 9.76104 14.8195Z" fill="#5F0087"/>
<path d="M17.7433 18.1092C17.7433 18.2969 17.7235 18.4847 17.7433 18.6625C17.7729 18.9095 17.6741 18.9688 17.437 18.9589C16.3898 18.949 15.3426 18.949 14.2953 18.9589C13.5148 18.9688 13.0011 19.4825 13.0011 20.263C13.0011 21.4979 13.011 22.7329 12.9912 23.9678C12.9912 24.2543 13.0702 24.3037 13.337 24.3037C16.37 24.2939 19.3932 24.2939 22.4262 24.2939C25.4691 24.2939 28.512 24.2939 31.5451 24.3037C31.8415 24.3037 31.9403 24.2543 31.9304 23.9382C31.9106 22.7428 31.9205 21.5473 31.9205 20.3519C31.9205 19.4726 31.4364 18.9786 30.5571 18.9688C29.7766 18.9688 29.006 18.9786 28.2255 18.9688C27.8896 18.9688 27.4352 19.1169 27.2376 18.8996C27.0696 18.7119 27.1783 18.2673 27.1882 17.9413C27.2079 17.4967 27.04 17.1509 26.6744 16.894C26.3682 16.6866 26.0323 16.5977 25.6667 16.5977C24.7973 16.5977 23.918 16.5977 23.0486 16.5977C21.784 16.5977 20.5096 16.5878 19.245 16.5977C18.2472 16.5977 17.7433 17.1114 17.7433 18.1092ZM19.818 17.7733C21.7248 17.7733 23.6315 17.7733 25.5383 17.7733C26.0224 17.7733 26.0224 17.7733 26.0224 18.2673C26.0224 18.9589 26.0224 18.9589 25.3111 18.9589C24.3626 18.9589 23.4142 18.9589 22.4657 18.9589C21.379 18.9589 20.3021 18.949 19.2154 18.9688C18.9782 18.9688 18.9091 18.9194 18.9091 18.6724C18.919 17.7733 18.9091 17.7733 19.818 17.7733Z" fill="#5F0087"/>
<path d="M9.47453 11.9643C12.7546 11.9445 15.3825 9.24741 15.3529 5.90811C15.3134 2.63796 12.6558 -0.0196497 9.41526 0.000109472C6.20439 0.0198687 3.54678 2.73676 3.57642 5.97726C3.60606 9.32644 6.22415 11.9841 9.47453 11.9643Z" fill="#5F0087"/>
<path d="M31.694 25.4696C30.874 25.4794 30.0441 25.4794 29.2241 25.4696C28.9969 25.4696 28.9673 25.5585 28.9771 25.7462C28.987 26.2105 28.987 26.6848 28.9771 27.1491C28.9771 27.6134 28.7598 27.8407 28.3053 27.8407C27.5644 27.8505 26.8234 27.8505 26.0923 27.8407C25.6576 27.8407 25.4402 27.6036 25.4402 27.1689C25.4304 26.6848 25.4304 26.2105 25.4402 25.7264C25.4402 25.5585 25.4304 25.4597 25.213 25.4696C23.5829 25.4794 21.9626 25.4794 20.3325 25.4696C20.1547 25.4696 20.1053 25.5288 20.1053 25.6968C20.1151 26.1908 20.1151 26.6848 20.1053 27.1787C20.0954 27.6134 19.878 27.8407 19.4433 27.8407C18.7024 27.8505 17.9614 27.8505 17.2303 27.8407C16.7956 27.8407 16.5684 27.6134 16.5684 27.1787C16.5585 26.7144 16.5585 26.2402 16.5684 25.7758C16.5783 25.5387 16.519 25.4597 16.272 25.4696C15.3038 25.4893 14.3257 25.4893 13.3575 25.4696C13.0908 25.4696 13.0117 25.519 13.0117 25.8055C13.0315 27.5937 13.0216 29.3819 13.0216 31.1701C13.0216 31.8123 13.1994 31.9901 13.8614 31.9901C16.7462 31.9901 19.6212 31.9901 22.506 31.9901C25.4007 31.9901 28.2954 31.9901 31.1902 31.9901C31.7138 31.9901 31.9509 31.7925 31.9509 31.3084C31.9509 29.4412 31.9509 27.5838 31.9608 25.7166C31.941 25.5486 31.9015 25.4696 31.694 25.4696Z" fill="#5F0087"/>
<path d="M17.7441 26.092C17.7441 26.665 17.7441 26.665 18.3172 26.665C18.9297 26.665 18.9297 26.665 18.9297 26.0525C18.9297 25.4795 18.9297 25.4795 18.3567 25.4795C17.7441 25.4795 17.7441 25.4795 17.7441 26.092Z" fill="#5F0087"/>
<path d="M26.6152 26.092C26.6152 26.665 26.6152 26.665 27.1883 26.665C27.8008 26.665 27.8008 26.665 27.8008 26.0525C27.8008 25.4795 27.8008 25.4795 27.2278 25.4795C26.6152 25.4795 26.6152 25.4795 26.6152 26.092Z" fill="#5F0087"/>
</g>
<defs>
<clipPath id="clip0_53_2483">
<rect width="31.9407" height="32" fill="white"/>
</clipPath>
</defs>
</svg>
