<svg width="29" height="32" viewBox="0 0 29 32" fill="none" xmlns="http://www.w3.org/2000/svg">
<g clip-path="url(#clip0_53_2524)">
<path d="M0.485561 9.59027C5.07604 12.3522 9.66651 15.1141 14.257 17.876C14.4475 17.9903 14.5808 17.9807 14.7618 17.8665C17.1046 16.4474 19.457 15.0474 21.7998 13.6284C24.0379 12.2855 26.2665 10.9426 28.5046 9.59979C29.1618 9.20932 29.1618 8.57122 28.5141 8.1617C28.3141 8.03789 28.1046 7.91408 27.9046 7.79979C23.7618 5.30455 19.6189 2.81884 15.4665 0.323602C15.1713 0.14265 14.8665 -0.00973144 14.4951 -0.000207632C14.1998 -0.0192553 13.9237 0.0855066 13.6665 0.237888C9.26651 2.88551 4.86651 5.53313 0.466513 8.18074C-0.162058 8.55217 -0.152534 9.20932 0.485561 9.59027Z" fill="#5F0087"/>
<path d="M28.5522 22.4377C28.076 22.1425 27.5903 21.8758 27.1236 21.5711C26.8665 21.3996 26.6855 21.4187 26.4284 21.5806C22.5712 23.9044 18.695 26.2282 14.8284 28.5711C14.5807 28.7235 14.4093 28.7235 14.1617 28.5711C12.5617 27.5901 10.9522 26.6377 9.35218 25.6663C7.05694 24.2854 4.7617 22.9044 2.46646 21.5235C2.34265 21.4473 2.23789 21.3425 2.05694 21.4568C1.49503 21.8092 0.914081 22.133 0.352176 22.4949C-0.11449 22.7996 -0.11449 23.4282 0.342652 23.752C0.523605 23.8854 0.723605 23.9901 0.914081 24.1044C5.11408 26.6282 9.30456 29.152 13.5046 31.6758C13.8093 31.8568 14.1236 32.0282 14.495 31.9996C14.7998 32.0187 15.0665 31.9139 15.3141 31.7711C19.7236 29.1235 24.1331 26.4758 28.5427 23.8187C29.1331 23.4568 29.1331 22.7996 28.5522 22.4377Z" fill="#5F0087"/>
<path d="M0.49481 16.6855C5.07576 19.4378 9.65672 22.1902 14.2377 24.9521C14.4472 25.0759 14.5805 25.0664 14.7805 24.9426C17.4472 23.3331 20.1234 21.7236 22.79 20.1236C24.6853 18.9807 26.59 17.8378 28.4853 16.695C28.7615 16.5236 28.9805 16.3236 28.971 16.0093C28.971 15.6474 28.8186 15.4283 28.552 15.2759C28.0567 14.9807 27.552 14.6855 27.0662 14.3712C26.8567 14.2378 26.7043 14.2569 26.5043 14.3807C22.6662 16.695 18.8186 18.9997 14.99 21.3236C14.6281 21.5426 14.39 21.5521 14.0186 21.3236C10.1805 18.9902 6.32338 16.6855 2.48529 14.3712C2.28529 14.2474 2.14243 14.2474 1.95195 14.3712C1.47576 14.6759 0.980524 14.9617 0.49481 15.2569C-0.162333 15.6474 -0.162333 16.2855 0.49481 16.6855Z" fill="#5F0087"/>
</g>
<defs>
<clipPath id="clip0_53_2524">
<rect width="28.9905" height="32" fill="white"/>
</clipPath>
</defs>
</svg>
