<svg width="32" height="32" viewBox="0 0 32 32" fill="none" xmlns="http://www.w3.org/2000/svg">
<g clip-path="url(#clip0_53_2502)">
<path d="M15.7286 0.559642C15.7286 0.200467 15.4697 -0.00835562 15.1105 -2.71387e-06C14.8599 0.0083502 14.6093 0.025056 14.3588 0.0501148C13.8409 0.100232 13.5151 0.384231 13.4232 0.893759C13.3063 1.49517 13.2144 2.10493 13.1225 2.71469C13.0975 2.88175 13.0641 2.99869 12.8636 3.04046C11.3935 3.34951 10.0319 3.92586 8.77066 4.74445C8.63701 4.83633 8.54513 4.81963 8.41984 4.72774C7.91031 4.35186 7.39243 3.97598 6.87455 3.61681C6.4569 3.32446 6.0309 3.34951 5.63832 3.67528C4.92832 4.25998 4.27679 4.90316 3.69209 5.61315C3.32456 6.05586 3.31621 6.48186 3.65033 6.95797C4.00115 7.45079 4.35197 7.94361 4.70279 8.42808C4.79467 8.54502 4.81973 8.63691 4.72785 8.78726C3.91762 10.0485 3.34962 11.4184 3.02386 12.8802C2.99045 13.0389 2.93198 13.1224 2.74821 13.1475C2.20527 13.2143 1.66233 13.3145 1.11939 13.4148C0.342573 13.5568 0.183868 13.7238 0.0418688 14.5174C0.0418688 14.5424 0.00845717 14.5591 -0.0166016 14.5842C-0.0166016 15.3777 -0.0166016 16.1712 -0.0166016 16.9648C0.0502217 16.9815 0.0418688 17.0399 0.0502217 17.0901C0.142104 17.7499 0.375985 17.9922 1.02751 18.1091C1.58716 18.2093 2.15515 18.3179 2.72315 18.3931C2.93198 18.4182 2.9988 18.5184 3.03221 18.6938C3.36633 20.1222 3.92597 21.467 4.72785 22.7199C4.81973 22.8619 4.81973 22.9621 4.7195 23.1041C4.37703 23.5636 4.05127 24.0313 3.71715 24.4991C3.2995 25.0838 3.31621 25.4513 3.78397 26.011C4.32691 26.6541 4.93667 27.2472 5.57985 27.7985C6.04761 28.1994 6.4569 28.2161 6.96643 27.857C7.44255 27.5228 7.91866 27.1887 8.38643 26.8379C8.55348 26.7043 8.67042 26.7126 8.84584 26.8295C10.0737 27.6147 11.4018 28.1744 12.8218 28.4834C13.0223 28.5252 13.1142 28.6171 13.1392 28.8259C13.2228 29.444 13.3313 30.0621 13.4399 30.6802C13.5151 31.1146 13.7991 31.3819 14.2335 31.4571C14.5008 31.4988 14.768 31.5155 15.0437 31.5322C15.4948 31.5656 15.7453 31.3568 15.7453 30.9058C15.7537 29.5192 15.7537 28.1326 15.7453 26.746C15.7453 26.32 15.5699 26.1363 15.1523 26.1028C14.6511 26.0527 14.1583 26.011 13.6655 25.9024C9.21336 24.9334 5.98914 21.4169 5.51302 16.8812C5.13714 13.2895 6.37337 10.2824 9.07972 7.9102C10.8088 6.38997 12.8719 5.62151 15.1606 5.45445C15.5365 5.42939 15.737 5.24562 15.7453 4.8948C15.737 3.4414 15.737 1.99634 15.7286 0.559642Z" fill="#5F0087"/>
<path d="M14.9937 7.6429C14.7681 7.66796 14.5426 7.70137 14.3171 7.74314C9.6645 8.52831 6.6491 13.2644 7.86027 17.8251C8.69556 20.9825 11.427 23.5218 14.9185 23.8726C15.5449 23.9394 15.7454 23.7807 15.7454 23.1543C15.7454 20.6902 15.7454 18.226 15.7454 15.7703C15.7454 14.2501 15.7454 12.7215 15.7454 11.2012C15.7454 10.2323 15.7454 9.26337 15.7454 8.29443C15.7287 7.7682 15.5115 7.57608 14.9937 7.6429Z" fill="#5F0087"/>
<path d="M30.7723 14.1833C30.0456 13.9995 29.3022 14.3169 28.9514 14.9935C28.8595 15.1773 28.7593 15.219 28.5755 15.219C26.6711 15.2107 24.7666 15.219 22.8538 15.219C21.083 15.219 19.3121 15.219 17.5413 15.219C16.8063 15.219 16.823 15.219 16.8063 15.9625C16.7979 16.2465 16.8731 16.3216 17.1571 16.3216C20.9493 16.3133 24.7415 16.3133 28.5338 16.3133C28.7342 16.3133 28.8595 16.3383 28.9681 16.5555C29.3106 17.2237 30.0707 17.5328 30.7974 17.3407C31.499 17.1569 32.0002 16.5054 32.0002 15.7787C32.0002 15.0102 31.499 14.3754 30.7723 14.1833Z" fill="#5F0087"/>
<path d="M16.806 13.3229C16.7809 13.5568 16.8811 13.5902 17.0816 13.5902C18.4014 13.5818 19.7295 13.5818 21.0492 13.5818C22.3189 13.5818 23.5885 13.5818 24.8582 13.5818C25.8856 13.5818 26.5622 12.9052 26.5622 11.8862C26.5705 11.0509 26.5705 10.2156 26.5622 9.3803C26.5622 9.21324 26.6039 9.12971 26.7626 9.05453C27.4559 8.69536 27.79 7.9603 27.6146 7.21689C27.4476 6.49854 26.796 5.98901 26.0443 5.98901C25.2925 5.98901 24.641 6.48184 24.4572 7.20019C24.2651 7.94359 24.5992 8.69536 25.3092 9.06289C25.4763 9.14641 25.493 9.24665 25.493 9.397C25.4846 10.1905 25.493 10.9841 25.493 11.7776C25.493 12.3289 25.3176 12.5126 24.7663 12.5126C22.3857 12.5126 19.9968 12.5126 17.6162 12.5126C17.3572 12.5126 17.0064 12.4208 16.8644 12.5544C16.6974 12.6964 16.8394 13.0556 16.806 13.3229Z" fill="#5F0087"/>
<path d="M26.7798 22.4776C26.596 22.3858 26.5626 22.2772 26.5626 22.0934C26.571 21.2915 26.571 20.4896 26.5626 19.6878C26.5626 18.6019 25.8944 17.942 24.8085 17.942C23.5472 17.942 22.2859 17.942 21.033 17.942C19.8803 17.942 18.7193 17.942 17.5666 17.942C17.3243 17.942 16.9818 17.8334 16.8566 17.9921C16.7313 18.1425 16.8315 18.4682 16.8064 18.7105C16.773 18.9861 16.8816 19.0279 17.1322 19.0279C19.6965 19.0195 22.2525 19.0195 24.8169 19.0195C25.3013 19.0195 25.4935 19.2117 25.4935 19.7045C25.4935 20.5147 25.4935 21.3333 25.5018 22.1435C25.5018 22.3106 25.46 22.3941 25.3013 22.4693C24.6081 22.8285 24.2739 23.5719 24.4577 24.3069C24.6331 25.0253 25.2846 25.5348 26.028 25.5348C26.7798 25.5348 27.4313 25.0336 27.6151 24.3236C27.7989 23.5969 27.4731 22.8285 26.7798 22.4776Z" fill="#5F0087"/>
<path d="M21.3331 27.3641C21.1661 27.2805 21.141 27.1887 21.141 27.03C21.1494 26.5121 21.141 25.9858 21.141 25.468C21.141 24.9584 21.1494 24.4489 21.141 23.931C21.1159 22.9621 20.431 22.2939 19.4621 22.2855C18.8439 22.2771 18.2342 22.2771 17.6161 22.2855C17.3488 22.2855 16.998 22.1686 16.8392 22.344C16.7056 22.4943 16.8225 22.8451 16.7891 23.0957C16.7641 23.3463 16.8643 23.3881 17.0815 23.3797C17.85 23.363 18.6268 23.3714 19.3952 23.3797C19.8547 23.3797 20.0468 23.5718 20.0468 24.0229C20.0468 25.0336 20.0468 26.0443 20.0468 27.0634C20.0468 27.2137 20.005 27.2889 19.863 27.3641C19.1614 27.7316 18.8272 28.475 19.011 29.2017C19.1948 29.9368 19.8296 30.4379 20.573 30.4379C21.3248 30.4463 21.9846 29.9368 22.1601 29.2268C22.3772 28.4667 22.0515 27.7232 21.3331 27.3641Z" fill="#5F0087"/>
<path d="M16.806 8.98777C16.7893 9.18824 16.8477 9.25506 17.0566 9.24671C17.825 9.23 18.5935 9.24671 19.3703 9.23836C20.4645 9.23836 21.1411 8.57012 21.1411 7.46754C21.1411 6.4986 21.1495 5.52966 21.1411 4.56073C21.1411 4.3519 21.1829 4.23496 21.3834 4.12638C21.9764 3.81732 22.3189 3.13238 22.2187 2.51426C22.1017 1.72074 21.5003 1.14439 20.7485 1.09427C19.9383 1.0358 19.2701 1.50356 19.0446 2.26368C18.8274 3.01544 19.1531 3.78391 19.8715 4.15979C20.0385 4.24332 20.0636 4.34355 20.0553 4.4939C20.0469 4.99508 20.0553 5.49625 20.0553 5.99743C20.0553 6.49025 20.0553 6.97472 20.0553 7.46754C20.0553 7.96036 19.8715 8.15248 19.3787 8.15248C18.794 8.16083 18.2093 8.15248 17.6329 8.15248C17.3656 8.15248 17.0148 8.03554 16.8561 8.2026C16.6974 8.36965 16.8394 8.72048 16.806 8.98777Z" fill="#5F0087"/>
<path d="M17.057 10.3159C16.8732 10.3159 16.7897 10.3493 16.8064 10.5498C16.8231 10.7419 16.8231 10.9424 16.8064 11.1429C16.7897 11.36 16.8481 11.4269 17.0737 11.4269C17.909 11.4101 18.7359 11.4185 19.5712 11.4185C20.4148 11.4185 21.2585 11.4185 22.0938 11.4185C22.5281 11.4185 22.7704 11.2097 22.7704 10.8589C22.762 10.5164 22.5281 10.3243 22.1021 10.3243C20.4232 10.3159 18.7359 10.3243 17.057 10.3159Z" fill="#5F0087"/>
<path d="M22.1358 20.1055C21.2922 20.1055 20.4485 20.1055 19.6049 20.1055C18.945 20.1055 18.2935 20.0971 17.6336 20.1055C17.3663 20.1055 16.9988 19.9885 16.8568 20.1556C16.7231 20.3143 16.8233 20.6735 16.8066 20.9408C16.7899 21.1412 16.8568 21.1997 17.0572 21.1997C18.235 21.1913 19.4127 21.1913 20.5905 21.1913C21.1251 21.1913 21.6513 21.1997 22.1859 21.1913C22.5952 21.183 22.8458 20.8823 22.7539 20.5148C22.6787 20.2057 22.4365 20.1055 22.1358 20.1055Z" fill="#5F0087"/>
</g>
<defs>
<clipPath id="clip0_53_2502">
<rect width="32" height="31.5155" fill="white"/>
</clipPath>
</defs>
</svg>
