<svg width="31" height="32" viewBox="0 0 31 32" fill="none" xmlns="http://www.w3.org/2000/svg">
<g clip-path="url(#clip0_53_2540)">
<path d="M16.362 21.3428C16.1239 21.3428 15.8953 21.3428 15.6572 21.3428C15.343 21.3428 15.0287 21.3428 14.7144 21.3523C14.5049 21.3523 14.2858 21.3523 14.0763 21.3523C11.1525 21.5523 8.81914 23.7428 8.43819 26.6571C8.30486 27.6571 8.38105 28.6666 8.38105 29.6761C8.37152 30.9809 9.37152 31.9809 10.6763 31.9904C13.7049 31.9999 16.7334 31.9999 19.762 31.9904C21.0668 31.9904 22.0477 30.9904 22.0572 29.6761C22.0668 28.9142 22.0668 28.1523 22.0572 27.3904C22.0382 24.1904 19.5525 21.5523 16.362 21.3428Z" fill="#5F0087"/>
<path d="M30.4094 25.7334C30.3236 23.781 29.4284 22.2953 27.7617 21.2858C26.8951 20.762 25.9236 20.5524 24.8379 20.562C27.2475 19.9905 27.9046 18.0858 27.7427 16.762C27.5236 15.0096 26.1046 13.7334 24.3998 13.7143C22.6665 13.6953 21.2475 14.9143 20.9522 16.6953C20.6665 18.4191 21.7713 19.9143 23.8189 20.562C22.6665 20.562 21.6284 20.8096 20.6855 21.4381C22.7141 23.1524 23.6665 25.3048 23.5713 27.9239C23.5522 28.4191 23.5808 28.9239 23.5617 29.4191C23.5522 29.6191 23.5808 29.7143 23.8284 29.7143C25.276 29.7048 26.7236 29.7143 28.1713 29.7048C29.3903 29.6953 30.3617 28.7334 30.3998 27.5143C30.4284 26.9239 30.4284 26.3239 30.4094 25.7334Z" fill="#5F0087"/>
<path d="M9.7521 21.4477C9.42829 21.2096 9.09496 21.0572 8.76163 20.9239C8.42829 20.7905 8.08544 20.6953 7.73306 20.6477C7.38067 20.6001 7.02829 20.581 6.63782 20.5429C8.48544 20.1334 9.64734 18.6191 9.50448 16.8667C9.37115 15.1905 7.97115 13.8191 6.31401 13.7334C4.5902 13.6477 3.04734 14.8286 2.74258 16.4762C2.3902 18.3905 3.37115 19.8477 5.54258 20.5715C5.44734 20.5715 5.36163 20.581 5.28544 20.581C2.77115 20.6381 0.704484 22.3048 0.142579 24.7524C-0.0669449 25.6667 0.0187693 26.6001 0.0282932 27.5239C0.0473408 28.7429 1.02829 29.6953 2.24734 29.7143C3.69496 29.7334 5.14258 29.7143 6.5902 29.7239C6.81877 29.7239 6.85686 29.6477 6.85686 29.4381C6.84734 28.6858 6.84734 27.9429 6.85686 27.1905C6.87591 25.8953 7.24734 24.6858 7.89496 23.5715C8.38067 22.7524 9.00925 22.0572 9.7521 21.4477Z" fill="#5F0087"/>
<path d="M11.1236 5.3048C11.7236 5.93337 12.0665 6.62861 11.7903 7.45718C11.7903 7.84766 11.7903 8.16194 11.7903 8.48575C11.7903 9.3048 12.3713 9.71432 13.1427 9.44766C13.7236 9.24766 14.3046 9.04766 14.8856 8.82861C15.1046 8.74289 15.3046 8.73337 15.5236 8.82861C16.1046 9.05718 16.7046 9.25718 17.2951 9.45718C18.0475 9.71432 18.6379 9.29527 18.6189 8.49527C18.6094 7.83813 18.5808 7.19051 18.5522 6.53337C18.5427 6.35242 18.5903 6.21908 18.6951 6.07623C19.1046 5.56194 19.4951 5.04766 19.8951 4.52385C20.3903 3.8667 20.1617 3.18099 19.3808 2.94289C18.8189 2.77147 18.2475 2.59051 17.676 2.44766C17.3998 2.37147 17.1998 2.24766 17.0379 2.00004C16.7141 1.48575 16.3617 0.990513 16.0189 0.495275C15.5617 -0.161868 14.8379 -0.161868 14.3808 0.485751C14.0094 1.01908 13.6379 1.56194 13.276 2.1048C13.1713 2.2667 13.0475 2.35242 12.857 2.40956C12.2284 2.58099 11.6094 2.76194 10.9808 2.95242C10.2475 3.17147 10.0094 3.87623 10.4665 4.49528C10.6951 4.77147 10.8951 5.05718 11.1236 5.3048Z" fill="#5F0087"/>
<path d="M14.7238 21.2573C15.0286 21.2573 15.3334 21.2573 15.6476 21.2573C15.7334 21.2478 15.8286 21.2573 15.9143 21.2668C16 21.2573 16.0762 21.2382 16.1619 21.2287C18.1715 20.7144 19.5524 18.8954 19.4095 16.943C19.2191 14.4001 17.1143 12.6859 14.5905 13.0097C12.4572 13.2859 10.8095 15.4097 11.0762 17.5525C11.3048 19.4192 12.4191 20.6954 14.2953 21.2287C14.3715 21.2382 14.4476 21.2573 14.5238 21.2668C14.581 21.2573 14.6476 21.2478 14.7238 21.2573Z" fill="#5F0087"/>
<path d="M0.695379 7.49532C1.20014 8.03817 1.55252 8.62865 1.31443 9.32389C1.31443 9.68579 1.31443 9.94293 1.31443 10.2096C1.3049 10.9429 1.79062 11.2858 2.48586 11.0382C3.05728 10.8382 3.62871 10.4858 4.19062 10.4858C4.76205 10.4858 5.32395 10.8477 5.89538 11.0477C6.59062 11.2858 7.08586 10.9334 7.06681 10.2001C7.05728 9.67627 7.03824 9.15246 7.00966 8.62865C7.00014 8.4477 7.04776 8.31436 7.16205 8.17151C7.5049 7.74293 7.83824 7.31436 8.16205 6.87627C8.55252 6.35246 8.37157 5.78103 7.75252 5.58103C7.43824 5.47627 7.12395 5.36198 6.80014 5.30484C6.18109 5.19055 5.71443 4.90484 5.42871 4.32389C5.28586 4.02865 5.06681 3.77151 4.87633 3.49532C4.48586 2.95246 3.88586 2.95246 3.49538 3.50484C3.21919 3.90484 2.93347 4.29532 2.67633 4.71436C2.52395 4.96198 2.33347 5.10484 2.04776 5.17151C1.55252 5.29532 1.06681 5.43817 0.581094 5.60008C0.0287125 5.78103 -0.161764 6.36198 0.17157 6.83817C0.342998 7.05722 0.504903 7.28579 0.695379 7.49532Z" fill="#5F0087"/>
<path d="M22.7998 7.56189C23.3046 8.09522 23.5808 8.6857 23.3522 9.39998C23.3522 9.6857 23.3522 9.95236 23.3522 10.2095C23.3522 10.9143 23.8379 11.2762 24.5141 11.0381C25.0856 10.8381 25.6475 10.4762 26.2189 10.4762C26.7998 10.4762 27.3808 10.8381 27.9618 11.0381C28.6379 11.2666 29.1237 10.9238 29.1237 10.219C29.1141 9.59998 28.9522 8.93332 29.1332 8.38094C29.3141 7.82855 29.8379 7.38094 30.2094 6.8857C30.6189 6.33332 30.4284 5.76189 29.7713 5.55236C29.2665 5.39046 28.7522 5.23808 28.2379 5.09522C28.0665 5.0476 27.9522 4.96189 27.8475 4.81903C27.5522 4.37141 27.2475 3.93332 26.9427 3.49522C26.5427 2.92379 25.9427 2.92379 25.5427 3.49522C25.257 3.90475 24.9713 4.31427 24.7046 4.73332C24.5713 4.95236 24.3998 5.07617 24.1618 5.14284C23.657 5.27617 23.1618 5.41903 22.6665 5.58094C22.0856 5.76189 21.8951 6.33332 22.2475 6.82855C22.4094 7.0857 22.5808 7.34284 22.7998 7.56189Z" fill="#5F0087"/>
<path d="M16.3614 21.3428C16.2947 21.3047 16.2185 21.2571 16.1519 21.219C16.1233 21.2476 16.0852 21.2666 16.0566 21.2761C16.1519 21.2952 16.2566 21.3238 16.3614 21.3428Z" fill="#5F0087"/>
<path d="M15.6572 21.2952C15.6572 21.3047 15.6572 21.3047 15.6572 21.3142C15.7906 21.3142 15.9239 21.3333 16.0572 21.2761C16.0096 21.2666 15.962 21.2571 15.9144 21.2571C15.8191 21.2761 15.7429 21.2857 15.6572 21.2952Z" fill="#5F0087"/>
<path d="M14.2857 21.2285C14.219 21.2666 14.1428 21.3047 14.0762 21.3523C14.1809 21.3333 14.2762 21.3047 14.3809 21.2857C14.3428 21.2666 14.3143 21.2476 14.2857 21.2285Z" fill="#5F0087"/>
<path d="M14.7142 21.2952C14.6475 21.2856 14.5809 21.2761 14.5142 21.2666C14.4666 21.2761 14.4285 21.2761 14.3809 21.2856C14.4856 21.3333 14.5999 21.3237 14.7142 21.3237C14.7142 21.3142 14.7142 21.3047 14.7142 21.2952Z" fill="#5F0087"/>
<path d="M15.6567 21.2952C15.3424 21.2952 15.0282 21.2952 14.7139 21.2856C14.7329 21.2952 14.7424 21.3047 14.7424 21.3142H14.752C15.0377 21.3142 15.3329 21.3142 15.6186 21.3142C15.6186 21.3142 15.6186 21.3142 15.6186 21.3047C15.6377 21.3047 15.6472 21.2952 15.6567 21.2952Z" fill="#5F0087"/>
<path d="M15.6191 21.3238C15.6191 21.3333 15.6287 21.3428 15.6572 21.3428C15.6572 21.3333 15.6572 21.3238 15.6572 21.3238C15.6477 21.3143 15.6382 21.3143 15.6191 21.3238Z" fill="#5F0087"/>
<path d="M14.7422 21.3237C14.7327 21.3237 14.7231 21.3237 14.7136 21.3237C14.7136 21.3333 14.7136 21.3428 14.7041 21.3523C14.7136 21.3523 14.7231 21.3428 14.7327 21.3333C14.7422 21.3237 14.7422 21.3237 14.7422 21.3237Z" fill="#5F0087"/>
</g>
<defs>
<clipPath id="clip0_53_2540">
<rect width="30.419" height="32" fill="white"/>
</clipPath>
</defs>
</svg>
