<svg width="623" height="227" viewBox="0 0 623 227" fill="none" xmlns="http://www.w3.org/2000/svg">
<path d="M56.6716 82.1666C60.32 88.4859 61.4952 96.9708 57.3249 103.53C53.4173 109.676 46.3305 116.713 38.7997 117.884C20.8132 120.681 2.96129 101.292 10.0825 83.6243C11.9701 78.9411 17.1598 73.6623 21.489 71.0528C26.5219 68.019 31.2938 67.1076 37.0815 66.9556C42.4572 66.8144 46.8254 68.4796 51.5659 70.7313C53.9474 71.8625 54.4959 73.6304 56.3622 74.8627C57.1466 75.3806 58.8513 76.81 59.5411 76.7686" stroke="#E9B6FF" stroke-width="2" stroke-linecap="round"/>
<path d="M565 45.8948C575 43.0615 597.108 27.3361 602.5 22.8953C609.179 17.3952 604 6.05148 594.5 11.3953C585 16.7391 589 30.8948 600 30.8948C608 30.8948 613.5 28.395 621.5 20.395" stroke="#E9B6FF" stroke-width="2" stroke-linecap="round"/>
<g clip-path="url(#clip0_396_3798)">
<path d="M349.688 87.8979L364.574 133.443C365.629 136.684 369.617 137.838 372.243 135.665L416.691 98.9588C416.691 98.9588 369.458 80.5199 369.458 81.5266C369.458 82.5332 349.688 87.8979 349.688 87.8979Z" fill="#B5D1DB"/>
<path d="M466.981 0.368336C437.946 11.8589 344.252 50.2713 308.786 64.8186C304.099 66.746 304.381 73.4611 309.204 74.9956L349.7 87.8979L364.537 133.296C365.138 135.125 366.635 136.303 368.316 136.61C369.679 136.868 371.691 99.8427 371.691 99.8427C371.691 99.8427 414.261 131.43 434.448 146.333C439.418 150.003 446.524 147.241 447.702 141.177C453.715 110.167 468.76 32.6303 473.902 6.11362C474.675 2.12384 470.748 -1.14164 466.981 0.356059V0.368336Z" fill="white"/>
<path d="M368.316 136.622C369.679 136.88 371.691 99.855 371.691 99.855L441.627 34.1403C442.106 33.6983 441.529 32.9495 440.977 33.2809L349.688 87.8979L364.524 133.295C365.126 135.125 366.623 136.303 368.304 136.61L368.316 136.622Z" fill="#D6E2EA"/>
<path d="M126 225.772C174.031 225.625 237.881 198.531 250.705 146.505C255.871 125.512 251.281 103.01 234.641 87.6891C213.62 68.3295 190.537 86.0196 196.218 113.052C205.545 157.455 259.761 190.331 300.957 190.797C324.764 191.067 347.111 179.638 355.677 156.301" stroke="white" stroke-width="2" stroke-miterlimit="10"/>
</g>
<defs>
<clipPath id="clip0_396_3798">
<rect width="348" height="227" fill="white" transform="translate(126)"/>
</clipPath>
</defs>
</svg>
