<svg width="128" height="88" viewBox="0 0 128 88" fill="none" xmlns="http://www.w3.org/2000/svg">
<path d="M111.248 26.1666C114.897 32.4859 116.072 40.9708 111.902 47.5302C107.994 53.6763 100.907 60.7128 93.3763 61.8839C75.3899 64.6808 57.538 45.2916 64.6591 27.6243C66.5468 22.9411 71.7365 17.6623 76.0656 15.0528C81.0985 12.019 85.8705 11.1076 91.6581 10.9556C97.0338 10.8144 101.402 12.4796 106.143 14.7313C108.524 15.8625 109.073 17.6304 110.939 18.8627C111.723 19.3806 113.428 20.81 114.118 20.7686" stroke="#E9B6FF" stroke-width="2" stroke-linecap="round"/>
<circle cx="40" cy="47.3667" r="40" fill="#41005C"/>
<path d="M22.3746 65.2424L19 24L59.3018 24.0829L55.7335 65.2424L39.303 70L22.3746 65.2424Z" fill="#FFFEFE"/>
<path d="M39.3027 66.0169V27.9277L55.8993 27.983L52.9397 62.0611L39.3027 66.0169Z" fill="#EEE9F0"/>
<path d="M51.3363 37.4432L51.8063 32.4087H26.2754L27.686 47.8436H45.306L44.615 54.4268L38.9721 55.9479L33.2463 54.2884L32.9421 50.3606H27.8797L28.5713 58.3823L38.9718 61.2866L49.4551 58.3823L50.8657 42.7263H32.361L31.8354 37.4432H51.3363Z" fill="#41005C"/>
</svg>
