<svg width="86" height="86" viewBox="0 0 86 86" fill="none" xmlns="http://www.w3.org/2000/svg">
<circle cx="43" cy="43" r="43" fill="#41005C"/>
<path d="M48.5723 44.7144H50.2866V46.4286H48.5723V44.7144Z" fill="white"/>
<path d="M47.714 34.4284C48.7647 34.4321 49.7793 34.0457 50.5614 33.3441L47.9651 30.7487C47.8045 30.5879 47.7142 30.37 47.7142 30.1427C47.7142 29.9154 47.8045 29.6974 47.9651 29.5367L50.5614 26.9412C49.7793 26.2397 48.7647 25.8533 47.714 25.857C46.5774 25.857 45.4873 26.3085 44.6835 27.1122C43.8798 27.9159 43.4283 29.006 43.4283 30.1427C43.4283 31.2793 43.8798 32.3694 44.6835 33.1731C45.4873 33.9769 46.5774 34.4284 47.714 34.4284ZM46.8569 26.7141H48.5711V28.4284H46.8569V26.7141ZM45.1426 61.857H41.714C41.4867 61.857 41.2687 61.9473 41.1079 62.108C40.9472 62.2688 40.8569 62.4868 40.8569 62.7141C40.8569 62.9414 40.9472 63.1595 41.1079 63.3202C41.2687 63.4809 41.4867 63.5712 41.714 63.5712H45.1426C45.3699 63.5712 45.5879 63.4809 45.7487 63.3202C45.9094 63.1595 45.9997 62.9414 45.9997 62.7141C45.9997 62.4868 45.9094 62.2688 45.7487 62.108C45.5879 61.9473 45.3699 61.857 45.1426 61.857ZM48.5711 41.2855H38.2854C36.9219 41.2869 35.6146 41.8292 34.6504 42.7933C33.6862 43.7575 33.1439 45.0648 33.1426 46.4284V55.857C33.1426 56.0843 33.2329 56.3023 33.3936 56.4631C33.5544 56.6238 33.7724 56.7141 33.9997 56.7141H35.9274C36.135 56.7141 36.3355 56.6387 36.4917 56.5021C36.6479 56.3654 36.7493 56.1767 36.7769 55.971L37.394 51.3424C37.4503 50.9315 37.6532 50.5548 37.9655 50.2818C38.2777 50.0088 38.6781 49.8579 39.0929 49.857H47.7637C48.1789 49.858 48.5796 50.0092 48.8919 50.2827C49.2042 50.5563 49.4069 50.9336 49.4626 51.345L50.0797 55.9735C50.1073 56.1793 50.2086 56.368 50.3649 56.5046C50.5211 56.6413 50.7216 56.7166 50.9291 56.7167H52.8569C53.0842 56.7167 53.3022 56.6264 53.463 56.4656C53.6237 56.3049 53.714 56.0869 53.714 55.8595V46.4284C53.7126 45.0648 53.1704 43.7575 52.2062 42.7933C51.242 41.8292 49.9347 41.2869 48.5711 41.2855ZM39.9997 46.4284H38.2854V48.1427H36.5711V46.4284H34.8569V44.7141H36.5711V42.9998H38.2854V44.7141H39.9997V46.4284ZM42.5711 44.7141H40.8569V42.9998H42.5711V44.7141ZM45.9997 44.7141H44.2854V42.9998H45.9997V44.7141ZM51.9997 46.4284H50.2854V48.1427H48.5711V46.4284H46.8569V44.7141H48.5711V42.9998H50.2854V44.7141H51.9997V46.4284Z" fill="white"/>
<path d="M58.8571 22.4286C58.8571 21.5193 58.4959 20.6472 57.8529 20.0042C57.21 19.3612 56.3379 19 55.4286 19H31.4286C30.5193 19 29.6472 19.3612 29.0042 20.0042C28.3612 20.6472 28 21.5193 28 22.4286V63.5714C28 64.4807 28.3612 65.3528 29.0042 65.9958C29.6472 66.6388 30.5193 67 31.4286 67H55.4286C56.3379 67 57.21 66.6388 57.8529 65.9958C58.4959 65.3528 58.8571 64.4807 58.8571 63.5714V22.4286ZM40.8571 20.7143H46V22.4286H40.8571V20.7143ZM37.4286 20.7143H39.1429V22.4286H37.4286V20.7143ZM45.1429 65.2857H41.7143C41.0323 65.2857 40.3782 65.0148 39.896 64.5326C39.4138 64.0503 39.1429 63.3963 39.1429 62.7143C39.1429 62.0323 39.4138 61.3783 39.896 60.896C40.3782 60.4138 41.0323 60.1429 41.7143 60.1429H45.1429C45.8248 60.1429 46.4789 60.4138 46.9611 60.896C47.4434 61.3783 47.7143 62.0323 47.7143 62.7143C47.7143 63.3963 47.4434 64.0503 46.9611 64.5326C46.4789 65.0148 45.8248 65.2857 45.1429 65.2857ZM55.4286 55.8571C55.4286 56.5391 55.1577 57.1932 54.6754 57.6754C54.1932 58.1577 53.5391 58.4286 52.8571 58.4286H50.9294C50.3072 58.4271 49.7064 58.2007 49.2379 57.7912C48.7695 57.3816 48.4649 56.8165 48.3803 56.2L47.764 51.5714H39.0931L38.4769 56.2C38.3923 56.8165 38.0877 57.3816 37.6192 57.7912C37.1507 58.2007 36.55 58.4271 35.9277 58.4286H34C33.318 58.4286 32.664 58.1577 32.1817 57.6754C31.6995 57.1932 31.4286 56.5391 31.4286 55.8571V46.4286C31.4306 44.6106 32.1537 42.8676 33.4392 41.5821C34.7248 40.2966 36.4677 39.5735 38.2857 39.5714H42.5714V38.7143C42.5714 38.487 42.4811 38.2689 42.3204 38.1082C42.1596 37.9474 41.9416 37.8571 41.7143 37.8571H36.5714C35.4348 37.8571 34.3447 37.4056 33.541 36.6019C32.7372 35.7982 32.2857 34.7081 32.2857 33.5714C32.2857 32.4348 32.7372 31.3447 33.541 30.541C34.3447 29.7372 35.4348 29.2857 36.5714 29.2857H41.7829C41.9486 28.1234 42.4522 27.0354 43.2311 26.1569C44.01 25.2784 45.0299 24.6481 46.164 24.3443C47.2981 24.0405 48.4964 24.0766 49.6102 24.4481C50.7239 24.8196 51.704 25.5102 52.4286 26.434C52.5582 26.5994 52.6225 26.8066 52.6094 27.0163C52.5963 27.2259 52.5066 27.4235 52.3574 27.5714L49.786 30.1429L52.3574 32.7143C52.5056 32.8624 52.5943 33.0596 52.6069 33.2687C52.6196 33.4778 52.5552 33.6843 52.426 33.8491C51.7014 34.7721 50.7217 35.4619 49.6085 35.833C48.4953 36.2041 47.2977 36.2402 46.1642 35.9368C45.0307 35.6333 44.0113 35.0037 43.2324 34.1261C42.4535 33.2485 41.9495 32.1615 41.7829 31H36.5714C35.8894 31 35.2354 31.2709 34.7532 31.7532C34.2709 32.2354 34 32.8894 34 33.5714C34 34.2534 34.2709 34.9075 34.7532 35.3897C35.2354 35.8719 35.8894 36.1429 36.5714 36.1429H41.7143C42.3963 36.1429 43.0503 36.4138 43.5326 36.896C44.0148 37.3782 44.2857 38.0323 44.2857 38.7143V39.5714H48.5714C50.3894 39.5735 52.1324 40.2966 53.4179 41.5821C54.7034 42.8676 55.4265 44.6106 55.4286 46.4286V55.8571ZM53.7143 29.2857V31H52V29.2857H53.7143ZM57.1429 31H55.4286V29.2857H57.1429V31Z" fill="white"/>
</svg>
