<svg width="113" height="146" viewBox="0 0 113 146" fill="none" xmlns="http://www.w3.org/2000/svg">
<path d="M1 36.8948C11 34.0615 33.1075 18.3361 38.5 13.8953C45.1788 8.39519 40 -2.94852 30.5 2.3953C21 7.73912 25 21.8948 36 21.8948C44 21.8948 49.5 19.395 57.5 11.395" stroke="#E9B6FF" stroke-width="2" stroke-linecap="round"/>
<circle cx="63.4238" cy="96.8945" r="49" fill="#41005C"/>
<path d="M77.9006 113.27L68.2044 96.9751L77.9006 80.6806L82.5748 96.9751L77.9006 113.27ZM56.3206 111.68L44.1379 99.6078H63.5302L73.2263 115.902L56.3206 111.68ZM56.3206 82.2207L73.177 77.998L63.4808 94.2925H44.0886L56.3206 82.2207ZM81.083 70L59.0551 75.7131L55.7733 81.3265L49.1604 81.2767L33 96.9751L49.1604 112.673L55.7733 112.624L59.0551 118.237L81.083 124L87 102.588L83.6683 97.0249L87 91.4608L81.083 70Z" fill="white"/>
</svg>
