<svg width="623" height="119" viewBox="0 0 623 119" fill="none" xmlns="http://www.w3.org/2000/svg">
<path d="M56.6701 73.1666C60.3185 79.4859 61.4937 87.9708 57.3234 94.5302C53.4159 100.676 46.329 107.713 38.7982 108.884C20.8118 111.681 2.95983 92.2916 10.081 74.6243C11.9687 69.9411 17.1583 64.6623 21.4875 62.0528C26.5204 59.019 31.2924 58.1076 37.08 57.9556C42.4557 57.8144 46.824 59.4796 51.5645 61.7313C53.946 62.8625 54.4944 64.6304 56.3607 65.8627C57.1452 66.3806 58.8498 67.81 59.5396 67.7686" stroke="#E9B6FF" stroke-width="2" stroke-linecap="round"/>
<path d="M565 36.8948C575 34.0615 597.107 18.3361 602.5 13.8953C609.179 8.39519 604 -2.94852 594.5 2.3953C585 7.73912 589 21.8948 600 21.8948C608 21.8948 613.5 19.395 621.5 11.395" stroke="#E9B6FF" stroke-width="2" stroke-linecap="round"/>
</svg>
