<svg width="183" height="222" viewBox="0 0 183 222" fill="none" xmlns="http://www.w3.org/2000/svg">
<g style="mix-blend-mode:screen">
<path d="M18.8154 64.2847C57.0631 -6.59284 155.781 26.2018 110.593 100.452C90.8711 132.892 131.607 124.197 84.405 142.967C74.8606 126.076 70.8791 121.558 72.3821 113.698C75.1048 99.4246 87.0896 91.7763 89.3022 76.4844C91.7969 59.2561 74.4161 47.9904 55.9095 62.9283C36.2686 78.7858 47.4476 84.5251 18.8154 64.2847V64.2847Z" fill="white"/>
</g>
<g style="mix-blend-mode:screen">
<path d="M94.1912 185.342C85.3486 163.097 119.838 149.597 128.603 171.664C137.398 193.799 103.064 207.656 94.1912 185.342Z" fill="white"/>
</g>
<g style="mix-blend-mode:screen">
<path d="M94.6811 139.528C91.8681 140.755 88.5586 142.118 84.69 143.66L84.0863 143.923L83.7482 143.335C82.0175 140.268 80.4665 137.613 79.1063 135.282C72.922 124.668 70.3627 120.263 71.6374 113.565C72.9673 106.581 76.5128 101.08 79.9476 95.7752C83.6235 90.087 87.424 84.1974 88.548 76.4049C89.6479 68.8189 86.7349 62.0695 80.9589 58.7912C74.0895 54.8793 64.885 56.6585 56.3532 63.5348C51.3139 67.5964 48.3343 70.9877 46.1606 73.4556C40.0669 80.3787 39.4526 79.9444 23.7572 68.7599C22.1414 67.6028 20.344 66.329 18.3589 64.9247L17.8157 64.541L18.1343 63.9609C31.3988 39.3697 53.722 24.5304 77.8264 24.2528C95.4163 24.0577 110.401 31.7789 117.894 44.9423C126.419 59.9096 124.048 79.7792 111.214 100.866C102.684 114.897 105.719 120.989 107.735 125.009C108.687 126.93 109.52 128.576 108.821 130.416C107.88 132.902 104.045 135.457 94.6733 139.548L94.6811 139.528ZM84.7284 142.026C100.244 135.842 106.411 132.53 107.421 129.867C107.881 128.638 107.269 127.385 106.401 125.657C104.239 121.341 100.979 114.808 109.935 100.069C122.475 79.4692 124.838 60.1422 116.589 45.6587C109.373 32.9791 94.8835 25.5317 77.85 25.7291C54.4768 25.9979 32.8245 40.3157 19.7648 64.0661C21.5365 65.3185 23.1463 66.4618 24.6199 67.5176C34.7556 74.7467 41.5601 76.3891 45.0334 72.4447C47.2363 69.9314 50.2784 66.4964 55.4095 62.3458C64.4458 55.0533 74.2693 53.2326 81.699 57.4554C88.0217 61.0505 91.206 68.384 90.0198 76.5957C88.8449 84.7208 84.9569 90.7466 81.1934 96.571C77.6848 102.006 74.3728 107.144 73.098 113.842C71.9317 120.003 74.2265 123.952 80.3929 134.525C81.6795 136.724 83.1192 139.199 84.7146 142.032L84.7284 142.026Z" fill="white"/>
</g>
<g style="mix-blend-mode:screen">
<path d="M118.934 195.585C115.352 197.148 111.364 197.778 107.558 197.217C101.084 196.269 96.0961 192.14 93.4933 185.615C88.7571 173.715 95.855 164.638 104.469 161.206C113.39 157.655 124.792 160.013 129.315 171.386C131.912 177.898 131.087 184.318 127.016 189.476C124.913 192.142 122.082 194.227 118.94 195.598L118.934 195.585ZM94.8834 185.057C97.2844 191.082 101.861 194.868 107.776 195.733C114.404 196.696 121.654 193.809 125.819 188.528C129.544 183.815 130.288 177.92 127.899 171.922C123.548 160.981 112.983 159.417 105.007 162.588C97.0713 165.741 90.5331 174.116 94.8834 185.057V185.057Z" fill="white"/>
</g>
<g style="mix-blend-mode:screen">
<path d="M97.4443 145.673C94.5215 146.948 91.1297 148.347 87.1788 149.924L81.1122 152.343L77.8957 146.657C76.2386 143.721 74.7492 141.17 73.4328 138.902L73.3035 138.681C66.6261 127.236 63.2853 121.49 65.0312 112.315C65.6143 109.235 66.5755 106.234 67.9842 103.136L69.3467 103.75C68.0041 106.738 67.0619 109.632 66.5055 112.587C64.8681 121.224 68.1173 126.797 74.5901 137.923L74.7194 138.144C76.0358 140.412 77.5312 142.978 79.1942 145.927L81.7663 150.473L86.6271 148.548C106.202 140.773 111.78 137.423 113.738 132.289C115.26 128.292 113.633 125.049 112.449 122.674C112.037 121.841 111.569 120.919 111.249 119.849L112.673 119.407C112.959 120.361 113.385 121.188 113.792 122.007C115.037 124.485 116.9 128.23 115.137 132.838C113.414 137.347 109.373 140.516 97.4623 145.714L97.4443 145.673Z" fill="white"/>
<path d="M83.2449 70.2408L81.7804 70.5533C81.6284 69.8682 81.4215 69.207 81.152 68.5896C80.5711 67.2585 79.7243 66.1416 78.6295 65.2799C76.1117 63.2913 72.376 62.9288 68.3567 64.2745L67.8813 62.8484C72.3851 61.3402 76.6325 61.7898 79.5495 64.0942C80.838 65.1001 81.8355 66.4127 82.5182 67.977C82.8237 68.6768 83.0725 69.434 83.2329 70.2134L83.2449 70.2408Z" fill="white"/>
<path d="M44.2596 83.8089C44.1361 83.8628 44.0126 83.9167 43.9028 83.9646C37.2617 86.6017 32.5231 83.23 19.8854 74.2232C18.2696 73.0662 16.4781 71.8061 14.5068 70.3958L9.09475 66.5666L12.2488 60.7305C20.124 46.1363 31.0836 34.4922 43.9564 27.0445L44.7002 28.3371C32.0625 35.6496 21.2942 47.0958 13.5589 61.4492L11.042 66.1251L15.3677 69.1869C17.3468 70.5775 19.1305 71.8573 20.7463 73.0144C32.9119 81.6881 37.4629 84.9293 43.3511 82.5882C46.0945 81.5379 47.9439 79.3749 50.1176 76.907C50.9586 75.9519 51.8777 74.9137 52.9631 73.7702L54.0493 74.7991C52.9852 75.9169 52.0799 76.9491 51.2526 77.8982C49.0497 80.4115 47.1257 82.5907 44.2716 83.8363L44.2596 83.8089Z" fill="white"/>
<path d="M127.544 80.3437L126.103 79.9601C129.384 67.5667 128.873 56.2895 124.568 46.4235C123.519 44.0222 122.232 41.7089 120.737 39.5189L121.968 38.6713C123.507 40.9239 124.836 43.3332 125.92 45.8169C130.364 55.9985 130.904 67.6058 127.525 80.3359L127.544 80.3437Z" fill="white"/>
</g>
<g style="mix-blend-mode:screen">
<path d="M120.744 202.129C109.146 206.733 94.0495 203.733 87.6357 189.037C87.4979 188.721 87.3602 188.406 87.2362 188.084C80.8466 172.021 90.4792 159.47 101.973 154.927C110.73 151.449 120.443 152.519 127.313 157.704L126.413 158.898C119.95 154.008 110.796 153.021 102.531 156.317C91.7332 160.622 82.6166 172.409 88.6323 187.54C88.7641 187.842 88.8821 188.15 89.0138 188.452C95.0444 202.27 109.265 205.097 120.192 200.752L120.75 202.143L120.744 202.129Z" fill="white"/>
</g>
</svg>
