<svg width="142" height="181" viewBox="0 0 142 181" fill="none" xmlns="http://www.w3.org/2000/svg">
<g style="mix-blend-mode:screen">
<path d="M51.4371 21.6454C114.321 -1.38534 157.688 73.4542 88.6242 94.7573C58.4628 104.077 88.613 121.123 48.8833 106.783C52.2549 91.0072 52.268 85.9993 57.537 81.9356C67.1008 74.5524 78.7775 76.3993 88.5857 68.1007C99.637 58.7523 95.0294 42.1574 75.2742 41.2522C54.306 40.2942 58.1001 50.0299 51.4371 21.6454V21.6454Z" fill="#E9B6FF"/>
</g>
<g style="mix-blend-mode:screen">
<path d="M31.6124 138.556C38.3726 119.835 67.2838 130.446 60.5735 149.014C53.844 167.641 24.833 157.337 31.6124 138.556Z" fill="#E9B6FF"/>
</g>
<g style="mix-blend-mode:screen">
<path d="M57.178 110.309C54.7502 109.522 51.9389 108.546 48.6811 107.372L48.16 107.203L48.2735 106.651C48.8873 103.788 49.3859 101.28 49.8241 99.0794C51.8267 89.0628 52.6619 84.9103 57.1485 81.4436C61.8268 77.8296 67.0663 76.3605 72.1292 74.9519C77.5534 73.438 83.1661 71.8673 88.162 67.6365C93.029 63.521 94.937 57.7138 93.1491 52.4887C91.03 46.2665 84.3197 42.2992 75.218 41.8755C69.8419 41.6253 66.1176 42.0936 63.404 42.4313C55.794 43.3809 55.6511 42.7719 52.0478 27.1567C51.6799 25.5457 51.2634 23.7618 50.802 21.7933L50.6755 21.255L51.1936 21.0695C73.008 13.0758 95.0845 16.1465 110.241 29.2632C121.298 38.8396 126.368 51.9071 123.775 64.2317C120.829 78.2482 108.398 89.3089 88.7843 95.3591C75.7396 99.3897 74.2697 104.855 73.3079 108.469C72.842 110.189 72.4529 111.673 71.0026 112.433C69.0467 113.461 65.251 112.938 57.1623 110.317L57.178 110.309ZM49.6058 106.376C62.6725 111.082 68.3372 112.42 70.4342 111.32C71.3984 110.808 71.7079 109.691 72.1201 108.136C73.1545 104.258 74.7273 98.3943 88.4277 94.1574C107.59 88.2488 119.717 77.5214 122.568 63.9584C125.066 52.0873 120.154 39.4634 109.442 30.1951C94.7453 17.4761 73.3739 14.4506 52.1505 22.0339C52.5628 23.7903 52.9345 25.3895 53.2697 26.8591C55.593 36.947 58.923 41.7208 63.2596 41.1806C66.0165 40.8307 69.8039 40.3698 75.2861 40.6151C84.9314 41.0579 92.0498 45.3406 94.3463 52.0653C96.2998 57.789 94.2387 64.1093 88.973 68.5667C83.762 72.9765 78.0197 74.5837 72.4659 76.1341C67.2852 77.5831 62.3913 78.9548 57.9048 82.4215C53.782 85.6134 53.0337 89.3362 51.0426 99.3172C50.6309 101.395 50.1623 103.73 49.5939 106.373L49.6058 106.376Z" fill="#E9B6FF"/>
</g>
<g style="mix-blend-mode:screen">
<path d="M41.3671 158.572C38.2761 157.57 35.4461 155.763 33.3862 153.316C29.879 149.157 29.0509 143.837 31.0284 138.34C34.6412 128.322 44.0634 126.585 51.3175 129.198C58.8282 131.906 64.6254 139.661 61.1703 149.233C59.1967 154.718 55.1438 158.26 49.7662 159.226C46.9869 159.726 44.0753 159.463 41.3633 158.584L41.3671 158.572ZM32.2012 138.759C30.3737 143.834 31.1351 148.713 34.3401 152.513C37.9348 156.766 44.0397 158.967 49.5431 157.976C54.4608 157.096 58.1736 153.837 59.9934 148.786C63.3177 139.577 57.6033 132.779 50.8902 130.355C44.2126 127.942 35.5255 129.551 32.2012 138.759V138.759Z" fill="#E9B6FF"/>
</g>
<g style="mix-blend-mode:screen">
<path d="M55.5094 115.658C52.9868 114.84 50.1045 113.841 46.7756 112.644L41.6658 110.805L42.7984 105.493C43.3857 102.752 43.8654 100.342 44.2963 98.2047L44.3379 97.9957C46.4913 87.1905 47.5797 81.772 53.7248 77.0237C55.7862 75.4277 58.0387 74.09 60.6235 72.9384L61.133 74.0719C58.6503 75.1911 56.4682 76.4732 54.4929 78.0054C48.7116 82.479 47.6613 87.7397 45.5564 98.2335L45.5148 98.4425C45.0839 100.58 44.6003 103.001 44.0092 105.754L43.1039 110.002L47.1911 111.483C63.6619 117.436 68.9811 118.426 73.0302 116.31C76.1817 114.661 76.9564 111.746 77.5291 109.615C77.7315 108.869 77.949 108.036 78.3395 107.195L79.4697 107.705C79.1217 108.456 78.9312 109.205 78.7326 109.939C78.1411 112.169 77.2362 115.527 73.5986 117.423C70.0394 119.28 65.7775 119.024 55.4979 115.693L55.5094 115.658Z" fill="#E9B6FF"/>
<path d="M88.2581 60.8759L87.1742 60.2629C87.4574 59.7527 87.6931 59.2271 87.8658 58.6942C88.238 57.5454 88.3267 56.3833 88.1203 55.2433C87.6495 52.6174 85.5241 50.3321 82.2803 48.9538L82.7706 47.8041C86.4056 49.3484 88.8015 51.9699 89.3467 55.0125C89.5941 56.349 89.4914 57.716 89.0539 59.0661C88.8582 59.6701 88.5956 60.2786 88.2658 60.8522L88.2581 60.8759Z" fill="#E9B6FF"/>
<path d="M56.5117 47.8273C56.4051 47.7927 56.2985 47.7582 56.2038 47.7275C50.6161 45.7075 49.5254 40.9962 46.6248 28.4224C46.2569 26.8113 45.8366 25.0393 45.387 23.0746L44.1295 17.7073L49.3103 15.8135C62.2585 11.0712 75.5001 9.86566 87.6189 12.327L87.3692 13.5417C75.4713 11.1257 62.4579 12.3135 49.7296 16.9832L45.5849 18.5061L46.5894 22.7968C47.0546 24.7535 47.4593 26.5335 47.8271 28.1446C50.6176 40.2508 51.6634 44.7774 56.6192 46.5665C58.9059 47.4253 61.2496 47.0986 63.9632 46.7609C65.0133 46.63 66.1577 46.4905 67.4639 46.3772L67.5727 47.6164C66.2941 47.7255 65.1615 47.8689 64.1232 48.0036C61.3664 48.3535 58.9673 48.6492 56.504 47.8509L56.5117 47.8273Z" fill="#E9B6FF"/>
<path d="M110.263 91.5878L109.578 90.5542C118.453 84.6492 124.352 77.3479 127.112 68.8329C127.783 66.7603 128.257 64.6107 128.534 62.4234L129.768 62.5745C129.483 64.8249 128.982 67.0574 128.288 69.2009C125.44 77.9884 119.378 85.5115 110.255 91.5722L110.263 91.5878Z" fill="#E9B6FF"/>
</g>
<g style="mix-blend-mode:screen">
<path d="M38.8857 163.644C29.128 160.116 21.3852 149.925 25.4953 137.241C25.5836 136.969 25.6719 136.696 25.772 136.428C30.6506 122.907 43.5664 120.405 53.2255 123.914C60.5942 126.577 66.0501 132.598 67.4671 139.614L66.2487 139.86C64.9217 133.253 59.7681 127.592 52.8063 125.087C43.7121 121.813 31.5388 124.124 26.9409 136.859C26.8565 137.12 26.7602 137.376 26.6758 137.637C22.8113 149.563 30.1043 159.163 39.3012 162.483L38.8819 163.656L38.8857 163.644Z" fill="#E9B6FF"/>
</g>
</svg>
