<svg width="43" height="50" viewBox="0 0 43 50" fill="none" xmlns="http://www.w3.org/2000/svg">
<path d="M27.8855 4.58741L30.0666 0.652622C30.0946 0.602141 30.1123 0.546643 30.1189 0.489296C30.1254 0.431949 30.1206 0.373876 30.1047 0.318392C30.0888 0.262909 30.0621 0.211102 30.0262 0.165929C29.9902 0.120757 29.9458 0.0831029 29.8953 0.055118C29.7933 -0.00139998 29.6731 -0.0151038 29.5611 0.0170215C29.449 0.0491467 29.3543 0.124469 29.2978 0.226419L27.0926 4.20481C25.211 3.37997 23.1789 2.95411 21.1245 2.95411C19.0701 2.95411 17.038 3.37997 15.1565 4.20481L12.9512 0.226419C12.8947 0.124469 12.8 0.0491467 12.6879 0.0170215C12.5759 -0.0151038 12.4556 -0.00139997 12.3537 0.055118C12.2517 0.111636 12.1764 0.206339 12.1443 0.318392C12.1122 0.430446 12.1259 0.550672 12.1824 0.652622L14.3635 4.58743C12.2873 5.61083 10.5331 7.18625 9.29323 9.14089C8.05337 11.0955 7.37577 13.3539 7.33476 15.6682H34.9143C34.8733 13.3539 34.1957 11.0955 32.9558 9.14087C31.716 7.18623 29.9617 5.61081 27.8855 4.58741V4.58741ZM14.7599 10.6219C14.5321 10.6219 14.3095 10.5543 14.1201 10.4278C13.9307 10.3012 13.7831 10.1214 13.6959 9.91095C13.6087 9.70052 13.5859 9.46896 13.6304 9.24557C13.6748 9.02217 13.7845 8.81697 13.9456 8.65592C14.1066 8.49486 14.3118 8.38517 14.5352 8.34074C14.7586 8.2963 14.9902 8.31911 15.2006 8.40627C15.411 8.49344 15.5909 8.64104 15.7174 8.83043C15.844 9.01981 15.9115 9.24247 15.9115 9.47024C15.9112 9.77557 15.7897 10.0683 15.5738 10.2842C15.3579 10.5001 15.0652 10.6215 14.7599 10.6219V10.6219ZM27.4891 10.6219C27.2613 10.6219 27.0387 10.5543 26.8493 10.4278C26.6599 10.3012 26.5123 10.1214 26.4251 9.91095C26.338 9.70052 26.3152 9.46896 26.3596 9.24557C26.404 9.02217 26.5137 8.81697 26.6748 8.65592C26.8358 8.49486 27.041 8.38517 27.2644 8.34074C27.4878 8.2963 27.7194 8.31911 27.9298 8.40627C28.1402 8.49344 28.3201 8.64104 28.4466 8.83043C28.5732 9.01981 28.6407 9.24247 28.6407 9.47024C28.6404 9.77557 28.5189 10.0683 28.303 10.2842C28.0871 10.5001 27.7944 10.6215 27.4891 10.6219V10.6219ZM7.33455 36.7471C7.33455 37.6313 7.6858 38.4793 8.31101 39.1045C8.93623 39.7297 9.7842 40.081 10.6684 40.081H12.8808V46.9002C12.8797 47.3069 12.9588 47.7098 13.1137 48.0858C13.2685 48.4618 13.4961 48.8036 13.7832 49.0916C14.0704 49.3795 14.4116 49.608 14.7872 49.7639C15.1628 49.9198 15.5655 50 15.9722 50C16.3789 50 16.7816 49.9198 17.1572 49.7639C17.5328 49.608 17.874 49.3795 18.1611 49.0916C18.4483 48.8036 18.6758 48.4618 18.8307 48.0858C18.9856 47.7098 19.0647 47.3069 19.0636 46.9002V40.081H23.1854V46.9002C23.1843 47.3069 23.2634 47.7098 23.4183 48.0858C23.5731 48.4618 23.8007 48.8036 24.0878 49.0916C24.375 49.3795 24.7162 49.608 25.0918 49.7639C25.4674 49.9198 25.8701 50 26.2768 50C26.6835 50 27.0861 49.9198 27.4618 49.7639C27.8374 49.608 28.1786 49.3795 28.4657 49.0916C28.7529 48.8036 28.9804 48.4618 29.1353 48.0858C29.2902 47.7098 29.3693 47.3069 29.3682 46.9002V40.081H31.5807C32.4649 40.081 33.3128 39.7297 33.9381 39.1045C34.5633 38.4793 34.9145 37.6313 34.9145 36.7471V16.7592H7.33455V36.7471ZM3.09143 16.2288C2.27182 16.2297 1.48604 16.5557 0.906489 17.1353C0.326937 17.7148 0.000937563 18.5006 1.13628e-05 19.3202V32.201C-0.00109121 32.6077 0.0780573 33.0106 0.232923 33.3866C0.387788 33.7626 0.615326 34.1044 0.902502 34.3924C1.18968 34.6803 1.53085 34.9088 1.90646 35.0647C2.28208 35.2206 2.68477 35.3008 3.09145 35.3008C3.49813 35.3008 3.90081 35.2206 4.27643 35.0647C4.65204 34.9088 4.99321 34.6803 5.28039 34.3924C5.56756 34.1044 5.7951 33.7626 5.94997 33.3866C6.10483 33.0106 6.18398 32.6077 6.18288 32.201V19.3202C6.18195 18.5006 5.85595 17.7148 5.27639 17.1353C4.69683 16.5557 3.91105 16.2297 3.09143 16.2288V16.2288ZM39.1575 16.2288C38.3379 16.2297 37.5521 16.5557 36.9726 17.1353C36.393 17.7148 36.067 18.5006 36.0661 19.3202V32.201C36.065 32.6077 36.1441 33.0106 36.299 33.3866C36.4539 33.7626 36.6814 34.1044 36.9686 34.3924C37.2558 34.6803 37.5969 34.9088 37.9725 35.0647C38.3482 35.2206 38.7508 35.3008 39.1575 35.3008C39.5642 35.3008 39.9669 35.2206 40.3425 35.0647C40.7181 34.9088 41.0593 34.6803 41.3465 34.3924C41.6337 34.1044 41.8612 33.7626 42.0161 33.3866C42.1709 33.0106 42.2501 32.6077 42.249 32.201V19.3202C42.248 18.5006 41.922 17.7148 41.3425 17.1353C40.7629 16.5557 39.9772 16.2297 39.1575 16.2288V16.2288Z" fill="#5F0087"/>
</svg>
