<svg width="50" height="50" viewBox="0 0 50 50" fill="none" xmlns="http://www.w3.org/2000/svg">
<path d="M24.9995 13.6019C18.7057 13.6082 13.6078 18.7061 13.6016 24.9978C13.6078 31.2894 18.7057 36.3874 24.9974 36.3936C31.2891 36.3874 36.387 31.2894 36.3932 24.9978C36.3828 18.7082 31.287 13.6124 24.9995 13.6019ZM41.3536 14.6165C44.2224 14.6165 46.5495 12.2894 46.5495 9.42069C46.5495 6.55194 44.2224 4.22485 41.3536 4.22485C38.4849 4.22485 36.1578 6.55194 36.1578 9.42069C36.1578 12.2894 38.4849 14.6165 41.3536 14.6165Z" fill="#5F0087"/>
<path d="M25 50C38.7896 50 50 38.7896 50 25C50 21.3958 49.2479 17.9104 47.7542 14.6396L47.7521 14.6375L47.5375 14.1583L47.1854 14.55C46.3354 15.5167 45.2521 16.2583 44.05 16.7083L43.7187 16.8354L43.8562 17.1583C44.8437 19.4646 45.4187 22.15 45.4187 24.9687C45.4187 24.9771 45.4187 24.9833 45.4187 24.9896C45.4187 36.25 36.2583 45.4187 24.9896 45.4187C13.7208 45.4187 4.56875 36.2583 4.56875 24.9979C4.56875 13.7375 13.7396 4.56875 24.9979 4.56875C28.0542 4.56875 31.0042 5.23333 33.7479 6.54167L34.0708 6.69792L34.2083 6.375C34.7375 5.1625 35.5208 4.14583 36.4979 3.36042L36.5125 3.34792L36.9229 3.01667L36.4542 2.77292C33.1458 1.025 29.2208 0 25.0583 0C25.0396 0 25.0187 0 25 0C11.2104 0 0 11.2104 0 25C0 38.7896 11.2104 50 25 50Z" fill="#5F0087"/>
</svg>
