<svg width="41" height="50" viewBox="0 0 41 50" fill="none" xmlns="http://www.w3.org/2000/svg">
<path d="M34.0018 26.5635C34.0718 34.1299 40.6401 36.6481 40.7125 36.6803C40.657 36.8574 39.6633 40.2687 37.2525 43.7915C35.1686 46.8373 33.0053 49.8719 29.5984 49.9355C26.2507 49.9967 25.1741 47.9497 21.3463 47.9497C17.5196 47.9497 16.3239 49.8719 13.1545 49.9967C9.86554 50.1214 7.361 46.7025 5.25973 43.6683C0.966227 37.4607 -2.31507 26.1269 2.09072 18.4764C4.27932 14.6771 8.19129 12.2716 12.4369 12.2096C15.6663 12.148 18.7146 14.3821 20.6886 14.3821C22.6615 14.3821 26.3658 11.6952 30.2601 12.0897C31.8905 12.1577 36.4665 12.7481 39.4049 17.0496C39.1687 17.1965 33.9451 20.2376 34.0018 26.5635ZM27.7101 7.98331C29.456 5.86996 30.6312 2.92713 30.3108 0C27.7938 0.101019 24.7503 1.67707 22.9453 3.78962C21.3274 5.65987 19.9107 8.65422 20.2926 11.5234C23.0982 11.7407 25.9638 10.0979 27.7101 7.98331Z" fill="#5F0087"/>
</svg>
