<svg width="50" height="45" viewBox="0 0 50 45" fill="none" xmlns="http://www.w3.org/2000/svg">
<path d="M29.4756 22.2096C29.4756 24.6773 27.4751 26.6778 25.0073 26.6778C22.5396 26.6778 20.5391 24.6773 20.5391 22.2096C20.5391 19.7419 22.5396 17.7413 25.0073 17.7413C27.4751 17.7413 29.4756 19.7419 29.4756 22.2096Z" fill="#5F0087"/>
<path d="M25.0056 32.4439C24.6329 32.4532 24.1935 32.4588 23.7522 32.4588C18.5405 32.4588 13.5142 31.6708 8.78448 30.208L9.14232 30.3025C6.6375 29.4941 4.4664 28.302 2.57713 26.7743L2.61606 26.8039C1.15322 25.7453 0.168718 24.1063 0.00185405 22.23L0 22.2059C0 19.2505 3.23902 16.3582 8.6788 14.4708C13.3362 12.9375 18.6962 12.0531 24.2621 12.0531C24.5198 12.0531 24.7775 12.055 25.0352 12.0587H24.9963C25.2114 12.055 25.4635 12.0531 25.7175 12.0531C31.2148 12.0531 36.5081 12.9227 41.4695 14.532L41.108 14.43C43.5275 15.2161 45.6282 16.3508 47.4729 17.7932L47.4284 17.7599C48.8653 18.7722 49.835 20.363 49.9981 22.1855L50 22.2096C50 25.2799 46.3772 28.3873 40.5388 30.3192C36.1577 31.6708 31.1202 32.4495 25.9011 32.4495C25.5859 32.4495 25.2725 32.4458 24.9592 32.4402H25.0056V32.4439ZM25.0056 14.2001C24.809 14.1964 24.5754 14.1964 24.3418 14.1964C19.0003 14.1964 13.8553 15.0344 9.02922 16.5863L9.38334 16.488C4.38112 18.2326 2.13772 20.6188 2.13772 22.2114C2.13772 23.8671 4.54984 26.4757 9.83758 28.2816C14.0073 29.5739 18.8001 30.3192 23.7671 30.3192C24.2028 30.3192 24.6366 30.3136 25.0686 30.3025L25.0056 30.3044C25.2763 30.3099 25.5951 30.3136 25.914 30.3136C30.8903 30.3136 35.6923 29.572 40.218 28.1945L39.8713 28.2853C45.3593 26.4609 47.8808 23.8523 47.8808 22.204C47.6917 21.0211 47.0243 20.0237 46.0898 19.3951L46.075 19.3859C44.4694 18.1362 42.5968 17.1295 40.5685 16.4676L40.4387 16.4305C36.0483 15.0103 30.996 14.1908 25.7546 14.1908C25.4913 14.1908 25.2299 14.1927 24.9685 14.1964H25.0074L25.0056 14.2001Z" fill="#5F0087"/>
<path d="M14.867 44.4805C14.8373 44.4805 14.8021 44.4823 14.7687 44.4823C13.9288 44.4823 13.1409 44.2617 12.4604 43.8761L12.4845 43.8891C9.92965 42.4058 9.03971 38.1563 10.1113 32.5033C11.4036 26.7039 13.4987 21.5756 16.3113 16.9293L16.1834 17.1592C18.9626 12.2367 22.3203 8.02618 26.2416 4.4182L26.2787 4.38483C27.9899 2.82001 29.9923 1.53515 32.1875 0.624815L32.3229 0.574755C33.0775 0.211362 33.9637 0 34.9 0C35.8289 0 36.7095 0.209508 37.4957 0.582171L37.4586 0.567339C40.1191 2.09878 41.0017 6.79694 39.7539 12.8152C38.419 18.3162 36.3832 23.1608 33.706 27.5716L33.8358 27.3435C31.1437 32.2197 27.8861 36.395 24.0723 39.9863L24.0464 40.0104C22.2702 41.6364 20.1844 42.9583 17.8891 43.8705L17.7519 43.9187C16.899 44.2543 15.9127 44.4601 14.88 44.4842H14.8688L14.867 44.4805ZM17.1011 17.695L18.0263 18.229C15.4658 22.4562 13.4561 27.3621 12.2676 32.5794L12.2046 32.9131C11.2164 38.1211 12.1693 41.2526 13.5395 42.0461C13.8936 42.2352 14.3126 42.3446 14.7576 42.3446C14.7947 42.3446 14.8336 42.3446 14.8707 42.3428H14.8651C16.6357 42.3428 19.4224 41.2211 22.6447 38.4085C26.3083 34.947 29.4194 30.9496 31.8631 26.5352L31.9891 26.2849C34.4328 22.2875 36.3851 17.658 37.5976 12.7373L37.6681 12.3999C38.8343 6.7302 37.8275 3.25942 36.3962 2.4288C35.9549 2.25452 35.4432 2.15441 34.9093 2.15441C34.2344 2.15441 33.5966 2.31571 33.033 2.59938L33.0571 2.58825C30.9842 3.45039 29.2043 4.60175 27.6673 6.01083L27.6803 5.9997C23.8962 9.48717 20.6868 13.5216 18.1579 17.9917L18.03 18.2364L17.1011 17.695Z" fill="#5F0087"/>
<path d="M35.1453 44.5065C32.724 44.5065 29.6574 43.0474 26.4499 40.2867C22.4173 36.6101 19.0021 32.3477 16.3193 27.6161L16.1858 27.3621C13.5346 23.007 11.4562 17.9528 10.2251 12.5761L10.1583 12.2331C9.85797 10.9185 9.68555 9.41121 9.68555 7.86308C9.68555 6.88599 9.75415 5.92745 9.88578 4.98745L9.87281 5.09498C10.0304 3.24464 11.0001 1.65016 12.4166 0.647116L12.4351 0.634138C15.0864 -0.904723 19.601 0.678635 24.1935 4.76496C27.9424 8.31361 31.1425 12.3907 33.6825 16.8904L33.816 17.1463C36.4636 21.4051 38.5568 26.3442 39.8268 31.6042L39.8973 31.949C40.1995 33.2635 40.3738 34.7746 40.3738 36.3246C40.3738 37.3944 40.2922 38.4438 40.1327 39.4691L40.1476 39.3541C39.9566 41.2489 38.9536 42.8786 37.4981 43.9076L37.4777 43.9206C36.8325 44.2896 36.0612 44.5065 35.2399 44.5065C35.2065 44.5065 35.1732 44.5065 35.1398 44.5047H35.1453V44.5065ZM18.0362 26.2942C20.7394 31.0609 24.0007 35.1398 27.8089 38.6347L27.846 38.6681C31.8618 42.1222 35.0471 42.8694 36.4265 42.0684C37.8597 41.2415 38.9091 37.8486 37.8245 32.3662C36.5229 27.008 34.5113 22.2913 31.8563 18.014L31.9768 18.2216C29.42 13.6681 26.3646 9.76348 22.8029 6.3854L22.7807 6.365C18.4533 2.51971 14.9473 1.65572 13.5142 2.48262C12.6372 3.19643 12.0606 4.24768 11.9846 5.43613V5.4491C11.8826 6.17218 11.8251 7.0065 11.8251 7.85566C11.8251 9.25917 11.9846 10.6238 12.2849 11.9364L12.2608 11.8141C13.5086 17.2872 15.4998 22.1207 18.1604 26.5055L18.038 26.2886L18.0362 26.2942Z" fill="#5F0087"/>
</svg>
