<svg width="50" height="45" viewBox="0 0 50 45" fill="none" xmlns="http://www.w3.org/2000/svg">
<path fill-rule="evenodd" clip-rule="evenodd" d="M30.8054 0C52.7831 15.0627 45.6755 31.6704 45.6755 31.6704C45.6755 31.6704 51.9256 38.7805 49.3981 45.0005C49.3981 45.0005 46.8206 40.6455 42.498 40.6455C38.3305 40.6455 35.8829 45.0005 27.4978 45.0005C8.8276 45.0005 0 29.2803 0 29.2803C16.8202 40.433 28.3053 32.5354 28.3053 32.5354C20.7277 28.1028 4.60755 6.90008 4.60755 6.90008C18.6452 18.9427 24.7128 22.1203 24.7128 22.1203C21.0928 19.1027 10.9351 4.35505 10.9351 4.35505C19.0602 12.6476 35.2054 24.2178 35.2054 24.2178C39.7905 11.4126 30.8054 0 30.8054 0Z" fill="#5F0087"/>
</svg>
