<svg width="623" height="223" viewBox="0 0 623 223" fill="none" xmlns="http://www.w3.org/2000/svg">
<path d="M56.6721 91.1666C60.3205 97.4859 61.4957 105.971 57.3253 112.53C53.4178 118.676 46.331 125.713 38.8001 126.884C20.8137 129.681 2.96178 110.292 10.083 92.6243C11.9706 87.9411 17.1603 82.6623 21.4895 80.0528C26.5224 77.019 31.2943 76.1076 37.082 75.9556C42.4577 75.8144 46.8259 77.4796 51.5664 79.7313C53.9479 80.8625 54.4964 82.6304 56.3627 83.8627C57.1471 84.3806 58.8518 85.81 59.5416 85.7686" stroke="#E9B6FF" stroke-width="2" stroke-linecap="round"/>
<path d="M565 54.8948C575 52.0615 597.107 36.3361 602.5 31.8953C609.179 26.3952 604 15.0515 594.5 20.3953C585 25.7391 589 39.8948 600 39.8948C608 39.8948 613.5 37.395 621.5 29.395" stroke="#E9B6FF" stroke-width="2" stroke-linecap="round"/>
<path d="M332.606 69.8394C331.537 64.945 331.544 60.3291 333.075 55.8015C336.43 45.8838 343.617 40.1735 353.485 37.635C362.257 35.3778 370.966 36.301 379.469 39.0117C390.865 42.6451 400.792 48.6085 407.89 58.501C413.531 66.3631 416.247 75.1132 413.973 84.7399C411.116 96.8342 402.939 103.925 391.145 106.652C377.882 109.718 365.698 106.457 354.479 99.0887C352.577 97.8369 350.783 95.6054 348.829 95.4686C346.956 95.3392 344.975 97.4331 342.969 98.3889C341.941 98.8822 341.497 99.5818 341.167 100.603C335.076 119.491 329.651 138.576 324.297 157.688C323.754 159.619 324.282 159.594 325.884 159.259C343.337 155.65 360.801 152.1 378.261 148.527C384.181 147.315 389.675 150.165 392.368 155.856C394.719 160.83 393.188 167.426 388.88 170.969C387.312 172.257 385.471 172.827 383.522 173.223C361.957 177.607 340.4 182.038 318.823 186.367C317.075 186.715 316.168 187.335 315.766 189.138C315.103 192.107 314.127 195.007 313.29 197.936C312.277 201.458 311.755 201.694 308.243 200.418C302.711 198.405 297.188 196.343 291.526 194.709C280.396 191.499 268.993 189.401 257.744 186.687C241.218 182.702 224.752 178.514 208.809 172.519C206.041 171.481 204.433 169.005 204.792 166.008C205.304 161.829 206.662 157.827 207.739 153.782C214.951 126.622 222.285 99.4926 229.545 72.3417C231.383 65.4743 233.147 58.5854 234.864 51.6878C235.198 50.3453 235.777 49.4198 236.975 48.6942C238.352 47.8578 239.777 47.0747 240.937 45.9027C241.857 44.9706 242.964 45.4505 243.996 45.7666C255.589 49.3057 267.173 52.8537 278.768 56.3876C292.701 60.6351 306.821 64.1353 321.062 67.1853C324.82 67.9908 328.558 68.9032 332.602 69.8326L332.606 69.8394Z" fill="white"/>
<path d="M311.856 187.925C311.096 190.499 310.371 192.681 309.825 194.911C309.528 196.129 308.998 196.181 307.971 195.81C302.746 193.926 297.454 192.266 292.121 190.707C279.831 187.115 267.319 184.429 254.853 181.548C240.531 178.236 226.34 174.478 212.529 169.379C211.443 168.979 211.299 168.569 211.59 167.507C219.381 139.309 227.149 111.11 234.891 82.9029C237.725 72.588 240.524 62.2572 243.252 51.9167C243.64 50.4489 244.099 50.1775 245.564 50.6331C259.018 54.8011 272.464 58.9728 285.968 62.9692C300.129 67.1541 314.607 70.0931 328.983 73.4146C330.3 73.7192 331.597 74.1308 332.914 74.4182C334.675 74.8087 335.133 75.8821 334.83 77.5562C333.76 83.4916 332.442 89.3652 330.874 95.1873C330.134 97.9417 330.903 98.9941 333.796 99.3404C336.269 99.6361 336.736 100.43 335.975 102.85C330.183 121.261 324.714 139.768 319.801 158.439C319.357 160.133 318.597 160.83 316.908 161.133C312.062 162.002 307.244 163.059 302.417 164.052C301.7 164.202 300.982 164.318 300.396 164.885C295.571 169.507 290.361 173.727 286.004 178.833C283.671 181.563 284.175 182.995 287.728 183.785C294.068 185.189 300.222 187.376 306.684 188.29C308.328 188.522 309.875 188.222 311.86 187.932L311.856 187.925Z" fill="#5F0087"/>
<path d="M335.546 94.1266C337.044 88.5041 338.082 83.3451 339.086 78.1701C339.416 76.459 339.122 75.0266 338.414 73.5004C336.096 68.4913 335.303 63.2546 336.87 57.8956C339.282 49.6774 344.998 44.6404 353.01 42.1864C361.32 39.6398 369.592 40.53 377.764 43.0017C387.617 45.9815 396.284 50.9111 402.847 59.0005C408.581 66.0704 411.574 74.0545 409.934 83.3147C408.903 89.1372 405.696 93.4858 400.658 96.4738C393.346 100.808 385.372 101.605 377.137 100.534C368.233 99.3719 360.184 95.9646 352.994 90.6291C350.166 88.5327 347.43 88.1878 344.32 89.8179C341.579 91.2518 338.764 92.551 335.542 94.1198L335.546 94.1266Z" fill="#5F0087"/>
<path d="M306.62 167.544C313.039 166.23 319.239 164.954 325.447 163.685C340.185 160.675 354.926 157.672 369.668 154.67C372.225 154.148 374.515 156.345 374.155 158.997C374.021 159.986 373.117 159.696 372.568 159.851C361.555 162.842 350.399 165.209 339.196 167.37C329.923 169.157 320.648 170.915 311.376 172.72C310.369 172.914 309.664 173.062 309.372 171.698C309.039 170.147 307.886 168.998 306.618 167.549L306.62 167.544Z" fill="#5F0087"/>
<path d="M312.037 183.452C312.666 181.207 312.627 179.161 311.576 177.036C315.59 176.266 319.489 175.525 323.39 174.779C340.287 171.52 357.224 168.453 373.855 163.951C375.084 163.619 375.41 164.009 375.539 165.082C375.619 165.75 375.84 166.397 375.978 167.06C376.456 169.304 375.691 170.497 373.453 170.954C359.836 173.73 346.213 176.504 332.59 179.278C325.788 180.665 318.986 182.046 312.034 183.462L312.037 183.452Z" fill="#5F0087"/>
<path d="M300.296 182.689C298.497 182.807 297.581 181.372 297.564 179.078C297.561 178.744 297.421 178.414 297.389 178.082C297.272 176.759 295.992 175.256 296.725 174.268C298.024 172.51 299.919 171.188 301.558 169.677C301.875 169.386 302.19 169.468 302.464 169.69C304.088 171.041 305.741 172.411 305.636 174.811C305.584 175.982 305.973 176.826 306.81 177.667C308.471 179.334 308.568 181.188 307.462 183.247C307.069 183.984 306.614 183.934 305.975 183.802C304.318 183.459 302.658 183.15 300.294 182.694L300.296 182.689Z" fill="#5F0087"/>
<path d="M276.954 122.681C265.403 119.267 253.852 115.853 242.301 112.44C241.719 112.268 241.107 112.138 240.568 111.877C239.53 111.372 239.076 110.48 239.416 109.366C239.754 108.262 240.578 107.731 241.753 107.925C242.286 108.015 242.801 108.184 243.321 108.338C266.49 115.185 289.655 122.031 312.824 128.878C313.406 129.05 313.997 129.213 314.551 129.462C315.573 129.922 315.903 130.834 315.651 131.822C315.374 132.91 314.536 133.51 313.372 133.392C312.775 133.329 312.192 133.1 311.61 132.928C300.059 129.514 288.508 126.101 276.957 122.687L276.954 122.681Z" fill="white"/>
<path d="M273.15 145.647C280.875 147.93 288.6 150.213 296.325 152.496C296.777 152.63 297.242 152.739 297.684 152.909C298.878 153.363 299.392 154.262 299.046 155.471C298.704 156.687 297.781 157.228 296.542 156.907C294.839 156.471 293.161 155.936 291.471 155.436C277.451 151.293 263.431 147.15 249.41 143.006C248.958 142.873 248.505 142.722 248.048 142.604C246.606 142.245 245.649 141.426 246.105 139.865C246.56 138.326 247.758 138.115 249.204 138.559C252.506 139.569 255.824 140.527 259.13 141.504C263.804 142.885 268.477 144.266 273.15 145.647V145.647Z" fill="white"/>
<path d="M310.843 86.0803C314.804 87.2509 318.752 88.446 322.724 89.5803C324.205 90.001 325.309 90.7229 324.856 92.409C324.4 94.1056 323.072 94.1993 321.592 93.7563C318.743 92.8973 315.854 92.1511 313.037 91.1829C311.626 90.6981 311.209 91.0949 310.88 92.4389C309.818 96.7772 308.604 101.076 307.489 105.404C307.089 106.948 306.37 108.216 304.597 107.732C302.819 107.246 302.88 105.755 303.29 104.237C304.495 99.7939 305.632 95.3364 306.873 90.9045C307.177 89.8186 306.965 89.3714 305.854 89.0769C302.978 88.3063 300.134 87.4093 297.279 86.5711C295.828 86.1425 294.715 85.3952 295.262 83.6801C295.804 81.9806 297.126 82.0208 298.574 82.4546C302.659 83.6845 306.749 84.8816 310.841 86.0855L310.843 86.0803Z" fill="white"/>
<path d="M270.883 89.5498C264.198 87.5741 257.508 85.5969 250.823 83.6212C250.37 83.4876 249.917 83.3368 249.461 83.2187C248.052 82.859 247.305 81.9259 247.682 80.5339C248.061 79.1367 249.172 78.7246 250.578 79.1513C252.325 79.6846 254.082 80.1867 255.839 80.706C268.175 84.3516 280.51 87.9972 292.846 91.6428C293.496 91.8349 294.166 91.9988 294.769 92.2902C295.76 92.7638 296.084 93.6565 295.813 94.6675C295.542 95.7008 294.749 96.2409 293.694 96.1949C293.097 96.1709 292.51 95.9355 291.928 95.7634C284.916 93.691 277.903 91.6185 270.895 89.5476L270.883 89.5498Z" fill="white"/>
<path d="M264.431 168.67C262.091 167.979 259.765 167.263 257.415 166.608C255.948 166.198 254.783 165.452 255.253 163.788C255.709 162.148 257.029 162.04 258.538 162.503C263.199 163.926 267.874 165.302 272.558 166.646C273.996 167.06 274.944 167.866 274.532 169.395C274.115 170.939 272.871 171.171 271.443 170.743C269.109 170.036 266.77 169.362 264.431 168.67V168.67Z" fill="white"/>
<path d="M376.51 66.4502C379.74 67.3029 380.603 70.4463 379.933 73.001C379.28 75.4762 376.605 76.6694 373.892 75.8452C371.056 74.9788 369.436 72.2165 370.217 69.5757C370.997 66.9349 373.719 65.5857 376.515 66.4517L376.51 66.4502Z" fill="white"/>
<path d="M391.925 84.5946C389.116 83.7359 387.455 80.939 388.204 78.3284C388.956 75.7075 391.711 74.3794 394.505 75.1597C397.747 76.067 398.623 79.3557 397.975 81.7192C397.308 84.1503 394.56 85.3958 391.925 84.5946V84.5946Z" fill="white"/>
<path d="M357.968 57.4042C361.132 58.3279 362.083 61.2316 361.393 63.967C360.789 66.3548 358.087 67.6364 355.545 66.9417C352.692 66.1549 350.891 63.2205 351.64 60.5704C352.365 58.0036 355.189 56.5942 357.968 57.4042Z" fill="white"/>
</svg>
