<svg width="50" height="50" viewBox="0 0 50 50" fill="none" xmlns="http://www.w3.org/2000/svg">
<g clip-path="url(#clip0_155_165)">
<path d="M45.4674 0H4.53262C2.0293 0 0 2.0293 0 4.53262V45.4674C0 47.9707 2.0293 50 4.53262 50H45.4674C47.9707 50 50 47.9707 50 45.4674V4.53262C50 2.0293 47.9707 0 45.4674 0Z" fill="#DC395F"/>
<path d="M16.71 15.7318C18.3721 15.7318 19.7645 14.4291 19.7645 12.7217C19.7645 11.0154 18.3721 9.71289 16.71 9.71289C15.0479 9.71289 13.6559 11.0154 13.6559 12.7217C13.6559 14.4289 15.0479 15.7318 16.71 15.7318ZM10.3768 31.8491C10.1973 32.6127 10.1072 33.4374 10.1072 34.11C10.1072 36.7606 11.5445 38.5202 14.599 38.5202C17.1322 38.5202 19.1859 37.0159 20.6646 34.5868L19.7617 38.2104H24.792L27.667 26.6793C28.3857 23.7598 29.7781 22.2444 31.8895 22.2444C33.5514 22.2444 34.5844 23.278 34.5844 24.9842C34.5844 25.4785 34.5395 26.017 34.3598 26.6012L32.8773 31.9014C32.6527 32.6651 32.5633 33.4291 32.5633 34.1473C32.5633 36.6635 34.0451 38.504 37.1445 38.504C39.7947 38.504 41.9057 36.7979 43.0736 32.7102L41.0975 31.9473C40.1092 34.6858 39.2557 35.1809 38.5818 35.1809C37.908 35.1809 37.5486 34.7321 37.5486 33.8342C37.5486 33.4299 37.6389 32.9813 37.7732 32.4411L39.2109 27.2774C39.5701 26.0649 39.7051 24.9897 39.7051 24.0018C39.7051 20.1389 37.3691 18.1229 34.5394 18.1229C31.8895 18.1229 29.1941 20.5133 27.8469 23.0291L28.8348 18.5135H21.1543L20.0762 22.4908H23.6697L21.4568 31.3502C19.7191 35.2131 16.5271 35.2758 16.1266 35.1862C15.4687 35.0377 15.048 34.7879 15.048 33.9332C15.048 33.4401 15.1379 32.7317 15.3625 31.8776L18.7316 18.5135H10.1973L9.11914 22.4908H12.6674L10.377 31.8491" fill="white"/>
</g>
<defs>
<clipPath id="clip0_155_165">
<rect width="50" height="50" fill="white"/>
</clipPath>
</defs>
</svg>
