<svg width="50" height="50" viewBox="0 0 50 50" fill="none" xmlns="http://www.w3.org/2000/svg">
<path d="M10.9091 3.9897L25 2.5L39.0909 3.9897L50 18.6342L25 47.7464L0 18.6342L10.9091 3.9897Z" fill="#FDB300"/>
<path d="M10.1262 18.6338L25 47.746L0 18.6338H10.1262Z" fill="#EA6C00"/>
<path d="M39.8738 18.6338L25 47.746L50 18.6338H39.8738Z" fill="#EA6C00"/>
<path d="M10.126 18.6338H39.8735L24.9997 47.746L10.126 18.6338Z" fill="#FDAD00"/>
<path d="M24.9997 2.5L10.9088 3.98968L10.126 18.6342L24.9997 2.5Z" fill="#FDD231"/>
<path d="M25.0003 2.5L39.0912 3.98968L39.874 18.6342L25.0003 2.5Z" fill="#FDD231"/>
<path d="M50 18.6337L39.0908 3.98926L39.8738 18.6337H50Z" fill="#FDAD00"/>
<path d="M0 18.6337L10.909 3.98926L10.1262 18.6337H0Z" fill="#FDAD00"/>
<path d="M24.9997 2.5L10.126 18.6342H39.8735L24.9997 2.5Z" fill="#FEEEB7"/>
</svg>
