<svg width="50" height="50" viewBox="0 0 50 50" fill="none" xmlns="http://www.w3.org/2000/svg">
<g clip-path="url(#clip0_155_156)">
<rect width="80" height="80" fill="black"/>
<path d="M7.9728 17.373V28.1569C7.9728 28.619 7.9728 29.0812 8.01131 29.5049C8.04983 29.9285 8.12686 30.3136 8.2424 30.6217C8.39645 30.9299 8.58902 31.1609 8.89713 31.3535C9.16672 31.5461 9.59038 31.6231 10.1296 31.6231C10.9769 31.6231 11.5931 31.3535 11.9012 30.8528C12.2093 30.3522 12.4019 29.4663 12.4019 28.2724V17.373H14.0965V28.1569C14.0965 28.4265 14.0965 28.7346 14.058 29.1197C14.058 29.4663 13.9809 29.8515 13.9424 30.1981C13.8654 30.5447 13.7499 30.9299 13.5958 31.2765C13.4417 31.6231 13.2107 31.9312 12.9026 32.2008C12.5944 32.4704 12.2478 32.7015 11.7857 32.8555C11.3235 33.0096 10.7843 33.1251 10.0911 33.1251C9.12821 33.1251 8.39645 32.9711 7.85726 32.663C7.31807 32.3549 6.93293 31.9697 6.70185 31.5076C6.47077 31.0454 6.31671 30.5062 6.2782 29.9285C6.23969 29.3508 6.20117 28.7731 6.20117 28.1954V17.4116H7.9728V17.373V17.373Z" fill="white"/>
<path d="M15.6756 17.373H17.5628L19.6425 22.919L21.7993 17.373H23.5324L20.4898 24.4596L23.9175 32.7785H21.9148L19.4499 26.3852L16.9851 32.817H15.252L18.6412 24.7677L15.6756 17.373Z" fill="white"/>
<path d="M25.4199 17.373H28.424C29.2328 17.373 29.926 17.4501 30.5037 17.6041C31.0429 17.7582 31.5436 18.1048 31.9672 18.6055C32.0828 18.7595 32.1983 18.9136 32.3139 19.1062C32.4294 19.2987 32.545 19.5298 32.6605 19.7994C32.776 20.069 32.8531 20.3771 32.8916 20.7237C32.9686 21.0704 32.9686 21.494 32.9686 21.9562C32.9686 22.5724 32.8916 23.1501 32.7375 23.6893C32.5835 24.2285 32.3524 24.7292 32.0058 25.1528C31.6591 25.5765 31.2355 25.8846 30.6963 26.1542C30.1571 26.3852 29.5024 26.5008 28.6936 26.5008H27.1916V32.7785H25.4199C25.4199 32.7785 25.4199 17.373 25.4199 17.373ZM27.1916 25.0373H28.6551C29.0017 25.0373 29.3483 24.9988 29.6564 24.9217C29.9645 24.8447 30.2341 24.6906 30.4652 24.4981C30.6963 24.267 30.8889 23.9589 31.0044 23.5737C31.1199 23.1886 31.197 22.6494 31.197 22.0332C31.197 21.2629 31.0814 20.6467 30.8889 20.2231C30.6963 19.7994 30.4267 19.4913 30.1571 19.2987C29.8875 19.1062 29.5794 18.9906 29.2713 18.9521C28.9632 18.9136 28.7321 18.9136 28.501 18.9136H27.153V25.0373H27.1916Z" fill="white"/>
<path d="M36.0495 17.373V19.3372H34.3164V17.373H36.0495ZM34.3934 21.3785H35.9725V32.7785H34.3934V21.3785Z" fill="white"/>
<path d="M37.7822 21.378H39.2457V23.1111C39.2843 22.9956 39.3613 22.803 39.4768 22.5719C39.5924 22.3408 39.7464 22.1098 39.939 21.9172C40.1316 21.6861 40.4012 21.4935 40.6708 21.3395C40.9789 21.1854 41.3255 21.1084 41.7491 21.1084C42.2498 21.1084 42.6735 21.2239 43.0201 21.4165C43.3667 21.6476 43.6748 21.9172 43.8289 22.2638C44.0214 22.6104 44.137 23.0726 44.1755 23.6888C44.214 24.2665 44.214 24.8827 44.214 25.5375V32.778H42.6735V25.576C42.6735 25.2294 42.6735 24.8827 42.6349 24.4976C42.6349 24.151 42.5579 23.8429 42.4809 23.5348C42.4039 23.2652 42.2498 23.0341 42.0572 22.8415C41.8647 22.6489 41.5951 22.5719 41.2485 22.5719C40.8248 22.5719 40.5167 22.6875 40.2471 22.9571C40.016 23.2267 39.8235 23.5348 39.7079 23.8814C39.5924 24.2665 39.5153 24.6517 39.4768 25.0753C39.4383 25.499 39.4383 25.8841 39.4383 26.1922V32.778H37.8593V21.378H37.7822Z" fill="white"/>
</g>
<defs>
<clipPath id="clip0_155_156">
<rect width="50" height="50" fill="white"/>
</clipPath>
</defs>
</svg>
