<svg width="52" height="50" viewBox="0 0 52 50" fill="none" xmlns="http://www.w3.org/2000/svg">
<path d="M9.0812 0H42.2009C47.2222 0 51.2821 4.05983 51.2821 9.0812V40.9188C51.2821 45.9402 47.2222 50 42.2009 50H9.0812C4.05983 50 0 45.9402 0 40.9188V9.0812C0 4.05983 4.05983 0 9.0812 0Z" fill="#470137"/>
<path d="M26.9672 13.1408L20.557 23.7177L27.3946 34.9357C27.4373 35.0212 27.4587 35.1066 27.4373 35.1921C27.416 35.2776 27.3305 35.2135 27.2023 35.2348H22.3091C21.9672 35.2348 21.7322 35.2135 21.5826 34.9998C21.1339 34.1024 20.6638 33.2263 20.2151 32.3289C19.7664 31.4528 19.2749 30.5554 18.7621 29.6366C18.2493 28.7177 17.7365 27.7989 17.2237 26.8588H17.1809C16.7322 27.7776 16.2407 28.6964 15.7493 29.6152C15.2578 30.534 14.7664 31.4528 14.2963 32.3502C13.8048 33.2477 13.3134 34.1665 12.8219 35.0425C12.7365 35.2562 12.5655 35.2776 12.3305 35.2776H7.62964C7.54416 35.2776 7.48006 35.3203 7.48006 35.2135C7.45869 35.128 7.48006 35.0425 7.5228 34.9784L14.1681 24.081L7.69374 13.1195C7.62963 13.034 7.60827 12.9485 7.651 12.9058C7.69374 12.8417 7.77921 12.8203 7.86468 12.8203H12.7151C12.8219 12.8203 12.9288 12.8417 13.0143 12.863C13.0997 12.9058 13.1638 12.9699 13.2279 13.0554C13.6339 13.9742 14.104 14.893 14.5954 15.8118C15.1083 16.7306 15.5997 17.628 16.1339 18.5254C16.6467 19.4229 17.1168 20.3203 17.5655 21.2391H17.6083C18.057 20.2989 18.5271 19.3801 18.9972 18.4827C19.4672 17.5853 19.9587 16.6878 20.4501 15.7904C20.9416 14.893 21.4117 13.9742 21.8818 13.0981C21.9031 13.0126 21.9459 12.9271 22.01 12.8844C22.0954 12.8417 22.1809 12.8203 22.2878 12.8417H26.7963C26.9031 12.8203 27.01 12.8844 27.0313 12.9913C27.0527 13.0126 27.01 13.0981 26.9672 13.1408Z" fill="#FF61F6"/>
<path d="M36.8393 35.6835C35.2581 35.7049 33.6769 35.3844 32.2453 34.722C30.8991 34.1023 29.788 33.0767 29.0188 31.816C28.2282 30.5126 27.8436 28.8887 27.8436 26.9442C27.8222 25.363 28.2282 23.8032 29.0188 22.4357C29.8308 21.0468 31.006 19.893 32.4162 19.1237C33.912 18.2904 35.7068 17.8844 37.8222 17.8844C37.929 17.8844 38.0786 17.8844 38.2709 17.9058C38.4632 17.9271 38.6769 17.9271 38.9333 17.9485V11.1964C38.9333 11.0468 38.9974 10.9613 39.147 10.9613H43.4846C43.5914 10.94 43.6769 11.0254 43.6983 11.1109C43.6983 11.1323 43.6983 11.1536 43.6983 11.1536V31.4955C43.6983 31.8801 43.7196 32.3075 43.741 32.7776C43.7837 33.2263 43.8051 33.6536 43.8265 34.0169C43.8265 34.1665 43.7624 34.2947 43.6128 34.3588C42.5017 34.8288 41.3265 35.1707 40.1299 35.3844C39.0402 35.5767 37.9504 35.6835 36.8393 35.6835ZM38.9333 31.41V22.0083C38.741 21.9656 38.5487 21.9229 38.3564 21.9015C38.1214 21.8801 37.8863 21.8588 37.6513 21.8588C36.8179 21.8588 35.9846 22.0297 35.2367 22.4143C34.5102 22.7776 33.8906 23.3118 33.4205 23.9955C32.9504 24.6793 32.7154 25.5981 32.7154 26.7092C32.694 27.4571 32.8222 28.2049 33.0786 28.91C33.2923 29.487 33.6128 29.9998 34.0402 30.4271C34.4461 30.8118 34.9376 31.1109 35.4932 31.2818C36.0701 31.4741 36.6684 31.5596 37.2667 31.5596C37.5872 31.5596 37.8863 31.5382 38.1641 31.5169C38.4419 31.5382 38.6769 31.4955 38.9333 31.41Z" fill="#FF61F6"/>
</svg>
